<svg width="656" height="67" viewBox="0 0 656 67" fill="none" xmlns="http://www.w3.org/2000/svg">
<path d="M35 0.577351C35.6188 0.220085 36.3812 0.220085 37 0.57735L52.3205 9.42265C52.9393 9.77991 53.3205 10.4402 53.3205 11.1547V28.8453C53.3205 29.5598 52.9393 30.2201 52.3205 30.5774L37 39.4226C36.3812 39.7799 35.6188 39.7799 35 39.4226L19.6795 30.5774C19.0607 30.2201 18.6795 29.5598 18.6795 28.8453V11.1547C18.6795 10.4402 19.0607 9.77991 19.6795 9.42265L35 0.577351Z" fill="#156FF7"/>
<path d="M42 16L33.75 24.25L30 20.5" stroke="white" stroke-width="2" stroke-linecap="round" stroke-linejoin="round"/>
<line x1="56" y1="19.5" x2="206.667" y2="19.5" stroke="#156FF7"/>
<path d="M225.917 1.01036C226.381 0.742414 226.953 0.742414 227.417 1.01036L242.738 9.85566C243.202 10.1236 243.488 10.6188 243.488 11.1547V28.8453C243.488 29.3812 243.202 29.8764 242.738 30.1443L227.417 38.9896C226.953 39.2576 226.381 39.2576 225.917 38.9896L210.596 30.1443C210.132 29.8764 209.846 29.3812 209.846 28.8453V11.1547C209.846 10.6188 210.132 10.1236 210.596 9.85566L225.917 1.01036Z" fill="#156FF7" stroke="#156FF7"/>
<path d="M233 16L224.75 24.25L221 20.5" stroke="white" stroke-width="2" stroke-linecap="round" stroke-linejoin="round"/>
<line x1="246.667" y1="19.5" x2="397.334" y2="19.5" stroke="#156FF7"/>
<path d="M416.583 1.01036C417.047 0.742414 417.619 0.742414 418.083 1.01036L433.404 9.85566C433.868 10.1236 434.154 10.6188 434.154 11.1547V28.8453C434.154 29.3812 433.868 29.8764 433.404 30.1443L418.083 38.9896C417.619 39.2576 417.047 39.2576 416.583 38.9896L401.262 30.1443C400.798 29.8764 400.512 29.3812 400.512 28.8453V11.1547C400.512 10.6188 400.798 10.1236 401.262 9.85566L416.583 1.01036Z" fill="#156FF7" stroke="#156FF7"/>
<path d="M424 16L415.75 24.25L412 20.5" stroke="white" stroke-width="2" stroke-linecap="round" stroke-linejoin="round"/>
<line x1="437.333" y1="19.5" x2="588" y2="19.5" stroke="#156FF7"/>
<path d="M607.25 1.01036C607.714 0.742414 608.286 0.742414 608.75 1.01036L624.071 9.85566C624.535 10.1236 624.821 10.6188 624.821 11.1547V28.8453C624.821 29.3812 624.535 29.8764 624.071 30.1443L608.75 38.9896C608.286 39.2576 607.714 39.2576 607.25 38.9896L591.929 30.1443C591.465 29.8764 591.179 29.3812 591.179 28.8453V11.1547C591.179 10.6188 591.465 10.1236 591.929 9.85566L607.25 1.01036Z" stroke="#156FF7"/>
<path d="M604.721 23.1108V21.6442L609.041 14.8182H610.264V16.9062H609.518L606.61 21.5149V21.5945H612.641V23.1108H604.721ZM609.578 25V22.6634L609.598 22.0071V14.8182H611.338V25H609.578Z" fill="#156FF7"/>
<path opacity="0.4" d="M13.4699 53.5323C13.3806 53.2522 13.2606 53.0014 13.1098 52.7798C12.962 52.5552 12.7851 52.3643 12.5789 52.2074C12.3727 52.0473 12.1372 51.9258 11.8726 51.8427C11.611 51.7596 11.3232 51.718 11.0093 51.718C10.4768 51.718 9.99673 51.855 9.56894 52.1289C9.14114 52.4028 8.8026 52.8045 8.55331 53.3338C8.3071 53.8601 8.18399 54.5049 8.18399 55.2681C8.18399 56.0344 8.30864 56.6823 8.55793 57.2116C8.80722 57.741 9.14884 58.1426 9.58279 58.4165C10.0167 58.6905 10.5107 58.8274 11.0647 58.8274C11.5786 58.8274 12.0264 58.7228 12.4081 58.5135C12.7928 58.3042 13.0898 58.0088 13.2991 57.6271C13.5114 57.2424 13.6176 56.79 13.6176 56.2699L13.9869 56.3391H11.2816V55.1619H14.9979V56.2376C14.9979 57.0316 14.8286 57.721 14.4901 58.3058C14.1546 58.8874 13.6899 59.3368 13.0959 59.6538C12.505 59.9708 11.8279 60.1293 11.0647 60.1293C10.2091 60.1293 9.45814 59.9323 8.81183 59.5384C8.16861 59.1444 7.66695 58.5858 7.30686 57.8626C6.94678 57.1362 6.76673 56.2745 6.76673 55.2773C6.76673 54.5233 6.87137 53.8462 7.08066 53.2461C7.28994 52.646 7.58385 52.1366 7.9624 51.718C8.34403 51.2964 8.79183 50.9748 9.3058 50.7532C9.82284 50.5285 10.3876 50.4162 11 50.4162C11.5109 50.4162 11.9864 50.4916 12.4265 50.6424C12.8697 50.7932 13.2637 51.0071 13.6084 51.2841C13.9561 51.5611 14.2439 51.8904 14.4716 52.272C14.6994 52.6506 14.8533 53.0707 14.9333 53.5323H13.4699ZM16.8087 60V50.5455H22.7363V51.7734H18.2352V54.6541H22.427V55.8775H18.2352V58.772H22.7917V60H16.8087ZM32.2728 50.5455V60H30.9617L26.1559 53.0661H26.0682V60H24.6417V50.5455H25.962L30.7724 57.4886H30.8601V50.5455H32.2728ZM34.3536 60V50.5455H40.2812V51.7734H35.7801V54.6541H39.9719V55.8775H35.7801V58.772H40.3366V60H34.3536ZM42.1867 60V50.5455H45.5567C46.2892 50.5455 46.897 50.6716 47.3802 50.924C47.8665 51.1764 48.2296 51.5257 48.4697 51.9719C48.7097 52.4151 48.8298 52.9276 48.8298 53.5092C48.8298 54.0878 48.7082 54.5972 48.4651 55.0373C48.225 55.4743 47.8618 55.8144 47.3756 56.0575C46.8924 56.3007 46.2845 56.4222 45.5521 56.4222H42.9992V55.1942H45.4228C45.8845 55.1942 46.2599 55.1281 46.5492 54.9957C46.8416 54.8634 47.0555 54.671 47.1909 54.4187C47.3263 54.1663 47.394 53.8632 47.394 53.5092C47.394 53.1522 47.3248 52.8429 47.1863 52.5813C47.0509 52.3197 46.837 52.1197 46.5446 51.9812C46.2553 51.8396 45.8752 51.7688 45.4043 51.7688H43.6131V60H42.1867ZM46.8539 55.7344L49.1899 60H47.5649L45.2751 55.7344H46.8539ZM51.3642 60H49.85L53.2524 50.5455H54.9004L58.3028 60H56.7886L54.1156 52.2628H54.0418L51.3642 60ZM51.6181 56.2976H56.5301V57.4979H51.6181V56.2976ZM59.6681 60V50.5455H61.0946V58.772H65.3787V60H59.6681Z" fill="#475569"/>
<path opacity="0.4" d="M185.14 53.62H183.7C183.645 53.3123 183.542 53.0414 183.391 52.8075C183.24 52.5736 183.055 52.3751 182.837 52.212C182.618 52.0489 182.374 51.9258 182.103 51.8427C181.835 51.7596 181.55 51.718 181.249 51.718C180.704 51.718 180.216 51.855 179.785 52.1289C179.357 52.4028 179.019 52.8045 178.77 53.3338C178.523 53.8632 178.4 54.5095 178.4 55.2727C178.4 56.0421 178.523 56.6915 178.77 57.2209C179.019 57.7502 179.359 58.1503 179.79 58.4212C180.221 58.692 180.705 58.8274 181.244 58.8274C181.543 58.8274 181.826 58.7874 182.093 58.7074C182.364 58.6243 182.609 58.5027 182.828 58.3427C183.046 58.1826 183.231 57.9872 183.381 57.7564C183.535 57.5225 183.642 57.2547 183.7 56.9531L185.14 56.9577C185.063 57.4225 184.914 57.8503 184.693 58.2411C184.474 58.6289 184.192 58.9644 183.848 59.2475C183.506 59.5276 183.115 59.7446 182.675 59.8984C182.235 60.0523 181.755 60.1293 181.235 60.1293C180.416 60.1293 179.687 59.9354 179.047 59.5476C178.406 59.1567 177.902 58.5981 177.532 57.8718C177.166 57.1455 176.983 56.2791 176.983 55.2727C176.983 54.2633 177.168 53.3969 177.537 52.6737C177.906 51.9473 178.411 51.3903 179.051 51.0025C179.691 50.6116 180.419 50.4162 181.235 50.4162C181.736 50.4162 182.204 50.4885 182.638 50.6332C183.075 50.7747 183.468 50.984 183.815 51.261C184.163 51.5349 184.451 51.8704 184.679 52.2674C184.906 52.6613 185.06 53.1122 185.14 53.62ZM195.06 55.2727C195.06 56.2822 194.875 57.1501 194.506 57.8764C194.137 58.5997 193.63 59.1567 192.987 59.5476C192.347 59.9354 191.619 60.1293 190.804 60.1293C189.985 60.1293 189.254 59.9354 188.611 59.5476C187.971 59.1567 187.466 58.5981 187.097 57.8718C186.727 57.1455 186.543 56.2791 186.543 55.2727C186.543 54.2633 186.727 53.3969 187.097 52.6737C187.466 51.9473 187.971 51.3903 188.611 51.0025C189.254 50.6116 189.985 50.4162 190.804 50.4162C191.619 50.4162 192.347 50.6116 192.987 51.0025C193.63 51.3903 194.137 51.9473 194.506 52.6737C194.875 53.3969 195.06 54.2633 195.06 55.2727ZM193.647 55.2727C193.647 54.5033 193.523 53.8555 193.273 53.3292C193.027 52.7998 192.689 52.3997 192.258 52.1289C191.83 51.855 191.345 51.718 190.804 51.718C190.259 51.718 189.773 51.855 189.345 52.1289C188.917 52.3997 188.578 52.7998 188.329 53.3292C188.083 53.8555 187.96 54.5033 187.96 55.2727C187.96 56.0421 188.083 56.6915 188.329 57.2209C188.578 57.7472 188.917 58.1473 189.345 58.4212C189.773 58.692 190.259 58.8274 190.804 58.8274C191.345 58.8274 191.83 58.692 192.258 58.4212C192.689 58.1473 193.027 57.7472 193.273 57.2209C193.523 56.6915 193.647 56.0421 193.647 55.2727ZM204.47 50.5455V60H203.158L198.353 53.0661H198.265V60H196.839V50.5455H198.159L202.969 57.4886H203.057V50.5455H204.47ZM206.084 51.7734V50.5455H213.401V51.7734H210.451V60H209.029V51.7734H206.084ZM215.018 60V50.5455H218.388C219.121 50.5455 219.729 50.6716 220.212 50.924C220.698 51.1764 221.061 51.5257 221.301 51.9719C221.541 52.4151 221.661 52.9276 221.661 53.5092C221.661 54.0878 221.54 54.5972 221.297 55.0373C221.057 55.4743 220.693 55.8144 220.207 56.0575C219.724 56.3007 219.116 56.4222 218.384 56.4222H215.831V55.1942H218.254C218.716 55.1942 219.091 55.1281 219.381 54.9957C219.673 54.8634 219.887 54.671 220.022 54.4187C220.158 54.1663 220.226 53.8632 220.226 53.5092C220.226 53.1522 220.156 52.8429 220.018 52.5813C219.882 52.3197 219.669 52.1197 219.376 51.9812C219.087 51.8396 218.707 51.7688 218.236 51.7688H216.445V60H215.018ZM219.685 55.7344L222.021 60H220.396L218.107 55.7344H219.685ZM224.824 50.5455V60H223.397V50.5455H224.824ZM226.901 60V50.5455H230.363C231.034 50.5455 231.59 50.6562 232.03 50.8778C232.47 51.0964 232.799 51.3933 233.018 51.7688C233.236 52.1412 233.346 52.5613 233.346 53.0291C233.346 53.4231 233.273 53.7554 233.129 54.0263C232.984 54.294 232.79 54.5095 232.547 54.6726C232.307 54.8326 232.042 54.9496 231.753 55.0234V55.1158C232.067 55.1312 232.373 55.2327 232.672 55.4205C232.973 55.6051 233.223 55.8683 233.419 56.2099C233.616 56.5515 233.715 56.967 233.715 57.4563C233.715 57.9395 233.601 58.3735 233.373 58.7582C233.149 59.1398 232.801 59.4429 232.33 59.6676C231.859 59.8892 231.257 60 230.525 60H226.901ZM228.328 58.7766H230.386C231.07 58.7766 231.559 58.6443 231.854 58.3796C232.15 58.1149 232.298 57.7841 232.298 57.3871C232.298 57.0885 232.222 56.8146 232.071 56.5653C231.921 56.3161 231.705 56.1175 231.425 55.9698C231.148 55.8221 230.819 55.7482 230.437 55.7482H228.328V58.7766ZM228.328 54.6357H230.239C230.559 54.6357 230.847 54.5741 231.102 54.451C231.361 54.3279 231.565 54.1555 231.716 53.9339C231.87 53.7093 231.947 53.4446 231.947 53.1399C231.947 52.7491 231.81 52.4213 231.536 52.1566C231.262 51.8919 230.842 51.7596 230.276 51.7596H228.328V54.6357ZM241.487 50.5455H242.918V56.7638C242.918 57.4255 242.762 58.0118 242.452 58.5227C242.141 59.0305 241.704 59.4306 241.141 59.723C240.577 60.0123 239.917 60.157 239.16 60.157C238.406 60.157 237.747 60.0123 237.184 59.723C236.621 59.4306 236.184 59.0305 235.873 58.5227C235.562 58.0118 235.407 57.4255 235.407 56.7638V50.5455H236.833V56.6484C236.833 57.0762 236.927 57.4563 237.115 57.7887C237.306 58.1211 237.575 58.3827 237.923 58.5735C238.271 58.7612 238.683 58.8551 239.16 58.8551C239.64 58.8551 240.054 58.7612 240.402 58.5735C240.753 58.3827 241.021 58.1211 241.205 57.7887C241.393 57.4563 241.487 57.0762 241.487 56.6484V50.5455ZM244.526 51.7734V50.5455H251.843V51.7734H248.893V60H247.471V51.7734H244.526ZM261.266 55.2727C261.266 56.2822 261.081 57.1501 260.712 57.8764C260.343 58.5997 259.837 59.1567 259.193 59.5476C258.553 59.9354 257.825 60.1293 257.01 60.1293C256.191 60.1293 255.46 59.9354 254.817 59.5476C254.177 59.1567 253.672 58.5981 253.303 57.8718C252.933 57.1455 252.749 56.2791 252.749 55.2727C252.749 54.2633 252.933 53.3969 253.303 52.6737C253.672 51.9473 254.177 51.3903 254.817 51.0025C255.46 50.6116 256.191 50.4162 257.01 50.4162C257.825 50.4162 258.553 50.6116 259.193 51.0025C259.837 51.3903 260.343 51.9473 260.712 52.6737C261.081 53.3969 261.266 54.2633 261.266 55.2727ZM259.853 55.2727C259.853 54.5033 259.729 53.8555 259.479 53.3292C259.233 52.7998 258.895 52.3997 258.464 52.1289C258.036 51.855 257.551 51.718 257.01 51.718C256.465 51.718 255.979 51.855 255.551 52.1289C255.123 52.3997 254.785 52.7998 254.535 53.3292C254.289 53.8555 254.166 54.5033 254.166 55.2727C254.166 56.0421 254.289 56.6915 254.535 57.2209C254.785 57.7472 255.123 58.1473 255.551 58.4212C255.979 58.692 256.465 58.8274 257.01 58.8274C257.551 58.8274 258.036 58.692 258.464 58.4212C258.895 58.1473 259.233 57.7472 259.479 57.2209C259.729 56.6915 259.853 56.0421 259.853 55.2727ZM263.045 60V50.5455H266.415C267.147 50.5455 267.755 50.6716 268.238 50.924C268.724 51.1764 269.088 51.5257 269.328 51.9719C269.568 52.4151 269.688 52.9276 269.688 53.5092C269.688 54.0878 269.566 54.5972 269.323 55.0373C269.083 55.4743 268.72 55.8144 268.233 56.0575C267.75 56.3007 267.142 56.4222 266.41 56.4222H263.857V55.1942H266.281C266.742 55.1942 267.118 55.1281 267.407 54.9957C267.7 54.8634 267.913 54.671 268.049 54.4187C268.184 54.1663 268.252 53.8632 268.252 53.5092C268.252 53.1522 268.183 52.8429 268.044 52.5813C267.909 52.3197 267.695 52.1197 267.403 51.9812C267.113 51.8396 266.733 51.7688 266.262 51.7688H264.471V60H263.045ZM267.712 55.7344L270.048 60H268.423L266.133 55.7344H267.712ZM276.58 53.0291C276.531 52.5921 276.328 52.2536 275.971 52.0135C275.614 51.7704 275.164 51.6488 274.623 51.6488C274.235 51.6488 273.899 51.7103 273.616 51.8335C273.333 51.9535 273.113 52.1197 272.956 52.332C272.802 52.5413 272.725 52.7798 272.725 53.0476C272.725 53.2723 272.778 53.4661 272.882 53.6293C272.99 53.7924 273.13 53.9293 273.302 54.0401C273.478 54.1478 273.666 54.2386 273.866 54.3125C274.066 54.3833 274.258 54.4418 274.443 54.4879L275.366 54.728C275.668 54.8018 275.977 54.9019 276.294 55.0281C276.611 55.1542 276.905 55.3204 277.176 55.5266C277.446 55.7328 277.665 55.9883 277.831 56.293C278 56.5977 278.085 56.9624 278.085 57.3871C278.085 57.9226 277.947 58.3981 277.67 58.8136C277.396 59.229 276.997 59.5568 276.474 59.7969C275.954 60.0369 275.324 60.157 274.586 60.157C273.878 60.157 273.265 60.0446 272.748 59.82C272.231 59.5953 271.827 59.2768 271.534 58.8643C271.242 58.4489 271.08 57.9564 271.05 57.3871H272.481C272.508 57.7287 272.619 58.0134 272.813 58.2411C273.01 58.4658 273.261 58.6335 273.566 58.7443C273.873 58.852 274.21 58.9059 274.577 58.9059C274.98 58.9059 275.338 58.8428 275.652 58.7166C275.969 58.5874 276.218 58.4089 276.4 58.1811C276.582 57.9503 276.672 57.681 276.672 57.3732C276.672 57.0932 276.592 56.8639 276.432 56.6854C276.275 56.5069 276.061 56.3591 275.791 56.2422C275.523 56.1252 275.22 56.0221 274.881 55.9329L273.764 55.6282C273.007 55.422 272.407 55.1188 271.964 54.7188C271.523 54.3187 271.303 53.7893 271.303 53.1307C271.303 52.5859 271.451 52.1104 271.747 51.7042C272.042 51.2979 272.442 50.9825 272.947 50.7578C273.452 50.5301 274.021 50.4162 274.655 50.4162C275.295 50.4162 275.86 50.5285 276.349 50.7532C276.842 50.9779 277.229 51.2872 277.513 51.6811C277.796 52.072 277.943 52.5213 277.956 53.0291H276.58Z" fill="#475569"/>
<path opacity="0.4" d="M408.313 60V50.5455H409.739V55.0604H409.855L413.82 50.5455H415.616L411.803 54.8018L415.63 60H413.912L410.856 55.7759L409.739 57.0593V60H408.313ZM416.945 60V50.5455H420.315C421.051 50.5455 421.66 50.6793 422.144 50.9471C422.627 51.2148 422.988 51.5811 423.228 52.0458C423.469 52.5075 423.589 53.0276 423.589 53.6062C423.589 54.1879 423.467 54.7111 423.224 55.1758C422.984 55.6374 422.621 56.0037 422.134 56.2745C421.651 56.5423 421.043 56.6761 420.311 56.6761H417.993V55.4666H420.182C420.646 55.4666 421.023 55.3866 421.313 55.2266C421.602 55.0634 421.814 54.8419 421.95 54.5618C422.085 54.2817 422.153 53.9632 422.153 53.6062C422.153 53.2492 422.085 52.9322 421.95 52.6552C421.814 52.3782 421.6 52.1612 421.308 52.0043C421.019 51.8473 420.637 51.7688 420.163 51.7688H418.372V60H416.945ZM426.687 50.5455V60H425.261V50.5455H426.687Z" fill="#475569"/>
<path d="M561.952 47.5455H564.048L566.855 54.3963H566.966L569.772 47.5455H571.868V57H570.225V50.5046H570.137L567.524 56.9723H566.296L563.683 50.4908H563.596V57H561.952V47.5455ZM582.181 52.2727C582.181 53.2914 581.991 54.1639 581.609 54.8903C581.23 55.6135 580.713 56.1675 580.058 56.5522C579.405 56.9369 578.665 57.1293 577.837 57.1293C577.009 57.1293 576.268 56.9369 575.612 56.5522C574.96 56.1644 574.443 55.6089 574.061 54.8857C573.683 54.1593 573.493 53.2884 573.493 52.2727C573.493 51.254 573.683 50.383 574.061 49.6598C574.443 48.9335 574.96 48.378 575.612 47.9933C576.268 47.6085 577.009 47.4162 577.837 47.4162C578.665 47.4162 579.405 47.6085 580.058 47.9933C580.713 48.378 581.23 48.9335 581.609 49.6598C581.991 50.383 582.181 51.254 582.181 52.2727ZM580.46 52.2727C580.46 51.5556 580.347 50.9509 580.123 50.4585C579.901 49.9629 579.593 49.589 579.199 49.3366C578.805 49.0812 578.351 48.9535 577.837 48.9535C577.323 48.9535 576.869 49.0812 576.475 49.3366C576.082 49.589 575.772 49.9629 575.548 50.4585C575.326 50.9509 575.215 51.5556 575.215 52.2727C575.215 52.9898 575.326 53.5961 575.548 54.0916C575.772 54.584 576.082 54.958 576.475 55.2134C576.869 55.4658 577.323 55.592 577.837 55.592C578.351 55.592 578.805 55.4658 579.199 55.2134C579.593 54.958 579.901 54.584 580.123 54.0916C580.347 53.5961 580.46 52.9898 580.46 52.2727ZM583.801 57V47.5455H587.346C588.072 47.5455 588.682 47.6716 589.174 47.924C589.67 48.1764 590.044 48.5303 590.296 48.9858C590.552 49.4382 590.679 49.966 590.679 50.5692C590.679 51.1755 590.55 51.7018 590.291 52.1481C590.036 52.5913 589.659 52.9344 589.16 53.1776C588.662 53.4176 588.049 53.5376 587.323 53.5376H584.798V52.1158H587.092C587.517 52.1158 587.865 52.0573 588.136 51.9403C588.406 51.8203 588.606 51.6464 588.736 51.4187C588.868 51.1879 588.934 50.9047 588.934 50.5692C588.934 50.2338 588.868 49.9476 588.736 49.7106C588.603 49.4705 588.402 49.2889 588.131 49.1658C587.86 49.0397 587.511 48.9766 587.083 48.9766H585.513V57H583.801ZM588.685 52.7159L591.025 57H589.114L586.815 52.7159H588.685ZM592.256 57V47.5455H598.405V48.9812H593.968V51.5479H598.086V52.9837H593.968V55.5643H598.442V57H592.256ZM606.581 57H603.377V47.5455H606.645C607.584 47.5455 608.39 47.7347 609.064 48.1133C609.741 48.4888 610.262 49.0289 610.625 49.7337C610.988 50.4384 611.169 51.2817 611.169 52.2635C611.169 53.2483 610.986 54.0947 610.62 54.8026C610.257 55.5104 609.732 56.0536 609.046 56.4322C608.363 56.8107 607.541 57 606.581 57ZM605.09 55.5181H606.498C607.156 55.5181 607.706 55.3981 608.146 55.158C608.586 54.9149 608.917 54.5533 609.138 54.0732C609.36 53.59 609.471 52.9867 609.471 52.2635C609.471 51.5402 609.36 50.9401 609.138 50.4631C608.917 49.983 608.589 49.6244 608.155 49.3874C607.724 49.1474 607.189 49.0273 606.548 49.0273H605.09V55.5181ZM612.797 57V47.5455H618.946V48.9812H614.509V51.5479H618.627V52.9837H614.509V55.5643H618.983V57H612.797ZM620.278 48.9812V47.5455H627.821V48.9812H624.899V57H623.2V48.9812H620.278ZM629.347 57H627.519L630.847 47.5455H632.962L636.295 57H634.467L631.941 49.4844H631.867L629.347 57ZM629.407 53.293H634.393V54.6687H629.407V53.293ZM639.253 47.5455V57H637.54V47.5455H639.253ZM641.107 57V47.5455H642.82V55.5643H646.984V57H641.107ZM653.609 50.1445C653.566 49.7414 653.384 49.4274 653.064 49.2028C652.747 48.9781 652.335 48.8658 651.827 48.8658C651.47 48.8658 651.164 48.9196 650.908 49.0273C650.653 49.1351 650.457 49.2812 650.322 49.4659C650.186 49.6506 650.117 49.8614 650.114 50.0984C650.114 50.2953 650.159 50.4661 650.248 50.6108C650.34 50.7554 650.465 50.8786 650.622 50.9801C650.779 51.0786 650.953 51.1617 651.144 51.2294C651.334 51.2971 651.527 51.354 651.721 51.4002L652.607 51.6218C652.964 51.7049 653.307 51.8172 653.636 51.9588C653.969 52.1004 654.266 52.2789 654.527 52.4943C654.792 52.7098 655.001 52.9698 655.155 53.2745C655.309 53.5792 655.386 53.9362 655.386 54.3455C655.386 54.8995 655.245 55.3873 654.961 55.8089C654.678 56.2275 654.269 56.5553 653.733 56.7923C653.201 57.0262 652.556 57.1431 651.799 57.1431C651.064 57.1431 650.425 57.0292 649.883 56.8015C649.345 56.5737 648.923 56.2414 648.618 55.8043C648.317 55.3673 648.154 54.8349 648.129 54.207H649.814C649.839 54.5363 649.94 54.8103 650.119 55.0288C650.297 55.2473 650.53 55.4104 650.816 55.5181C651.105 55.6258 651.428 55.6797 651.785 55.6797C652.158 55.6797 652.484 55.6243 652.764 55.5135C653.047 55.3996 653.269 55.2427 653.429 55.0426C653.589 54.8395 653.67 54.6025 653.673 54.3317C653.67 54.0855 653.598 53.8823 653.456 53.7223C653.315 53.5592 653.116 53.4238 652.861 53.3161C652.609 53.2053 652.313 53.1068 651.975 53.0206L650.899 52.7436C650.12 52.5436 649.505 52.2404 649.052 51.8342C648.603 51.4248 648.378 50.8816 648.378 50.2045C648.378 49.6475 648.529 49.1597 648.831 48.7411C649.135 48.3226 649.549 47.9979 650.073 47.767C650.596 47.5331 651.188 47.4162 651.85 47.4162C652.521 47.4162 653.109 47.5331 653.613 47.767C654.121 47.9979 654.52 48.3195 654.809 48.7319C655.098 49.1412 655.248 49.6121 655.257 50.1445H653.609Z" fill="#156FF7"/>
</svg>
