<svg width="656" height="67" viewBox="0 0 656 67" fill="none" xmlns="http://www.w3.org/2000/svg">
<path d="M35 0.577351C35.6188 0.220085 36.3812 0.220085 37 0.57735L52.3205 9.42265C52.9393 9.77991 53.3205 10.4402 53.3205 11.1547V28.8453C53.3205 29.5598 52.9393 30.2201 52.3205 30.5774L37 39.4226C36.3812 39.7799 35.6188 39.7799 35 39.4226L19.6795 30.5774C19.0607 30.2201 18.6795 29.5598 18.6795 28.8453V11.1547C18.6795 10.4402 19.0607 9.77991 19.6795 9.42265L35 0.577351Z" fill="#156FF7"/>
<path d="M42 16L33.75 24.25L30 20.5" stroke="white" stroke-width="2" stroke-linecap="round" stroke-linejoin="round"/>
<line x1="56" y1="19.5" x2="206.667" y2="19.5" stroke="#156FF7"/>
<path d="M225.917 1.01036C226.381 0.742414 226.953 0.742414 227.417 1.01036L242.737 9.85566C243.201 10.1236 243.487 10.6188 243.487 11.1547V28.8453C243.487 29.3812 243.201 29.8764 242.737 30.1443L227.417 38.9896C226.953 39.2576 226.381 39.2576 225.917 38.9896L210.596 30.1443C210.132 29.8764 209.846 29.3812 209.846 28.8453V11.1547C209.846 10.6188 210.132 10.1236 210.596 9.85566L225.917 1.01036Z" fill="#156FF7" stroke="#156FF7"/>
<path d="M223.572 25V23.6676L227.106 20.2024C227.444 19.861 227.726 19.5578 227.951 19.2926C228.177 19.0275 228.346 18.7706 228.459 18.522C228.571 18.2734 228.628 18.0083 228.628 17.7266C228.628 17.4051 228.555 17.13 228.409 16.9013C228.263 16.6693 228.063 16.4903 227.807 16.3643C227.552 16.2384 227.262 16.1754 226.937 16.1754C226.603 16.1754 226.309 16.245 226.057 16.3842C225.805 16.5201 225.61 16.714 225.471 16.9659C225.335 17.2178 225.267 17.5178 225.267 17.8658H223.512C223.512 17.2195 223.659 16.6577 223.954 16.1804C224.249 15.7031 224.655 15.3336 225.172 15.0717C225.693 14.8099 226.289 14.679 226.962 14.679C227.645 14.679 228.245 14.8066 228.762 15.0618C229.279 15.317 229.68 15.6667 229.965 16.1108C230.253 16.5549 230.398 17.062 230.398 17.6321C230.398 18.0133 230.325 18.3878 230.179 18.7557C230.033 19.1236 229.776 19.5312 229.408 19.9787C229.044 20.4261 228.532 20.968 227.872 21.6044L226.117 23.3892V23.4588H230.552V25H223.572Z" fill="white"/>
<line x1="246.667" y1="19.5" x2="397.333" y2="19.5" stroke="#156FF7"/>
<path d="M416.583 1.01036C417.047 0.742414 417.619 0.742414 418.083 1.01036L433.404 9.85566C433.868 10.1236 434.154 10.6188 434.154 11.1547V28.8453C434.154 29.3812 433.868 29.8764 433.404 30.1443L418.083 38.9896C417.619 39.2576 417.047 39.2576 416.583 38.9896L401.263 30.1443C400.799 29.8764 400.513 29.3812 400.513 28.8453V11.1547C400.513 10.6188 400.799 10.1236 401.263 9.85566L416.583 1.01036Z" stroke="#156FF7"/>
<path d="M417.892 25.1392C417.176 25.1392 416.54 25.0166 415.983 24.7713C415.43 24.526 414.992 24.1847 414.671 23.7472C414.349 23.3097 414.178 22.8042 414.159 22.2308H416.028C416.044 22.5059 416.136 22.7462 416.301 22.9517C416.467 23.1539 416.687 23.3113 416.963 23.424C417.238 23.5367 417.546 23.593 417.887 23.593C418.252 23.593 418.575 23.5301 418.857 23.4041C419.138 23.2749 419.359 23.0959 419.518 22.8672C419.677 22.6385 419.755 22.375 419.752 22.0767C419.755 21.7685 419.675 21.4967 419.513 21.2614C419.351 21.026 419.115 20.8421 418.807 20.7095C418.502 20.5769 418.134 20.5107 417.703 20.5107H416.803V19.0888H417.703C418.058 19.0888 418.368 19.0275 418.633 18.9048C418.901 18.7822 419.112 18.6098 419.264 18.3878C419.417 18.1624 419.491 17.9022 419.488 17.6072C419.491 17.3189 419.427 17.0687 419.294 16.8565C419.165 16.6411 418.981 16.4737 418.742 16.3544C418.507 16.2351 418.23 16.1754 417.912 16.1754C417.601 16.1754 417.312 16.2318 417.047 16.3445C416.782 16.4571 416.568 16.6179 416.406 16.8267C416.243 17.0322 416.157 17.2775 416.147 17.5625H414.372C414.386 16.9924 414.55 16.492 414.865 16.0611C415.183 15.6269 415.607 15.2888 416.137 15.0469C416.668 14.8016 417.263 14.679 417.922 14.679C418.602 14.679 419.192 14.8066 419.692 15.0618C420.196 15.3137 420.585 15.6534 420.86 16.081C421.135 16.5085 421.273 16.9808 421.273 17.4979C421.276 18.0713 421.107 18.5518 420.766 18.9396C420.428 19.3274 419.984 19.581 419.433 19.7003V19.7798C420.149 19.8793 420.698 20.1444 421.079 20.5753C421.464 21.0028 421.654 21.5348 421.651 22.1712C421.651 22.7412 421.488 23.2517 421.164 23.7024C420.842 24.1499 420.398 24.5012 419.831 24.7564C419.268 25.0116 418.621 25.1392 417.892 25.1392Z" fill="#156FF7"/>
<line x1="437.333" y1="19.5" x2="588" y2="19.5" stroke="#156FF7"/>
<path d="M607.25 1.01036C607.714 0.742414 608.286 0.742414 608.75 1.01036L624.071 9.85566C624.535 10.1236 624.821 10.6188 624.821 11.1547V28.8453C624.821 29.3812 624.535 29.8764 624.071 30.1443L608.75 38.9896C608.286 39.2576 607.714 39.2576 607.25 38.9896L591.929 30.1443C591.465 29.8764 591.179 29.3812 591.179 28.8453V11.1547C591.179 10.6188 591.465 10.1236 591.929 9.85566L607.25 1.01036Z" stroke="#156FF7"/>
<path d="M604.721 23.1108V21.6442L609.041 14.8182H610.264V16.9062H609.518L606.61 21.5149V21.5945H612.641V23.1108H604.721ZM609.578 25V22.6634L609.598 22.0071V14.8182H611.338V25H609.578Z" fill="#156FF7"/>
<path d="M184.438 53.7354H182.711C182.662 53.4523 182.571 53.2015 182.439 52.983C182.307 52.7614 182.142 52.5736 181.945 52.4197C181.748 52.2659 181.523 52.1504 181.271 52.0735C181.022 51.9935 180.752 51.9535 180.463 51.9535C179.949 51.9535 179.494 52.0827 179.097 52.3413C178.7 52.5967 178.389 52.9722 178.164 53.4677C177.939 53.9601 177.827 54.5618 177.827 55.2727C177.827 55.996 177.939 56.6054 178.164 57.1009C178.392 57.5933 178.703 57.9657 179.097 58.218C179.494 58.4673 179.948 58.592 180.458 58.592C180.742 58.592 181.006 58.555 181.252 58.4812C181.502 58.4042 181.725 58.2919 181.922 58.1442C182.122 57.9964 182.29 57.8149 182.425 57.5994C182.564 57.384 182.659 57.1378 182.711 56.8608L184.438 56.87C184.373 57.3194 184.233 57.741 184.018 58.1349C183.805 58.5289 183.527 58.8767 183.182 59.1783C182.837 59.4768 182.434 59.7107 181.973 59.88C181.511 60.0462 180.999 60.1293 180.435 60.1293C179.604 60.1293 178.863 59.9369 178.21 59.5522C177.558 59.1675 177.044 58.612 176.668 57.8857C176.293 57.1593 176.105 56.2884 176.105 55.2727C176.105 54.254 176.294 53.383 176.673 52.6598C177.051 51.9335 177.567 51.378 178.219 50.9933C178.872 50.6085 179.611 50.4162 180.435 50.4162C180.962 50.4162 181.451 50.4901 181.903 50.6378C182.356 50.7855 182.759 51.0025 183.113 51.2887C183.467 51.5719 183.758 51.9196 183.985 52.332C184.216 52.7414 184.367 53.2092 184.438 53.7354ZM194.454 55.2727C194.454 56.2914 194.264 57.1639 193.882 57.8903C193.503 58.6135 192.986 59.1675 192.331 59.5522C191.678 59.9369 190.938 60.1293 190.11 60.1293C189.282 60.1293 188.541 59.9369 187.885 59.5522C187.233 59.1644 186.716 58.6089 186.334 57.8857C185.955 57.1593 185.766 56.2884 185.766 55.2727C185.766 54.254 185.955 53.383 186.334 52.6598C186.716 51.9335 187.233 51.378 187.885 50.9933C188.541 50.6085 189.282 50.4162 190.11 50.4162C190.938 50.4162 191.678 50.6085 192.331 50.9933C192.986 51.378 193.503 51.9335 193.882 52.6598C194.264 53.383 194.454 54.254 194.454 55.2727ZM192.732 55.2727C192.732 54.5556 192.62 53.9509 192.395 53.4585C192.174 52.9629 191.866 52.589 191.472 52.3366C191.078 52.0812 190.624 51.9535 190.11 51.9535C189.596 51.9535 189.142 52.0812 188.748 52.3366C188.355 52.589 188.045 52.9629 187.821 53.4585C187.599 53.9509 187.488 54.5556 187.488 55.2727C187.488 55.9898 187.599 56.5961 187.821 57.0916C188.045 57.584 188.355 57.958 188.748 58.2134C189.142 58.4658 189.596 58.592 190.11 58.592C190.624 58.592 191.078 58.4658 191.472 58.2134C191.866 57.958 192.174 57.584 192.395 57.0916C192.62 56.5961 192.732 55.9898 192.732 55.2727ZM203.843 50.5455V60H202.32L197.865 53.56H197.786V60H196.074V50.5455H197.606L202.057 56.9901H202.14V50.5455H203.843ZM205.294 51.9812V50.5455H212.837V51.9812H209.915V60H208.216V51.9812H205.294ZM214.291 60V50.5455H217.837C218.563 50.5455 219.173 50.6716 219.665 50.924C220.16 51.1764 220.534 51.5303 220.787 51.9858C221.042 52.4382 221.17 52.966 221.17 53.5692C221.17 54.1755 221.041 54.7018 220.782 55.1481C220.527 55.5913 220.15 55.9344 219.651 56.1776C219.153 56.4176 218.54 56.5376 217.814 56.5376H215.289V55.1158H217.583C218.008 55.1158 218.355 55.0573 218.626 54.9403C218.897 54.8203 219.097 54.6464 219.226 54.4187C219.359 54.1879 219.425 53.9047 219.425 53.5692C219.425 53.2338 219.359 52.9476 219.226 52.7106C219.094 52.4705 218.893 52.2889 218.622 52.1658C218.351 52.0397 218.002 51.9766 217.574 51.9766H216.004V60H214.291ZM219.176 55.7159L221.516 60H219.605L217.306 55.7159H219.176ZM224.459 50.5455V60H222.746V50.5455H224.459ZM226.314 60V50.5455H229.933C230.616 50.5455 231.184 50.6532 231.637 50.8686C232.092 51.081 232.432 51.3718 232.657 51.7411C232.885 52.1104 232.999 52.529 232.999 52.9968C232.999 53.3815 232.925 53.7108 232.777 53.9847C232.629 54.2556 232.431 54.4756 232.181 54.6449C231.932 54.8142 231.654 54.9357 231.346 55.0096V55.1019C231.681 55.1204 232.003 55.2235 232.311 55.4112C232.622 55.5959 232.875 55.8575 233.072 56.196C233.269 56.5346 233.368 56.9439 233.368 57.424C233.368 57.9134 233.249 58.3535 233.012 58.7443C232.775 59.1321 232.418 59.4383 231.941 59.663C231.464 59.8877 230.864 60 230.141 60H226.314ZM228.027 58.5689H229.869C230.49 58.5689 230.938 58.4504 231.212 58.2134C231.489 57.9734 231.627 57.6656 231.627 57.2901C231.627 57.0101 231.558 56.7577 231.42 56.533C231.281 56.3053 231.084 56.1268 230.829 55.9975C230.573 55.8652 230.269 55.799 229.915 55.799H228.027V58.5689ZM228.027 54.5664H229.721C230.016 54.5664 230.283 54.5125 230.519 54.4048C230.756 54.294 230.943 54.1386 231.078 53.9386C231.217 53.7354 231.286 53.4954 231.286 53.2184C231.286 52.8522 231.157 52.5505 230.898 52.3136C230.643 52.0766 230.263 51.9581 229.758 51.9581H228.027V54.5664ZM240.818 50.5455H242.53V56.7223C242.53 57.3994 242.37 57.9949 242.05 58.5089C241.733 59.0228 241.287 59.4245 240.712 59.7138C240.136 60 239.464 60.1431 238.694 60.1431C237.922 60.1431 237.248 60 236.672 59.7138C236.097 59.4245 235.65 59.0228 235.333 58.5089C235.016 57.9949 234.858 57.3994 234.858 56.7223V50.5455H236.571V56.5792C236.571 56.9731 236.657 57.324 236.829 57.6317C237.004 57.9395 237.251 58.1811 237.568 58.3565C237.885 58.5289 238.26 58.6151 238.694 58.6151C239.128 58.6151 239.504 58.5289 239.821 58.3565C240.141 58.1811 240.387 57.9395 240.559 57.6317C240.732 57.324 240.818 56.9731 240.818 56.5792V50.5455ZM243.977 51.9812V50.5455H251.52V51.9812H248.598V60H246.899V51.9812H243.977ZM261.003 55.2727C261.003 56.2914 260.812 57.1639 260.431 57.8903C260.052 58.6135 259.535 59.1675 258.88 59.5522C258.227 59.9369 257.487 60.1293 256.659 60.1293C255.831 60.1293 255.09 59.9369 254.434 59.5522C253.782 59.1644 253.264 58.6089 252.883 57.8857C252.504 57.1593 252.315 56.2884 252.315 55.2727C252.315 54.254 252.504 53.383 252.883 52.6598C253.264 51.9335 253.782 51.378 254.434 50.9933C255.09 50.6085 255.831 50.4162 256.659 50.4162C257.487 50.4162 258.227 50.6085 258.88 50.9933C259.535 51.378 260.052 51.9335 260.431 52.6598C260.812 53.383 261.003 54.254 261.003 55.2727ZM259.281 55.2727C259.281 54.5556 259.169 53.9509 258.944 53.4585C258.723 52.9629 258.415 52.589 258.021 52.3366C257.627 52.0812 257.173 51.9535 256.659 51.9535C256.145 51.9535 255.691 52.0812 255.297 52.3366C254.903 52.589 254.594 52.9629 254.369 53.4585C254.148 53.9509 254.037 54.5556 254.037 55.2727C254.037 55.9898 254.148 56.5961 254.369 57.0916C254.594 57.584 254.903 57.958 255.297 58.2134C255.691 58.4658 256.145 58.592 256.659 58.592C257.173 58.592 257.627 58.4658 258.021 58.2134C258.415 57.958 258.723 57.584 258.944 57.0916C259.169 56.5961 259.281 55.9898 259.281 55.2727ZM262.622 60V50.5455H266.168C266.894 50.5455 267.504 50.6716 267.996 50.924C268.492 51.1764 268.865 51.5303 269.118 51.9858C269.373 52.4382 269.501 52.966 269.501 53.5692C269.501 54.1755 269.372 54.7018 269.113 55.1481C268.858 55.5913 268.481 55.9344 267.982 56.1776C267.484 56.4176 266.871 56.5376 266.145 56.5376H263.62V55.1158H265.914C266.339 55.1158 266.687 55.0573 266.957 54.9403C267.228 54.8203 267.428 54.6464 267.557 54.4187C267.69 54.1879 267.756 53.9047 267.756 53.5692C267.756 53.2338 267.69 52.9476 267.557 52.7106C267.425 52.4705 267.224 52.2889 266.953 52.1658C266.682 52.0397 266.333 51.9766 265.905 51.9766H264.335V60H262.622ZM267.507 55.7159L269.847 60H267.936L265.637 55.7159H267.507ZM276.216 53.1445C276.173 52.7414 275.991 52.4274 275.671 52.2028C275.354 51.9781 274.942 51.8658 274.434 51.8658C274.077 51.8658 273.77 51.9196 273.515 52.0273C273.26 52.1351 273.064 52.2812 272.929 52.4659C272.793 52.6506 272.724 52.8614 272.721 53.0984C272.721 53.2953 272.766 53.4661 272.855 53.6108C272.947 53.7554 273.072 53.8786 273.229 53.9801C273.386 54.0786 273.56 54.1617 273.75 54.2294C273.941 54.2971 274.134 54.354 274.328 54.4002L275.214 54.6218C275.571 54.7049 275.914 54.8172 276.243 54.9588C276.576 55.1004 276.873 55.2789 277.134 55.4943C277.399 55.7098 277.608 55.9698 277.762 56.2745C277.916 56.5792 277.993 56.9362 277.993 57.3455C277.993 57.8995 277.851 58.3873 277.568 58.8089C277.285 59.2275 276.876 59.5553 276.34 59.7923C275.808 60.0262 275.163 60.1431 274.406 60.1431C273.67 60.1431 273.032 60.0292 272.49 59.8015C271.952 59.5737 271.53 59.2414 271.225 58.8043C270.924 58.3673 270.761 57.8349 270.736 57.207H272.421C272.446 57.5363 272.547 57.8103 272.726 58.0288C272.904 58.2473 273.136 58.4104 273.423 58.5181C273.712 58.6258 274.035 58.6797 274.392 58.6797C274.765 58.6797 275.091 58.6243 275.371 58.5135C275.654 58.3996 275.876 58.2427 276.036 58.0426C276.196 57.8395 276.277 57.6025 276.28 57.3317C276.277 57.0855 276.205 56.8823 276.063 56.7223C275.922 56.5592 275.723 56.4238 275.468 56.3161C275.215 56.2053 274.92 56.1068 274.581 56.0206L273.506 55.7436C272.727 55.5436 272.112 55.2404 271.659 54.8342C271.21 54.4248 270.985 53.8816 270.985 53.2045C270.985 52.6475 271.136 52.1597 271.438 51.7411C271.742 51.3226 272.156 50.9979 272.679 50.767C273.203 50.5331 273.795 50.4162 274.457 50.4162C275.128 50.4162 275.716 50.5331 276.22 50.767C276.728 50.9979 277.127 51.3195 277.416 51.7319C277.705 52.1412 277.855 52.6121 277.864 53.1445H276.216Z" fill="#156FF7"/>
<path opacity="0.4" d="M13.4699 53.5323C13.3806 53.2522 13.2606 53.0014 13.1098 52.7798C12.962 52.5552 12.7851 52.3643 12.5789 52.2074C12.3727 52.0473 12.1372 51.9258 11.8726 51.8427C11.611 51.7596 11.3232 51.718 11.0093 51.718C10.4768 51.718 9.99673 51.855 9.56894 52.1289C9.14114 52.4028 8.8026 52.8045 8.55331 53.3338C8.3071 53.8601 8.18399 54.5049 8.18399 55.2681C8.18399 56.0344 8.30864 56.6823 8.55793 57.2116C8.80722 57.741 9.14884 58.1426 9.58279 58.4165C10.0167 58.6905 10.5107 58.8274 11.0647 58.8274C11.5786 58.8274 12.0264 58.7228 12.4081 58.5135C12.7928 58.3042 13.0898 58.0088 13.2991 57.6271C13.5114 57.2424 13.6176 56.79 13.6176 56.2699L13.9869 56.3391H11.2816V55.1619H14.9979V56.2376C14.9979 57.0316 14.8286 57.721 14.4901 58.3058C14.1546 58.8874 13.6899 59.3368 13.0959 59.6538C12.505 59.9708 11.8279 60.1293 11.0647 60.1293C10.2091 60.1293 9.45814 59.9323 8.81183 59.5384C8.16861 59.1444 7.66695 58.5858 7.30686 57.8626C6.94678 57.1362 6.76673 56.2745 6.76673 55.2773C6.76673 54.5233 6.87137 53.8462 7.08066 53.2461C7.28994 52.646 7.58385 52.1366 7.9624 51.718C8.34403 51.2964 8.79183 50.9748 9.3058 50.7532C9.82284 50.5285 10.3876 50.4162 11 50.4162C11.5109 50.4162 11.9864 50.4916 12.4265 50.6424C12.8697 50.7932 13.2637 51.0071 13.6084 51.2841C13.9561 51.5611 14.2439 51.8904 14.4716 52.272C14.6994 52.6506 14.8533 53.0707 14.9333 53.5323H13.4699ZM16.8087 60V50.5455H22.7363V51.7734H18.2352V54.6541H22.427V55.8775H18.2352V58.772H22.7917V60H16.8087ZM32.2728 50.5455V60H30.9617L26.1559 53.0661H26.0682V60H24.6417V50.5455H25.962L30.7724 57.4886H30.8601V50.5455H32.2728ZM34.3536 60V50.5455H40.2812V51.7734H35.7801V54.6541H39.9719V55.8775H35.7801V58.772H40.3366V60H34.3536ZM42.1867 60V50.5455H45.5567C46.2892 50.5455 46.897 50.6716 47.3802 50.924C47.8665 51.1764 48.2296 51.5257 48.4697 51.9719C48.7097 52.4151 48.8298 52.9276 48.8298 53.5092C48.8298 54.0878 48.7082 54.5972 48.4651 55.0373C48.225 55.4743 47.8618 55.8144 47.3756 56.0575C46.8924 56.3007 46.2845 56.4222 45.5521 56.4222H42.9992V55.1942H45.4228C45.8845 55.1942 46.2599 55.1281 46.5492 54.9957C46.8416 54.8634 47.0555 54.671 47.1909 54.4187C47.3263 54.1663 47.394 53.8632 47.394 53.5092C47.394 53.1522 47.3248 52.8429 47.1863 52.5813C47.0509 52.3197 46.837 52.1197 46.5446 51.9812C46.2553 51.8396 45.8752 51.7688 45.4043 51.7688H43.6131V60H42.1867ZM46.8539 55.7344L49.1899 60H47.5649L45.2751 55.7344H46.8539ZM51.3642 60H49.85L53.2524 50.5455H54.9004L58.3028 60H56.7886L54.1156 52.2628H54.0418L51.3642 60ZM51.6181 56.2976H56.5301V57.4979H51.6181V56.2976ZM59.6681 60V50.5455H61.0946V58.772H65.3787V60H59.6681Z" fill="#475569"/>
<path opacity="0.4" d="M406.328 60V50.5455H407.754V55.0604H407.87L411.835 50.5455H413.631L409.818 54.8018L413.645 60H411.928L408.871 55.7759L407.754 57.0593V60H406.328ZM414.961 60V50.5455H418.331C419.066 50.5455 419.676 50.6793 420.159 50.9471C420.642 51.2148 421.004 51.5811 421.244 52.0458C421.484 52.5075 421.604 53.0276 421.604 53.6062C421.604 54.1879 421.482 54.7111 421.239 55.1758C420.999 55.6374 420.636 56.0037 420.15 56.2745C419.666 56.5423 419.058 56.6761 418.326 56.6761H416.009V55.4666H418.197C418.661 55.4666 419.038 55.3866 419.328 55.2266C419.617 55.0634 419.829 54.8419 419.965 54.5618C420.1 54.2817 420.168 53.9632 420.168 53.6062C420.168 53.2492 420.1 52.9322 419.965 52.6552C419.829 52.3782 419.616 52.1612 419.323 52.0043C419.034 51.8473 418.652 51.7688 418.178 51.7688H416.387V60H414.961ZM424.703 50.5455V60H423.276V50.5455H424.703ZM431.983 54.6403L430.732 54.8619C430.679 54.7018 430.596 54.5495 430.482 54.4048C430.372 54.2602 430.221 54.1417 430.03 54.0494C429.839 53.957 429.601 53.9109 429.314 53.9109C428.924 53.9109 428.597 53.9986 428.336 54.174C428.074 54.3464 427.943 54.5695 427.943 54.8434C427.943 55.0804 428.031 55.2712 428.206 55.4158C428.382 55.5605 428.665 55.679 429.056 55.7713L430.182 56.0298C430.835 56.1806 431.321 56.413 431.641 56.7269C431.961 57.0408 432.121 57.4486 432.121 57.9503C432.121 58.375 431.998 58.7536 431.752 59.0859C431.509 59.4152 431.169 59.6738 430.732 59.8615C430.298 60.0492 429.794 60.1431 429.222 60.1431C428.428 60.1431 427.78 59.9738 427.278 59.6353C426.777 59.2937 426.469 58.8089 426.355 58.1811L427.689 57.978C427.772 58.3258 427.943 58.5889 428.202 58.7674C428.46 58.9428 428.797 59.0305 429.213 59.0305C429.665 59.0305 430.027 58.9367 430.298 58.7489C430.569 58.5581 430.704 58.3258 430.704 58.0518C430.704 57.8303 430.621 57.6441 430.455 57.4933C430.292 57.3424 430.041 57.2286 429.702 57.1516L428.502 56.8885C427.84 56.7377 427.351 56.4976 427.034 56.1683C426.72 55.839 426.563 55.422 426.563 54.9173C426.563 54.4987 426.68 54.1325 426.914 53.8185C427.148 53.5046 427.471 53.2599 427.883 53.0845C428.296 52.906 428.768 52.8168 429.301 52.8168C430.067 52.8168 430.67 52.983 431.11 53.3153C431.55 53.6446 431.841 54.0863 431.983 54.6403Z" fill="#475569"/>
<path opacity="0.4" d="M562.445 47.5455H564.177L567.187 54.8949H567.297L570.307 47.5455H572.038V57H570.681V50.1584H570.594L567.805 56.9862H566.679L563.89 50.1538H563.803V57H562.445V47.5455ZM582.325 52.2727C582.325 53.2822 582.14 54.1501 581.771 54.8764C581.402 55.5997 580.896 56.1567 580.252 56.5476C579.612 56.9354 578.884 57.1293 578.069 57.1293C577.25 57.1293 576.519 56.9354 575.876 56.5476C575.236 56.1567 574.731 55.5981 574.362 54.8718C573.992 54.1455 573.808 53.2791 573.808 52.2727C573.808 51.2633 573.992 50.3969 574.362 49.6737C574.731 48.9473 575.236 48.3903 575.876 48.0025C576.519 47.6116 577.25 47.4162 578.069 47.4162C578.884 47.4162 579.612 47.6116 580.252 48.0025C580.896 48.3903 581.402 48.9473 581.771 49.6737C582.14 50.3969 582.325 51.2633 582.325 52.2727ZM580.913 52.2727C580.913 51.5033 580.788 50.8555 580.539 50.3292C580.292 49.7998 579.954 49.3997 579.523 49.1289C579.095 48.855 578.61 48.718 578.069 48.718C577.524 48.718 577.038 48.855 576.61 49.1289C576.182 49.3997 575.844 49.7998 575.594 50.3292C575.348 50.8555 575.225 51.5033 575.225 52.2727C575.225 53.0421 575.348 53.6915 575.594 54.2209C575.844 54.7472 576.182 55.1473 576.61 55.4212C577.038 55.692 577.524 55.8274 578.069 55.8274C578.61 55.8274 579.095 55.692 579.523 55.4212C579.954 55.1473 580.292 54.7472 580.539 54.2209C580.788 53.6915 580.913 53.0421 580.913 52.2727ZM584.104 57V47.5455H587.474C588.206 47.5455 588.814 47.6716 589.297 47.924C589.783 48.1764 590.147 48.5257 590.387 48.9719C590.627 49.4151 590.747 49.9276 590.747 50.5092C590.747 51.0878 590.625 51.5972 590.382 52.0373C590.142 52.4743 589.779 52.8144 589.293 53.0575C588.809 53.3007 588.202 53.4222 587.469 53.4222H584.916V52.1942H587.34C587.801 52.1942 588.177 52.1281 588.466 51.9957C588.759 51.8634 588.972 51.671 589.108 51.4187C589.243 51.1663 589.311 50.8632 589.311 50.5092C589.311 50.1522 589.242 49.8429 589.103 49.5813C588.968 49.3197 588.754 49.1197 588.462 48.9812C588.172 48.8396 587.792 48.7688 587.321 48.7688H585.53V57H584.104ZM588.771 52.7344L591.107 57H589.482L587.192 52.7344H588.771ZM592.483 57V47.5455H598.41V48.7734H593.909V51.6541H598.101V52.8775H593.909V55.772H598.466V57H592.483ZM606.817 57H603.756V47.5455H606.914C607.84 47.5455 608.636 47.7347 609.3 48.1133C609.965 48.4888 610.475 49.0289 610.828 49.7337C611.185 50.4354 611.364 51.2771 611.364 52.2589C611.364 53.2437 611.184 54.0901 610.824 54.7979C610.467 55.5058 609.95 56.0505 609.273 56.4322C608.596 56.8107 607.777 57 606.817 57ZM605.182 55.7536H606.738C607.458 55.7536 608.057 55.6181 608.534 55.3473C609.011 55.0734 609.368 54.6779 609.605 54.1609C609.842 53.6407 609.961 53.0067 609.961 52.2589C609.961 51.5172 609.842 50.8878 609.605 50.3707C609.371 49.8537 609.022 49.4613 608.557 49.1935C608.092 48.9258 607.515 48.7919 606.826 48.7919H605.182V55.7536ZM613.138 57V47.5455H619.065V48.7734H614.564V51.6541H618.756V52.8775H614.564V55.772H619.121V57H613.138ZM620.505 48.7734V47.5455H627.822V48.7734H624.872V57H623.45V48.7734H620.505ZM629.12 57H627.606L631.008 47.5455H632.656L636.059 57H634.544L631.871 49.2628H631.798L629.12 57ZM629.374 53.2976H634.286V54.4979H629.374V53.2976ZM638.85 47.5455V57H637.424V47.5455H638.85ZM640.928 57V47.5455H642.354V55.772H646.638V57H640.928ZM653.422 50.0291C653.373 49.5921 653.17 49.2536 652.813 49.0135C652.456 48.7704 652.007 48.6488 651.465 48.6488C651.077 48.6488 650.742 48.7103 650.459 48.8335C650.175 48.9535 649.955 49.1197 649.798 49.332C649.645 49.5413 649.568 49.7798 649.568 50.0476C649.568 50.2723 649.62 50.4661 649.725 50.6293C649.832 50.7924 649.972 50.9293 650.145 51.0401C650.32 51.1478 650.508 51.2386 650.708 51.3125C650.908 51.3833 651.1 51.4418 651.285 51.4879L652.208 51.728C652.51 51.8018 652.819 51.9019 653.136 52.0281C653.453 52.1542 653.747 52.3204 654.018 52.5266C654.289 52.7328 654.507 52.9883 654.673 53.293C654.843 53.5977 654.927 53.9624 654.927 54.3871C654.927 54.9226 654.789 55.3981 654.512 55.8136C654.238 56.229 653.839 56.5568 653.316 56.7969C652.796 57.0369 652.167 57.157 651.428 57.157C650.72 57.157 650.108 57.0446 649.591 56.82C649.074 56.5953 648.669 56.2768 648.377 55.8643C648.084 55.4489 647.923 54.9564 647.892 54.3871H649.323C649.351 54.7287 649.461 55.0134 649.655 55.2411C649.852 55.4658 650.103 55.6335 650.408 55.7443C650.716 55.852 651.053 55.9059 651.419 55.9059C651.822 55.9059 652.181 55.8428 652.494 55.7166C652.811 55.5874 653.061 55.4089 653.242 55.1811C653.424 54.9503 653.515 54.681 653.515 54.3732C653.515 54.0932 653.435 53.8639 653.275 53.6854C653.118 53.5069 652.904 53.3591 652.633 53.2422C652.365 53.1252 652.062 53.0221 651.723 52.9329L650.606 52.6282C649.849 52.422 649.249 52.1188 648.806 51.7188C648.366 51.3187 648.146 50.7893 648.146 50.1307C648.146 49.5859 648.293 49.1104 648.589 48.7042C648.884 48.2979 649.284 47.9825 649.789 47.7578C650.294 47.5301 650.863 47.4162 651.497 47.4162C652.137 47.4162 652.702 47.5285 653.192 47.7532C653.684 47.9779 654.072 48.2872 654.355 48.6811C654.638 49.072 654.786 49.5213 654.798 50.0291H653.422Z" fill="#475569"/>
</svg>
