<svg width="656" height="67" viewBox="0 0 656 67" fill="none" xmlns="http://www.w3.org/2000/svg">
<path d="M35 0.577351C35.6188 0.220085 36.3812 0.220085 37 0.57735L52.3205 9.42265C52.9393 9.77991 53.3205 10.4402 53.3205 11.1547V28.8453C53.3205 29.5598 52.9393 30.2201 52.3205 30.5774L37 39.4226C36.3812 39.7799 35.6188 39.7799 35 39.4226L19.6795 30.5774C19.0607 30.2201 18.6795 29.5598 18.6795 28.8453V11.1547C18.6795 10.4402 19.0607 9.77991 19.6795 9.42265L35 0.577351Z" fill="#156FF7"/>
<path d="M42 16L33.75 24.25L30 20.5" stroke="white" stroke-width="2" stroke-linecap="round" stroke-linejoin="round"/>
<line x1="56" y1="19.5" x2="206.667" y2="19.5" stroke="#156FF7"/>
<path d="M225.917 1.01036C226.381 0.742414 226.953 0.742414 227.417 1.01036L242.738 9.85566C243.202 10.1236 243.488 10.6188 243.488 11.1547V28.8453C243.488 29.3812 243.202 29.8764 242.738 30.1443L227.417 38.9896C226.953 39.2576 226.381 39.2576 225.917 38.9896L210.596 30.1443C210.132 29.8764 209.846 29.3812 209.846 28.8453V11.1547C209.846 10.6188 210.132 10.1236 210.596 9.85566L225.917 1.01036Z" fill="#156FF7" stroke="#156FF7"/>
<path d="M233 16L224.75 24.25L221 20.5" stroke="white" stroke-width="2" stroke-linecap="round" stroke-linejoin="round"/>
<line x1="246.667" y1="19.5" x2="397.334" y2="19.5" stroke="#156FF7"/>
<path d="M416.583 1.01036C417.047 0.742414 417.619 0.742414 418.083 1.01036L433.404 9.85566C433.868 10.1236 434.154 10.6188 434.154 11.1547V28.8453C434.154 29.3812 433.868 29.8764 433.404 30.1443L418.083 38.9896C417.619 39.2576 417.047 39.2576 416.583 38.9896L401.262 30.1443C400.798 29.8764 400.512 29.3812 400.512 28.8453V11.1547C400.512 10.6188 400.798 10.1236 401.262 9.85566L416.583 1.01036Z" fill="#156FF7" stroke="#156FF7"/>
<path d="M417.892 25.1392C417.176 25.1392 416.54 25.0166 415.983 24.7713C415.429 24.526 414.992 24.1847 414.67 23.7472C414.349 23.3097 414.178 22.8042 414.158 22.2308H416.028C416.044 22.5059 416.135 22.7462 416.301 22.9517C416.467 23.1539 416.687 23.3113 416.962 23.424C417.237 23.5367 417.546 23.593 417.887 23.593C418.252 23.593 418.575 23.5301 418.856 23.4041C419.138 23.2749 419.359 23.0959 419.518 22.8672C419.677 22.6385 419.755 22.375 419.751 22.0767C419.755 21.7685 419.675 21.4967 419.513 21.2614C419.35 21.026 419.115 20.8421 418.807 20.7095C418.502 20.5769 418.134 20.5107 417.703 20.5107H416.803V19.0888H417.703C418.058 19.0888 418.368 19.0275 418.633 18.9048C418.901 18.7822 419.112 18.6098 419.264 18.3878C419.417 18.1624 419.491 17.9022 419.488 17.6072C419.491 17.3189 419.427 17.0687 419.294 16.8565C419.165 16.6411 418.981 16.4737 418.742 16.3544C418.507 16.2351 418.23 16.1754 417.912 16.1754C417.6 16.1754 417.312 16.2318 417.047 16.3445C416.782 16.4571 416.568 16.6179 416.405 16.8267C416.243 17.0322 416.157 17.2775 416.147 17.5625H414.372C414.385 16.9924 414.549 16.492 414.864 16.0611C415.182 15.6269 415.607 15.2888 416.137 15.0469C416.667 14.8016 417.262 14.679 417.922 14.679C418.601 14.679 419.191 14.8066 419.692 15.0618C420.195 15.3137 420.585 15.6534 420.86 16.081C421.135 16.5085 421.273 16.9808 421.273 17.4979C421.276 18.0713 421.107 18.5518 420.766 18.9396C420.427 19.3274 419.983 19.581 419.433 19.7003V19.7798C420.149 19.8793 420.698 20.1444 421.079 20.5753C421.463 21.0028 421.654 21.5348 421.65 22.1712C421.65 22.7412 421.488 23.2517 421.163 23.7024C420.842 24.1499 420.398 24.5012 419.831 24.7564C419.267 25.0116 418.621 25.1392 417.892 25.1392Z" fill="white"/>
<line x1="437.333" y1="19.5" x2="588" y2="19.5" stroke="#156FF7"/>
<path d="M607.25 1.01036C607.714 0.742414 608.286 0.742414 608.75 1.01036L624.071 9.85566C624.535 10.1236 624.821 10.6188 624.821 11.1547V28.8453C624.821 29.3812 624.535 29.8764 624.071 30.1443L608.75 38.9896C608.286 39.2576 607.714 39.2576 607.25 38.9896L591.929 30.1443C591.465 29.8764 591.179 29.3812 591.179 28.8453V11.1547C591.179 10.6188 591.465 10.1236 591.929 9.85566L607.25 1.01036Z" stroke="#156FF7"/>
<path d="M604.721 23.1108V21.6442L609.041 14.8182H610.264V16.9062H609.518L606.61 21.5149V21.5945H612.641V23.1108H604.721ZM609.578 25V22.6634L609.598 22.0071V14.8182H611.338V25H609.578Z" fill="#156FF7"/>
<path d="M408.067 60V50.5455H409.78V54.8896H409.895L413.583 50.5455H415.675L412.019 54.788L415.707 60H413.648L410.827 55.9467L409.78 57.1839V60H408.067ZM416.865 60V50.5455H420.41C421.136 50.5455 421.746 50.6809 422.238 50.9517C422.734 51.2225 423.108 51.5949 423.36 52.0689C423.615 52.5398 423.743 53.0753 423.743 53.6754C423.743 54.2817 423.615 54.8203 423.36 55.2912C423.105 55.7621 422.728 56.1329 422.229 56.4038C421.73 56.6715 421.116 56.8054 420.387 56.8054H418.037V55.3974H420.156C420.581 55.3974 420.929 55.3235 421.2 55.1758C421.47 55.0281 421.67 54.8249 421.8 54.5664C421.932 54.3079 421.998 54.0109 421.998 53.6754C421.998 53.34 421.932 53.0445 421.8 52.7891C421.67 52.5336 421.469 52.3351 421.195 52.1935C420.924 52.0489 420.575 51.9766 420.147 51.9766H418.577V60H416.865ZM426.944 50.5455V60H425.231V50.5455H426.944Z" fill="#156FF7"/>
<path opacity="0.4" d="M13.4699 53.5323C13.3806 53.2522 13.2606 53.0014 13.1098 52.7798C12.962 52.5552 12.7851 52.3643 12.5789 52.2074C12.3727 52.0473 12.1372 51.9258 11.8726 51.8427C11.611 51.7596 11.3232 51.718 11.0093 51.718C10.4768 51.718 9.99673 51.855 9.56894 52.1289C9.14114 52.4028 8.8026 52.8045 8.55331 53.3338C8.3071 53.8601 8.18399 54.5049 8.18399 55.2681C8.18399 56.0344 8.30864 56.6823 8.55793 57.2116C8.80722 57.741 9.14884 58.1426 9.58279 58.4165C10.0167 58.6905 10.5107 58.8274 11.0647 58.8274C11.5786 58.8274 12.0264 58.7228 12.4081 58.5135C12.7928 58.3042 13.0898 58.0088 13.2991 57.6271C13.5114 57.2424 13.6176 56.79 13.6176 56.2699L13.9869 56.3391H11.2816V55.1619H14.9979V56.2376C14.9979 57.0316 14.8286 57.721 14.4901 58.3058C14.1546 58.8874 13.6899 59.3368 13.0959 59.6538C12.505 59.9708 11.8279 60.1293 11.0647 60.1293C10.2091 60.1293 9.45814 59.9323 8.81183 59.5384C8.16861 59.1444 7.66695 58.5858 7.30686 57.8626C6.94678 57.1362 6.76673 56.2745 6.76673 55.2773C6.76673 54.5233 6.87137 53.8462 7.08066 53.2461C7.28994 52.646 7.58385 52.1366 7.9624 51.718C8.34403 51.2964 8.79183 50.9748 9.3058 50.7532C9.82284 50.5285 10.3876 50.4162 11 50.4162C11.5109 50.4162 11.9864 50.4916 12.4265 50.6424C12.8697 50.7932 13.2637 51.0071 13.6084 51.2841C13.9561 51.5611 14.2439 51.8904 14.4716 52.272C14.6994 52.6506 14.8533 53.0707 14.9333 53.5323H13.4699ZM16.8087 60V50.5455H22.7363V51.7734H18.2352V54.6541H22.427V55.8775H18.2352V58.772H22.7917V60H16.8087ZM32.2728 50.5455V60H30.9617L26.1559 53.0661H26.0682V60H24.6417V50.5455H25.962L30.7724 57.4886H30.8601V50.5455H32.2728ZM34.3536 60V50.5455H40.2812V51.7734H35.7801V54.6541H39.9719V55.8775H35.7801V58.772H40.3366V60H34.3536ZM42.1867 60V50.5455H45.5567C46.2892 50.5455 46.897 50.6716 47.3802 50.924C47.8665 51.1764 48.2296 51.5257 48.4697 51.9719C48.7097 52.4151 48.8298 52.9276 48.8298 53.5092C48.8298 54.0878 48.7082 54.5972 48.4651 55.0373C48.225 55.4743 47.8618 55.8144 47.3756 56.0575C46.8924 56.3007 46.2845 56.4222 45.5521 56.4222H42.9992V55.1942H45.4228C45.8845 55.1942 46.2599 55.1281 46.5492 54.9957C46.8416 54.8634 47.0555 54.671 47.1909 54.4187C47.3263 54.1663 47.394 53.8632 47.394 53.5092C47.394 53.1522 47.3248 52.8429 47.1863 52.5813C47.0509 52.3197 46.837 52.1197 46.5446 51.9812C46.2553 51.8396 45.8752 51.7688 45.4043 51.7688H43.6131V60H42.1867ZM46.8539 55.7344L49.1899 60H47.5649L45.2751 55.7344H46.8539ZM51.3642 60H49.85L53.2524 50.5455H54.9004L58.3028 60H56.7886L54.1156 52.2628H54.0418L51.3642 60ZM51.6181 56.2976H56.5301V57.4979H51.6181V56.2976ZM59.6681 60V50.5455H61.0946V58.772H65.3787V60H59.6681Z" fill="#475569"/>
<path opacity="0.4" d="M185.14 53.62H183.7C183.645 53.3123 183.542 53.0414 183.391 52.8075C183.24 52.5736 183.055 52.3751 182.837 52.212C182.618 52.0489 182.374 51.9258 182.103 51.8427C181.835 51.7596 181.55 51.718 181.249 51.718C180.704 51.718 180.216 51.855 179.785 52.1289C179.357 52.4028 179.019 52.8045 178.77 53.3338C178.523 53.8632 178.4 54.5095 178.4 55.2727C178.4 56.0421 178.523 56.6915 178.77 57.2209C179.019 57.7502 179.359 58.1503 179.79 58.4212C180.221 58.692 180.705 58.8274 181.244 58.8274C181.543 58.8274 181.826 58.7874 182.093 58.7074C182.364 58.6243 182.609 58.5027 182.828 58.3427C183.046 58.1826 183.231 57.9872 183.381 57.7564C183.535 57.5225 183.642 57.2547 183.7 56.9531L185.14 56.9577C185.063 57.4225 184.914 57.8503 184.693 58.2411C184.474 58.6289 184.192 58.9644 183.848 59.2475C183.506 59.5276 183.115 59.7446 182.675 59.8984C182.235 60.0523 181.755 60.1293 181.235 60.1293C180.416 60.1293 179.687 59.9354 179.047 59.5476C178.406 59.1567 177.902 58.5981 177.532 57.8718C177.166 57.1455 176.983 56.2791 176.983 55.2727C176.983 54.2633 177.168 53.3969 177.537 52.6737C177.906 51.9473 178.411 51.3903 179.051 51.0025C179.691 50.6116 180.419 50.4162 181.235 50.4162C181.736 50.4162 182.204 50.4885 182.638 50.6332C183.075 50.7747 183.468 50.984 183.815 51.261C184.163 51.5349 184.451 51.8704 184.679 52.2674C184.906 52.6613 185.06 53.1122 185.14 53.62ZM195.06 55.2727C195.06 56.2822 194.875 57.1501 194.506 57.8764C194.137 58.5997 193.63 59.1567 192.987 59.5476C192.347 59.9354 191.619 60.1293 190.804 60.1293C189.985 60.1293 189.254 59.9354 188.611 59.5476C187.971 59.1567 187.466 58.5981 187.097 57.8718C186.727 57.1455 186.543 56.2791 186.543 55.2727C186.543 54.2633 186.727 53.3969 187.097 52.6737C187.466 51.9473 187.971 51.3903 188.611 51.0025C189.254 50.6116 189.985 50.4162 190.804 50.4162C191.619 50.4162 192.347 50.6116 192.987 51.0025C193.63 51.3903 194.137 51.9473 194.506 52.6737C194.875 53.3969 195.06 54.2633 195.06 55.2727ZM193.647 55.2727C193.647 54.5033 193.523 53.8555 193.273 53.3292C193.027 52.7998 192.689 52.3997 192.258 52.1289C191.83 51.855 191.345 51.718 190.804 51.718C190.259 51.718 189.773 51.855 189.345 52.1289C188.917 52.3997 188.578 52.7998 188.329 53.3292C188.083 53.8555 187.96 54.5033 187.96 55.2727C187.96 56.0421 188.083 56.6915 188.329 57.2209C188.578 57.7472 188.917 58.1473 189.345 58.4212C189.773 58.692 190.259 58.8274 190.804 58.8274C191.345 58.8274 191.83 58.692 192.258 58.4212C192.689 58.1473 193.027 57.7472 193.273 57.2209C193.523 56.6915 193.647 56.0421 193.647 55.2727ZM204.47 50.5455V60H203.158L198.353 53.0661H198.265V60H196.839V50.5455H198.159L202.969 57.4886H203.057V50.5455H204.47ZM206.084 51.7734V50.5455H213.401V51.7734H210.451V60H209.029V51.7734H206.084ZM215.018 60V50.5455H218.388C219.121 50.5455 219.729 50.6716 220.212 50.924C220.698 51.1764 221.061 51.5257 221.301 51.9719C221.541 52.4151 221.661 52.9276 221.661 53.5092C221.661 54.0878 221.54 54.5972 221.297 55.0373C221.057 55.4743 220.693 55.8144 220.207 56.0575C219.724 56.3007 219.116 56.4222 218.384 56.4222H215.831V55.1942H218.254C218.716 55.1942 219.091 55.1281 219.381 54.9957C219.673 54.8634 219.887 54.671 220.022 54.4187C220.158 54.1663 220.226 53.8632 220.226 53.5092C220.226 53.1522 220.156 52.8429 220.018 52.5813C219.882 52.3197 219.669 52.1197 219.376 51.9812C219.087 51.8396 218.707 51.7688 218.236 51.7688H216.445V60H215.018ZM219.685 55.7344L222.021 60H220.396L218.107 55.7344H219.685ZM224.824 50.5455V60H223.397V50.5455H224.824ZM226.901 60V50.5455H230.363C231.034 50.5455 231.59 50.6562 232.03 50.8778C232.47 51.0964 232.799 51.3933 233.018 51.7688C233.236 52.1412 233.346 52.5613 233.346 53.0291C233.346 53.4231 233.273 53.7554 233.129 54.0263C232.984 54.294 232.79 54.5095 232.547 54.6726C232.307 54.8326 232.042 54.9496 231.753 55.0234V55.1158C232.067 55.1312 232.373 55.2327 232.672 55.4205C232.973 55.6051 233.223 55.8683 233.419 56.2099C233.616 56.5515 233.715 56.967 233.715 57.4563C233.715 57.9395 233.601 58.3735 233.373 58.7582C233.149 59.1398 232.801 59.4429 232.33 59.6676C231.859 59.8892 231.257 60 230.525 60H226.901ZM228.328 58.7766H230.386C231.07 58.7766 231.559 58.6443 231.854 58.3796C232.15 58.1149 232.298 57.7841 232.298 57.3871C232.298 57.0885 232.222 56.8146 232.071 56.5653C231.921 56.3161 231.705 56.1175 231.425 55.9698C231.148 55.8221 230.819 55.7482 230.437 55.7482H228.328V58.7766ZM228.328 54.6357H230.239C230.559 54.6357 230.847 54.5741 231.102 54.451C231.361 54.3279 231.565 54.1555 231.716 53.9339C231.87 53.7093 231.947 53.4446 231.947 53.1399C231.947 52.7491 231.81 52.4213 231.536 52.1566C231.262 51.8919 230.842 51.7596 230.276 51.7596H228.328V54.6357ZM241.487 50.5455H242.918V56.7638C242.918 57.4255 242.762 58.0118 242.452 58.5227C242.141 59.0305 241.704 59.4306 241.141 59.723C240.577 60.0123 239.917 60.157 239.16 60.157C238.406 60.157 237.747 60.0123 237.184 59.723C236.621 59.4306 236.184 59.0305 235.873 58.5227C235.562 58.0118 235.407 57.4255 235.407 56.7638V50.5455H236.833V56.6484C236.833 57.0762 236.927 57.4563 237.115 57.7887C237.306 58.1211 237.575 58.3827 237.923 58.5735C238.271 58.7612 238.683 58.8551 239.16 58.8551C239.64 58.8551 240.054 58.7612 240.402 58.5735C240.753 58.3827 241.021 58.1211 241.205 57.7887C241.393 57.4563 241.487 57.0762 241.487 56.6484V50.5455ZM244.526 51.7734V50.5455H251.843V51.7734H248.893V60H247.471V51.7734H244.526ZM261.266 55.2727C261.266 56.2822 261.081 57.1501 260.712 57.8764C260.343 58.5997 259.837 59.1567 259.193 59.5476C258.553 59.9354 257.825 60.1293 257.01 60.1293C256.191 60.1293 255.46 59.9354 254.817 59.5476C254.177 59.1567 253.672 58.5981 253.303 57.8718C252.933 57.1455 252.749 56.2791 252.749 55.2727C252.749 54.2633 252.933 53.3969 253.303 52.6737C253.672 51.9473 254.177 51.3903 254.817 51.0025C255.46 50.6116 256.191 50.4162 257.01 50.4162C257.825 50.4162 258.553 50.6116 259.193 51.0025C259.837 51.3903 260.343 51.9473 260.712 52.6737C261.081 53.3969 261.266 54.2633 261.266 55.2727ZM259.853 55.2727C259.853 54.5033 259.729 53.8555 259.479 53.3292C259.233 52.7998 258.895 52.3997 258.464 52.1289C258.036 51.855 257.551 51.718 257.01 51.718C256.465 51.718 255.979 51.855 255.551 52.1289C255.123 52.3997 254.785 52.7998 254.535 53.3292C254.289 53.8555 254.166 54.5033 254.166 55.2727C254.166 56.0421 254.289 56.6915 254.535 57.2209C254.785 57.7472 255.123 58.1473 255.551 58.4212C255.979 58.692 256.465 58.8274 257.01 58.8274C257.551 58.8274 258.036 58.692 258.464 58.4212C258.895 58.1473 259.233 57.7472 259.479 57.2209C259.729 56.6915 259.853 56.0421 259.853 55.2727ZM263.045 60V50.5455H266.415C267.147 50.5455 267.755 50.6716 268.238 50.924C268.724 51.1764 269.088 51.5257 269.328 51.9719C269.568 52.4151 269.688 52.9276 269.688 53.5092C269.688 54.0878 269.566 54.5972 269.323 55.0373C269.083 55.4743 268.72 55.8144 268.233 56.0575C267.75 56.3007 267.142 56.4222 266.41 56.4222H263.857V55.1942H266.281C266.742 55.1942 267.118 55.1281 267.407 54.9957C267.7 54.8634 267.913 54.671 268.049 54.4187C268.184 54.1663 268.252 53.8632 268.252 53.5092C268.252 53.1522 268.183 52.8429 268.044 52.5813C267.909 52.3197 267.695 52.1197 267.403 51.9812C267.113 51.8396 266.733 51.7688 266.262 51.7688H264.471V60H263.045ZM267.712 55.7344L270.048 60H268.423L266.133 55.7344H267.712ZM276.58 53.0291C276.531 52.5921 276.328 52.2536 275.971 52.0135C275.614 51.7704 275.164 51.6488 274.623 51.6488C274.235 51.6488 273.899 51.7103 273.616 51.8335C273.333 51.9535 273.113 52.1197 272.956 52.332C272.802 52.5413 272.725 52.7798 272.725 53.0476C272.725 53.2723 272.778 53.4661 272.882 53.6293C272.99 53.7924 273.13 53.9293 273.302 54.0401C273.478 54.1478 273.666 54.2386 273.866 54.3125C274.066 54.3833 274.258 54.4418 274.443 54.4879L275.366 54.728C275.668 54.8018 275.977 54.9019 276.294 55.0281C276.611 55.1542 276.905 55.3204 277.176 55.5266C277.446 55.7328 277.665 55.9883 277.831 56.293C278 56.5977 278.085 56.9624 278.085 57.3871C278.085 57.9226 277.947 58.3981 277.67 58.8136C277.396 59.229 276.997 59.5568 276.474 59.7969C275.954 60.0369 275.324 60.157 274.586 60.157C273.878 60.157 273.265 60.0446 272.748 59.82C272.231 59.5953 271.827 59.2768 271.534 58.8643C271.242 58.4489 271.08 57.9564 271.05 57.3871H272.481C272.508 57.7287 272.619 58.0134 272.813 58.2411C273.01 58.4658 273.261 58.6335 273.566 58.7443C273.873 58.852 274.21 58.9059 274.577 58.9059C274.98 58.9059 275.338 58.8428 275.652 58.7166C275.969 58.5874 276.218 58.4089 276.4 58.1811C276.582 57.9503 276.672 57.681 276.672 57.3732C276.672 57.0932 276.592 56.8639 276.432 56.6854C276.275 56.5069 276.061 56.3591 275.791 56.2422C275.523 56.1252 275.22 56.0221 274.881 55.9329L273.764 55.6282C273.007 55.422 272.407 55.1188 271.964 54.7188C271.523 54.3187 271.303 53.7893 271.303 53.1307C271.303 52.5859 271.451 52.1104 271.747 51.7042C272.042 51.2979 272.442 50.9825 272.947 50.7578C273.452 50.5301 274.021 50.4162 274.655 50.4162C275.295 50.4162 275.86 50.5285 276.349 50.7532C276.842 50.9779 277.229 51.2872 277.513 51.6811C277.796 52.072 277.943 52.5213 277.956 53.0291H276.58Z" fill="#475569"/>
<path opacity="0.4" d="M563.162 57H561.647L565.05 47.5455H566.698L570.1 57H568.586L565.913 49.2628H565.839L563.162 57ZM563.415 53.2976H568.327V54.4979H563.415V53.2976ZM574.526 57H571.465V47.5455H574.623C575.55 47.5455 576.345 47.7347 577.01 48.1133C577.675 48.4888 578.184 49.0289 578.538 49.7337C578.895 50.4354 579.073 51.2771 579.073 52.2589C579.073 53.2437 578.893 54.0901 578.533 54.7979C578.176 55.5058 577.659 56.0505 576.982 56.4322C576.305 56.8107 575.486 57 574.526 57ZM572.892 55.7536H574.448C575.168 55.7536 575.766 55.6181 576.244 55.3473C576.721 55.0734 577.078 54.6779 577.315 54.1609C577.552 53.6407 577.67 53.0067 577.67 52.2589C577.67 51.5172 577.552 50.8878 577.315 50.3707C577.081 49.8537 576.731 49.4613 576.267 49.1935C575.802 48.9258 575.225 48.7919 574.535 48.7919H572.892V55.7536ZM583.908 57H580.847V47.5455H584.005C584.931 47.5455 585.727 47.7347 586.392 48.1133C587.056 48.4888 587.566 49.0289 587.92 49.7337C588.277 50.4354 588.455 51.2771 588.455 52.2589C588.455 53.2437 588.275 54.0901 587.915 54.7979C587.558 55.5058 587.041 56.0505 586.364 56.4322C585.687 56.8107 584.868 57 583.908 57ZM582.274 55.7536H583.83C584.55 55.7536 585.148 55.6181 585.625 55.3473C586.102 55.0734 586.459 54.6779 586.696 54.1609C586.933 53.6407 587.052 53.0067 587.052 52.2589C587.052 51.5172 586.933 50.8878 586.696 50.3707C586.462 49.8537 586.113 49.4613 585.648 49.1935C585.184 48.9258 584.607 48.7919 583.917 48.7919H582.274V55.7536ZM591.166 47.5455V50.9109H590.021V47.5455H591.166ZM593.06 57V47.5455H594.487V55.772H598.771V57H593.06ZM606.899 57H603.839V47.5455H606.996C607.923 47.5455 608.718 47.7347 609.383 48.1133C610.048 48.4888 610.557 49.0289 610.911 49.7337C611.268 50.4354 611.446 51.2771 611.446 52.2589C611.446 53.2437 611.266 54.0901 610.906 54.7979C610.549 55.5058 610.032 56.0505 609.355 56.4322C608.678 56.8107 607.859 57 606.899 57ZM605.265 55.7536H606.821C607.541 55.7536 608.14 55.6181 608.617 55.3473C609.094 55.0734 609.451 54.6779 609.688 54.1609C609.925 53.6407 610.043 53.0067 610.043 52.2589C610.043 51.5172 609.925 50.8878 609.688 50.3707C609.454 49.8537 609.104 49.4613 608.64 49.1935C608.175 48.9258 607.598 48.7919 606.908 48.7919H605.265V55.7536ZM613.22 57V47.5455H619.148V48.7734H614.647V51.6541H618.839V52.8775H614.647V55.772H619.203V57H613.22ZM620.587 48.7734V47.5455H627.904V48.7734H624.954V57H623.532V48.7734H620.587ZM629.203 57H627.688L631.091 47.5455H632.739L636.141 57H634.627L631.954 49.2628H631.88L629.203 57ZM629.456 53.2976H634.368V54.4979H629.456V53.2976ZM638.933 47.5455V57H637.506V47.5455H638.933ZM641.01 57V47.5455H642.437V55.772H646.721V57H641.01ZM653.505 50.0291C653.456 49.5921 653.253 49.2536 652.896 49.0135C652.539 48.7704 652.089 48.6488 651.547 48.6488C651.16 48.6488 650.824 48.7103 650.541 48.8335C650.258 48.9535 650.038 49.1197 649.881 49.332C649.727 49.5413 649.65 49.7798 649.65 50.0476C649.65 50.2723 649.702 50.4661 649.807 50.6293C649.915 50.7924 650.055 50.9293 650.227 51.0401C650.403 51.1478 650.59 51.2386 650.79 51.3125C650.99 51.3833 651.183 51.4418 651.367 51.4879L652.291 51.728C652.592 51.8018 652.902 51.9019 653.219 52.0281C653.536 52.1542 653.83 52.3204 654.1 52.5266C654.371 52.7328 654.59 52.9883 654.756 53.293C654.925 53.5977 655.01 53.9624 655.01 54.3871C655.01 54.9226 654.871 55.3981 654.594 55.8136C654.32 56.229 653.922 56.5568 653.399 56.7969C652.879 57.0369 652.249 57.157 651.511 57.157C650.803 57.157 650.19 57.0446 649.673 56.82C649.156 56.5953 648.751 56.2768 648.459 55.8643C648.167 55.4489 648.005 54.9564 647.974 54.3871H649.405C649.433 54.7287 649.544 55.0134 649.738 55.2411C649.935 55.4658 650.186 55.6335 650.49 55.7443C650.798 55.852 651.135 55.9059 651.501 55.9059C651.905 55.9059 652.263 55.8428 652.577 55.7166C652.894 55.5874 653.143 55.4089 653.325 55.1811C653.506 54.9503 653.597 54.681 653.597 54.3732C653.597 54.0932 653.517 53.8639 653.357 53.6854C653.2 53.5069 652.986 53.3591 652.715 53.2422C652.448 53.1252 652.145 53.0221 651.806 52.9329L650.689 52.6282C649.932 52.422 649.332 52.1188 648.888 51.7188C648.448 51.3187 648.228 50.7893 648.228 50.1307C648.228 49.5859 648.376 49.1104 648.671 48.7042C648.967 48.2979 649.367 47.9825 649.872 47.7578C650.376 47.5301 650.946 47.4162 651.58 47.4162C652.22 47.4162 652.785 47.5285 653.274 47.7532C653.766 47.9779 654.154 48.2872 654.437 48.6811C654.721 49.072 654.868 49.5213 654.881 50.0291H653.505Z" fill="#475569"/>
</svg>
