<svg width="161" height="30" viewBox="0 0 161 30" fill="none" xmlns="http://www.w3.org/2000/svg">
<path fill-rule="evenodd" clip-rule="evenodd" d="M12.9034 20.422L7.51498 17.3474C7.36878 17.2436 7.18081 17.3474 7.18081 17.5344V23.6836C7.18081 23.8498 7.26436 23.9952 7.41055 24.0783L12.799 27.1529C12.9452 27.236 13.1332 27.1321 13.1332 26.9659V20.8167C13.1332 20.6505 13.0496 20.5051 12.9034 20.422ZM13.1541 12.6317L13.1332 18.864C13.1332 19.0094 12.987 19.0509 12.8826 19.0094L6.30362 15.27C6.15743 15.1869 5.96945 15.2908 5.96945 15.457V22.8318C5.96945 22.998 5.7606 23.1227 5.63529 23.0188L0.246832 19.9858C0.100633 19.9027 0.0170898 19.7572 0.0170898 19.5911V5.27761C0.0170898 5.11142 0.225946 4.98677 0.351259 5.09064L12.9034 12.1954C13.0496 12.3201 13.1541 12.4655 13.1541 12.6317ZM27.022 5.21529L21.6962 8.22755C21.55 8.31065 21.4665 8.45607 21.4456 8.62226L21.4665 16.2464C21.4665 16.4126 21.3829 16.558 21.2367 16.6411L14.5743 20.4428C14.4281 20.5259 14.3445 20.6713 14.3445 20.8375V26.9659C14.3445 27.1321 14.5325 27.2568 14.6787 27.1529L27.1265 20.0896C27.2727 20.0065 27.3562 19.8611 27.3562 19.6949V5.42303C27.3562 5.23606 27.1682 5.13219 27.022 5.21529ZM14.3445 12.6525V18.7809C14.3445 18.9471 14.5325 19.0717 14.6787 18.9678L20.1298 15.8725C20.1925 15.8517 20.2342 15.7686 20.2342 15.6855V9.45323C20.2342 9.28704 20.0463 9.16239 19.9001 9.26626L14.5743 12.2785C14.4281 12.3409 14.3445 12.4863 14.3445 12.6525ZM1.04048 3.57412L6.34539 0.541082C6.49159 0.47876 6.65868 0.47876 6.82576 0.541082L19.3779 7.64587C19.5241 7.72897 19.5241 7.95749 19.3779 8.04058L14.0521 11.0736C13.9059 11.1567 13.7389 11.1567 13.5927 11.0736L1.04048 3.96883C0.915166 3.88573 0.915166 3.65722 1.04048 3.57412ZM15.2844 3.57412L20.652 0.541082C20.7982 0.457986 20.9652 0.457986 21.1114 0.541082L26.5208 3.61567C26.667 3.69877 26.667 3.92729 26.5208 4.01038L21.1532 7.04342C21.007 7.12652 20.8399 7.12652 20.6937 7.04342L15.2844 3.96883C15.1382 3.88573 15.1382 3.65722 15.2844 3.57412ZM40.8481 6.23344H42.5398C43.8138 6.23344 44.8163 5.92183 44.8163 4.55073C44.8163 2.84724 43.5214 2.70182 42.3936 2.70182H40.8481V6.23344ZM46.9257 4.52995C46.9257 7.16828 44.7954 7.81228 42.4145 7.81228H40.8481V11.4478H38.8013V1.12298H42.3518C44.4821 1.12298 46.9257 1.41382 46.9257 4.52995ZM49.5785 7.4174C49.5785 5.98397 50.2051 5.63081 51.1867 5.63081C51.3356 5.63081 51.4737 5.6362 51.6092 5.64149C51.7398 5.64658 51.868 5.65159 52.0012 5.65159V3.80268C51.9253 3.80268 51.8438 3.79708 51.7654 3.79169C51.6928 3.78671 51.6229 3.78191 51.5626 3.78191C50.6855 3.78191 49.9753 4.17661 49.5368 5.11146V3.78191H47.5944V11.4268H49.5785V7.4174ZM56.2408 10.0973C57.3269 10.0973 58.0997 9.22483 58.0997 7.62521C58.0997 6.02559 57.3269 5.15308 56.2408 5.15308C55.1548 5.15308 54.382 6.02559 54.382 7.62521C54.3611 9.22483 55.1339 10.0973 56.2408 10.0973ZM56.2408 3.61579C58.1832 3.61579 60.1047 4.94533 60.1047 7.62521C60.1047 10.3259 58.1832 11.6346 56.2408 11.6346C54.2985 11.6346 52.377 10.3259 52.377 7.62521C52.3561 4.92456 54.2776 3.61579 56.2408 3.61579ZM63.4671 3.78202V1.7046H61.5038V3.78202H60.4178V5.15313H61.5038V9.39107C61.5038 10.9076 61.8589 11.4477 63.6133 11.4477H65.0544V10.0351H64.4487C63.7386 10.0351 63.4671 9.88965 63.4671 9.10023V5.13235H65.0752V3.78202H63.4671ZM69.545 10.0973C70.631 10.0973 71.4038 9.22483 71.4038 7.62521C71.4038 6.02559 70.631 5.15308 69.545 5.15308C68.4589 5.15308 67.6862 6.02559 67.6862 7.62521C67.6862 9.22483 68.4589 10.0973 69.545 10.0973ZM69.545 3.61579C71.4873 3.61579 73.4088 4.94533 73.4088 7.62521C73.4088 10.3259 71.4873 11.6346 69.545 11.6346C67.6026 11.6346 65.6812 10.3259 65.6812 7.62521C65.6812 4.92456 67.6026 3.61579 69.545 3.61579ZM78.0035 5.1323C78.7554 5.1323 79.4655 5.67243 79.6117 6.39953H81.5123C81.2617 4.50908 79.6326 3.61579 78.0244 3.61579C75.727 3.61579 74.1606 5.31927 74.1606 7.62521C74.1606 9.93115 75.6435 11.6346 77.9409 11.6346C79.5282 11.6346 81.1363 10.9491 81.5958 8.85089H79.6952C79.4237 9.78573 78.6927 10.1181 78.0244 10.1181C76.9384 10.1181 76.1656 9.20405 76.1656 7.60444C76.1656 6.00482 76.9801 5.1323 78.0035 5.1323ZM86.0237 10.0973C87.1097 10.0973 87.8825 9.22483 87.8825 7.62521C87.8825 6.02559 87.1097 5.15308 86.0237 5.15308C84.9377 5.15308 84.1649 6.02559 84.1649 7.62521C84.1649 9.22483 84.9377 10.0973 86.0237 10.0973ZM86.0237 3.61579C87.9661 3.61579 89.8875 4.94533 89.8875 7.62521C89.8875 10.3259 87.9661 11.6346 86.0237 11.6346C84.0814 11.6346 82.1599 10.3259 82.1599 7.62521C82.1599 4.92456 84.0814 3.61579 86.0237 3.61579ZM91.015 1.12298V11.4478H92.9991V1.12298H91.015ZM104.862 9.78584V11.4478H97.7612V1.12298H99.808V9.78584H104.862ZM108.747 10.3051C107.849 10.3051 107.41 9.84808 107.41 9.28717C107.41 8.41465 108.288 8.16536 110.501 7.93685V8.51852C110.501 9.64033 109.979 10.3051 108.747 10.3051ZM110.439 6.66962C107.41 7.02278 105.364 7.56291 105.364 9.37027C105.364 10.7829 106.679 11.6347 108.162 11.6347C109.332 11.6347 110.146 11.2815 110.689 10.4921C110.71 10.866 110.752 11.1984 110.815 11.4477H112.632C112.486 10.8037 112.402 10.1181 112.402 8.91324C112.402 8.47209 112.41 7.91748 112.416 7.50249L112.416 7.50052L112.416 7.49912L112.416 7.49801L112.416 7.49703C112.42 7.25014 112.423 7.05336 112.423 6.96045C112.423 4.36367 110.94 3.57426 109.102 3.57426C107.118 3.57426 105.865 4.67529 105.719 6.19181H107.557C107.598 5.34007 108.246 4.94536 108.998 4.94536C109.791 4.94536 110.439 5.36084 110.439 6.54497V6.66962ZM117.623 5.11163C116.537 5.11163 115.827 6.06725 115.827 7.60454C115.827 9.14183 116.537 10.1182 117.623 10.1182C118.647 10.1182 119.378 9.12106 119.378 7.62532C119.399 6.12957 118.647 5.11163 117.623 5.11163ZM113.927 1.12298H115.911V4.77924C116.328 4.07292 117.164 3.61589 118.125 3.61589C119.983 3.61589 121.466 5.2155 121.466 7.62532C121.466 10.0351 119.942 11.6347 118.125 11.6347C117.331 11.6347 116.391 11.3231 115.911 10.4714V11.4478H113.927V1.12298ZM124.098 5.73478C124.098 5.25697 124.62 4.9869 125.351 4.9869C126.249 4.9869 126.855 5.44394 127.022 6.08794H128.86C128.588 4.32213 127.126 3.57426 125.456 3.57426C123.785 3.57426 122.302 4.46755 122.302 5.85942C122.302 7.2513 123.263 7.85375 124.704 8.14459L125.852 8.39388C126.5 8.5393 127.106 8.76782 127.106 9.32872C127.106 9.88963 126.542 10.2012 125.706 10.2012C124.683 10.2012 124.161 9.66111 124.035 8.91324H122.135C122.323 10.6583 123.743 11.6347 125.644 11.6347C127.398 11.6347 128.985 10.7414 128.985 9.16253C128.985 7.58368 127.669 7.18897 126.145 6.85658L125.121 6.62807C124.39 6.46188 124.098 6.15026 124.098 5.73478ZM40.7228 18.49V26.3843H38.8013V16.0387H41.4537L45.61 23.9329V16.0387H47.5523V26.3843H44.879L40.7228 18.49ZM52.5649 19.9859C53.4003 19.9859 54.3193 20.4429 54.3611 21.7309H50.7061C50.8523 20.4637 51.813 19.9859 52.5649 19.9859ZM54.2357 24.1407C53.8389 24.8263 53.2332 25.034 52.6276 25.034C51.7086 25.034 50.7896 24.39 50.6643 23.0813H56.3452C56.4287 20.3598 54.8414 18.5317 52.5649 18.5317C50.2884 18.5317 48.7011 20.2975 48.7011 22.4996C48.7011 24.7224 50.1422 26.5505 52.6276 26.5505C54.7161 26.5505 55.8439 25.2833 56.2616 24.1407H54.2357ZM59.7497 16.6203V18.6977H61.3579V20.0481H59.7497V24.0159C59.7497 24.8054 60.0212 24.9508 60.7313 24.9508H61.337V26.3634H59.8959C58.1415 26.3634 57.7864 25.8233 57.7864 24.3068V20.0688H56.7004V18.7185H57.7864V16.6411L59.7497 16.6203ZM69.1065 23.9953L67.8951 18.7187H65.7857L64.5952 24.0161L63.5509 18.7187H61.5877L63.4047 26.3844H65.4306L66.8508 20.5676L68.2502 26.3844H70.2969L72.114 18.7187H70.1507L69.1065 23.9953ZM76.27 25.0133C77.356 25.0133 78.1288 24.1407 78.1288 22.5411C78.1288 20.9415 77.356 20.069 76.27 20.069C75.1839 20.069 74.4111 20.9415 74.4111 22.5411C74.4111 24.1615 75.1839 25.0133 76.27 25.0133ZM76.27 18.5317C78.2123 18.5317 80.1338 19.8612 80.1338 22.5411C80.1338 25.2418 78.2123 26.5505 76.27 26.5505C74.3276 26.5505 72.4061 25.2418 72.4061 22.5411C72.4061 19.8612 74.3276 18.5317 76.27 18.5317ZM83.2458 22.3541C83.2458 20.9207 83.8723 20.5675 84.854 20.5675H85.6685V18.7186C85.5926 18.7186 85.511 18.713 85.4326 18.7076C85.36 18.7026 85.2901 18.6978 85.2299 18.6978C84.3527 18.6978 83.6426 19.0925 83.204 20.0274V18.6978H81.2617V26.3635H83.2458V22.3541ZM88.53 21.7932L91.3286 18.7186H93.5425L90.7856 21.6477L93.7096 26.3843H91.4957L89.4698 23.0604L88.53 24.0575V26.3635H86.5458V16.0387H88.53V21.7932ZM104.048 23.6421C103.567 24.2653 102.941 24.6184 102.168 24.7223C102.082 24.733 101.996 24.7382 101.907 24.7436L101.907 24.7436C101.823 24.7486 101.737 24.7538 101.646 24.7639H101.061H99.8289V17.6591H101.103C101.227 17.6591 101.345 17.6651 101.453 17.6707C101.546 17.6755 101.632 17.6799 101.709 17.6799C101.897 17.6799 102.064 17.7006 102.231 17.7214C103.003 17.8253 103.609 18.1577 104.069 18.7186C104.528 19.2795 104.758 20.0689 104.758 21.1076C104.758 22.1879 104.507 23.0188 104.048 23.6421ZM104.361 16.558C103.839 16.3295 103.275 16.1633 102.669 16.101C102.567 16.0926 102.469 16.0807 102.377 16.0696L102.377 16.0695C102.242 16.0533 102.121 16.0387 102.022 16.0387H101.354H97.7612V26.3635H101.312H101.98C102.147 26.3427 102.356 26.3219 102.628 26.3012C103.233 26.2181 103.797 26.0519 104.319 25.8026C104.841 25.5533 105.301 25.2001 105.698 24.7639C106.095 24.3276 106.387 23.8083 106.617 23.185C106.846 22.5618 106.951 21.8555 106.951 21.0661C106.951 20.2974 106.846 19.5911 106.617 19.0094C106.408 18.4277 106.095 17.9291 105.719 17.5137C105.343 17.0982 104.883 16.7866 104.361 16.558ZM108.162 18.4071H110.23V26.3844H108.162V18.4071ZM109.207 15.4364C109.541 15.4364 109.833 15.5403 110.042 15.748C110.251 15.9558 110.355 16.2051 110.355 16.5374C110.355 16.8698 110.251 17.1399 110.042 17.3269C109.833 17.5346 109.562 17.6177 109.207 17.6177C108.872 17.6177 108.58 17.5138 108.371 17.3269C108.162 17.1191 108.058 16.8698 108.058 16.5374C108.058 16.2258 108.162 15.9558 108.371 15.748C108.58 15.5403 108.872 15.4364 109.207 15.4364ZM116.433 18.2824C116.266 18.2409 116.078 18.2201 115.848 18.2201C115.618 18.2201 115.388 18.2617 115.138 18.3655C114.887 18.4486 114.678 18.5733 114.47 18.7602L113.843 19.8613V18.4071H111.775V26.3844H113.843V22.7281C113.843 21.6479 114.052 20.9 114.49 20.4845C114.929 20.069 115.576 19.8821 116.433 19.9444V18.2824ZM120.526 19.6535C120.046 19.6535 119.649 19.8196 119.315 20.1313C119.002 20.4429 118.793 20.9415 118.688 21.5855H122.218C122.155 20.9622 121.967 20.4844 121.696 20.152C121.424 19.8196 121.028 19.6535 120.526 19.6535ZM124.369 22.2295V22.5411V22.5412C124.369 22.6658 124.369 22.7904 124.348 22.915H118.647C118.668 23.3305 118.751 23.6836 118.856 23.9537C118.96 24.2238 119.106 24.4523 119.273 24.6393C119.44 24.8055 119.628 24.9301 119.837 25.0132C120.046 25.0963 120.276 25.1171 120.526 25.1171C120.986 25.1171 121.362 24.9924 121.654 24.7639C121.947 24.5354 122.135 24.203 122.197 23.7668H124.265C124.16 24.2238 123.993 24.6393 123.764 24.9924C123.534 25.3456 123.242 25.6364 122.928 25.8649C122.594 26.0935 122.218 26.2597 121.8 26.3843C121.383 26.5089 120.944 26.5713 120.464 26.5713C119.921 26.5713 119.399 26.4882 118.918 26.322C118.438 26.1558 118.041 25.8857 117.686 25.5533C117.331 25.2002 117.059 24.7847 116.851 24.2446C116.642 23.7252 116.558 23.102 116.558 22.4164C116.558 21.814 116.663 21.2531 116.851 20.7337C117.039 20.2143 117.31 19.7573 117.665 19.3834C118.02 19.0094 118.438 18.7186 118.939 18.5109C119.44 18.3031 120.004 18.1993 120.61 18.1993C121.216 18.1993 121.759 18.3031 122.218 18.5109C122.678 18.7186 123.074 19.0094 123.388 19.3834C123.701 19.7573 123.952 20.1728 124.098 20.6714C124.307 21.17 124.369 21.6893 124.369 22.2295ZM130.489 18.4278C130.05 18.2823 129.57 18.1993 129.027 18.1993C128.484 18.1993 127.962 18.3031 127.46 18.4693C126.98 18.6563 126.541 18.9471 126.186 19.3003C125.831 19.6535 125.539 20.1105 125.33 20.6298C125.121 21.1492 125.017 21.7516 125.017 22.4372C125.017 23.1227 125.121 23.7252 125.309 24.2446C125.518 24.7639 125.79 25.1794 126.124 25.5326C126.458 25.8649 126.876 26.135 127.335 26.3012C127.795 26.4882 128.296 26.5713 128.839 26.5713C129.841 26.5713 130.677 26.322 131.366 25.8234C132.055 25.3248 132.494 24.5977 132.661 23.6006H130.593C130.489 24.1199 130.28 24.4939 130.008 24.7431C129.716 24.9924 129.382 25.1171 128.964 25.1171C128.442 25.1171 128.003 24.8886 127.669 24.4523C127.335 24.016 127.168 23.3097 127.168 22.3126C127.168 21.3985 127.335 20.7337 127.669 20.2974C128.003 19.8612 128.442 19.6535 128.964 19.6535C129.403 19.6535 129.758 19.7781 130.05 20.0274C130.343 20.2767 130.531 20.6922 130.635 21.2738H132.682C132.64 20.8376 132.536 20.4221 132.348 20.0482C132.18 19.6742 131.93 19.3418 131.617 19.0718C131.303 18.8017 130.927 18.5732 130.489 18.4278ZM136.232 23.5176V23.8915C136.232 23.9954 136.232 24.1201 136.253 24.2239C136.274 24.4109 136.316 24.5771 136.357 24.7017C136.399 24.8264 136.483 24.9302 136.608 24.9926C136.733 25.0549 136.88 25.0964 137.068 25.1172C137.255 25.138 137.485 25.138 137.778 25.1172V26.4675C137.548 26.5091 137.318 26.5298 137.089 26.5506L137.088 26.5506C136.859 26.5714 136.629 26.5714 136.399 26.5714C135.626 26.5714 135.083 26.4468 134.749 26.1767C134.436 25.9066 134.248 25.4912 134.185 24.951C134.164 24.7642 134.164 24.5981 134.164 24.4113V24.4109V23.7877V19.8613H132.995V18.4902H134.164V16.5375H136.232V18.4902H137.882V19.8613H136.232V23.5176ZM143.772 24.4107C143.417 24.8886 142.915 25.1378 142.289 25.1378C141.662 25.1378 141.161 24.8886 140.806 24.4107C140.451 23.9329 140.284 23.2474 140.284 22.3956C140.284 21.5439 140.451 20.8584 140.806 20.3806C141.161 19.9027 141.662 19.6535 142.289 19.6535C142.936 19.6535 143.417 19.9027 143.772 20.3806C144.127 20.8584 144.294 21.5231 144.294 22.3956C144.294 23.2474 144.127 23.9329 143.772 24.4107ZM144.064 18.5109C143.542 18.3031 142.957 18.1993 142.289 18.1993C141.641 18.1993 141.036 18.3031 140.514 18.5109C139.992 18.7186 139.553 19.0094 139.198 19.3834C138.843 19.7573 138.571 20.1936 138.383 20.7129C138.195 21.2323 138.112 21.7932 138.112 22.3956C138.112 22.9773 138.195 23.5382 138.383 24.0576C138.571 24.5769 138.843 25.0132 139.198 25.3871C139.553 25.7611 139.992 26.0519 140.514 26.2597C141.036 26.4674 141.621 26.5713 142.289 26.5713C142.957 26.5713 143.542 26.4674 144.064 26.2597C144.586 26.0519 145.025 25.7611 145.38 25.3871C145.735 25.0132 146.007 24.5769 146.194 24.0576C146.382 23.559 146.466 22.9981 146.466 22.3956C146.466 21.7724 146.382 21.2323 146.194 20.7129C146.007 20.1936 145.735 19.7573 145.38 19.3834C145.025 19.0094 144.586 18.7186 144.064 18.5109ZM151.562 18.2201C151.792 18.2201 151.98 18.2409 152.147 18.2824V19.9444C151.291 19.8821 150.643 20.069 150.205 20.4845C149.766 20.9 149.557 21.6479 149.557 22.7281V26.3844H147.489V18.4071H149.557V19.8613L150.184 18.7602C150.393 18.5733 150.601 18.4486 150.852 18.3655C151.082 18.2617 151.332 18.2201 151.562 18.2201ZM157.076 28.0256C157.306 27.6724 157.515 27.2154 157.724 26.6753L160.982 18.4071H158.705L156.742 24.8056L154.758 18.4071H152.44L155.698 26.7583L155.593 27.0076C155.405 27.4023 155.217 27.6932 154.967 27.8386C154.716 27.984 154.424 28.0671 154.069 28.0671H153.755C153.651 28.0671 153.547 28.0671 153.442 28.0463V29.459C153.588 29.4798 153.734 29.5005 153.881 29.5005C154.027 29.5213 154.194 29.5213 154.382 29.5213C154.779 29.5213 155.155 29.4798 155.468 29.3759C155.781 29.272 156.074 29.1266 156.345 28.8981C156.617 28.6904 156.846 28.3995 157.076 28.0256Z" fill="#010202"/>
</svg>
