<svg width="20" height="20" viewBox="0 0 20 20" fill="none" xmlns="http://www.w3.org/2000/svg">
<path d="M11.9 1.66675C12.2498 1.66684 12.5907 1.77699 12.8744 1.98159C13.1581 2.18619 13.3703 2.47487 13.4808 2.80675L13.9333 4.16675H16.6667C16.8877 4.16675 17.0996 4.25455 17.2559 4.41083C17.4122 4.56711 17.5 4.77907 17.5 5.00008C17.5 5.2211 17.4122 5.43306 17.2559 5.58934C17.0996 5.74562 16.8877 5.83341 16.6667 5.83341L16.6642 5.89258L15.9417 16.0117C15.8966 16.6423 15.6143 17.2323 15.1517 17.663C14.6891 18.0938 14.0805 18.3333 13.4483 18.3334H6.55167C5.91955 18.3333 5.31092 18.0938 4.84831 17.663C4.38569 17.2323 4.10342 16.6423 4.05833 16.0117L3.33583 5.89175L3.33333 5.83341C3.11232 5.83341 2.90036 5.74562 2.74408 5.58934C2.5878 5.43306 2.5 5.2211 2.5 5.00008C2.5 4.77907 2.5878 4.56711 2.74408 4.41083C2.90036 4.25455 3.11232 4.16675 3.33333 4.16675H6.06667L6.51917 2.80675C6.62975 2.47474 6.84203 2.18596 7.12592 1.98134C7.4098 1.77673 7.75089 1.66666 8.10083 1.66675H11.9ZM14.9975 5.83341H5.0025L5.72083 15.8926C5.73579 16.1028 5.82981 16.2995 5.98397 16.4431C6.13812 16.5867 6.34096 16.6666 6.55167 16.6667H13.4483C13.659 16.6666 13.8619 16.5867 14.016 16.4431C14.1702 16.2995 14.2642 16.1028 14.2792 15.8926L14.9975 5.83341ZM8.33333 8.33341C8.53744 8.33344 8.73445 8.40838 8.88698 8.54401C9.03951 8.67964 9.13695 8.86654 9.16083 9.06925L9.16667 9.16675V13.3334C9.16643 13.5458 9.0851 13.7501 8.93929 13.9046C8.79349 14.059 8.59421 14.1519 8.38217 14.1644C8.17014 14.1768 7.96135 14.1079 7.79847 13.9715C7.6356 13.8352 7.53092 13.6418 7.50583 13.4309L7.5 13.3334V9.16675C7.5 8.94573 7.5878 8.73377 7.74408 8.57749C7.90036 8.42121 8.11232 8.33341 8.33333 8.33341ZM11.6667 8.33341C11.8877 8.33341 12.0996 8.42121 12.2559 8.57749C12.4122 8.73377 12.5 8.94573 12.5 9.16675V13.3334C12.5 13.5544 12.4122 13.7664 12.2559 13.9227C12.0996 14.079 11.8877 14.1667 11.6667 14.1667C11.4457 14.1667 11.2337 14.079 11.0774 13.9227C10.9211 13.7664 10.8333 13.5544 10.8333 13.3334V9.16675C10.8333 8.94573 10.9211 8.73377 11.0774 8.57749C11.2337 8.42121 11.4457 8.33341 11.6667 8.33341ZM11.9 3.33341H8.1L7.8225 4.16675H12.1775L11.9 3.33341Z" fill="#DD2C5A"/>
</svg>
