<svg width="34" height="33" viewBox="0 0 34 33" fill="none" xmlns="http://www.w3.org/2000/svg">
<path d="M15.7389 24.5456L9.15762 20.7615C8.97906 20.6336 8.74948 20.7615 8.74948 20.9916V28.5598C8.74948 28.7643 8.85152 28.9433 9.03008 29.0456L15.6113 32.8297C15.7899 32.932 16.0195 32.8041 16.0195 32.5996V25.0314C16.0195 24.8268 15.9174 24.6478 15.7389 24.5456ZM16.045 14.9574L16.0195 22.6279C16.0195 22.8069 15.8409 22.8581 15.7134 22.8069L7.67812 18.2046C7.49956 18.1024 7.26998 18.2302 7.26998 18.4347V27.5115C7.26998 27.716 7.01489 27.8694 6.86184 27.7416L0.280597 24.0086C0.102036 23.9064 0 23.7274 0 23.5228V5.90628C0 5.70174 0.255089 5.54832 0.408141 5.67616L15.7389 14.4205C15.9174 14.5739 16.045 14.7529 16.045 14.9574ZM32.9827 5.82957L26.478 9.53697C26.2995 9.63925 26.1974 9.81822 26.1719 10.0228L26.1974 19.4063C26.1974 19.6109 26.0954 19.7899 25.9168 19.8921L17.7796 24.5711C17.601 24.6734 17.499 24.8524 17.499 25.0569V32.5996C17.499 32.8041 17.7285 32.9575 17.9071 32.8297L33.1103 24.1365C33.2889 24.0342 33.3909 23.8552 33.3909 23.6507V6.08525C33.3909 5.85514 33.1613 5.7273 32.9827 5.82957ZM17.499 14.983V22.5257C17.499 22.7302 17.7285 22.8836 17.9071 22.7558L24.5649 18.9461C24.6414 18.9205 24.6924 18.8183 24.6924 18.716V11.0455C24.6924 10.841 24.4628 10.6875 24.2843 10.8154L17.7796 14.5228C17.601 14.5995 17.499 14.7785 17.499 14.983ZM1.24993 3.80968L7.72914 0.0767049C7.9077 -1.90499e-09 8.11177 -1.90499e-09 8.31584 0.0767049L23.6466 8.82107C23.8251 8.92334 23.8251 9.20459 23.6466 9.30686L17.1418 13.0398C16.9633 13.1421 16.7592 13.1421 16.5807 13.0398L1.24993 4.29547C1.09687 4.1932 1.09687 3.91195 1.24993 3.80968ZM18.6469 3.80968L25.2026 0.0767049C25.3812 -0.0255683 25.5852 -0.0255683 25.7638 0.0767049L32.3705 3.86082C32.5491 3.96309 32.5491 4.24434 32.3705 4.34661L25.8148 8.07959C25.6362 8.18186 25.4322 8.18186 25.2536 8.07959L18.6469 4.29547C18.4683 4.1932 18.4683 3.91195 18.6469 3.80968Z" fill="white"/>
</svg>
