<svg width="20" height="20" viewBox="0 0 20 20" fill="none" xmlns="http://www.w3.org/2000/svg">
<path d="M6.66667 16.6667C6.43056 16.6667 6.23278 16.5867 6.07334 16.4267C5.91389 16.2667 5.83389 16.0689 5.83333 15.8333C5.83278 15.5978 5.91278 15.4 6.07334 15.24C6.23389 15.08 6.43167 15 6.66667 15H13.3333C13.5694 15 13.7675 15.08 13.9275 15.24C14.0875 15.4 14.1672 15.5978 14.1667 15.8333C14.1661 16.0689 14.0861 16.267 13.9267 16.4275C13.7672 16.5881 13.5694 16.6678 13.3333 16.6667H6.66667ZM10 13.3333C9.76389 13.3333 9.56611 13.2533 9.40667 13.0933C9.24722 12.9333 9.16722 12.7356 9.16667 12.5V6.52085L7.58334 8.08335C7.43056 8.23612 7.23972 8.31612 7.01084 8.32335C6.78195 8.33057 6.58389 8.25057 6.41667 8.08335C6.26389 7.93057 6.1875 7.73612 6.1875 7.50001C6.1875 7.2639 6.26389 7.06946 6.41667 6.91668L9.41667 3.91668C9.5 3.83335 9.59028 3.77446 9.6875 3.74001C9.78472 3.70557 9.88889 3.68807 10 3.68751C10.1111 3.68696 10.2153 3.70446 10.3125 3.74001C10.4097 3.77557 10.5 3.83446 10.5833 3.91668L13.5833 6.91668C13.7361 7.06946 13.8161 7.26057 13.8233 7.49001C13.8306 7.71946 13.7506 7.91723 13.5833 8.08335C13.4306 8.23612 13.2361 8.31251 13 8.31251C12.7639 8.31251 12.5694 8.23612 12.4167 8.08335L10.8333 6.52085V12.5C10.8333 12.7361 10.7536 12.9342 10.5942 13.0942C10.4347 13.2542 10.2367 13.3339 10 13.3333Z" fill="#94A3B8"/>
</svg>
