<svg width="20" height="20" viewBox="0 0 20 20" fill="none" xmlns="http://www.w3.org/2000/svg">
<path d="M6.66671 16.6667C6.4306 16.6667 6.23282 16.5867 6.07338 16.4267C5.91393 16.2667 5.83393 16.0689 5.83338 15.8333C5.83282 15.5978 5.91282 15.4 6.07338 15.24C6.23393 15.08 6.43171 15 6.66671 15H13.3334C13.5695 15 13.7675 15.08 13.9275 15.24C14.0875 15.4 14.1673 15.5978 14.1667 15.8333C14.1662 16.0689 14.0862 16.267 13.9267 16.4275C13.7673 16.5881 13.5695 16.6678 13.3334 16.6667H6.66671ZM10 13.3333C9.76393 13.3333 9.56615 13.2533 9.40671 13.0933C9.24727 12.9333 9.16727 12.7356 9.16671 12.5V6.52085L7.58338 8.08335C7.4306 8.23612 7.23977 8.31612 7.01088 8.32335C6.78199 8.33057 6.58393 8.25057 6.41671 8.08335C6.26393 7.93057 6.18754 7.73612 6.18754 7.50001C6.18754 7.2639 6.26393 7.06946 6.41671 6.91668L9.41671 3.91668C9.50004 3.83335 9.59032 3.77446 9.68754 3.74001C9.78477 3.70557 9.88893 3.68807 10 3.68751C10.1112 3.68696 10.2153 3.70446 10.3125 3.74001C10.4098 3.77557 10.5 3.83446 10.5834 3.91668L13.5834 6.91668C13.7362 7.06946 13.8162 7.26057 13.8234 7.49001C13.8306 7.71946 13.7506 7.91723 13.5834 8.08335C13.4306 8.23612 13.2362 8.31251 13 8.31251C12.7639 8.31251 12.5695 8.23612 12.4167 8.08335L10.8334 6.52085V12.5C10.8334 12.7361 10.7537 12.9342 10.5942 13.0942C10.4348 13.2542 10.2367 13.3339 10 13.3333Z" fill="#FF820E"/>
</svg>
