<svg width="302" height="230" viewBox="0 0 302 230" fill="none" xmlns="http://www.w3.org/2000/svg">
<rect x="1" y="1" width="300" height="228" rx="8" fill="#F5F6F7"/>
<rect x="1" y="1" width="300" height="228" rx="8" stroke="#156FF7" stroke-linecap="round" stroke-dasharray="6 6"/>
<path d="M151 76.5V96.5" stroke="#156FF7" stroke-width="1.8" stroke-linecap="round"/>
<path d="M161 86.5L141 86.5" stroke="#156FF7" stroke-width="1.8" stroke-linecap="round"/>
<path d="M108.261 124.5H106.398L110.585 112.864H112.614L116.801 124.5H114.938L111.648 114.977H111.557L108.261 124.5ZM108.574 119.943H114.619V121.42H108.574V119.943ZM121.472 124.67C120.767 124.67 120.138 124.491 119.585 124.131C119.036 123.767 118.604 123.25 118.29 122.58C117.979 121.905 117.824 121.097 117.824 120.153C117.824 119.21 117.981 118.403 118.295 117.733C118.614 117.062 119.049 116.549 119.602 116.193C120.155 115.837 120.782 115.659 121.483 115.659C122.025 115.659 122.46 115.75 122.79 115.932C123.123 116.11 123.381 116.318 123.562 116.557C123.748 116.795 123.892 117.006 123.994 117.188H124.097V112.864H125.795V124.5H124.136V123.142H123.994C123.892 123.328 123.744 123.54 123.551 123.778C123.362 124.017 123.1 124.225 122.767 124.403C122.434 124.581 122.002 124.67 121.472 124.67ZM121.847 123.222C122.335 123.222 122.748 123.093 123.085 122.835C123.426 122.574 123.684 122.212 123.858 121.75C124.036 121.288 124.125 120.75 124.125 120.136C124.125 119.53 124.038 119 123.864 118.545C123.689 118.091 123.434 117.737 123.097 117.483C122.759 117.229 122.343 117.102 121.847 117.102C121.335 117.102 120.909 117.235 120.568 117.5C120.227 117.765 119.97 118.127 119.795 118.585C119.625 119.044 119.54 119.561 119.54 120.136C119.54 120.72 119.627 121.244 119.801 121.71C119.975 122.176 120.233 122.545 120.574 122.818C120.919 123.087 121.343 123.222 121.847 123.222ZM131.487 124.67C130.783 124.67 130.154 124.491 129.601 124.131C129.052 123.767 128.62 123.25 128.305 122.58C127.995 121.905 127.839 121.097 127.839 120.153C127.839 119.21 127.997 118.403 128.311 117.733C128.629 117.062 129.065 116.549 129.618 116.193C130.171 115.837 130.798 115.659 131.499 115.659C132.04 115.659 132.476 115.75 132.805 115.932C133.139 116.11 133.396 116.318 133.578 116.557C133.764 116.795 133.908 117.006 134.01 117.188H134.112V112.864H135.811V124.5H134.152V123.142H134.01C133.908 123.328 133.76 123.54 133.567 123.778C133.377 124.017 133.116 124.225 132.783 124.403C132.449 124.581 132.018 124.67 131.487 124.67ZM131.862 123.222C132.351 123.222 132.764 123.093 133.101 122.835C133.442 122.574 133.699 122.212 133.874 121.75C134.052 121.288 134.141 120.75 134.141 120.136C134.141 119.53 134.054 119 133.879 118.545C133.705 118.091 133.449 117.737 133.112 117.483C132.775 117.229 132.358 117.102 131.862 117.102C131.351 117.102 130.925 117.235 130.584 117.5C130.243 117.765 129.985 118.127 129.811 118.585C129.641 119.044 129.555 119.561 129.555 120.136C129.555 120.72 129.643 121.244 129.817 121.71C129.991 122.176 130.249 122.545 130.589 122.818C130.934 123.087 131.358 123.222 131.862 123.222ZM142.607 124.5V112.864H146.754C147.66 112.864 148.41 113.028 149.004 113.358C149.599 113.687 150.044 114.138 150.339 114.71C150.635 115.278 150.783 115.919 150.783 116.631C150.783 117.347 150.633 117.991 150.334 118.562C150.038 119.131 149.591 119.581 148.993 119.915C148.398 120.244 147.65 120.409 146.749 120.409H143.896V118.92H146.589C147.161 118.92 147.625 118.822 147.982 118.625C148.338 118.424 148.599 118.152 148.766 117.807C148.932 117.462 149.016 117.07 149.016 116.631C149.016 116.191 148.932 115.801 148.766 115.46C148.599 115.119 148.336 114.852 147.976 114.659C147.62 114.466 147.15 114.369 146.567 114.369H144.362V124.5H142.607ZM152.705 124.5V115.773H154.347V117.159H154.438C154.597 116.689 154.877 116.32 155.278 116.051C155.684 115.778 156.142 115.642 156.653 115.642C156.759 115.642 156.884 115.646 157.028 115.653C157.176 115.661 157.292 115.67 157.375 115.682V117.307C157.307 117.288 157.186 117.267 157.011 117.244C156.837 117.218 156.663 117.205 156.489 117.205C156.087 117.205 155.729 117.29 155.415 117.46C155.104 117.627 154.858 117.86 154.676 118.159C154.494 118.455 154.403 118.792 154.403 119.17V124.5H152.705ZM162.209 124.676C161.391 124.676 160.677 124.489 160.067 124.114C159.457 123.739 158.983 123.214 158.646 122.54C158.309 121.866 158.141 121.078 158.141 120.176C158.141 119.271 158.309 118.479 158.646 117.801C158.983 117.123 159.457 116.597 160.067 116.222C160.677 115.847 161.391 115.659 162.209 115.659C163.027 115.659 163.741 115.847 164.351 116.222C164.961 116.597 165.434 117.123 165.771 117.801C166.108 118.479 166.277 119.271 166.277 120.176C166.277 121.078 166.108 121.866 165.771 122.54C165.434 123.214 164.961 123.739 164.351 124.114C163.741 124.489 163.027 124.676 162.209 124.676ZM162.214 123.25C162.745 123.25 163.184 123.11 163.533 122.83C163.881 122.549 164.139 122.176 164.305 121.71C164.476 121.244 164.561 120.731 164.561 120.17C164.561 119.614 164.476 119.102 164.305 118.636C164.139 118.167 163.881 117.79 163.533 117.506C163.184 117.222 162.745 117.08 162.214 117.08C161.68 117.08 161.237 117.222 160.885 117.506C160.536 117.79 160.277 118.167 160.107 118.636C159.94 119.102 159.857 119.614 159.857 120.17C159.857 120.731 159.94 121.244 160.107 121.71C160.277 122.176 160.536 122.549 160.885 122.83C161.237 123.11 161.68 123.25 162.214 123.25ZM168.173 115.773H169.872V125.068C169.872 125.652 169.766 126.144 169.554 126.545C169.346 126.947 169.035 127.252 168.622 127.46C168.213 127.669 167.707 127.773 167.105 127.773C167.045 127.773 166.988 127.773 166.935 127.773C166.878 127.773 166.819 127.771 166.759 127.767V126.307C166.812 126.307 166.859 126.307 166.901 126.307C166.938 126.307 166.982 126.307 167.031 126.307C167.433 126.307 167.723 126.199 167.901 125.983C168.082 125.771 168.173 125.462 168.173 125.057V115.773ZM169.014 114.426C168.719 114.426 168.465 114.328 168.253 114.131C168.045 113.93 167.94 113.691 167.94 113.415C167.94 113.134 168.045 112.896 168.253 112.699C168.465 112.498 168.719 112.398 169.014 112.398C169.31 112.398 169.562 112.498 169.77 112.699C169.982 112.896 170.088 113.134 170.088 113.415C170.088 113.691 169.982 113.93 169.77 114.131C169.562 114.328 169.31 114.426 169.014 114.426ZM175.919 124.676C175.059 124.676 174.319 124.492 173.697 124.125C173.08 123.754 172.603 123.233 172.266 122.562C171.932 121.888 171.766 121.098 171.766 120.193C171.766 119.299 171.932 118.511 172.266 117.83C172.603 117.148 173.072 116.616 173.675 116.233C174.281 115.85 174.989 115.659 175.8 115.659C176.292 115.659 176.769 115.741 177.232 115.903C177.694 116.066 178.108 116.322 178.476 116.67C178.843 117.019 179.133 117.472 179.345 118.028C179.557 118.581 179.663 119.254 179.663 120.045V120.648H172.726V119.375H177.999C177.999 118.928 177.908 118.532 177.726 118.188C177.544 117.839 177.288 117.564 176.959 117.364C176.633 117.163 176.25 117.062 175.811 117.062C175.334 117.062 174.917 117.18 174.561 117.415C174.209 117.646 173.936 117.949 173.743 118.324C173.554 118.695 173.459 119.098 173.459 119.534V120.528C173.459 121.112 173.561 121.608 173.766 122.017C173.974 122.426 174.264 122.739 174.635 122.955C175.006 123.167 175.44 123.273 175.936 123.273C176.258 123.273 176.552 123.227 176.817 123.136C177.082 123.042 177.311 122.902 177.504 122.716C177.697 122.53 177.845 122.301 177.947 122.028L179.555 122.318C179.427 122.792 179.196 123.206 178.862 123.562C178.533 123.915 178.118 124.189 177.618 124.386C177.122 124.58 176.555 124.676 175.919 124.676ZM185.224 124.676C184.38 124.676 183.652 124.485 183.043 124.102C182.437 123.716 181.971 123.184 181.645 122.506C181.319 121.828 181.156 121.051 181.156 120.176C181.156 119.29 181.323 118.508 181.656 117.83C181.99 117.148 182.459 116.616 183.065 116.233C183.671 115.85 184.385 115.659 185.207 115.659C185.87 115.659 186.461 115.782 186.98 116.028C187.499 116.271 187.918 116.612 188.236 117.051C188.558 117.491 188.749 118.004 188.81 118.591H187.156C187.065 118.182 186.857 117.83 186.531 117.534C186.209 117.239 185.777 117.091 185.236 117.091C184.762 117.091 184.348 117.216 183.991 117.466C183.639 117.712 183.365 118.064 183.168 118.523C182.971 118.977 182.872 119.515 182.872 120.136C182.872 120.773 182.969 121.322 183.162 121.784C183.355 122.246 183.628 122.604 183.98 122.858C184.336 123.112 184.755 123.239 185.236 123.239C185.558 123.239 185.849 123.18 186.111 123.062C186.376 122.941 186.598 122.769 186.776 122.545C186.957 122.322 187.084 122.053 187.156 121.739H188.81C188.749 122.303 188.565 122.807 188.259 123.25C187.952 123.693 187.541 124.042 187.026 124.295C186.514 124.549 185.914 124.676 185.224 124.676ZM194.7 115.773V117.136H189.933V115.773H194.7ZM191.212 113.682H192.911V121.938C192.911 122.267 192.96 122.515 193.058 122.682C193.157 122.845 193.284 122.956 193.439 123.017C193.598 123.074 193.77 123.102 193.956 123.102C194.092 123.102 194.212 123.093 194.314 123.074C194.416 123.055 194.496 123.04 194.553 123.028L194.859 124.432C194.761 124.47 194.621 124.508 194.439 124.545C194.257 124.587 194.03 124.61 193.757 124.614C193.31 124.621 192.893 124.542 192.507 124.375C192.121 124.208 191.808 123.951 191.57 123.602C191.331 123.254 191.212 122.816 191.212 122.29V113.682Z" fill="#156FF7"/>
<path d="M82.0279 148.5V138.318H83.2608V147.406H87.9938V148.5H82.0279ZM89.7438 148.5V140.864H90.9171V148.5H89.7438ZM90.3404 139.591C90.1117 139.591 89.9145 139.513 89.7488 139.357C89.5864 139.201 89.5051 139.014 89.5051 138.795C89.5051 138.577 89.5864 138.389 89.7488 138.234C89.9145 138.078 90.1117 138 90.3404 138C90.5691 138 90.7646 138.078 90.927 138.234C91.0927 138.389 91.1756 138.577 91.1756 138.795C91.1756 139.014 91.0927 139.201 90.927 139.357C90.7646 139.513 90.5691 139.591 90.3404 139.591ZM98.4751 142.574L97.4212 142.872C97.3549 142.696 97.2571 142.526 97.1278 142.36C97.0019 142.191 96.8295 142.052 96.6108 141.942C96.392 141.833 96.112 141.778 95.7706 141.778C95.3033 141.778 94.9138 141.886 94.6023 142.102C94.294 142.314 94.1399 142.584 94.1399 142.912C94.1399 143.204 94.246 143.434 94.4581 143.603C94.6702 143.772 95.0017 143.913 95.4524 144.026L96.5859 144.304C97.2687 144.47 97.7775 144.723 98.1122 145.065C98.447 145.403 98.6143 145.839 98.6143 146.372C98.6143 146.81 98.4884 147.201 98.2365 147.545C97.9879 147.89 97.6399 148.162 97.1925 148.361C96.745 148.56 96.2247 148.659 95.6314 148.659C94.8525 148.659 94.2079 148.49 93.6974 148.152C93.187 147.814 92.8639 147.32 92.728 146.67L93.8416 146.392C93.9477 146.803 94.1482 147.111 94.4432 147.317C94.7415 147.522 95.1309 147.625 95.6115 147.625C96.1584 147.625 96.5926 147.509 96.9141 147.277C97.2389 147.042 97.4013 146.76 97.4013 146.432C97.4013 146.167 97.3085 145.945 97.1229 145.766C96.9373 145.583 96.6522 145.447 96.2678 145.358L94.995 145.06C94.2957 144.894 93.782 144.637 93.4538 144.289C93.129 143.938 92.9666 143.499 92.9666 142.972C92.9666 142.541 93.0876 142.16 93.3295 141.828C93.5748 141.497 93.9079 141.237 94.3288 141.048C94.7531 140.859 95.2337 140.764 95.7706 140.764C96.5263 140.764 97.1196 140.93 97.5504 141.261C97.9846 141.593 98.2929 142.03 98.4751 142.574ZM103.702 140.864V141.858H99.7441V140.864H103.702ZM100.898 139.034H102.071V146.312C102.071 146.644 102.119 146.893 102.215 147.058C102.314 147.221 102.44 147.33 102.593 147.386C102.749 147.439 102.913 147.466 103.085 147.466C103.214 147.466 103.32 147.459 103.403 147.446C103.486 147.429 103.552 147.416 103.602 147.406L103.841 148.46C103.761 148.49 103.65 148.52 103.508 148.55C103.365 148.583 103.184 148.599 102.966 148.599C102.634 148.599 102.309 148.528 101.991 148.386C101.676 148.243 101.415 148.026 101.206 147.734C101 147.443 100.898 147.075 100.898 146.631V139.034ZM110.16 151.364C109.961 151.364 109.783 151.347 109.628 151.314C109.472 151.284 109.364 151.254 109.305 151.224L109.603 150.19C109.888 150.263 110.14 150.29 110.358 150.27C110.577 150.25 110.771 150.152 110.94 149.977C111.113 149.804 111.27 149.524 111.412 149.136L111.631 148.54L108.807 140.864H110.08L112.188 146.949H112.268L114.376 140.864H115.648L112.407 149.614C112.261 150.008 112.08 150.335 111.865 150.593C111.649 150.855 111.399 151.049 111.114 151.175C110.832 151.301 110.514 151.364 110.16 151.364ZM120.026 148.659C119.336 148.659 118.731 148.495 118.211 148.167C117.694 147.839 117.29 147.38 116.998 146.79C116.71 146.2 116.566 145.51 116.566 144.722C116.566 143.926 116.71 143.232 116.998 142.638C117.29 142.045 117.694 141.585 118.211 141.256C118.731 140.928 119.336 140.764 120.026 140.764C120.715 140.764 121.318 140.928 121.835 141.256C122.356 141.585 122.76 142.045 123.048 142.638C123.34 143.232 123.486 143.926 123.486 144.722C123.486 145.51 123.34 146.2 123.048 146.79C122.76 147.38 122.356 147.839 121.835 148.167C121.318 148.495 120.715 148.659 120.026 148.659ZM120.026 147.605C120.549 147.605 120.98 147.471 121.318 147.202C121.656 146.934 121.907 146.581 122.069 146.143C122.231 145.706 122.313 145.232 122.313 144.722C122.313 144.211 122.231 143.736 122.069 143.295C121.907 142.854 121.656 142.498 121.318 142.226C120.98 141.954 120.549 141.818 120.026 141.818C119.502 141.818 119.071 141.954 118.733 142.226C118.395 142.498 118.145 142.854 117.982 143.295C117.82 143.736 117.739 144.211 117.739 144.722C117.739 145.232 117.82 145.706 117.982 146.143C118.145 146.581 118.395 146.934 118.733 147.202C119.071 147.471 119.502 147.605 120.026 147.605ZM130.089 145.378V140.864H131.263V148.5H130.089V147.207H130.01C129.831 147.595 129.553 147.925 129.175 148.197C128.797 148.465 128.32 148.599 127.743 148.599C127.266 148.599 126.841 148.495 126.47 148.286C126.099 148.074 125.807 147.756 125.595 147.332C125.383 146.904 125.277 146.366 125.277 145.716V140.864H126.45V145.636C126.45 146.193 126.606 146.637 126.918 146.969C127.232 147.3 127.634 147.466 128.121 147.466C128.412 147.466 128.709 147.391 129.011 147.242C129.316 147.093 129.571 146.864 129.776 146.556C129.985 146.248 130.089 145.855 130.089 145.378ZM133.412 148.5V140.864H134.545V142.017H134.625C134.764 141.639 135.016 141.333 135.381 141.097C135.745 140.862 136.156 140.744 136.613 140.744C136.7 140.744 136.807 140.746 136.937 140.749C137.066 140.753 137.164 140.758 137.23 140.764V141.957C137.19 141.947 137.099 141.933 136.956 141.913C136.817 141.889 136.67 141.878 136.514 141.878C136.143 141.878 135.811 141.956 135.52 142.112C135.231 142.264 135.003 142.476 134.834 142.748C134.668 143.016 134.585 143.323 134.585 143.668V148.5H133.412ZM142.558 151.364V140.864H143.692V142.077H143.831C143.917 141.944 144.036 141.775 144.189 141.57C144.345 141.361 144.567 141.175 144.855 141.013C145.147 140.847 145.541 140.764 146.038 140.764C146.681 140.764 147.248 140.925 147.739 141.246C148.229 141.568 148.612 142.024 148.887 142.614C149.162 143.204 149.3 143.9 149.3 144.702C149.3 145.51 149.162 146.211 148.887 146.805C148.612 147.395 148.231 147.852 147.744 148.177C147.256 148.498 146.695 148.659 146.058 148.659C145.568 148.659 145.175 148.578 144.88 148.415C144.585 148.25 144.358 148.062 144.199 147.854C144.04 147.642 143.917 147.466 143.831 147.327H143.732V151.364H142.558ZM143.712 144.682C143.712 145.259 143.796 145.767 143.965 146.208C144.134 146.646 144.381 146.989 144.706 147.237C145.031 147.482 145.429 147.605 145.899 147.605C146.39 147.605 146.799 147.476 147.127 147.217C147.459 146.955 147.707 146.604 147.873 146.163C148.042 145.719 148.126 145.225 148.126 144.682C148.126 144.145 148.044 143.661 147.878 143.23C147.715 142.796 147.469 142.453 147.137 142.201C146.809 141.946 146.396 141.818 145.899 141.818C145.422 141.818 145.021 141.939 144.696 142.181C144.371 142.42 144.126 142.754 143.96 143.185C143.795 143.613 143.712 144.112 143.712 144.682ZM151.089 148.5V140.864H152.223V142.017H152.303C152.442 141.639 152.694 141.333 153.058 141.097C153.423 140.862 153.834 140.744 154.291 140.744C154.377 140.744 154.485 140.746 154.614 140.749C154.744 140.753 154.841 140.758 154.908 140.764V141.957C154.868 141.947 154.777 141.933 154.634 141.913C154.495 141.889 154.348 141.878 154.192 141.878C153.821 141.878 153.489 141.956 153.197 142.112C152.909 142.264 152.68 142.476 152.511 142.748C152.346 143.016 152.263 143.323 152.263 143.668V148.5H151.089ZM159.168 148.659C158.479 148.659 157.874 148.495 157.354 148.167C156.837 147.839 156.432 147.38 156.141 146.79C155.852 146.2 155.708 145.51 155.708 144.722C155.708 143.926 155.852 143.232 156.141 142.638C156.432 142.045 156.837 141.585 157.354 141.256C157.874 140.928 158.479 140.764 159.168 140.764C159.858 140.764 160.461 140.928 160.978 141.256C161.498 141.585 161.903 142.045 162.191 142.638C162.483 143.232 162.629 143.926 162.629 144.722C162.629 145.51 162.483 146.2 162.191 146.79C161.903 147.38 161.498 147.839 160.978 148.167C160.461 148.495 159.858 148.659 159.168 148.659ZM159.168 147.605C159.692 147.605 160.123 147.471 160.461 147.202C160.799 146.934 161.049 146.581 161.212 146.143C161.374 145.706 161.455 145.232 161.455 144.722C161.455 144.211 161.374 143.736 161.212 143.295C161.049 142.854 160.799 142.498 160.461 142.226C160.123 141.954 159.692 141.818 159.168 141.818C158.645 141.818 158.214 141.954 157.876 142.226C157.538 142.498 157.287 142.854 157.125 143.295C156.963 143.736 156.881 144.211 156.881 144.722C156.881 145.232 156.963 145.706 157.125 146.143C157.287 146.581 157.538 146.934 157.876 147.202C158.214 147.471 158.645 147.605 159.168 147.605ZM164.42 140.864H165.593V149.057C165.593 149.527 165.512 149.935 165.349 150.28C165.19 150.625 164.948 150.891 164.623 151.08C164.302 151.269 163.896 151.364 163.405 151.364C163.366 151.364 163.326 151.364 163.286 151.364C163.246 151.364 163.206 151.364 163.167 151.364V150.27C163.206 150.27 163.243 150.27 163.276 150.27C163.309 150.27 163.346 150.27 163.385 150.27C163.743 150.27 164.005 150.164 164.171 149.952C164.337 149.743 164.42 149.445 164.42 149.057V140.864ZM164.996 139.591C164.768 139.591 164.57 139.513 164.405 139.357C164.242 139.201 164.161 139.014 164.161 138.795C164.161 138.577 164.242 138.389 164.405 138.234C164.57 138.078 164.768 138 164.996 138C165.225 138 165.421 138.078 165.583 138.234C165.749 138.389 165.831 138.577 165.831 138.795C165.831 139.014 165.749 139.201 165.583 139.357C165.421 139.513 165.225 139.591 164.996 139.591ZM170.944 148.659C170.208 148.659 169.573 148.497 169.039 148.172C168.509 147.844 168.1 147.386 167.811 146.8C167.526 146.21 167.384 145.524 167.384 144.741C167.384 143.959 167.526 143.27 167.811 142.673C168.1 142.073 168.501 141.606 169.015 141.271C169.532 140.933 170.135 140.764 170.824 140.764C171.222 140.764 171.615 140.83 172.002 140.963C172.39 141.096 172.743 141.311 173.061 141.609C173.38 141.904 173.633 142.295 173.822 142.783C174.011 143.27 174.105 143.87 174.105 144.582V145.08H168.219V144.065H172.912C172.912 143.634 172.826 143.25 172.654 142.912C172.485 142.574 172.243 142.307 171.928 142.112C171.616 141.916 171.248 141.818 170.824 141.818C170.357 141.818 169.953 141.934 169.611 142.166C169.273 142.395 169.013 142.693 168.831 143.061C168.648 143.429 168.557 143.823 168.557 144.244V144.92C168.557 145.497 168.657 145.986 168.855 146.387C169.058 146.785 169.338 147.088 169.696 147.297C170.054 147.502 170.47 147.605 170.944 147.605C171.252 147.605 171.53 147.562 171.779 147.476C172.031 147.386 172.248 147.254 172.43 147.078C172.612 146.899 172.753 146.677 172.853 146.412L173.986 146.73C173.867 147.115 173.666 147.453 173.385 147.744C173.103 148.033 172.755 148.258 172.341 148.42C171.926 148.58 171.461 148.659 170.944 148.659ZM178.993 148.659C178.277 148.659 177.66 148.49 177.143 148.152C176.626 147.814 176.228 147.348 175.95 146.755C175.672 146.162 175.532 145.484 175.532 144.722C175.532 143.946 175.675 143.262 175.96 142.668C176.248 142.072 176.649 141.606 177.163 141.271C177.68 140.933 178.283 140.764 178.973 140.764C179.51 140.764 179.993 140.864 180.424 141.062C180.855 141.261 181.208 141.54 181.483 141.898C181.758 142.256 181.929 142.673 181.995 143.151H180.822C180.733 142.803 180.534 142.494 180.225 142.226C179.921 141.954 179.51 141.818 178.993 141.818C178.535 141.818 178.134 141.937 177.789 142.176C177.448 142.411 177.181 142.745 176.989 143.175C176.8 143.603 176.706 144.105 176.706 144.682C176.706 145.272 176.798 145.786 176.984 146.223C177.173 146.661 177.438 147 177.779 147.242C178.124 147.484 178.529 147.605 178.993 147.605C179.297 147.605 179.574 147.552 179.823 147.446C180.071 147.34 180.282 147.188 180.454 146.989C180.627 146.79 180.749 146.551 180.822 146.273H181.995C181.929 146.723 181.765 147.129 181.503 147.491C181.245 147.849 180.902 148.134 180.474 148.346C180.05 148.555 179.556 148.659 178.993 148.659ZM187.032 140.864V141.858H183.074V140.864H187.032ZM184.228 139.034H185.401V146.312C185.401 146.644 185.449 146.893 185.545 147.058C185.645 147.221 185.77 147.33 185.923 147.386C186.079 147.439 186.243 147.466 186.415 147.466C186.544 147.466 186.65 147.459 186.733 147.446C186.816 147.429 186.882 147.416 186.932 147.406L187.171 148.46C187.091 148.49 186.98 148.52 186.838 148.55C186.695 148.583 186.515 148.599 186.296 148.599C185.964 148.599 185.64 148.528 185.321 148.386C185.007 148.243 184.745 148.026 184.536 147.734C184.33 147.443 184.228 147.075 184.228 146.631V139.034ZM193.907 143.906V148.5H192.734V138.318H193.907V142.057H194.007C194.186 141.662 194.454 141.349 194.812 141.117C195.173 140.882 195.654 140.764 196.254 140.764C196.774 140.764 197.23 140.869 197.621 141.077C198.012 141.283 198.315 141.599 198.531 142.027C198.75 142.451 198.859 142.991 198.859 143.648V148.5H197.686V143.727C197.686 143.121 197.528 142.652 197.213 142.32C196.902 141.986 196.469 141.818 195.916 141.818C195.531 141.818 195.187 141.899 194.882 142.062C194.58 142.224 194.342 142.461 194.166 142.773C193.993 143.084 193.907 143.462 193.907 143.906ZM204.207 148.659C203.471 148.659 202.837 148.497 202.303 148.172C201.773 147.844 201.363 147.386 201.075 146.8C200.79 146.21 200.648 145.524 200.648 144.741C200.648 143.959 200.79 143.27 201.075 142.673C201.363 142.073 201.765 141.606 202.278 141.271C202.795 140.933 203.398 140.764 204.088 140.764C204.486 140.764 204.878 140.83 205.266 140.963C205.654 141.096 206.007 141.311 206.325 141.609C206.643 141.904 206.897 142.295 207.086 142.783C207.275 143.27 207.369 143.87 207.369 144.582V145.08H201.483V144.065H206.176C206.176 143.634 206.09 143.25 205.917 142.912C205.748 142.574 205.506 142.307 205.192 142.112C204.88 141.916 204.512 141.818 204.088 141.818C203.621 141.818 203.216 141.934 202.875 142.166C202.537 142.395 202.277 142.693 202.094 143.061C201.912 143.429 201.821 143.823 201.821 144.244V144.92C201.821 145.497 201.92 145.986 202.119 146.387C202.321 146.785 202.601 147.088 202.959 147.297C203.317 147.502 203.733 147.605 204.207 147.605C204.515 147.605 204.794 147.562 205.042 147.476C205.294 147.386 205.511 147.254 205.694 147.078C205.876 146.899 206.017 146.677 206.116 146.412L207.25 146.73C207.131 147.115 206.93 147.453 206.648 147.744C206.367 148.033 206.019 148.258 205.604 148.42C205.19 148.58 204.724 148.659 204.207 148.659ZM209.154 148.5V140.864H210.287V142.017H210.367C210.506 141.639 210.758 141.333 211.123 141.097C211.487 140.862 211.898 140.744 212.356 140.744C212.442 140.744 212.55 140.746 212.679 140.749C212.808 140.753 212.906 140.758 212.972 140.764V141.957C212.932 141.947 212.841 141.933 212.699 141.913C212.559 141.889 212.412 141.878 212.256 141.878C211.885 141.878 211.554 141.956 211.262 142.112C210.974 142.264 210.745 142.476 210.576 142.748C210.41 143.016 210.327 143.323 210.327 143.668V148.5H209.154ZM217.332 148.659C216.596 148.659 215.962 148.497 215.428 148.172C214.898 147.844 214.488 147.386 214.2 146.8C213.915 146.21 213.773 145.524 213.773 144.741C213.773 143.959 213.915 143.27 214.2 142.673C214.488 142.073 214.89 141.606 215.403 141.271C215.92 140.933 216.523 140.764 217.213 140.764C217.611 140.764 218.003 140.83 218.391 140.963C218.779 141.096 219.132 141.311 219.45 141.609C219.768 141.904 220.022 142.295 220.211 142.783C220.4 143.27 220.494 143.87 220.494 144.582V145.08H214.608V144.065H219.301C219.301 143.634 219.215 143.25 219.042 142.912C218.873 142.574 218.631 142.307 218.317 142.112C218.005 141.916 217.637 141.818 217.213 141.818C216.746 141.818 216.341 141.934 216 142.166C215.662 142.395 215.402 142.693 215.219 143.061C215.037 143.429 214.946 143.823 214.946 144.244V144.92C214.946 145.497 215.045 145.986 215.244 146.387C215.446 146.785 215.726 147.088 216.084 147.297C216.442 147.502 216.858 147.605 217.332 147.605C217.64 147.605 217.919 147.562 218.167 147.476C218.419 147.386 218.636 147.254 218.819 147.078C219.001 146.899 219.142 146.677 219.241 146.412L220.375 146.73C220.256 147.115 220.055 147.453 219.773 147.744C219.492 148.033 219.144 148.258 218.729 148.42C218.315 148.58 217.849 148.659 217.332 148.659Z" fill="#64748B"/>
</svg>
