<svg width="16" height="16" viewBox="0 0 16 16" fill="none" xmlns="http://www.w3.org/2000/svg">
<path d="M11.08 1.99482C11.0026 1.91722 10.9106 1.85565 10.8094 1.81364C10.7081 1.77162 10.5996 1.75 10.49 1.75C10.3804 1.75 10.2719 1.77162 10.1706 1.81364C10.0694 1.85565 9.97741 1.91722 9.9 1.99482L4.36 7.53482C4.2982 7.5965 4.24917 7.66976 4.21571 7.75041C4.18226 7.83106 4.16504 7.91751 4.16504 8.00482C4.16504 8.09214 4.18226 8.17859 4.21571 8.25924C4.24917 8.33989 4.2982 8.41315 4.36 8.47482L9.9 14.0148C10.2267 14.3415 10.7533 14.3415 11.08 14.0148C11.4067 13.6882 11.4067 13.1615 11.08 12.8348L6.25334 8.00149L11.0867 3.16816C11.4067 2.84816 11.4067 2.31482 11.08 1.99482Z" fill="#156FF7"/>
</svg>
