<svg width="20" height="21" viewBox="0 0 20 21" fill="none" xmlns="http://www.w3.org/2000/svg">
<circle cx="10" cy="10.2207" r="9.5" fill="url(#paint0_linear_2705_6658)" stroke="#E2E8F0"/>
<path d="M10.364 7.62061C10.5616 7.49927 10.6933 7.27913 10.6933 7.03125C10.6933 6.64817 10.383 6.33789 9.99996 6.33789C9.61687 6.33789 9.30659 6.64817 9.30659 7.03125C9.30659 7.28086 9.43833 7.49927 9.63594 7.62061L8.6427 9.60709C8.48496 9.92257 8.07588 10.0127 7.80027 9.79257L6.2558 8.55665C6.34247 8.44051 6.39448 8.29664 6.39448 8.14063C6.39448 7.75755 6.0842 7.44727 5.70111 7.44727C5.31803 7.44727 5.00775 7.75755 5.00775 8.14063C5.00775 8.52371 5.31803 8.83399 5.70111 8.83399H5.71325L6.50541 13.1918C6.60075 13.7187 7.0601 14.1035 7.59746 14.1035H12.4025C12.9381 14.1035 13.3974 13.7205 13.4945 13.1918L14.2867 8.83399H14.2988C14.6819 8.83399 14.9922 8.52371 14.9922 8.14063C14.9922 7.75755 14.6819 7.44727 14.2988 7.44727C13.9157 7.44727 13.6054 7.75755 13.6054 8.14063C13.6054 8.29664 13.6574 8.44051 13.7441 8.55665L12.1996 9.79257C11.924 10.0127 11.515 9.92257 11.3572 9.60709L10.364 7.62061Z" fill="white"/>
<defs>
<linearGradient id="paint0_linear_2705_6658" x1="-1.10205" y1="10.2206" x2="17.8684" y2="3.86159" gradientUnits="userSpaceOnUse">
<stop stop-color="#427DFF"/>
<stop offset="1" stop-color="#44D5BB"/>
</linearGradient>
</defs>
</svg>
