<svg width="24" height="24" viewBox="0 0 24 24" fill="none" xmlns="http://www.w3.org/2000/svg">
<rect width="24" height="24" rx="12" fill="#E2E8F0"/>
<g clip-path="url(#clip0_3076_26303)">
<path d="M17.3333 7.33333C17.5101 7.33333 17.6797 7.40357 17.8047 7.52859C17.9298 7.65362 18 7.82319 18 8C18 8.17681 17.9298 8.34638 17.8047 8.4714C17.6797 8.59643 17.5101 8.66667 17.3333 8.66667H16.6667L16.6647 8.714L16.0427 17.428C16.0187 17.7644 15.8682 18.0792 15.6214 18.309C15.3746 18.5389 15.0499 18.6667 14.7127 18.6667H9.28667C8.94943 18.6667 8.62471 18.5389 8.37792 18.309C8.13114 18.0792 7.98061 17.7644 7.95667 17.428L7.33467 8.71467C7.33366 8.69869 7.33321 8.68268 7.33333 8.66667H6.66667C6.48986 8.66667 6.32029 8.59643 6.19526 8.4714C6.07024 8.34638 6 8.17681 6 8C6 7.82319 6.07024 7.65362 6.19526 7.52859C6.32029 7.40357 6.48986 7.33333 6.66667 7.33333H17.3333ZM15.3313 8.66667H8.66867L9.28733 17.3333H14.7127L15.3313 8.66667ZM13.3333 5.33333C13.5101 5.33333 13.6797 5.40357 13.8047 5.52859C13.9298 5.65362 14 5.82319 14 6C14 6.17681 13.9298 6.34638 13.8047 6.4714C13.6797 6.59643 13.5101 6.66667 13.3333 6.66667H10.6667C10.4899 6.66667 10.3203 6.59643 10.1953 6.4714C10.0702 6.34638 10 6.17681 10 6C10 5.82319 10.0702 5.65362 10.1953 5.52859C10.3203 5.40357 10.4899 5.33333 10.6667 5.33333H13.3333Z" fill="#94A3B8"/>
</g>
<defs>
<clipPath id="clip0_3076_26303">
<rect width="16" height="16" fill="white" transform="translate(4 4)"/>
</clipPath>
</defs>
</svg>
