<svg width="24" height="24" viewBox="0 0 24 24" fill="none" xmlns="http://www.w3.org/2000/svg">
<rect width="24" height="24" rx="12" fill="#E2E8F0"/>
<g clip-path="url(#clip0_3076_26308)">
<path d="M12.9997 6C13.1696 6.00019 13.333 6.06525 13.4566 6.1819C13.5801 6.29855 13.6545 6.45797 13.6645 6.6276C13.6744 6.79722 13.6192 6.96425 13.5102 7.09455C13.4011 7.22486 13.2464 7.3086 13.0777 7.32867L12.9997 7.33333H7.66634V16.6667H16.9997V11.3333C16.9999 11.1634 17.0649 11 17.1816 10.8764C17.2982 10.7529 17.4576 10.6785 17.6273 10.6686C17.7969 10.6586 17.9639 10.7138 18.0942 10.8228C18.2245 10.9319 18.3083 11.0866 18.3283 11.2553L18.333 11.3333V16.6667C18.3331 17.0031 18.2061 17.327 17.9773 17.5737C17.7486 17.8204 17.4351 17.9714 17.0997 17.9967L16.9997 18H7.66634C7.32996 18.0001 7.00596 17.8731 6.75931 17.6443C6.51265 17.4156 6.36157 17.1021 6.33634 16.7667L6.33301 16.6667V7.33333C6.3329 6.99695 6.45995 6.67296 6.68867 6.4263C6.9174 6.17965 7.2309 6.02856 7.56634 6.00333L7.66634 6H12.9997ZM17.1617 6.22867C17.2816 6.1091 17.4426 6.03968 17.6119 6.03451C17.7812 6.02934 17.9462 6.08881 18.0732 6.20083C18.2002 6.31285 18.2799 6.46903 18.2959 6.63765C18.312 6.80626 18.2633 6.97467 18.1597 7.10867L18.1043 7.172L11.5043 13.7713C11.3844 13.8909 11.2234 13.9603 11.0541 13.9655C10.8848 13.9707 10.7199 13.9112 10.5928 13.7992C10.4658 13.6871 10.3861 13.531 10.3701 13.3624C10.354 13.1937 10.4027 13.0253 10.5063 12.8913L10.5617 12.8287L17.1617 6.22867Z" fill="#94A3B8"/>
</g>
<defs>
<clipPath id="clip0_3076_26308">
<rect width="16" height="16" fill="white" transform="translate(4.33301 4)"/>
</clipPath>
</defs>
</svg>
