<svg width="16" height="16" viewBox="0 0 16 16" fill="none" xmlns="http://www.w3.org/2000/svg">
<path d="M8.25274 9.39638L13.0429 6.66046V10.9545C13.0429 11.2312 12.9392 11.4955 12.7563 11.6895C12.5736 11.8832 12.3271 11.9909 12.0714 11.9909H3.92857C3.67289 11.9909 3.42641 11.8832 3.24372 11.6895C3.06083 11.4955 2.95714 11.2312 2.95714 10.9545V6.66046L7.74726 9.39638L7.74728 9.39639C7.82459 9.44053 7.91145 9.46385 8 9.46385C8.08855 9.46385 8.17541 9.44053 8.25273 9.39639L8.25274 9.39638ZM3.92857 2.9C3.3886 2.9 2.87202 3.12756 2.49211 3.5305C2.11238 3.93324 1.9 4.47828 1.9 5.04545V10.9545C1.9 11.5217 2.11238 12.0668 2.49211 12.4695C2.87202 12.8724 3.3886 13.1 3.92857 13.1H12.0714C12.6114 13.1 13.128 12.8724 13.5079 12.4695C13.8876 12.0668 14.1 11.5217 14.1 10.9545V5.04545C14.1 4.47828 13.8876 3.93324 13.5079 3.5305C13.128 3.12756 12.6114 2.9 12.0714 2.9H3.92857ZM13.0429 5.04545V5.39786L8 8.27757L2.95714 5.39786V5.04545C2.95714 4.76876 3.06083 4.50449 3.24372 4.31053C3.42641 4.11676 3.67289 4.00909 3.92857 4.00909H12.0714C12.3271 4.00909 12.5736 4.11676 12.7563 4.31053C12.9392 4.50449 13.0429 4.76876 13.0429 5.04545Z" fill="#64748B" stroke="#64748B" stroke-width="0.2"/>
</svg>
