<svg width="16" height="16" viewBox="0 0 16 16" fill="none" xmlns="http://www.w3.org/2000/svg">
<path d="M8.28441 9.52855L13.9 6.50443V11.25C13.9 11.555 13.7788 11.8475 13.5632 12.0632C13.3475 12.2788 13.055 12.4 12.75 12.4H3.25C2.945 12.4 2.65249 12.2788 2.43683 12.0632C2.22116 11.8475 2.1 11.555 2.1 11.25V6.50443L7.71559 9.52855L7.7156 9.52855C7.80301 9.57561 7.90073 9.60024 8 9.60024C8.09927 9.60024 8.19699 9.57561 8.2844 9.52855L8.28441 9.52855ZM3.25 2.4C2.62674 2.4 2.02901 2.64759 1.5883 3.0883C1.14759 3.52901 0.9 4.12674 0.9 4.75V11.25C0.9 11.8733 1.14759 12.471 1.5883 12.9117C2.02901 13.3524 2.62674 13.6 3.25 13.6H12.75C13.3733 13.6 13.971 13.3524 14.4117 12.9117C14.8524 12.471 15.1 11.8733 15.1 11.25V4.75C15.1 4.12674 14.8524 3.52901 14.4117 3.0883C13.971 2.64759 13.3733 2.4 12.75 2.4H3.25ZM13.9 4.75V5.14177L8 8.31843L2.1 5.14177V4.75C2.1 4.445 2.22116 4.15249 2.43683 3.93683C2.65249 3.72116 2.945 3.6 3.25 3.6H12.75C13.055 3.6 13.3475 3.72116 13.5632 3.93683C13.7788 4.15249 13.9 4.445 13.9 4.75Z" fill="#156FF7" stroke="#156FF7" stroke-width="0.2"/>
</svg>
