<svg width="24" height="24" viewBox="0 0 24 24" fill="none" xmlns="http://www.w3.org/2000/svg">
<rect width="24" height="24" rx="12" fill="#FFEAC1"/>
<path d="M15.0211 10.1487C15.4545 10.0011 15.7686 9.59287 15.7686 9.10767C15.7686 8.55025 15.3493 8.0886 14.8107 8.01952L15.4765 6.30799C15.5676 6.07088 15.5095 5.80552 15.3273 5.62808C15.1452 5.45222 14.8767 5.40354 14.6427 5.50247L13.3269 6.06617L12.4444 5.18214C12.3251 5.06438 12.1681 5 12.0001 5C11.832 5 11.6735 5.06595 11.5557 5.18371L10.6717 6.06774L9.35582 5.50404C9.12343 5.40354 8.85492 5.45379 8.67278 5.62965C8.49063 5.80709 8.43097 6.07245 8.52361 6.30956L9.18938 8.02109C8.64922 8.09017 8.23155 8.55182 8.23155 9.10924C8.23155 9.59287 8.54402 10.0027 8.9774 10.1503C7.73065 11.8367 6.81836 14.1135 6.81836 15.3885C6.81836 16.4814 7.44801 17.4518 8.59427 18.1223C9.54896 18.6797 10.7894 19 12.0001 19C13.2091 19 14.4512 18.6797 15.4043 18.1223C16.5505 17.4533 17.1818 16.483 17.1818 15.3885C17.1818 14.1135 16.2695 11.8367 15.0211 10.1487ZM9.1093 6.08188L10.6198 6.7288C10.7376 6.78062 10.8742 6.75393 10.9653 6.66285L12.0001 5.62808L13.0333 6.66285C13.1243 6.75393 13.2609 6.77905 13.3803 6.7288L14.8908 6.08188L14.1403 8.01009H9.85986L9.1093 6.08188ZM8.85963 9.10767C8.85963 8.84859 9.07004 8.63661 9.3307 8.63661H14.6694C14.9285 8.63661 15.1405 8.84859 15.1405 9.10767C15.1405 9.36833 14.9285 9.57873 14.6694 9.57873H9.3307C9.07004 9.57873 8.85963 9.3699 8.85963 9.10767ZM12.0001 18.3719C10.1629 18.3719 7.44644 17.4235 7.44644 15.3885C7.44644 14.0931 8.48906 11.7629 9.73895 10.2068H14.2612C15.5095 11.7629 16.5537 14.0931 16.5537 15.3885C16.5537 17.4251 13.8356 18.3719 12.0001 18.3719Z" fill="#D87705" stroke="#D87705" stroke-width="0.6"/>
</svg>
