<svg width="22" height="22" viewBox="0 0 22 22" fill="none" xmlns="http://www.w3.org/2000/svg">
<rect x="0.5" y="0.5" width="21" height="21" rx="10.5" fill="white" stroke="#E2E8F0"/>
<path d="M11.523 14.7219C11.5929 14.7915 11.6484 14.8743 11.6862 14.9655C11.7241 15.0567 11.7436 15.1544 11.7436 15.2531C11.7436 15.3518 11.7241 15.4496 11.6862 15.5407C11.6484 15.6319 11.5929 15.7147 11.523 15.7844L11.1517 16.1556C10.4483 16.8591 9.49413 17.2543 8.49925 17.2543C7.50437 17.2543 6.55024 16.8591 5.84675 16.1556C5.14326 15.4521 4.74805 14.498 4.74805 13.5031C4.74805 12.5082 5.14326 11.5541 5.84675 10.8506L7.35425 9.34375C8.03018 8.66615 8.93961 8.27264 9.89626 8.24382C10.8529 8.215 11.7844 8.55306 12.4999 9.18875C12.5737 9.25441 12.634 9.33398 12.6771 9.42291C12.7202 9.51184 12.7454 9.60839 12.7512 9.70705C12.757 9.80572 12.7433 9.90456 12.7109 9.99793C12.6785 10.0913 12.628 10.1774 12.5624 10.2512C12.4967 10.3251 12.4171 10.3853 12.3282 10.4284C12.2393 10.4716 12.1427 10.4967 12.0441 10.5025C11.9454 10.5084 11.8466 10.4947 11.7532 10.4623C11.6598 10.4299 11.5737 10.3794 11.4999 10.3137C11.0708 9.9327 10.5124 9.72999 9.93882 9.74706C9.36524 9.76414 8.81987 9.99972 8.41425 10.4056L6.908 11.9106C6.48597 12.3326 6.24888 12.905 6.24888 13.5019C6.24888 14.0987 6.48597 14.6711 6.908 15.0931C7.33002 15.5151 7.90241 15.7522 8.49925 15.7522C9.09608 15.7522 9.66847 15.5151 10.0905 15.0931L10.4617 14.7219C10.5314 14.6521 10.6141 14.5968 10.7052 14.5591C10.7962 14.5213 10.8938 14.5019 10.9924 14.5019C11.0909 14.5019 11.1885 14.5213 11.2796 14.5591C11.3706 14.5968 11.4533 14.6521 11.523 14.7219ZM16.153 5.84687C15.4489 5.14447 14.495 4.75 13.5005 4.75C12.506 4.75 11.5521 5.14447 10.848 5.84687L10.4767 6.21812C10.3359 6.35902 10.2567 6.55012 10.2567 6.74937C10.2567 6.94863 10.3359 7.13973 10.4767 7.28062C10.6176 7.42152 10.8087 7.50067 11.008 7.50067C11.2073 7.50067 11.3984 7.42152 11.5392 7.28062L11.9105 6.90937C12.3325 6.48735 12.9049 6.25026 13.5017 6.25026C14.0986 6.25026 14.671 6.48735 15.093 6.90937C15.515 7.3314 15.7521 7.90379 15.7521 8.50062C15.7521 9.09746 15.515 9.66985 15.093 10.0919L13.5861 11.5994C13.1801 12.0051 12.6345 12.2403 12.0607 12.257C11.487 12.2736 10.9286 12.0703 10.4999 11.6887C10.426 11.6231 10.3399 11.5726 10.2466 11.5402C10.1532 11.5078 10.0543 11.4941 9.95568 11.4999C9.85702 11.5058 9.76046 11.5309 9.67153 11.574C9.5826 11.6172 9.50303 11.6774 9.43737 11.7512C9.37171 11.8251 9.32124 11.9112 9.28885 12.0046C9.25646 12.0979 9.24277 12.1968 9.24857 12.2954C9.25438 12.3941 9.27956 12.4907 9.32267 12.5796C9.36579 12.6685 9.426 12.7481 9.49987 12.8137C10.2149 13.4493 11.1457 13.7876 12.1019 13.7593C13.0581 13.7311 13.9674 13.3385 14.6436 12.6619L16.1511 11.155C16.8543 10.4511 17.2495 9.49693 17.2499 8.50195C17.2502 7.50697 16.8557 6.55251 16.153 5.84812V5.84687Z" fill="#64748B"/>
</svg>
