<svg width="16" height="16" viewBox="0 0 16 16" fill="none" xmlns="http://www.w3.org/2000/svg">
<path fill-rule="evenodd" clip-rule="evenodd" d="M5.83432 11.7658C5.68434 11.6157 5.60009 11.4123 5.60009 11.2002C5.60009 10.988 5.68434 10.7846 5.83432 10.6346L8.46872 8.00017L5.83432 5.36577C5.75791 5.29197 5.69696 5.2037 5.65504 5.10609C5.61311 5.00849 5.59104 4.90351 5.59012 4.79729C5.58919 4.69107 5.60944 4.58572 5.64966 4.48741C5.68989 4.38909 5.74929 4.29977 5.8244 4.22466C5.89952 4.14954 5.98884 4.09014 6.08715 4.04991C6.18547 4.00969 6.29082 3.98945 6.39704 3.99037C6.50326 3.99129 6.60824 4.01336 6.70584 4.05529C6.80344 4.09722 6.89172 4.15816 6.96552 4.23457L10.1655 7.43457C10.3155 7.58459 10.3997 7.78804 10.3997 8.00017C10.3997 8.2123 10.3155 8.41575 10.1655 8.56577L6.96552 11.7658C6.8155 11.9157 6.61205 12 6.39992 12C6.18779 12 5.98434 11.9157 5.83432 11.7658Z" fill="#64748B"/>
</svg>
