<svg width="24" height="24" viewBox="0 0 24 24" fill="none" xmlns="http://www.w3.org/2000/svg">
<rect width="24" height="24" rx="12" fill="#DD2C5A" fill-opacity="0.1"/>
<path d="M9.08342 7.33268C9.08342 7.02326 9.20633 6.72652 9.42512 6.50772C9.64392 6.28893 9.94066 6.16602 10.2501 6.16602H13.7501C14.0595 6.16602 14.3562 6.28893 14.575 6.50772C14.7938 6.72652 14.9167 7.02326 14.9167 7.33268V8.49935H17.2501C17.4048 8.49935 17.5532 8.56081 17.6626 8.6702C17.772 8.7796 17.8334 8.92797 17.8334 9.08268C17.8334 9.23739 17.772 9.38577 17.6626 9.49516C17.5532 9.60456 17.4048 9.66602 17.2501 9.66602H16.6265L16.1207 16.7488C16.0998 17.0432 15.9681 17.3187 15.7521 17.5198C15.5362 17.7209 15.2521 17.8327 14.957 17.8327H9.04258C8.7475 17.8327 8.46337 17.7209 8.24743 17.5198C8.03149 17.3187 7.89978 17.0432 7.87883 16.7488L7.37425 9.66602H6.75008C6.59537 9.66602 6.447 9.60456 6.3376 9.49516C6.22821 9.38577 6.16675 9.23739 6.16675 9.08268C6.16675 8.92797 6.22821 8.7796 6.3376 8.6702C6.447 8.56081 6.59537 8.49935 6.75008 8.49935H9.08342V7.33268ZM10.2501 8.49935H13.7501V7.33268H10.2501V8.49935ZM8.54325 9.66602L9.04316 16.666H14.9576L15.4575 9.66602H8.54325Z" fill="#DD2C5A"/>
</svg>
