<svg width="21" height="20" viewBox="0 0 21 20" fill="none" xmlns="http://www.w3.org/2000/svg">
<circle cx="10.75" cy="10" r="9.5" fill="url(#paint0_linear_2936_35498)" stroke="#E2E8F0"/>
<path fill-rule="evenodd" clip-rule="evenodd" d="M7.25 8C7.25 7.60218 7.40804 7.22064 7.68934 6.93934C7.97064 6.65804 8.35218 6.5 8.75 6.5H13.75C13.8429 6.5 13.9339 6.52586 14.0129 6.57467C14.0919 6.62349 14.1557 6.69334 14.1972 6.77639C14.2387 6.85945 14.2563 6.95242 14.248 7.0449C14.2396 7.13738 14.2057 7.22572 14.15 7.3L12.875 9L14.15 10.7C14.2057 10.7743 14.2396 10.8626 14.248 10.9551C14.2563 11.0476 14.2387 11.1406 14.1972 11.2236C14.1557 11.3067 14.0919 11.3765 14.0129 11.4253C13.9339 11.4741 13.8429 11.5 13.75 11.5H8.75C8.61739 11.5 8.49021 11.5527 8.39645 11.6464C8.30268 11.7402 8.25 11.8674 8.25 12V13.5C8.25 13.6326 8.19732 13.7598 8.10355 13.8536C8.00979 13.9473 7.88261 14 7.75 14C7.61739 14 7.49021 13.9473 7.39645 13.8536C7.30268 13.7598 7.25 13.6326 7.25 13.5V8Z" fill="white"/>
<defs>
<linearGradient id="paint0_linear_2936_35498" x1="-0.352052" y1="9.9999" x2="18.6184" y2="3.64089" gradientUnits="userSpaceOnUse">
<stop stop-color="#427DFF"/>
<stop offset="1" stop-color="#44D5BB"/>
</linearGradient>
</defs>
</svg>
