<svg width="255" height="175" viewBox="0 0 255 175" fill="none" xmlns="http://www.w3.org/2000/svg">
<mask id="mask0_13_101" style="mask-type:alpha" maskUnits="userSpaceOnUse" x="0" y="0" width="255" height="175">
<rect width="255" height="175" rx="8" fill="url(#paint0_radial_13_101)"/>
</mask>
<g mask="url(#mask0_13_101)">
<rect x="0.5" y="0.5" width="65" height="25" rx="12.5" fill="#F8FAFC"/>
<rect x="0.5" y="0.5" width="65" height="25" rx="12.5" stroke="#F1F5F9"/>
<rect x="74.5" y="0.5" width="47" height="25" rx="12.5" fill="#F8FAFC"/>
<rect x="74.5" y="0.5" width="47" height="25" rx="12.5" stroke="#F1F5F9"/>
<rect x="130.5" y="0.5" width="73" height="25" rx="12.5" fill="#F8FAFC"/>
<rect x="130.5" y="0.5" width="73" height="25" rx="12.5" stroke="#F1F5F9"/>
<path d="M224.959 17V8.27273H226.276V12.0653H230.626V8.27273H231.947V17H230.626V13.1946H226.276V17H224.959ZM236.52 17.1321C235.906 17.1321 235.371 16.9915 234.913 16.7102C234.456 16.429 234.101 16.0355 233.848 15.5298C233.595 15.0241 233.469 14.4332 233.469 13.7571C233.469 13.0781 233.595 12.4844 233.848 11.9759C234.101 11.4673 234.456 11.0724 234.913 10.7912C235.371 10.5099 235.906 10.3693 236.52 10.3693C237.134 10.3693 237.669 10.5099 238.126 10.7912C238.584 11.0724 238.939 11.4673 239.192 11.9759C239.445 12.4844 239.571 13.0781 239.571 13.7571C239.571 14.4332 239.445 15.0241 239.192 15.5298C238.939 16.0355 238.584 16.429 238.126 16.7102C237.669 16.9915 237.134 17.1321 236.52 17.1321ZM236.524 16.0625C236.922 16.0625 237.251 15.9574 237.513 15.7472C237.774 15.5369 237.967 15.2571 238.092 14.9077C238.22 14.5582 238.284 14.1733 238.284 13.7528C238.284 13.3352 238.22 12.9517 238.092 12.6023C237.967 12.25 237.774 11.9673 237.513 11.7543C237.251 11.5412 236.922 11.4347 236.524 11.4347C236.124 11.4347 235.791 11.5412 235.527 11.7543C235.266 11.9673 235.071 12.25 234.943 12.6023C234.818 12.9517 234.756 13.3352 234.756 13.7528C234.756 14.1733 234.818 14.5582 234.943 14.9077C235.071 15.2571 235.266 15.5369 235.527 15.7472C235.791 15.9574 236.124 16.0625 236.524 16.0625ZM245.898 12.0526L244.743 12.2571C244.695 12.1094 244.618 11.9687 244.513 11.8352C244.411 11.7017 244.272 11.5923 244.096 11.5071C243.919 11.4219 243.699 11.3793 243.435 11.3793C243.074 11.3793 242.773 11.4602 242.532 11.6222C242.29 11.7812 242.169 11.9872 242.169 12.2401C242.169 12.4588 242.25 12.6349 242.412 12.7685C242.574 12.902 242.836 13.0114 243.196 13.0966L244.236 13.3352C244.838 13.4744 245.287 13.6889 245.583 13.9787C245.878 14.2685 246.026 14.6449 246.026 15.108C246.026 15.5 245.912 15.8494 245.685 16.1562C245.461 16.4602 245.147 16.6989 244.743 16.8722C244.343 17.0455 243.878 17.1321 243.35 17.1321C242.617 17.1321 242.019 16.9759 241.556 16.6634C241.093 16.348 240.809 15.9006 240.703 15.321L241.935 15.1335C242.012 15.4545 242.169 15.6974 242.408 15.8622C242.647 16.0241 242.958 16.1051 243.341 16.1051C243.759 16.1051 244.093 16.0185 244.343 15.8452C244.593 15.669 244.718 15.4545 244.718 15.2017C244.718 14.9972 244.641 14.8253 244.488 14.6861C244.337 14.5469 244.105 14.4418 243.793 14.3707L242.685 14.1278C242.074 13.9886 241.623 13.767 241.33 13.4631C241.04 13.1591 240.895 12.7741 240.895 12.3082C240.895 11.9219 241.003 11.5838 241.219 11.294C241.435 11.0043 241.733 10.7784 242.114 10.6165C242.495 10.4517 242.931 10.3693 243.422 10.3693C244.13 10.3693 244.686 10.5227 245.093 10.8295C245.499 11.1335 245.767 11.5412 245.898 12.0526ZM250.482 10.4545V11.4773H246.907V10.4545H250.482ZM247.866 8.88636H249.14V15.0781C249.14 15.3253 249.177 15.5114 249.251 15.6364C249.325 15.7585 249.42 15.8423 249.536 15.8878C249.656 15.9304 249.785 15.9517 249.924 15.9517C250.026 15.9517 250.116 15.9446 250.192 15.9304C250.269 15.9162 250.329 15.9048 250.371 15.8963L250.602 16.9489C250.528 16.9773 250.423 17.0057 250.286 17.0341C250.15 17.0653 249.979 17.0824 249.775 17.0852C249.44 17.0909 249.127 17.0312 248.837 16.9062C248.548 16.7812 248.313 16.5881 248.134 16.3267C247.955 16.0653 247.866 15.7372 247.866 15.3423V8.88636ZM251.892 17V10.4545H253.166V17H251.892ZM252.535 9.4446C252.314 9.4446 252.123 9.37074 251.964 9.22301C251.808 9.07244 251.73 8.89347 251.73 8.68608C251.73 8.47585 251.808 8.29687 251.964 8.14915C252.123 7.99858 252.314 7.9233 252.535 7.9233C252.757 7.9233 252.946 7.99858 253.102 8.14915C253.261 8.29687 253.341 8.47585 253.341 8.68608C253.341 8.89347 253.261 9.07244 253.102 9.22301C252.946 9.37074 252.757 9.4446 252.535 9.4446ZM256.154 13.1136V17H254.88V10.4545H256.103V11.5199H256.184C256.335 11.1733 256.57 10.8949 256.891 10.6847C257.215 10.4744 257.623 10.3693 258.114 10.3693C258.56 10.3693 258.951 10.4631 259.286 10.6506C259.621 10.8352 259.881 11.1108 260.066 11.4773C260.251 11.8437 260.343 12.2969 260.343 12.8366V17H259.069V12.9901C259.069 12.5156 258.945 12.1449 258.698 11.8778C258.451 11.608 258.112 11.473 257.68 11.473C257.384 11.473 257.121 11.5369 256.891 11.6648C256.664 11.7926 256.484 11.9801 256.35 12.2273C256.219 12.4716 256.154 12.767 256.154 13.1136ZM264.796 19.5909C264.276 19.5909 263.829 19.5227 263.454 19.3864C263.082 19.25 262.778 19.0696 262.542 18.8452C262.306 18.6207 262.13 18.375 262.013 18.108L263.109 17.6562C263.185 17.7812 263.288 17.9134 263.415 18.0526C263.546 18.1946 263.722 18.3153 263.944 18.4148C264.168 18.5142 264.457 18.5639 264.809 18.5639C265.292 18.5639 265.691 18.446 266.006 18.2102C266.322 17.9773 266.479 17.6051 266.479 17.0938V15.8068H266.398C266.322 15.946 266.211 16.1009 266.066 16.2713C265.924 16.4418 265.728 16.5895 265.478 16.7145C265.228 16.8395 264.903 16.902 264.502 16.902C263.985 16.902 263.519 16.7812 263.104 16.5398C262.692 16.2955 262.366 15.9361 262.124 15.4616C261.886 14.9844 261.766 14.3977 261.766 13.7017C261.766 13.0057 261.884 12.4091 262.12 11.9119C262.359 11.4148 262.685 11.0341 263.1 10.7699C263.515 10.5028 263.985 10.3693 264.511 10.3693C264.917 10.3693 265.245 10.4375 265.495 10.5739C265.745 10.7074 265.94 10.8636 266.079 11.0426C266.221 11.2216 266.33 11.3793 266.407 11.5156H266.501V10.4545H267.749V17.1449C267.749 17.7074 267.619 18.169 267.357 18.5298C267.096 18.8906 266.742 19.1577 266.296 19.331C265.853 19.5043 265.353 19.5909 264.796 19.5909ZM264.783 15.8452C265.15 15.8452 265.46 15.7599 265.712 15.5895C265.968 15.4162 266.161 15.169 266.292 14.848C266.425 14.5241 266.492 14.1364 266.492 13.6847C266.492 13.2443 266.427 12.8565 266.296 12.5213C266.165 12.1861 265.974 11.9247 265.721 11.7372C265.468 11.5469 265.156 11.4517 264.783 11.4517C264.4 11.4517 264.08 11.5511 263.825 11.75C263.569 11.946 263.376 12.2131 263.245 12.5511C263.117 12.8892 263.053 13.267 263.053 13.6847C263.053 14.1136 263.119 14.4901 263.249 14.8139C263.38 15.1378 263.573 15.3906 263.829 15.5724C264.087 15.7543 264.406 15.8452 264.783 15.8452Z" fill="#0F172A"/>
<rect x="212.5" y="0.5" width="68" height="25" rx="12.5" stroke="#CBD5E1"/>
<rect x="83.5" y="34.5" width="127" height="25" rx="12.5" fill="#F8FAFC"/>
<rect x="83.5" y="34.5" width="127" height="25" rx="12.5" stroke="#F1F5F9"/>
<rect x="219.5" y="34.5" width="67" height="25" rx="12.5" fill="#F8FAFC"/>
<rect x="219.5" y="34.5" width="67" height="25" rx="12.5" stroke="#F1F5F9"/>
<rect x="0.5" y="68.5" width="55" height="25" rx="12.5" fill="#F8FAFC"/>
<rect x="0.5" y="68.5" width="55" height="25" rx="12.5" stroke="#F1F5F9"/>
<rect x="64.5" y="68.5" width="49" height="25" rx="12.5" fill="#F8FAFC"/>
<rect x="64.5" y="68.5" width="49" height="25" rx="12.5" stroke="#F1F5F9"/>
<rect x="122.5" y="68.5" width="83" height="25" rx="12.5" fill="#F8FAFC"/>
<rect x="122.5" y="68.5" width="83" height="25" rx="12.5" stroke="#F1F5F9"/>
<rect x="214.5" y="68.5" width="49" height="25" rx="12.5" fill="#F8FAFC"/>
<rect x="214.5" y="68.5" width="49" height="25" rx="12.5" stroke="#F1F5F9"/>
<rect x="0.5" y="102.5" width="23" height="25" rx="11.5" fill="#F8FAFC"/>
<rect x="0.5" y="102.5" width="23" height="25" rx="11.5" stroke="#F1F5F9"/>
<rect x="32.5" y="102.5" width="125" height="25" rx="12.5" fill="#F8FAFC"/>
<rect x="32.5" y="102.5" width="125" height="25" rx="12.5" stroke="#F1F5F9"/>
<rect x="166.5" y="102.5" width="58" height="25" rx="12.5" fill="#F8FAFC"/>
<rect x="166.5" y="102.5" width="58" height="25" rx="12.5" stroke="#F1F5F9"/>
<rect x="0.5" y="136.5" width="115" height="25" rx="12.5" fill="#F8FAFC"/>
<rect x="0.5" y="136.5" width="115" height="25" rx="12.5" stroke="#F1F5F9"/>
<rect x="124.5" y="136.5" width="58" height="25" rx="12.5" fill="#F8FAFC"/>
<rect x="124.5" y="136.5" width="58" height="25" rx="12.5" stroke="#F1F5F9"/>
<rect x="191.5" y="136.5" width="59" height="25" rx="12.5" fill="#F8FAFC"/>
<rect x="191.5" y="136.5" width="59" height="25" rx="12.5" stroke="#F1F5F9"/>
<g filter="url(#filter0_dd_13_101)">
<rect x="0.5" y="170.5" width="48" height="25" rx="12.5" stroke="#CBD5E1" shape-rendering="crispEdges"/>
</g>
<rect x="57.5" y="170.5" width="81" height="25" rx="12.5" fill="#F8FAFC"/>
<rect x="57.5" y="170.5" width="81" height="25" rx="12.5" stroke="#F1F5F9"/>
<rect x="147.5" y="170.5" width="59" height="25" rx="12.5" fill="#F8FAFC"/>
<rect x="147.5" y="170.5" width="59" height="25" rx="12.5" stroke="#F1F5F9"/>
<rect x="215.5" y="170.5" width="49" height="25" rx="12.5" stroke="#CBD5E1"/>
</g>
<defs>
<filter id="filter0_dd_13_101" x="-4" y="169" width="57" height="35" filterUnits="userSpaceOnUse" color-interpolation-filters="sRGB">
<feFlood flood-opacity="0" result="BackgroundImageFix"/>
<feColorMatrix in="SourceAlpha" type="matrix" values="0 0 0 0 0 0 0 0 0 0 0 0 0 0 0 0 0 0 127 0" result="hardAlpha"/>
<feOffset dy="4"/>
<feGaussianBlur stdDeviation="2"/>
<feComposite in2="hardAlpha" operator="out"/>
<feColorMatrix type="matrix" values="0 0 0 0 0.0588235 0 0 0 0 0.0901961 0 0 0 0 0.164706 0 0 0 0.04 0"/>
<feBlend mode="normal" in2="BackgroundImageFix" result="effect1_dropShadow_13_101"/>
<feColorMatrix in="SourceAlpha" type="matrix" values="0 0 0 0 0 0 0 0 0 0 0 0 0 0 0 0 0 0 127 0" result="hardAlpha"/>
<feOffset/>
<feGaussianBlur stdDeviation="0.5"/>
<feComposite in2="hardAlpha" operator="out"/>
<feColorMatrix type="matrix" values="0 0 0 0 0.0588235 0 0 0 0 0.0901961 0 0 0 0 0.164706 0 0 0 0.12 0"/>
<feBlend mode="normal" in2="effect1_dropShadow_13_101" result="effect2_dropShadow_13_101"/>
<feBlend mode="normal" in="SourceGraphic" in2="effect2_dropShadow_13_101" result="shape"/>
</filter>
<radialGradient id="paint0_radial_13_101" cx="0" cy="0" r="1" gradientUnits="userSpaceOnUse" gradientTransform="translate(127.5 87.5) rotate(90) scale(87.5 127.5)">
<stop offset="0.732968" stop-color="white"/>
<stop offset="1" stop-color="white" stop-opacity="0"/>
</radialGradient>
</defs>
</svg>
