<svg width="255" height="175" viewBox="0 0 255 175" fill="none" xmlns="http://www.w3.org/2000/svg">
<mask id="mask0_8_57" style="mask-type:alpha" maskUnits="userSpaceOnUse" x="0" y="0" width="255" height="175">
<rect width="255" height="175" rx="8" fill="url(#paint0_radial_8_57)"/>
</mask>
<g mask="url(#mask0_8_57)">
<rect x="14" y="-1" width="1" height="175" fill="#F1F5F9"/>
<rect x="55" y="-1" width="1" height="175" fill="#F1F5F9"/>
<rect x="96" y="-1" width="1" height="175" fill="#F1F5F9"/>
<rect x="137" y="-1" width="1" height="175" fill="#F1F5F9"/>
<rect x="178" y="-1" width="1" height="175" fill="#F1F5F9"/>
<rect x="219" y="-1" width="1" height="175" fill="#F1F5F9"/>
<rect x="255" width="1" height="255" transform="rotate(90 255 0)" fill="#F1F5F9"/>
<rect x="255" y="21" width="1" height="255" transform="rotate(90 255 21)" fill="#F1F5F9"/>
<rect x="255" y="42" width="1" height="255" transform="rotate(90 255 42)" fill="#F1F5F9"/>
<rect x="255" y="63.0001" width="1" height="255" transform="rotate(90 255 63.0001)" fill="#F1F5F9"/>
<rect x="255" y="84.0001" width="1" height="255" transform="rotate(90 255 84.0001)" fill="#F1F5F9"/>
<rect x="255" y="105" width="1" height="255" transform="rotate(90 255 105)" fill="#F1F5F9"/>
<rect x="255" y="126" width="1" height="255" transform="rotate(90 255 126)" fill="#F1F5F9"/>
<rect x="255" y="147" width="1" height="255" transform="rotate(90 255 147)" fill="#F1F5F9"/>
<rect x="255" y="168" width="1" height="255" transform="rotate(90 255 168)" fill="#F1F5F9"/>
<rect x="56" y="148" width="40" height="20" fill="#F1F5F9" fill-opacity="0.25"/>
<rect x="97" y="22" width="40" height="20" fill="#F1F5F9" fill-opacity="0.25"/>
<rect x="179" y="22" width="40" height="20" fill="#F1F5F9" fill-opacity="0.25"/>
<rect x="15" y="43" width="40" height="20" fill="#F1F5F9" fill-opacity="0.25"/>
<rect x="138" y="43" width="40" height="20" fill="#F1F5F9" fill-opacity="0.25"/>
<rect x="220" y="106" width="40" height="20" fill="#F1F5F9" fill-opacity="0.25"/>
</g>
<defs>
<radialGradient id="paint0_radial_8_57" cx="0" cy="0" r="1" gradientUnits="userSpaceOnUse" gradientTransform="translate(127.5 87.5) rotate(90) scale(87.5 127.5)">
<stop offset="0.732968" stop-color="white"/>
<stop offset="1" stop-color="white" stop-opacity="0"/>
</radialGradient>
</defs>
</svg>
