<svg width="16" height="16" viewBox="0 0 16 16" fill="none" xmlns="http://www.w3.org/2000/svg">
<g clip-path="url(#clip0_809_942)">
<g clip-path="url(#clip1_809_942)">
<path d="M7.99967 11.3335C8.18856 11.3335 8.34701 11.2695 8.47501 11.1415C8.60301 11.0135 8.66679 10.8553 8.66634 10.6668V7.9835C8.66634 7.79461 8.60234 7.63905 8.47434 7.51683C8.34634 7.39461 8.18812 7.3335 7.99967 7.3335C7.81079 7.3335 7.65234 7.3975 7.52434 7.5255C7.39634 7.6535 7.33256 7.81172 7.33301 8.00016V10.6835C7.33301 10.8724 7.39701 11.0279 7.52501 11.1502C7.65301 11.2724 7.81123 11.3335 7.99967 11.3335ZM7.99967 6.00016C8.18856 6.00016 8.34701 5.93616 8.47501 5.80816C8.60301 5.68016 8.66679 5.52194 8.66634 5.3335C8.66634 5.14461 8.60234 4.98616 8.47434 4.85816C8.34634 4.73016 8.18812 4.66639 7.99967 4.66683C7.81079 4.66683 7.65234 4.73083 7.52434 4.85883C7.39634 4.98683 7.33256 5.14505 7.33301 5.3335C7.33301 5.52239 7.39701 5.68083 7.52501 5.80883C7.65301 5.93683 7.81123 6.00061 7.99967 6.00016ZM7.99967 14.6668C7.07745 14.6668 6.21079 14.4917 5.39967 14.1415C4.58856 13.7913 3.88301 13.3164 3.28301 12.7168C2.68301 12.1168 2.20812 11.4113 1.85834 10.6002C1.50856 9.78905 1.33345 8.92239 1.33301 8.00016C1.33301 7.07794 1.50812 6.21127 1.85834 5.40016C2.20856 4.58905 2.68345 3.8835 3.28301 3.2835C3.88301 2.6835 4.58856 2.20861 5.39967 1.85883C6.21079 1.50905 7.07745 1.33394 7.99967 1.3335C8.9219 1.3335 9.78856 1.50861 10.5997 1.85883C11.4108 2.20905 12.1163 2.68394 12.7163 3.2835C13.3163 3.8835 13.7915 4.58905 14.1417 5.40016C14.4919 6.21127 14.6668 7.07794 14.6663 8.00016C14.6663 8.92239 14.4912 9.78905 14.141 10.6002C13.7908 11.4113 13.3159 12.1168 12.7163 12.7168C12.1163 13.3168 11.4108 13.7919 10.5997 14.1422C9.78856 14.4924 8.9219 14.6673 7.99967 14.6668Z" fill="#64748B"/>
</g>
</g>
<defs>
<clipPath id="clip0_809_942">
<rect width="16" height="16" fill="white"/>
</clipPath>
<clipPath id="clip1_809_942">
<rect width="16" height="16" fill="white"/>
</clipPath>
</defs>
</svg>
