<svg width="16" height="19" viewBox="0 0 16 19" fill="none" xmlns="http://www.w3.org/2000/svg">
<path d="M9.9 0.666504C10.2498 0.666595 10.5907 0.776742 10.8744 0.981344C11.1581 1.18595 11.3703 1.47463 11.4808 1.8065L11.9333 3.1665H14.6667C14.8877 3.1665 15.0996 3.2543 15.2559 3.41058C15.4122 3.56686 15.5 3.77882 15.5 3.99984C15.5 4.22085 15.4122 4.43281 15.2559 4.58909C15.0996 4.74537 14.8877 4.83317 14.6667 4.83317L14.6642 4.89234L13.9417 15.0115C13.8966 15.642 13.6143 16.232 13.1517 16.6628C12.6891 17.0936 12.0805 17.3331 11.4483 17.3332H4.55167C3.91955 17.3331 3.31092 17.0936 2.84831 16.6628C2.38569 16.232 2.10342 15.642 2.05833 15.0115L1.33583 4.8915L1.33333 4.83317C1.11232 4.83317 0.900358 4.74537 0.744078 4.58909C0.587797 4.43281 0.5 4.22085 0.5 3.99984C0.5 3.77882 0.587797 3.56686 0.744078 3.41058C0.900358 3.2543 1.11232 3.1665 1.33333 3.1665H4.06667L4.51917 1.8065C4.62975 1.47449 4.84203 1.18571 5.12592 0.9811C5.4098 0.776486 5.75089 0.66642 6.10083 0.666504H9.9ZM12.9975 4.83317H3.0025L3.72083 14.8923C3.73579 15.1025 3.82981 15.2992 3.98397 15.4429C4.13812 15.5865 4.34096 15.6664 4.55167 15.6665H11.4483C11.659 15.6664 11.8619 15.5865 12.016 15.4429C12.1702 15.2992 12.2642 15.1025 12.2792 14.8923L12.9975 4.83317ZM6.33333 7.33317C6.53744 7.3332 6.73445 7.40813 6.88698 7.54377C7.03951 7.6794 7.13695 7.86629 7.16083 8.069L7.16667 8.1665V12.3332C7.16643 12.5456 7.0851 12.7499 6.93929 12.9043C6.79349 13.0588 6.59421 13.1517 6.38217 13.1641C6.17014 13.1766 5.96135 13.1076 5.79847 12.9713C5.6356 12.835 5.53092 12.6416 5.50583 12.4307L5.5 12.3332V8.1665C5.5 7.94549 5.5878 7.73353 5.74408 7.57725C5.90036 7.42097 6.11232 7.33317 6.33333 7.33317ZM9.66667 7.33317C9.88768 7.33317 10.0996 7.42097 10.2559 7.57725C10.4122 7.73353 10.5 7.94549 10.5 8.1665V12.3332C10.5 12.5542 10.4122 12.7661 10.2559 12.9224C10.0996 13.0787 9.88768 13.1665 9.66667 13.1665C9.44565 13.1665 9.23369 13.0787 9.07741 12.9224C8.92113 12.7661 8.83333 12.5542 8.83333 12.3332V8.1665C8.83333 7.94549 8.92113 7.73353 9.07741 7.57725C9.23369 7.42097 9.44565 7.33317 9.66667 7.33317ZM9.9 2.33317H6.1L5.8225 3.1665H10.1775L9.9 2.33317Z" fill="white"/>
</svg>
