<svg width="20" height="20" viewBox="0 0 20 20" fill="none" xmlns="http://www.w3.org/2000/svg">
<path d="M6.66659 16.6667C6.43048 16.6667 6.2327 16.5867 6.07325 16.4267C5.91381 16.2667 5.83381 16.0689 5.83325 15.8333C5.8327 15.5978 5.9127 15.4 6.07325 15.24C6.23381 15.08 6.43159 15 6.66659 15H13.3333C13.5694 15 13.7674 15.08 13.9274 15.24C14.0874 15.4 14.1671 15.5978 14.1666 15.8333C14.166 16.0689 14.086 16.267 13.9266 16.4275C13.7671 16.5881 13.5694 16.6678 13.3333 16.6667H6.66659ZM9.99992 13.3333C9.76381 13.3333 9.56603 13.2533 9.40659 13.0933C9.24714 12.9333 9.16714 12.7356 9.16659 12.5V6.52085L7.58326 8.08335C7.43048 8.23612 7.23964 8.31612 7.01075 8.32335C6.78187 8.33057 6.58381 8.25057 6.41659 8.08335C6.26381 7.93057 6.18742 7.73612 6.18742 7.50001C6.18742 7.2639 6.26381 7.06946 6.41659 6.91668L9.41659 3.91668C9.49992 3.83335 9.5902 3.77446 9.68742 3.74001C9.78464 3.70557 9.88881 3.68807 9.99992 3.68751C10.111 3.68696 10.2152 3.70446 10.3124 3.74001C10.4096 3.77557 10.4999 3.83446 10.5833 3.91668L13.5833 6.91668C13.736 7.06946 13.816 7.26057 13.8233 7.49001C13.8305 7.71946 13.7505 7.91723 13.5833 8.08335C13.4305 8.23612 13.236 8.31251 12.9999 8.31251C12.7638 8.31251 12.5694 8.23612 12.4166 8.08335L10.8333 6.52085V12.5C10.8333 12.7361 10.7535 12.9342 10.5941 13.0942C10.4346 13.2542 10.2366 13.3339 9.99992 13.3333Z" fill="white"/>
</svg>
