<svg width="656" height="178" viewBox="0 0 656 178" fill="none" xmlns="http://www.w3.org/2000/svg">
<g clip-path="url(#clip0_182_4046)">
<rect width="656" height="178" fill="url(#paint0_linear_182_4046)"/>
<g style="mix-blend-mode:screen">
<path d="M338.656 5.40234L372.89 26.6111V69.0287L338.656 90.2375L304.423 69.0287V26.6111L338.656 5.40234Z" fill="#161818" stroke="#434343" stroke-width="0.5" stroke-linecap="round"/>
<path d="M304.41 113.706L346.043 139.499V191.085L304.41 216.878L262.777 191.085V139.499L304.41 113.706Z" fill="#161818" stroke="#434343" stroke-width="0.5" stroke-linecap="round"/>
<path d="M302.38 133.241C303.671 132.441 305.303 132.441 306.593 133.241L329.488 147.425C330.665 148.154 331.381 149.44 331.381 150.825V179.694C331.381 181.079 330.665 182.365 329.488 183.095L306.593 197.278C305.303 198.078 303.671 198.078 302.38 197.278L279.486 183.095C278.308 182.365 277.592 181.079 277.592 179.694V150.825C277.592 149.44 278.308 148.154 279.486 147.425L302.38 133.241Z" stroke="#434343" stroke-width="0.5" stroke-linecap="round"/>
<g filter="url(#filter0_d_182_4046)">
<path d="M304.487 147.699L318.726 156.503V174.112L304.487 182.916L290.248 174.112V156.503L304.487 147.699Z" fill="#82D8B4"/>
</g>
<path d="M303.884 132.292C304.207 132.093 304.614 132.093 304.936 132.292L330.898 148.344C331.193 148.527 331.372 148.848 331.372 149.195V181.422C331.372 181.768 331.193 182.09 330.898 182.272L304.936 198.325C304.614 198.524 304.207 198.524 303.884 198.325L277.922 182.272C277.628 182.09 277.448 181.768 277.448 181.422V149.195C277.448 148.848 277.628 148.527 277.922 148.344L303.884 132.292Z" stroke="#1AFFC8" stroke-linecap="round"/>
<g style="mix-blend-mode:screen" opacity="0.6">
<mask id="mask0_182_4046" style="mask-type:alpha" maskUnits="userSpaceOnUse" x="277" y="131" width="55" height="68">
<rect x="277.654" y="131.967" width="53.5089" height="66.683" fill="#D9D9D9"/>
</mask>
<g mask="url(#mask0_182_4046)">
<path d="M304.367 132.473L331.09 149.017V182.106L304.367 198.65L277.644 182.106V149.017L304.367 132.473Z" fill="url(#paint1_linear_182_4046)"/>
<path d="M277.656 149.023L303.984 132.048L331.165 149.017L303.984 167.682L277.656 149.023Z" fill="url(#paint2_linear_182_4046)"/>
<path d="M304.366 198.65L303.96 167.682L331.163 149.017L331.163 182.53L304.366 198.65Z" fill="#131212"/>
</g>
</g>
<path d="M372.734 68.8965L422.764 96.8142" stroke="#434343" stroke-width="0.5"/>
<path d="M441.915 -17.4927L416.065 0.226716" stroke="#434343" stroke-width="0.5"/>
<path d="M477.17 154.64L522.885 182.962V239.606L477.17 267.928L431.455 239.606V182.962L477.17 154.64Z" fill="#161818" stroke="#434343" stroke-width="0.5" stroke-linecap="round"/>
<mask id="mask1_182_4046" style="mask-type:alpha" maskUnits="userSpaceOnUse" x="448" y="18" width="31" height="38">
<rect x="448.131" y="18.1738" width="29.9433" height="37.3155" fill="#D9D9D9"/>
</mask>
<g mask="url(#mask1_182_4046)">
<path d="M463.078 18.459L478.032 27.7171V46.2333L463.078 55.4914L448.124 46.2333V27.7171L463.078 18.459Z" fill="url(#paint3_linear_182_4046)"/>
<path d="M448.131 27.7207L462.864 18.2215L478.074 27.717L462.864 38.1619L448.131 27.7207Z" fill="url(#paint4_linear_182_4046)"/>
<path d="M463.078 55.4904L462.851 38.1611L478.074 27.716L478.074 46.4696L463.078 55.4904Z" fill="#131212"/>
</g>
<mask id="mask2_182_4046" style="mask-type:alpha" maskUnits="userSpaceOnUse" x="400" y="-6" width="18" height="21">
<rect x="400.574" y="-5.66016" width="16.503" height="20.5661" fill="#D9D9D9"/>
</mask>
<g mask="url(#mask2_182_4046)">
<path d="M408.814 -5.50391L417.055 -0.401388V9.80365L408.814 14.9062L400.572 9.80365V-0.401388L408.814 -5.50391Z" fill="url(#paint5_linear_182_4046)"/>
<path d="M400.576 -0.39842L408.696 -5.63385L417.079 -0.400486L408.696 5.35614L400.576 -0.39842Z" fill="url(#paint6_linear_182_4046)"/>
<path d="M408.815 14.9053L408.69 5.35444L417.079 -0.402248L417.079 9.93362L408.815 14.9053Z" fill="#131212"/>
</g>
<mask id="mask3_182_4046" style="mask-type:alpha" maskUnits="userSpaceOnUse" x="416" y="77" width="50" height="62">
<rect x="416.594" y="77.8438" width="48.817" height="60.8359" fill="#D9D9D9"/>
</mask>
<g mask="url(#mask3_182_4046)">
<path d="M440.962 78.3066L465.342 93.4003V123.587L440.962 138.681L416.582 123.587V93.4003L440.962 78.3066Z" fill="url(#paint7_linear_182_4046)"/>
<path d="M416.592 93.4083L440.611 77.9215L465.409 93.4021L440.611 110.431L416.592 93.4083Z" fill="url(#paint8_linear_182_4046)"/>
<path d="M440.963 138.682L440.593 110.43L465.41 93.401L465.41 123.975L440.963 138.682Z" fill="#131212"/>
</g>
<mask id="mask4_182_4046" style="mask-type:alpha" maskUnits="userSpaceOnUse" x="248" y="-20" width="38" height="47">
<rect x="248.23" y="-19.2617" width="37.0242" height="46.1396" fill="#D9D9D9"/>
</mask>
<g mask="url(#mask4_182_4046)">
<path d="M266.712 -18.9121L285.202 -7.4647V15.4301L266.712 26.8775L248.222 15.4301V-7.4647L266.712 -18.9121Z" fill="url(#paint9_linear_182_4046)"/>
<path d="M248.23 -7.45895L266.447 -19.2045L285.255 -7.46358L266.447 5.4513L248.23 -7.45895Z" fill="url(#paint10_linear_182_4046)"/>
<path d="M266.713 26.8779L266.432 5.45074L285.254 -7.46429L285.254 15.724L266.713 26.8779Z" fill="#131212"/>
</g>
<mask id="mask5_182_4046" style="mask-type:alpha" maskUnits="userSpaceOnUse" x="377" y="106" width="16" height="20">
<rect x="377.668" y="106.986" width="14.871" height="18.5323" fill="#D9D9D9"/>
</mask>
<g mask="url(#mask5_182_4046)">
<path d="M385.091 107.127L392.518 111.725V120.921L385.091 125.519L377.665 120.921V111.725L385.091 107.127Z" fill="url(#paint11_linear_182_4046)"/>
<path d="M377.668 111.727L384.985 107.009L392.539 111.725L384.985 116.912L377.668 111.727Z" fill="url(#paint12_linear_182_4046)"/>
<path d="M385.091 125.518L384.978 116.912L392.538 111.725L392.538 121.038L385.091 125.518Z" fill="#131212"/>
</g>
<mask id="mask6_182_4046" style="mask-type:alpha" maskUnits="userSpaceOnUse" x="383" y="146" width="15" height="20">
<rect x="383.049" y="146.759" width="14.871" height="18.5323" fill="#D9D9D9"/>
</mask>
<g mask="url(#mask6_182_4046)">
<path d="M390.472 146.899L397.899 151.497V160.693L390.472 165.291L383.045 160.693V151.497L390.472 146.899Z" fill="url(#paint13_linear_182_4046)"/>
<path d="M383.049 151.499L390.366 146.781L397.92 151.497L390.366 156.685L383.049 151.499Z" fill="url(#paint14_linear_182_4046)"/>
<path d="M390.472 165.291L390.359 156.684L397.919 151.497L397.919 160.811L390.472 165.291Z" fill="#131212"/>
</g>
<mask id="mask7_182_4046" style="mask-type:alpha" maskUnits="userSpaceOnUse" x="606" y="143" width="29" height="37">
<rect x="606.645" y="143.718" width="28.3486" height="35.3281" fill="#D9D9D9"/>
</mask>
<g mask="url(#mask7_182_4046)">
<path d="M620.797 143.987L634.955 152.752V170.282L620.797 179.047L606.639 170.282V152.752L620.797 143.987Z" fill="url(#paint15_linear_182_4046)"/>
<path d="M606.645 152.757L620.593 143.764L634.993 152.753L620.593 162.642L606.645 152.757Z" fill="url(#paint16_linear_182_4046)"/>
<path d="M620.799 179.048L620.584 162.642L634.995 152.753L634.995 170.508L620.799 179.048Z" fill="#131212"/>
</g>
<mask id="mask8_182_4046" style="mask-type:alpha" maskUnits="userSpaceOnUse" x="652" y="105" width="29" height="36">
<rect x="652.047" y="105.164" width="28.3486" height="35.3281" fill="#D9D9D9"/>
</mask>
<g mask="url(#mask8_182_4046)">
<path d="M666.199 105.434L680.357 114.199V131.729L666.199 140.494L652.042 131.729V114.199L666.199 105.434Z" fill="url(#paint17_linear_182_4046)"/>
<path d="M652.047 114.203L665.995 105.21L680.395 114.2L665.995 124.088L652.047 114.203Z" fill="url(#paint18_linear_182_4046)"/>
</g>
<path d="M345.74 139.69L380.101 118.901" stroke="#434343" stroke-width="0.5" stroke-linecap="round"/>
<path d="M394.426 159.563L431.634 182.733" stroke="#434343" stroke-width="0.5"/>
<path d="M574.635 83.2816L692.738 3.36718" stroke="#434343" stroke-width="0.5"/>
<path d="M471.227 42.4297L551.303 91.1759" stroke="#434343" stroke-width="0.5"/>
<path d="M276.791 11.1289L304.691 26.8773" stroke="#434343" stroke-width="0.5"/>
<path d="M463.102 -5.13628L463.102 27.7422" stroke="#434343" stroke-width="0.5"/>
<path d="M552.996 35.5336C554.286 34.7341 555.918 34.7341 557.209 35.5336L601.156 62.76C602.333 63.4893 603.049 64.7756 603.049 66.1604V121.115C603.049 122.5 602.333 123.786 601.156 124.515L557.209 151.742C555.918 152.541 554.286 152.541 552.996 151.742L509.049 124.515C507.872 123.786 507.156 122.5 507.156 121.115V66.1604C507.156 64.7756 507.872 63.4893 509.049 62.76L552.996 35.5336Z" stroke="#434343" stroke-width="0.5" stroke-linecap="round"/>
<path d="M552.86 35.5839C554.149 34.7868 555.778 34.7868 557.067 35.5839L601.134 62.8307C602.313 63.5597 603.03 64.8469 603.03 66.2329V121.214C603.03 122.6 602.313 123.887 601.134 124.616L557.067 151.863C555.778 152.66 554.149 152.66 552.86 151.863L508.793 124.616C507.614 123.887 506.897 122.6 506.897 121.214V66.2329C506.897 64.8469 507.614 63.5597 508.793 62.8308L552.86 35.5839Z" fill="url(#paint19_linear_182_4046)"/>
<g filter="url(#filter1_dddddd_182_4046)">
<path fill-rule="evenodd" clip-rule="evenodd" d="M557.982 76.2281L567.797 70.3854C568.057 70.2231 568.369 70.2231 568.628 70.3854L578.547 76.2825C578.807 76.4448 578.807 76.8773 578.547 77.0396L568.732 82.8822C568.472 83.0445 568.16 83.0445 567.901 82.8822L557.982 76.9851C557.722 76.8228 557.722 76.3904 557.982 76.2281Z" fill="#91CBDD"/>
</g>
<g filter="url(#filter2_dddddd_182_4046)">
<path fill-rule="evenodd" clip-rule="evenodd" d="M531.915 76.2282L541.627 70.3856C541.886 70.2777 542.198 70.2777 542.51 70.3856L565.517 84.0729C565.776 84.2352 565.776 84.6677 565.517 84.83L555.753 90.6726C555.493 90.8349 555.182 90.8349 554.922 90.6726L531.915 76.9853C531.656 76.823 531.656 76.3905 531.915 76.2282Z" fill="#91CBDD"/>
</g>
<g filter="url(#filter3_dddddd_182_4046)">
<path fill-rule="evenodd" clip-rule="evenodd" d="M556.271 93.703V105.496C556.271 105.821 556.635 106.036 556.895 105.875L566.866 99.9247C566.97 99.8703 567.073 99.708 567.073 99.5457V87.5358C567.073 87.2112 566.71 86.9944 566.45 87.1567L556.686 92.9449C556.427 93.1072 556.271 93.3774 556.271 93.702V93.703Z" fill="#91CBDD"/>
</g>
<g filter="url(#filter4_dddddd_182_4046)">
<path fill-rule="evenodd" clip-rule="evenodd" d="M579.485 79.3676L569.721 85.1559C569.462 85.3182 569.306 85.5883 569.254 85.9129L569.306 100.574C569.306 100.899 569.15 101.169 568.891 101.331L556.686 108.634C556.427 108.797 556.271 109.067 556.271 109.391V121.185C556.271 121.509 556.635 121.726 556.895 121.564L579.693 107.985C579.953 107.823 580.109 107.553 580.109 107.228V79.7467C580.109 79.4221 579.745 79.2053 579.486 79.3676H579.485Z" fill="#91CBDD"/>
</g>
<g filter="url(#filter5_dddddd_182_4046)">
<path fill-rule="evenodd" clip-rule="evenodd" d="M554.08 93.6477L554.028 105.658C554.028 105.928 553.769 106.037 553.56 105.928L541.512 98.7323C541.252 98.57 540.888 98.7868 540.888 99.1114V113.285C540.888 113.609 540.524 113.826 540.265 113.664L530.449 107.821C530.19 107.659 530.033 107.388 530.033 107.064V79.5279C530.033 79.2033 530.397 78.9866 530.657 79.1489L553.663 92.8363C553.871 93.053 554.079 93.3231 554.079 93.6477H554.08Z" fill="#91CBDD"/>
</g>
<g filter="url(#filter6_dddddd_182_4046)">
<path fill-rule="evenodd" clip-rule="evenodd" d="M553.618 108.634L543.75 102.737C543.491 102.52 543.127 102.737 543.127 103.116V114.963C543.127 115.288 543.283 115.558 543.542 115.721L553.41 121.617C553.669 121.78 554.033 121.563 554.033 121.238V109.391C554.033 109.066 553.877 108.796 553.617 108.634H553.618Z" fill="#91CBDD"/>
</g>
<path d="M554.438 34.6084C554.76 34.4091 555.167 34.4091 555.49 34.6084L602.556 63.7102C602.851 63.8924 603.03 64.2142 603.03 64.5607V122.886C603.03 123.233 602.851 123.554 602.556 123.737L555.49 152.838C555.167 153.038 554.76 153.038 554.438 152.838L507.371 123.737C507.076 123.554 506.897 123.233 506.897 122.886V64.5607C506.897 64.2142 507.076 63.8924 507.371 63.7102L554.438 34.6084Z" stroke="url(#paint20_linear_182_4046)" stroke-linecap="round"/>
<g style="mix-blend-mode:screen" opacity="0.6">
<mask id="mask9_182_4046" style="mask-type:alpha" maskUnits="userSpaceOnUse" x="507" y="34" width="96" height="120">
<rect x="507.266" y="34.2832" width="95.3942" height="118.881" fill="#D9D9D9"/>
</mask>
<g mask="url(#mask9_182_4046)">
<path d="M554.888 35.1855L602.529 64.6802V123.67L554.888 153.164L507.247 123.67V64.6802L554.888 35.1855Z" fill="url(#paint21_linear_182_4046)"/>
<path d="M507.268 64.6935L554.204 34.4305L602.662 64.6815L554.204 97.9572L507.268 64.6935Z" fill="url(#paint22_linear_182_4046)"/>
<path d="M554.887 153.164L554.163 97.9558L602.66 64.6797L602.66 124.425L554.887 153.164Z" fill="#131212"/>
</g>
</g>
<g filter="url(#filter7_d_182_4046)">
<path d="M477.219 194.81L491.459 203.614V221.222L477.219 230.027L462.98 221.222V203.614L477.219 194.81Z" fill="#D882A1"/>
</g>
<path d="M336.629 20.3071C337.92 19.5075 339.552 19.5075 340.843 20.3071L360.076 32.2229C361.253 32.9522 361.97 34.2385 361.97 35.6232V59.9566C361.97 61.3413 361.253 62.6276 360.076 63.3569L340.843 75.2727C339.552 76.0723 337.92 76.0723 336.629 75.2727L317.396 63.3569C316.219 62.6276 315.502 61.3413 315.502 59.9566V35.6232C315.502 34.2385 316.219 32.9522 317.396 32.2229L336.629 20.3071Z" stroke="#434343" stroke-width="0.5" stroke-linecap="round"/>
<g filter="url(#filter8_d_182_4046)">
<path d="M338.735 32.6211L351.036 40.2269V55.4385L338.735 63.0443L326.434 55.4385V40.2269L338.735 32.6211Z" fill="#B26FE7"/>
</g>
<path d="M338.143 19.3545C338.465 19.1552 338.872 19.1552 339.194 19.3545L361.486 33.1377C361.781 33.3199 361.96 33.6417 361.96 33.9882V61.6764C361.96 62.0229 361.781 62.3448 361.486 62.527L339.194 76.3102C338.872 76.5095 338.465 76.5095 338.143 76.3102L315.851 62.527C315.556 62.3448 315.377 62.0229 315.377 61.6764V33.9882C315.377 33.6417 315.556 33.3199 315.851 33.1377L338.143 19.3545Z" stroke="#9A1AFF" stroke-linecap="round"/>
<g style="mix-blend-mode:screen" opacity="0.6">
<mask id="mask10_182_4046" style="mask-type:alpha" maskUnits="userSpaceOnUse" x="315" y="19" width="47" height="58">
<rect x="315.557" y="19.0293" width="46.2253" height="57.6061" fill="#D9D9D9"/>
</mask>
<g mask="url(#mask10_182_4046)">
<path d="M338.633 19.4668L361.719 33.7591V62.3436L338.633 76.6359L315.548 62.3436V33.7591L338.633 19.4668Z" fill="url(#paint23_linear_182_4046)"/>
<path d="M315.559 33.7657L338.303 19.1011L361.784 33.7599L338.303 49.8843L315.559 33.7657Z" fill="url(#paint24_linear_182_4046)"/>
<path d="M338.634 76.6355L338.283 49.8833L361.783 33.7587L361.783 62.7097L338.634 76.6355Z" fill="#131212"/>
</g>
</g>
<path d="M593.514 -62.1426L629.436 -39.8878V4.62182L593.514 26.8766L557.592 4.62182V-39.8878L593.514 -62.1426Z" fill="#161818" stroke="#434343" stroke-width="0.5" stroke-linecap="round"/>
<path d="M591.678 -46.9918C592.968 -47.7913 594.6 -47.7913 595.891 -46.9918L616.614 -34.153C617.791 -33.4237 618.508 -32.1374 618.508 -30.7527V-4.57351C618.508 -3.18874 617.791 -1.90248 616.614 -1.17319L595.891 11.6656C594.6 12.4651 592.968 12.4651 591.678 11.6656L570.954 -1.17319C569.777 -1.90248 569.061 -3.18874 569.061 -4.57351V-30.7527C569.061 -32.1374 569.777 -33.4237 570.954 -34.153L591.678 -46.9918Z" stroke="#434343" stroke-width="0.5" stroke-linecap="round"/>
<g filter="url(#filter9_d_182_4046)">
<path d="M593.785 -33.8066L606.874 -25.7132V-9.52621L593.785 -1.43274L580.695 -9.52621V-25.7132L593.785 -33.8066Z" fill="#E6C778"/>
</g>
<path d="M593.187 -47.9444C593.51 -48.1436 593.917 -48.1436 594.239 -47.9444L618.024 -33.2378C618.319 -33.0555 618.498 -32.7337 618.498 -32.3872V-2.85219C618.498 -2.50568 618.319 -2.18387 618.024 -2.00164L594.239 12.705C593.917 12.9042 593.51 12.9042 593.187 12.705L569.402 -2.00164C569.107 -2.18387 568.928 -2.50568 568.928 -2.85219V-32.3872C568.928 -32.7337 569.107 -33.0555 569.402 -33.2378L593.187 -47.9444Z" stroke="#FFCD1A" stroke-linecap="round"/>
<g style="mix-blend-mode:screen" opacity="0.6">
<mask id="mask11_182_4046" style="mask-type:alpha" maskUnits="userSpaceOnUse" x="569" y="-49" width="50" height="63">
<rect x="569.119" y="-48.2695" width="49.1892" height="61.2997" fill="#D9D9D9"/>
</mask>
<g mask="url(#mask11_182_4046)">
<path d="M593.675 -47.8047L618.24 -32.596V-2.17865L593.675 13.03L569.109 -2.17865V-32.596L593.675 -47.8047Z" fill="url(#paint25_linear_182_4046)"/>
<path d="M593.675 13.0303L593.302 -15.4372L618.309 -32.5957L618.309 -1.78841L593.675 13.0303Z" fill="#131212"/>
</g>
</g>
<mask id="mask12_182_4046" style="mask-type:alpha" maskUnits="userSpaceOnUse" x="499" y="-20" width="34" height="42">
<rect x="499.078" y="-19.3672" width="32.9498" height="41.0621" fill="#D9D9D9"/>
</mask>
<g mask="url(#mask12_182_4046)">
<path d="M515.527 -19.0547L531.982 -8.86703V11.5083L515.527 21.696L499.071 11.5083V-8.86703L515.527 -19.0547Z" fill="url(#paint26_linear_182_4046)"/>
<path d="M499.078 -8.86325L515.29 -19.3163L532.028 -8.86738L515.29 2.62627L499.078 -8.86325Z" fill="url(#paint27_linear_182_4046)"/>
<path d="M515.526 21.6965L515.276 2.62725L532.027 -8.86652L532.027 11.77L515.526 21.6965Z" fill="#131212"/>
</g>
<path d="M646.666 180.17L628.056 167.22" stroke="#434343" stroke-width="0.5"/>
<mask id="mask13_182_4046" style="mask-type:alpha" maskUnits="userSpaceOnUse" x="646" y="168" width="38" height="47">
<rect x="646.666" y="168.24" width="37.0242" height="46.1396" fill="#D9D9D9"/>
</mask>
<g mask="url(#mask13_182_4046)">
<path d="M665.148 168.59L683.638 180.037V202.932L665.148 214.379L646.657 202.932V180.037L665.148 168.59Z" fill="url(#paint28_linear_182_4046)"/>
<path d="M646.666 180.043L664.883 168.297L683.69 180.038L664.883 192.953L646.666 180.043Z" fill="url(#paint29_linear_182_4046)"/>
<path d="M665.148 214.38L664.867 192.953L683.69 180.038L683.69 203.226L665.148 214.38Z" fill="#131212"/>
</g>
</g>
</g>
<defs>
<filter id="filter0_d_182_4046" x="265.248" y="122.699" width="78.4785" height="85.2168" filterUnits="userSpaceOnUse" color-interpolation-filters="sRGB">
<feFlood flood-opacity="0" result="BackgroundImageFix"/>
<feColorMatrix in="SourceAlpha" type="matrix" values="0 0 0 0 0 0 0 0 0 0 0 0 0 0 0 0 0 0 127 0" result="hardAlpha"/>
<feOffset/>
<feGaussianBlur stdDeviation="12.5"/>
<feComposite in2="hardAlpha" operator="out"/>
<feColorMatrix type="matrix" values="0 0 0 0 0.493663 0 0 0 0 0.950037 0 0 0 0 0.979167 0 0 0 1 0"/>
<feBlend mode="normal" in2="BackgroundImageFix" result="effect1_dropShadow_182_4046"/>
<feBlend mode="normal" in="SourceGraphic" in2="effect1_dropShadow_182_4046" result="shape"/>
</filter>
<filter id="filter1_dddddd_182_4046" x="505.193" y="17.6693" width="126.144" height="117.929" filterUnits="userSpaceOnUse" color-interpolation-filters="sRGB">
<feFlood flood-opacity="0" result="BackgroundImageFix"/>
<feColorMatrix in="SourceAlpha" type="matrix" values="0 0 0 0 0 0 0 0 0 0 0 0 0 0 0 0 0 0 127 0" result="hardAlpha"/>
<feOffset/>
<feGaussianBlur stdDeviation="0.626123"/>
<feColorMatrix type="matrix" values="0 0 0 0 0.588235 0 0 0 0 0.611765 0 0 0 0 0.933333 0 0 0 1 0"/>
<feBlend mode="normal" in2="BackgroundImageFix" result="effect1_dropShadow_182_4046"/>
<feColorMatrix in="SourceAlpha" type="matrix" values="0 0 0 0 0 0 0 0 0 0 0 0 0 0 0 0 0 0 127 0" result="hardAlpha"/>
<feOffset/>
<feGaussianBlur stdDeviation="1.25225"/>
<feColorMatrix type="matrix" values="0 0 0 0 0.588235 0 0 0 0 0.611765 0 0 0 0 0.933333 0 0 0 1 0"/>
<feBlend mode="normal" in2="effect1_dropShadow_182_4046" result="effect2_dropShadow_182_4046"/>
<feColorMatrix in="SourceAlpha" type="matrix" values="0 0 0 0 0 0 0 0 0 0 0 0 0 0 0 0 0 0 127 0" result="hardAlpha"/>
<feOffset/>
<feGaussianBlur stdDeviation="4.38286"/>
<feColorMatrix type="matrix" values="0 0 0 0 0.588235 0 0 0 0 0.611765 0 0 0 0 0.933333 0 0 0 1 0"/>
<feBlend mode="normal" in2="effect2_dropShadow_182_4046" result="effect3_dropShadow_182_4046"/>
<feColorMatrix in="SourceAlpha" type="matrix" values="0 0 0 0 0 0 0 0 0 0 0 0 0 0 0 0 0 0 127 0" result="hardAlpha"/>
<feOffset/>
<feGaussianBlur stdDeviation="8.76572"/>
<feColorMatrix type="matrix" values="0 0 0 0 0.588235 0 0 0 0 0.611765 0 0 0 0 0.933333 0 0 0 1 0"/>
<feBlend mode="normal" in2="effect3_dropShadow_182_4046" result="effect4_dropShadow_182_4046"/>
<feColorMatrix in="SourceAlpha" type="matrix" values="0 0 0 0 0 0 0 0 0 0 0 0 0 0 0 0 0 0 127 0" result="hardAlpha"/>
<feOffset/>
<feGaussianBlur stdDeviation="15.027"/>
<feColorMatrix type="matrix" values="0 0 0 0 0.588235 0 0 0 0 0.611765 0 0 0 0 0.933333 0 0 0 1 0"/>
<feBlend mode="normal" in2="effect4_dropShadow_182_4046" result="effect5_dropShadow_182_4046"/>
<feColorMatrix in="SourceAlpha" type="matrix" values="0 0 0 0 0 0 0 0 0 0 0 0 0 0 0 0 0 0 127 0" result="hardAlpha"/>
<feOffset/>
<feGaussianBlur stdDeviation="26.2972"/>
<feColorMatrix type="matrix" values="0 0 0 0 0.588235 0 0 0 0 0.611765 0 0 0 0 0.933333 0 0 0 1 0"/>
<feBlend mode="normal" in2="effect5_dropShadow_182_4046" result="effect6_dropShadow_182_4046"/>
<feBlend mode="normal" in="SourceGraphic" in2="effect6_dropShadow_182_4046" result="shape"/>
</filter>
<filter id="filter2_dddddd_182_4046" x="446.408" y="-15.0082" width="204.616" height="191.115" filterUnits="userSpaceOnUse" color-interpolation-filters="sRGB">
<feFlood flood-opacity="0" result="BackgroundImageFix"/>
<feColorMatrix in="SourceAlpha" type="matrix" values="0 0 0 0 0 0 0 0 0 0 0 0 0 0 0 0 0 0 127 0" result="hardAlpha"/>
<feOffset/>
<feGaussianBlur stdDeviation="1.01563"/>
<feColorMatrix type="matrix" values="0 0 0 0 0.588235 0 0 0 0 0.611765 0 0 0 0 0.933333 0 0 0 1 0"/>
<feBlend mode="normal" in2="BackgroundImageFix" result="effect1_dropShadow_182_4046"/>
<feColorMatrix in="SourceAlpha" type="matrix" values="0 0 0 0 0 0 0 0 0 0 0 0 0 0 0 0 0 0 127 0" result="hardAlpha"/>
<feOffset/>
<feGaussianBlur stdDeviation="2.03126"/>
<feColorMatrix type="matrix" values="0 0 0 0 0.588235 0 0 0 0 0.611765 0 0 0 0 0.933333 0 0 0 1 0"/>
<feBlend mode="normal" in2="effect1_dropShadow_182_4046" result="effect2_dropShadow_182_4046"/>
<feColorMatrix in="SourceAlpha" type="matrix" values="0 0 0 0 0 0 0 0 0 0 0 0 0 0 0 0 0 0 127 0" result="hardAlpha"/>
<feOffset/>
<feGaussianBlur stdDeviation="7.10941"/>
<feColorMatrix type="matrix" values="0 0 0 0 0.588235 0 0 0 0 0.611765 0 0 0 0 0.933333 0 0 0 1 0"/>
<feBlend mode="normal" in2="effect2_dropShadow_182_4046" result="effect3_dropShadow_182_4046"/>
<feColorMatrix in="SourceAlpha" type="matrix" values="0 0 0 0 0 0 0 0 0 0 0 0 0 0 0 0 0 0 127 0" result="hardAlpha"/>
<feOffset/>
<feGaussianBlur stdDeviation="14.2188"/>
<feColorMatrix type="matrix" values="0 0 0 0 0.588235 0 0 0 0 0.611765 0 0 0 0 0.933333 0 0 0 1 0"/>
<feBlend mode="normal" in2="effect3_dropShadow_182_4046" result="effect4_dropShadow_182_4046"/>
<feColorMatrix in="SourceAlpha" type="matrix" values="0 0 0 0 0 0 0 0 0 0 0 0 0 0 0 0 0 0 127 0" result="hardAlpha"/>
<feOffset/>
<feGaussianBlur stdDeviation="24.3751"/>
<feColorMatrix type="matrix" values="0 0 0 0 0.588235 0 0 0 0 0.611765 0 0 0 0 0.933333 0 0 0 1 0"/>
<feBlend mode="normal" in2="effect4_dropShadow_182_4046" result="effect5_dropShadow_182_4046"/>
<feColorMatrix in="SourceAlpha" type="matrix" values="0 0 0 0 0 0 0 0 0 0 0 0 0 0 0 0 0 0 127 0" result="hardAlpha"/>
<feOffset/>
<feGaussianBlur stdDeviation="42.6564"/>
<feColorMatrix type="matrix" values="0 0 0 0 0.588235 0 0 0 0 0.611765 0 0 0 0 0.933333 0 0 0 1 0"/>
<feBlend mode="normal" in2="effect5_dropShadow_182_4046" result="effect6_dropShadow_182_4046"/>
<feBlend mode="normal" in="SourceGraphic" in2="effect6_dropShadow_182_4046" result="shape"/>
</filter>
<filter id="filter3_dddddd_182_4046" x="511.041" y="41.8715" width="101.262" height="109.288" filterUnits="userSpaceOnUse" color-interpolation-filters="sRGB">
<feFlood flood-opacity="0" result="BackgroundImageFix"/>
<feColorMatrix in="SourceAlpha" type="matrix" values="0 0 0 0 0 0 0 0 0 0 0 0 0 0 0 0 0 0 127 0" result="hardAlpha"/>
<feOffset/>
<feGaussianBlur stdDeviation="0.538453"/>
<feColorMatrix type="matrix" values="0 0 0 0 0.588235 0 0 0 0 0.611765 0 0 0 0 0.933333 0 0 0 1 0"/>
<feBlend mode="normal" in2="BackgroundImageFix" result="effect1_dropShadow_182_4046"/>
<feColorMatrix in="SourceAlpha" type="matrix" values="0 0 0 0 0 0 0 0 0 0 0 0 0 0 0 0 0 0 127 0" result="hardAlpha"/>
<feOffset/>
<feGaussianBlur stdDeviation="1.07691"/>
<feColorMatrix type="matrix" values="0 0 0 0 0.588235 0 0 0 0 0.611765 0 0 0 0 0.933333 0 0 0 1 0"/>
<feBlend mode="normal" in2="effect1_dropShadow_182_4046" result="effect2_dropShadow_182_4046"/>
<feColorMatrix in="SourceAlpha" type="matrix" values="0 0 0 0 0 0 0 0 0 0 0 0 0 0 0 0 0 0 127 0" result="hardAlpha"/>
<feOffset/>
<feGaussianBlur stdDeviation="3.76917"/>
<feColorMatrix type="matrix" values="0 0 0 0 0.588235 0 0 0 0 0.611765 0 0 0 0 0.933333 0 0 0 1 0"/>
<feBlend mode="normal" in2="effect2_dropShadow_182_4046" result="effect3_dropShadow_182_4046"/>
<feColorMatrix in="SourceAlpha" type="matrix" values="0 0 0 0 0 0 0 0 0 0 0 0 0 0 0 0 0 0 127 0" result="hardAlpha"/>
<feOffset/>
<feGaussianBlur stdDeviation="7.53834"/>
<feColorMatrix type="matrix" values="0 0 0 0 0.588235 0 0 0 0 0.611765 0 0 0 0 0.933333 0 0 0 1 0"/>
<feBlend mode="normal" in2="effect3_dropShadow_182_4046" result="effect4_dropShadow_182_4046"/>
<feColorMatrix in="SourceAlpha" type="matrix" values="0 0 0 0 0 0 0 0 0 0 0 0 0 0 0 0 0 0 127 0" result="hardAlpha"/>
<feOffset/>
<feGaussianBlur stdDeviation="12.9229"/>
<feColorMatrix type="matrix" values="0 0 0 0 0.588235 0 0 0 0 0.611765 0 0 0 0 0.933333 0 0 0 1 0"/>
<feBlend mode="normal" in2="effect4_dropShadow_182_4046" result="effect5_dropShadow_182_4046"/>
<feColorMatrix in="SourceAlpha" type="matrix" values="0 0 0 0 0 0 0 0 0 0 0 0 0 0 0 0 0 0 127 0" result="hardAlpha"/>
<feOffset/>
<feGaussianBlur stdDeviation="22.615"/>
<feColorMatrix type="matrix" values="0 0 0 0 0.588235 0 0 0 0 0.611765 0 0 0 0 0.933333 0 0 0 1 0"/>
<feBlend mode="normal" in2="effect5_dropShadow_182_4046" result="effect6_dropShadow_182_4046"/>
<feBlend mode="normal" in="SourceGraphic" in2="effect6_dropShadow_182_4046" result="shape"/>
</filter>
<filter id="filter4_dddddd_182_4046" x="454.642" y="-22.3168" width="227.096" height="245.565" filterUnits="userSpaceOnUse" color-interpolation-filters="sRGB">
<feFlood flood-opacity="0" result="BackgroundImageFix"/>
<feColorMatrix in="SourceAlpha" type="matrix" values="0 0 0 0 0 0 0 0 0 0 0 0 0 0 0 0 0 0 127 0" result="hardAlpha"/>
<feOffset/>
<feGaussianBlur stdDeviation="1.20987"/>
<feColorMatrix type="matrix" values="0 0 0 0 0.588235 0 0 0 0 0.611765 0 0 0 0 0.933333 0 0 0 1 0"/>
<feBlend mode="normal" in2="BackgroundImageFix" result="effect1_dropShadow_182_4046"/>
<feColorMatrix in="SourceAlpha" type="matrix" values="0 0 0 0 0 0 0 0 0 0 0 0 0 0 0 0 0 0 127 0" result="hardAlpha"/>
<feOffset/>
<feGaussianBlur stdDeviation="2.41975"/>
<feColorMatrix type="matrix" values="0 0 0 0 0.588235 0 0 0 0 0.611765 0 0 0 0 0.933333 0 0 0 1 0"/>
<feBlend mode="normal" in2="effect1_dropShadow_182_4046" result="effect2_dropShadow_182_4046"/>
<feColorMatrix in="SourceAlpha" type="matrix" values="0 0 0 0 0 0 0 0 0 0 0 0 0 0 0 0 0 0 127 0" result="hardAlpha"/>
<feOffset/>
<feGaussianBlur stdDeviation="8.46911"/>
<feColorMatrix type="matrix" values="0 0 0 0 0.588235 0 0 0 0 0.611765 0 0 0 0 0.933333 0 0 0 1 0"/>
<feBlend mode="normal" in2="effect2_dropShadow_182_4046" result="effect3_dropShadow_182_4046"/>
<feColorMatrix in="SourceAlpha" type="matrix" values="0 0 0 0 0 0 0 0 0 0 0 0 0 0 0 0 0 0 127 0" result="hardAlpha"/>
<feOffset/>
<feGaussianBlur stdDeviation="16.9382"/>
<feColorMatrix type="matrix" values="0 0 0 0 0.588235 0 0 0 0 0.611765 0 0 0 0 0.933333 0 0 0 1 0"/>
<feBlend mode="normal" in2="effect3_dropShadow_182_4046" result="effect4_dropShadow_182_4046"/>
<feColorMatrix in="SourceAlpha" type="matrix" values="0 0 0 0 0 0 0 0 0 0 0 0 0 0 0 0 0 0 127 0" result="hardAlpha"/>
<feOffset/>
<feGaussianBlur stdDeviation="29.0369"/>
<feColorMatrix type="matrix" values="0 0 0 0 0.588235 0 0 0 0 0.611765 0 0 0 0 0.933333 0 0 0 1 0"/>
<feBlend mode="normal" in2="effect4_dropShadow_182_4046" result="effect5_dropShadow_182_4046"/>
<feColorMatrix in="SourceAlpha" type="matrix" values="0 0 0 0 0 0 0 0 0 0 0 0 0 0 0 0 0 0 127 0" result="hardAlpha"/>
<feOffset/>
<feGaussianBlur stdDeviation="50.8146"/>
<feColorMatrix type="matrix" values="0 0 0 0 0.588235 0 0 0 0 0.611765 0 0 0 0 0.933333 0 0 0 1 0"/>
<feBlend mode="normal" in2="effect5_dropShadow_182_4046" result="effect6_dropShadow_182_4046"/>
<feBlend mode="normal" in="SourceGraphic" in2="effect6_dropShadow_182_4046" result="shape"/>
</filter>
<filter id="filter5_dddddd_182_4046" x="446.856" y="-4.08327" width="190.401" height="200.979" filterUnits="userSpaceOnUse" color-interpolation-filters="sRGB">
<feFlood flood-opacity="0" result="BackgroundImageFix"/>
<feColorMatrix in="SourceAlpha" type="matrix" values="0 0 0 0 0 0 0 0 0 0 0 0 0 0 0 0 0 0 127 0" result="hardAlpha"/>
<feOffset/>
<feGaussianBlur stdDeviation="0.990203"/>
<feColorMatrix type="matrix" values="0 0 0 0 0.588235 0 0 0 0 0.611765 0 0 0 0 0.933333 0 0 0 1 0"/>
<feBlend mode="normal" in2="BackgroundImageFix" result="effect1_dropShadow_182_4046"/>
<feColorMatrix in="SourceAlpha" type="matrix" values="0 0 0 0 0 0 0 0 0 0 0 0 0 0 0 0 0 0 127 0" result="hardAlpha"/>
<feOffset/>
<feGaussianBlur stdDeviation="1.98041"/>
<feColorMatrix type="matrix" values="0 0 0 0 0.588235 0 0 0 0 0.611765 0 0 0 0 0.933333 0 0 0 1 0"/>
<feBlend mode="normal" in2="effect1_dropShadow_182_4046" result="effect2_dropShadow_182_4046"/>
<feColorMatrix in="SourceAlpha" type="matrix" values="0 0 0 0 0 0 0 0 0 0 0 0 0 0 0 0 0 0 127 0" result="hardAlpha"/>
<feOffset/>
<feGaussianBlur stdDeviation="6.93142"/>
<feColorMatrix type="matrix" values="0 0 0 0 0.588235 0 0 0 0 0.611765 0 0 0 0 0.933333 0 0 0 1 0"/>
<feBlend mode="normal" in2="effect2_dropShadow_182_4046" result="effect3_dropShadow_182_4046"/>
<feColorMatrix in="SourceAlpha" type="matrix" values="0 0 0 0 0 0 0 0 0 0 0 0 0 0 0 0 0 0 127 0" result="hardAlpha"/>
<feOffset/>
<feGaussianBlur stdDeviation="13.8628"/>
<feColorMatrix type="matrix" values="0 0 0 0 0.588235 0 0 0 0 0.611765 0 0 0 0 0.933333 0 0 0 1 0"/>
<feBlend mode="normal" in2="effect3_dropShadow_182_4046" result="effect4_dropShadow_182_4046"/>
<feColorMatrix in="SourceAlpha" type="matrix" values="0 0 0 0 0 0 0 0 0 0 0 0 0 0 0 0 0 0 127 0" result="hardAlpha"/>
<feOffset/>
<feGaussianBlur stdDeviation="23.7649"/>
<feColorMatrix type="matrix" values="0 0 0 0 0.588235 0 0 0 0 0.611765 0 0 0 0 0.933333 0 0 0 1 0"/>
<feBlend mode="normal" in2="effect4_dropShadow_182_4046" result="effect5_dropShadow_182_4046"/>
<feColorMatrix in="SourceAlpha" type="matrix" values="0 0 0 0 0 0 0 0 0 0 0 0 0 0 0 0 0 0 127 0" result="hardAlpha"/>
<feOffset/>
<feGaussianBlur stdDeviation="41.5885"/>
<feColorMatrix type="matrix" values="0 0 0 0 0.588235 0 0 0 0 0.611765 0 0 0 0 0.933333 0 0 0 1 0"/>
<feBlend mode="normal" in2="effect5_dropShadow_182_4046" result="effect6_dropShadow_182_4046"/>
<feBlend mode="normal" in="SourceGraphic" in2="effect6_dropShadow_182_4046" result="shape"/>
</filter>
<filter id="filter6_dddddd_182_4046" x="497.432" y="56.955" width="102.297" height="110.413" filterUnits="userSpaceOnUse" color-interpolation-filters="sRGB">
<feFlood flood-opacity="0" result="BackgroundImageFix"/>
<feColorMatrix in="SourceAlpha" type="matrix" values="0 0 0 0 0 0 0 0 0 0 0 0 0 0 0 0 0 0 127 0" result="hardAlpha"/>
<feOffset/>
<feGaussianBlur stdDeviation="0.543993"/>
<feColorMatrix type="matrix" values="0 0 0 0 0.588235 0 0 0 0 0.611765 0 0 0 0 0.933333 0 0 0 1 0"/>
<feBlend mode="normal" in2="BackgroundImageFix" result="effect1_dropShadow_182_4046"/>
<feColorMatrix in="SourceAlpha" type="matrix" values="0 0 0 0 0 0 0 0 0 0 0 0 0 0 0 0 0 0 127 0" result="hardAlpha"/>
<feOffset/>
<feGaussianBlur stdDeviation="1.08799"/>
<feColorMatrix type="matrix" values="0 0 0 0 0.588235 0 0 0 0 0.611765 0 0 0 0 0.933333 0 0 0 1 0"/>
<feBlend mode="normal" in2="effect1_dropShadow_182_4046" result="effect2_dropShadow_182_4046"/>
<feColorMatrix in="SourceAlpha" type="matrix" values="0 0 0 0 0 0 0 0 0 0 0 0 0 0 0 0 0 0 127 0" result="hardAlpha"/>
<feOffset/>
<feGaussianBlur stdDeviation="3.80795"/>
<feColorMatrix type="matrix" values="0 0 0 0 0.588235 0 0 0 0 0.611765 0 0 0 0 0.933333 0 0 0 1 0"/>
<feBlend mode="normal" in2="effect2_dropShadow_182_4046" result="effect3_dropShadow_182_4046"/>
<feColorMatrix in="SourceAlpha" type="matrix" values="0 0 0 0 0 0 0 0 0 0 0 0 0 0 0 0 0 0 127 0" result="hardAlpha"/>
<feOffset/>
<feGaussianBlur stdDeviation="7.6159"/>
<feColorMatrix type="matrix" values="0 0 0 0 0.588235 0 0 0 0 0.611765 0 0 0 0 0.933333 0 0 0 1 0"/>
<feBlend mode="normal" in2="effect3_dropShadow_182_4046" result="effect4_dropShadow_182_4046"/>
<feColorMatrix in="SourceAlpha" type="matrix" values="0 0 0 0 0 0 0 0 0 0 0 0 0 0 0 0 0 0 127 0" result="hardAlpha"/>
<feOffset/>
<feGaussianBlur stdDeviation="13.0558"/>
<feColorMatrix type="matrix" values="0 0 0 0 0.588235 0 0 0 0 0.611765 0 0 0 0 0.933333 0 0 0 1 0"/>
<feBlend mode="normal" in2="effect4_dropShadow_182_4046" result="effect5_dropShadow_182_4046"/>
<feColorMatrix in="SourceAlpha" type="matrix" values="0 0 0 0 0 0 0 0 0 0 0 0 0 0 0 0 0 0 127 0" result="hardAlpha"/>
<feOffset/>
<feGaussianBlur stdDeviation="22.8477"/>
<feColorMatrix type="matrix" values="0 0 0 0 0.588235 0 0 0 0 0.611765 0 0 0 0 0.933333 0 0 0 1 0"/>
<feBlend mode="normal" in2="effect5_dropShadow_182_4046" result="effect6_dropShadow_182_4046"/>
<feBlend mode="normal" in="SourceGraphic" in2="effect6_dropShadow_182_4046" result="shape"/>
</filter>
<filter id="filter7_d_182_4046" x="437.98" y="169.81" width="78.4785" height="85.2168" filterUnits="userSpaceOnUse" color-interpolation-filters="sRGB">
<feFlood flood-opacity="0" result="BackgroundImageFix"/>
<feColorMatrix in="SourceAlpha" type="matrix" values="0 0 0 0 0 0 0 0 0 0 0 0 0 0 0 0 0 0 127 0" result="hardAlpha"/>
<feOffset/>
<feGaussianBlur stdDeviation="12.5"/>
<feComposite in2="hardAlpha" operator="out"/>
<feColorMatrix type="matrix" values="0 0 0 0 0.979167 0 0 0 0 0.493663 0 0 0 0 0.726705 0 0 0 1 0"/>
<feBlend mode="normal" in2="BackgroundImageFix" result="effect1_dropShadow_182_4046"/>
<feBlend mode="normal" in="SourceGraphic" in2="effect1_dropShadow_182_4046" result="shape"/>
</filter>
<filter id="filter8_d_182_4046" x="301.435" y="7.62109" width="74.6016" height="80.4229" filterUnits="userSpaceOnUse" color-interpolation-filters="sRGB">
<feFlood flood-opacity="0" result="BackgroundImageFix"/>
<feColorMatrix in="SourceAlpha" type="matrix" values="0 0 0 0 0 0 0 0 0 0 0 0 0 0 0 0 0 0 127 0" result="hardAlpha"/>
<feOffset/>
<feGaussianBlur stdDeviation="12.5"/>
<feComposite in2="hardAlpha" operator="out"/>
<feColorMatrix type="matrix" values="0 0 0 0 0.845083 0 0 0 0 0.404167 0 0 0 0 1 0 0 0 1 0"/>
<feBlend mode="normal" in2="BackgroundImageFix" result="effect1_dropShadow_182_4046"/>
<feBlend mode="normal" in="SourceGraphic" in2="effect1_dropShadow_182_4046" result="shape"/>
</filter>
<filter id="filter9_d_182_4046" x="555.695" y="-58.8066" width="76.1787" height="82.374" filterUnits="userSpaceOnUse" color-interpolation-filters="sRGB">
<feFlood flood-opacity="0" result="BackgroundImageFix"/>
<feColorMatrix in="SourceAlpha" type="matrix" values="0 0 0 0 0 0 0 0 0 0 0 0 0 0 0 0 0 0 127 0" result="hardAlpha"/>
<feOffset/>
<feGaussianBlur stdDeviation="12.5"/>
<feComposite in2="hardAlpha" operator="out"/>
<feColorMatrix type="matrix" values="0 0 0 0 0.979167 0 0 0 0 0.959747 0 0 0 0 0.493663 0 0 0 1 0"/>
<feBlend mode="normal" in2="BackgroundImageFix" result="effect1_dropShadow_182_4046"/>
<feBlend mode="normal" in="SourceGraphic" in2="effect1_dropShadow_182_4046" result="shape"/>
</filter>
<linearGradient id="paint0_linear_182_4046" x1="328" y1="0" x2="328" y2="178" gradientUnits="userSpaceOnUse">
<stop stop-color="#156FF7"/>
<stop offset="0.96875" stop-color="#1E3A8A"/>
</linearGradient>
<linearGradient id="paint1_linear_182_4046" x1="304.367" y1="132.473" x2="304.367" y2="198.65" gradientUnits="userSpaceOnUse">
<stop stop-color="#5C557A"/>
<stop offset="1" stop-color="#152123"/>
</linearGradient>
<linearGradient id="paint2_linear_182_4046" x1="291.035" y1="135.045" x2="318.959" y2="161.771" gradientUnits="userSpaceOnUse">
<stop stop-color="#1D2330"/>
<stop offset="1" stop-color="#20262E"/>
</linearGradient>
<linearGradient id="paint3_linear_182_4046" x1="463.078" y1="18.459" x2="463.078" y2="55.4914" gradientUnits="userSpaceOnUse">
<stop stop-color="#5C557A"/>
<stop offset="1" stop-color="#152123"/>
</linearGradient>
<linearGradient id="paint4_linear_182_4046" x1="455.618" y1="19.8984" x2="471.243" y2="34.8539" gradientUnits="userSpaceOnUse">
<stop stop-color="#1D2330"/>
<stop offset="1" stop-color="#20262E"/>
</linearGradient>
<linearGradient id="paint5_linear_182_4046" x1="408.814" y1="-5.50391" x2="408.814" y2="14.9062" gradientUnits="userSpaceOnUse">
<stop stop-color="#5C557A"/>
<stop offset="1" stop-color="#152123"/>
</linearGradient>
<linearGradient id="paint6_linear_182_4046" x1="404.702" y1="-4.70962" x2="413.314" y2="3.53297" gradientUnits="userSpaceOnUse">
<stop stop-color="#1D2330"/>
<stop offset="1" stop-color="#20262E"/>
</linearGradient>
<linearGradient id="paint7_linear_182_4046" x1="440.962" y1="78.3066" x2="440.962" y2="138.681" gradientUnits="userSpaceOnUse">
<stop stop-color="#5C557A"/>
<stop offset="1" stop-color="#152123"/>
</linearGradient>
<linearGradient id="paint8_linear_182_4046" x1="428.798" y1="80.6554" x2="454.273" y2="105.038" gradientUnits="userSpaceOnUse">
<stop stop-color="#1D2330"/>
<stop offset="1" stop-color="#20262E"/>
</linearGradient>
<linearGradient id="paint9_linear_182_4046" x1="266.712" y1="-18.9121" x2="266.712" y2="26.8775" gradientUnits="userSpaceOnUse">
<stop stop-color="#5C557A"/>
<stop offset="1" stop-color="#152123"/>
</linearGradient>
<linearGradient id="paint10_linear_182_4046" x1="257.488" y1="-17.1311" x2="276.809" y2="1.36105" gradientUnits="userSpaceOnUse">
<stop stop-color="#1D2330"/>
<stop offset="1" stop-color="#20262E"/>
</linearGradient>
<linearGradient id="paint11_linear_182_4046" x1="385.091" y1="107.127" x2="385.091" y2="125.519" gradientUnits="userSpaceOnUse">
<stop stop-color="#5C557A"/>
<stop offset="1" stop-color="#152123"/>
</linearGradient>
<linearGradient id="paint12_linear_182_4046" x1="381.386" y1="107.842" x2="389.147" y2="115.269" gradientUnits="userSpaceOnUse">
<stop stop-color="#1D2330"/>
<stop offset="1" stop-color="#20262E"/>
</linearGradient>
<linearGradient id="paint13_linear_182_4046" x1="390.472" y1="146.899" x2="390.472" y2="165.291" gradientUnits="userSpaceOnUse">
<stop stop-color="#5C557A"/>
<stop offset="1" stop-color="#152123"/>
</linearGradient>
<linearGradient id="paint14_linear_182_4046" x1="386.767" y1="147.614" x2="394.527" y2="155.042" gradientUnits="userSpaceOnUse">
<stop stop-color="#1D2330"/>
<stop offset="1" stop-color="#20262E"/>
</linearGradient>
<linearGradient id="paint15_linear_182_4046" x1="620.797" y1="143.987" x2="620.797" y2="179.047" gradientUnits="userSpaceOnUse">
<stop stop-color="#5C557A"/>
<stop offset="1" stop-color="#152123"/>
</linearGradient>
<linearGradient id="paint16_linear_182_4046" x1="613.733" y1="145.351" x2="628.526" y2="159.51" gradientUnits="userSpaceOnUse">
<stop stop-color="#1D2330"/>
<stop offset="1" stop-color="#20262E"/>
</linearGradient>
<linearGradient id="paint17_linear_182_4046" x1="666.199" y1="105.434" x2="666.199" y2="140.494" gradientUnits="userSpaceOnUse">
<stop stop-color="#5C557A"/>
<stop offset="1" stop-color="#152123"/>
</linearGradient>
<linearGradient id="paint18_linear_182_4046" x1="659.135" y1="106.797" x2="673.929" y2="120.956" gradientUnits="userSpaceOnUse">
<stop stop-color="#1D2330"/>
<stop offset="1" stop-color="#20262E"/>
</linearGradient>
<linearGradient id="paint19_linear_182_4046" x1="554.964" y1="34.2832" x2="554.964" y2="153.164" gradientUnits="userSpaceOnUse">
<stop stop-color="#1E2121"/>
<stop offset="1"/>
</linearGradient>
<linearGradient id="paint20_linear_182_4046" x1="554.964" y1="34.2832" x2="554.964" y2="153.164" gradientUnits="userSpaceOnUse">
<stop stop-color="#1A61FF"/>
<stop offset="1" stop-color="#2CC3A8"/>
</linearGradient>
<linearGradient id="paint21_linear_182_4046" x1="554.888" y1="35.1855" x2="554.888" y2="153.164" gradientUnits="userSpaceOnUse">
<stop stop-color="#5C557A"/>
<stop offset="1" stop-color="#152123"/>
</linearGradient>
<linearGradient id="paint22_linear_182_4046" x1="531.119" y1="39.7729" x2="580.9" y2="87.4185" gradientUnits="userSpaceOnUse">
<stop stop-color="#1D2330"/>
<stop offset="1" stop-color="#20262E"/>
</linearGradient>
<linearGradient id="paint23_linear_182_4046" x1="338.633" y1="19.4668" x2="338.633" y2="76.6359" gradientUnits="userSpaceOnUse">
<stop stop-color="#5C557A"/>
<stop offset="1" stop-color="#152123"/>
</linearGradient>
<linearGradient id="paint24_linear_182_4046" x1="327.116" y1="21.6899" x2="351.239" y2="44.7776" gradientUnits="userSpaceOnUse">
<stop stop-color="#1D2330"/>
<stop offset="1" stop-color="#20262E"/>
</linearGradient>
<linearGradient id="paint25_linear_182_4046" x1="593.675" y1="-47.8047" x2="593.675" y2="13.03" gradientUnits="userSpaceOnUse">
<stop stop-color="#5C557A"/>
<stop offset="1" stop-color="#152123"/>
</linearGradient>
<linearGradient id="paint26_linear_182_4046" x1="515.527" y1="-19.0547" x2="515.527" y2="21.696" gradientUnits="userSpaceOnUse">
<stop stop-color="#5C557A"/>
<stop offset="1" stop-color="#152123"/>
</linearGradient>
<linearGradient id="paint27_linear_182_4046" x1="507.317" y1="-17.471" x2="524.511" y2="-1.01386" gradientUnits="userSpaceOnUse">
<stop stop-color="#1D2330"/>
<stop offset="1" stop-color="#20262E"/>
</linearGradient>
<linearGradient id="paint28_linear_182_4046" x1="665.148" y1="168.59" x2="665.148" y2="214.379" gradientUnits="userSpaceOnUse">
<stop stop-color="#5C557A"/>
<stop offset="1" stop-color="#152123"/>
</linearGradient>
<linearGradient id="paint29_linear_182_4046" x1="655.923" y1="170.371" x2="675.244" y2="188.863" gradientUnits="userSpaceOnUse">
<stop stop-color="#1D2330"/>
<stop offset="1" stop-color="#20262E"/>
</linearGradient>
<clipPath id="clip0_182_4046">
<rect width="656" height="178" fill="white"/>
</clipPath>
</defs>
</svg>
