<svg width="209" height="89" viewBox="0 0 209 89" fill="none" xmlns="http://www.w3.org/2000/svg">
<g filter="url(#filter0_d_117_13156)">
<path d="M8.50568 6.04545H12.1534V18.2159C12.1534 19.3409 11.9006 20.3182 11.3949 21.1477C10.8949 21.9773 10.1989 22.6165 9.30682 23.0653C8.41477 23.5142 7.37784 23.7386 6.19602 23.7386C5.14489 23.7386 4.19034 23.554 3.33239 23.1847C2.48011 22.8097 1.80398 22.2415 1.30398 21.4801C0.803977 20.7131 0.556818 19.75 0.5625 18.5909H4.2358C4.24716 19.0511 4.34091 19.446 4.51705 19.7756C4.69886 20.0994 4.94602 20.3494 5.25852 20.5256C5.5767 20.696 5.9517 20.7812 6.38352 20.7812C6.83807 20.7812 7.22159 20.6847 7.53409 20.4915C7.85227 20.2926 8.09375 20.0028 8.25852 19.6222C8.4233 19.2415 8.50568 18.7727 8.50568 18.2159V6.04545ZM21.0511 23.7557C19.7273 23.7557 18.5824 23.4744 17.6165 22.9119C16.6563 22.3437 15.9148 21.554 15.392 20.5426C14.8693 19.5256 14.608 18.3466 14.608 17.0057C14.608 15.6534 14.8693 14.4716 15.392 13.4602C15.9148 12.4432 16.6563 11.6534 17.6165 11.0909C18.5824 10.5227 19.7273 10.2386 21.0511 10.2386C22.375 10.2386 23.517 10.5227 24.4773 11.0909C25.4432 11.6534 26.1875 12.4432 26.7102 13.4602C27.233 14.4716 27.4943 15.6534 27.4943 17.0057C27.4943 18.3466 27.233 19.5256 26.7102 20.5426C26.1875 21.554 25.4432 22.3437 24.4773 22.9119C23.517 23.4744 22.375 23.7557 21.0511 23.7557ZM21.0682 20.9432C21.6705 20.9432 22.1733 20.7727 22.5767 20.4318C22.9801 20.0852 23.2841 19.6136 23.4886 19.017C23.6989 18.4205 23.804 17.7415 23.804 16.9801C23.804 16.2188 23.6989 15.5398 23.4886 14.9432C23.2841 14.3466 22.9801 13.875 22.5767 13.5284C22.1733 13.1818 21.6705 13.0085 21.0682 13.0085C20.4602 13.0085 19.9489 13.1818 19.5341 13.5284C19.125 13.875 18.8153 14.3466 18.6051 14.9432C18.4006 15.5398 18.2983 16.2188 18.2983 16.9801C18.2983 17.7415 18.4006 18.4205 18.6051 19.017C18.8153 19.6136 19.125 20.0852 19.5341 20.4318C19.9489 20.7727 20.4602 20.9432 21.0682 20.9432ZM29.8551 23.5V10.4091H33.4858V23.5H29.8551ZM31.679 8.72159C31.1392 8.72159 30.6761 8.54261 30.2898 8.18466C29.9091 7.82102 29.7188 7.38636 29.7188 6.88068C29.7188 6.38068 29.9091 5.9517 30.2898 5.59375C30.6761 5.23011 31.1392 5.04829 31.679 5.04829C32.2188 5.04829 32.679 5.23011 33.0597 5.59375C33.446 5.9517 33.6392 6.38068 33.6392 6.88068C33.6392 7.38636 33.446 7.82102 33.0597 8.18466C32.679 8.54261 32.2188 8.72159 31.679 8.72159ZM40.0249 15.9318V23.5H36.3942V10.4091H39.8544V12.7188H40.0078C40.2976 11.9574 40.7834 11.3551 41.4652 10.9119C42.147 10.4631 42.9737 10.2386 43.9453 10.2386C44.8544 10.2386 45.647 10.4375 46.3232 10.8352C46.9993 11.233 47.5249 11.8011 47.8999 12.5398C48.2749 13.2727 48.4624 14.1477 48.4624 15.1648V23.5H44.8317V15.8125C44.8374 15.0114 44.6328 14.3864 44.218 13.9375C43.8033 13.483 43.2322 13.2557 42.505 13.2557C42.0163 13.2557 41.5845 13.3608 41.2095 13.571C40.8402 13.7812 40.5504 14.0881 40.3402 14.4915C40.1357 14.8892 40.0305 15.3693 40.0249 15.9318ZM63.8416 10.4091V13.1364H55.9581V10.4091H63.8416ZM57.7479 7.27273H61.3786V19.4773C61.3786 19.8125 61.4297 20.0739 61.532 20.2614C61.6342 20.4432 61.7763 20.571 61.9581 20.6449C62.1456 20.7187 62.3615 20.7557 62.6058 20.7557C62.7763 20.7557 62.9467 20.7415 63.1172 20.7131C63.2876 20.679 63.4183 20.6534 63.5092 20.6364L64.0803 23.3381C63.8984 23.3949 63.6428 23.4602 63.3132 23.5341C62.9837 23.6136 62.5831 23.6619 62.1115 23.679C61.2365 23.7131 60.4695 23.5966 59.8104 23.3295C59.157 23.0625 58.6484 22.6477 58.2848 22.0852C57.9212 21.5227 57.7422 20.8125 57.7479 19.9545V7.27273ZM70.1186 15.9318V23.5H66.4879V6.04545H70.0163V12.7188H70.1697C70.4652 11.946 70.9425 11.3409 71.6016 10.9034C72.2607 10.4602 73.0874 10.2386 74.0817 10.2386C74.9908 10.2386 75.7834 10.4375 76.4595 10.8352C77.1413 11.2273 77.6697 11.7926 78.0447 12.5312C78.4254 13.2642 78.6129 14.142 78.6072 15.1648V23.5H74.9766V15.8125C74.9822 15.0057 74.7777 14.3778 74.3629 13.929C73.9538 13.4801 73.38 13.2557 72.6413 13.2557C72.147 13.2557 71.7095 13.3608 71.3288 13.571C70.9538 13.7812 70.6584 14.0881 70.4425 14.4915C70.2322 14.8892 70.1243 15.3693 70.1186 15.9318ZM87.4304 23.7557C86.0838 23.7557 84.9247 23.483 83.9531 22.9375C82.9872 22.3864 82.2429 21.608 81.7202 20.6023C81.1974 19.5909 80.9361 18.3949 80.9361 17.0142C80.9361 15.6676 81.1974 14.4858 81.7202 13.4688C82.2429 12.4517 82.9787 11.6591 83.9276 11.0909C84.8821 10.5227 86.0014 10.2386 87.2855 10.2386C88.1491 10.2386 88.9531 10.3778 89.6974 10.6562C90.4474 10.929 91.1009 11.3409 91.6577 11.892C92.2202 12.4432 92.6577 13.1364 92.9702 13.9716C93.2827 14.8011 93.4389 15.7727 93.4389 16.8864V17.8835H82.3849V15.6335H90.0213C90.0213 15.1108 89.9077 14.6477 89.6804 14.2443C89.4531 13.8409 89.1378 13.5256 88.7344 13.2983C88.3366 13.0653 87.8736 12.9489 87.3452 12.9489C86.794 12.9489 86.3054 13.0767 85.8793 13.3324C85.4588 13.5824 85.1293 13.9205 84.8906 14.3466C84.652 14.767 84.5298 15.2358 84.5241 15.7528V17.892C84.5241 18.5398 84.6435 19.0994 84.8821 19.571C85.1264 20.0426 85.4702 20.4062 85.9134 20.6619C86.3565 20.9176 86.8821 21.0455 87.4901 21.0455C87.8935 21.0455 88.2628 20.9886 88.598 20.875C88.9332 20.7614 89.2202 20.5909 89.4588 20.3636C89.6974 20.1364 89.8793 19.858 90.0043 19.5284L93.3622 19.75C93.1918 20.5568 92.8423 21.2614 92.3139 21.8636C91.7912 22.4602 91.1151 22.9261 90.2855 23.2614C89.4616 23.5909 88.5099 23.7557 87.4304 23.7557ZM101.431 23.5V6.04545H108.317C109.641 6.04545 110.769 6.2983 111.701 6.80398C112.633 7.30398 113.343 8 113.832 8.89204C114.326 9.77841 114.573 10.8011 114.573 11.9602C114.573 13.1193 114.323 14.142 113.823 15.0284C113.323 15.9148 112.599 16.6051 111.65 17.0994C110.707 17.5937 109.565 17.8409 108.224 17.8409H103.835V14.8835H107.627C108.337 14.8835 108.923 14.7614 109.383 14.517C109.849 14.267 110.195 13.9233 110.423 13.4858C110.656 13.0426 110.772 12.5341 110.772 11.9602C110.772 11.3807 110.656 10.875 110.423 10.4432C110.195 10.0057 109.849 9.66761 109.383 9.42898C108.917 9.18466 108.326 9.0625 107.61 9.0625H105.121V23.5H101.431ZM116.902 23.5V10.4091H120.422V12.6932H120.558C120.797 11.8807 121.197 11.267 121.76 10.8523C122.322 10.4318 122.97 10.2216 123.703 10.2216C123.885 10.2216 124.081 10.233 124.291 10.2557C124.501 10.2784 124.686 10.3097 124.845 10.3494V13.571C124.675 13.5199 124.439 13.4744 124.138 13.4347C123.837 13.3949 123.561 13.375 123.311 13.375C122.777 13.375 122.3 13.4915 121.879 13.7244C121.464 13.9517 121.135 14.2699 120.891 14.679C120.652 15.0881 120.533 15.5597 120.533 16.0938V23.5H116.902ZM132.028 23.7557C130.704 23.7557 129.559 23.4744 128.593 22.9119C127.633 22.3437 126.891 21.554 126.369 20.5426C125.846 19.5256 125.585 18.3466 125.585 17.0057C125.585 15.6534 125.846 14.4716 126.369 13.4602C126.891 12.4432 127.633 11.6534 128.593 11.0909C129.559 10.5227 130.704 10.2386 132.028 10.2386C133.352 10.2386 134.494 10.5227 135.454 11.0909C136.42 11.6534 137.164 12.4432 137.687 13.4602C138.21 14.4716 138.471 15.6534 138.471 17.0057C138.471 18.3466 138.21 19.5256 137.687 20.5426C137.164 21.554 136.42 22.3437 135.454 22.9119C134.494 23.4744 133.352 23.7557 132.028 23.7557ZM132.045 20.9432C132.647 20.9432 133.15 20.7727 133.553 20.4318C133.957 20.0852 134.261 19.6136 134.465 19.017C134.675 18.4205 134.781 17.7415 134.781 16.9801C134.781 16.2188 134.675 15.5398 134.465 14.9432C134.261 14.3466 133.957 13.875 133.553 13.5284C133.15 13.1818 132.647 13.0085 132.045 13.0085C131.437 13.0085 130.925 13.1818 130.511 13.5284C130.102 13.875 129.792 14.3466 129.582 14.9432C129.377 15.5398 129.275 16.2188 129.275 16.9801C129.275 17.7415 129.377 18.4205 129.582 19.017C129.792 19.6136 130.102 20.0852 130.511 20.4318C130.925 20.7727 131.437 20.9432 132.045 20.9432ZM147.795 10.4091V13.1364H139.911V10.4091H147.795ZM141.701 7.27273H145.332V19.4773C145.332 19.8125 145.383 20.0739 145.485 20.2614C145.587 20.4432 145.729 20.571 145.911 20.6449C146.099 20.7187 146.315 20.7557 146.559 20.7557C146.729 20.7557 146.9 20.7415 147.07 20.7131C147.241 20.679 147.371 20.6534 147.462 20.6364L148.033 23.3381C147.852 23.3949 147.596 23.4602 147.266 23.5341C146.937 23.6136 146.536 23.6619 146.065 23.679C145.19 23.7131 144.423 23.5966 143.763 23.3295C143.11 23.0625 142.602 22.6477 142.238 22.0852C141.874 21.5227 141.695 20.8125 141.701 19.9545V7.27273ZM155.934 23.7557C154.61 23.7557 153.465 23.4744 152.499 22.9119C151.539 22.3437 150.798 21.554 150.275 20.5426C149.752 19.5256 149.491 18.3466 149.491 17.0057C149.491 15.6534 149.752 14.4716 150.275 13.4602C150.798 12.4432 151.539 11.6534 152.499 11.0909C153.465 10.5227 154.61 10.2386 155.934 10.2386C157.258 10.2386 158.4 10.5227 159.36 11.0909C160.326 11.6534 161.07 12.4432 161.593 13.4602C162.116 14.4716 162.377 15.6534 162.377 17.0057C162.377 18.3466 162.116 19.5256 161.593 20.5426C161.07 21.554 160.326 22.3437 159.36 22.9119C158.4 23.4744 157.258 23.7557 155.934 23.7557ZM155.951 20.9432C156.553 20.9432 157.056 20.7727 157.46 20.4318C157.863 20.0852 158.167 19.6136 158.371 19.017C158.582 18.4205 158.687 17.7415 158.687 16.9801C158.687 16.2188 158.582 15.5398 158.371 14.9432C158.167 14.3466 157.863 13.875 157.46 13.5284C157.056 13.1818 156.553 13.0085 155.951 13.0085C155.343 13.0085 154.832 13.1818 154.417 13.5284C154.008 13.875 153.698 14.3466 153.488 14.9432C153.283 15.5398 153.181 16.2188 153.181 16.9801C153.181 17.7415 153.283 18.4205 153.488 19.017C153.698 19.6136 154.008 20.0852 154.417 20.4318C154.832 20.7727 155.343 20.9432 155.951 20.9432ZM170.653 23.7557C169.312 23.7557 168.158 23.4716 167.192 22.9034C166.232 22.3295 165.494 21.5341 164.977 20.517C164.465 19.5 164.21 18.3295 164.21 17.0057C164.21 15.6648 164.468 14.4886 164.985 13.4773C165.508 12.4602 166.249 11.6676 167.21 11.0994C168.17 10.5256 169.312 10.2386 170.636 10.2386C171.778 10.2386 172.778 10.446 173.636 10.8608C174.494 11.2756 175.173 11.858 175.673 12.608C176.173 13.358 176.448 14.2386 176.499 15.25H173.073C172.977 14.5966 172.721 14.071 172.306 13.6733C171.897 13.2699 171.36 13.0682 170.695 13.0682C170.133 13.0682 169.641 13.2216 169.221 13.5284C168.806 13.8295 168.482 14.2699 168.249 14.8494C168.016 15.429 167.9 16.1307 167.9 16.9545C167.9 17.7898 168.013 18.5 168.241 19.0852C168.474 19.6705 168.8 20.1165 169.221 20.4233C169.641 20.7301 170.133 20.8835 170.695 20.8835C171.11 20.8835 171.482 20.7983 171.812 20.6278C172.147 20.4574 172.423 20.2102 172.638 19.8864C172.86 19.5568 173.005 19.1619 173.073 18.7017H176.499C176.442 19.7017 176.17 20.5824 175.681 21.3438C175.198 22.0994 174.531 22.6903 173.678 23.1165C172.826 23.5426 171.817 23.7557 170.653 23.7557ZM184.739 23.7557C183.415 23.7557 182.27 23.4744 181.304 22.9119C180.344 22.3437 179.602 21.554 179.08 20.5426C178.557 19.5256 178.295 18.3466 178.295 17.0057C178.295 15.6534 178.557 14.4716 179.08 13.4602C179.602 12.4432 180.344 11.6534 181.304 11.0909C182.27 10.5227 183.415 10.2386 184.739 10.2386C186.062 10.2386 187.205 10.5227 188.165 11.0909C189.131 11.6534 189.875 12.4432 190.398 13.4602C190.92 14.4716 191.182 15.6534 191.182 17.0057C191.182 18.3466 190.92 19.5256 190.398 20.5426C189.875 21.554 189.131 22.3437 188.165 22.9119C187.205 23.4744 186.062 23.7557 184.739 23.7557ZM184.756 20.9432C185.358 20.9432 185.861 20.7727 186.264 20.4318C186.668 20.0852 186.972 19.6136 187.176 19.017C187.386 18.4205 187.491 17.7415 187.491 16.9801C187.491 16.2188 187.386 15.5398 187.176 14.9432C186.972 14.3466 186.668 13.875 186.264 13.5284C185.861 13.1818 185.358 13.0085 184.756 13.0085C184.148 13.0085 183.636 13.1818 183.222 13.5284C182.813 13.875 182.503 14.3466 182.293 14.9432C182.088 15.5398 181.986 16.2188 181.986 16.9801C181.986 17.7415 182.088 18.4205 182.293 19.017C182.503 19.6136 182.813 20.0852 183.222 20.4318C183.636 20.7727 184.148 20.9432 184.756 20.9432ZM197.173 6.04545V23.5H193.543V6.04545H197.173ZM1.51705 52.5V35.0455H5.20739V49.4574H12.6903V52.5H1.51705ZM18.799 52.7472C17.9638 52.7472 17.2195 52.6023 16.5661 52.3125C15.9126 52.017 15.3956 51.5824 15.0149 51.0085C14.6399 50.429 14.4524 49.7074 14.4524 48.8438C14.4524 48.1165 14.5859 47.5057 14.853 47.0114C15.12 46.517 15.4837 46.1193 15.9439 45.8182C16.4041 45.517 16.9268 45.2898 17.5121 45.1364C18.103 44.983 18.7223 44.875 19.37 44.8125C20.1314 44.733 20.745 44.6591 21.2109 44.5909C21.6768 44.517 22.0149 44.4091 22.2251 44.267C22.4354 44.125 22.5405 43.9148 22.5405 43.6364V43.5852C22.5405 43.0455 22.37 42.6278 22.0291 42.3324C21.6939 42.0369 21.2166 41.8892 20.5973 41.8892C19.9439 41.8892 19.424 42.0341 19.0376 42.3239C18.6513 42.608 18.3956 42.9659 18.2706 43.3977L14.9126 43.125C15.0831 42.3295 15.4183 41.642 15.9183 41.0625C16.4183 40.4773 17.0632 40.0284 17.853 39.7159C18.6484 39.3977 19.5689 39.2386 20.6143 39.2386C21.3416 39.2386 22.0376 39.3239 22.7024 39.4943C23.3729 39.6648 23.9666 39.929 24.4837 40.2869C25.0064 40.6449 25.4183 41.1051 25.7195 41.6676C26.0206 42.2244 26.1712 42.892 26.1712 43.6705V52.5H22.728V50.6847H22.6257C22.4155 51.0938 22.1342 51.4545 21.782 51.767C21.4297 52.0739 21.0064 52.3153 20.5121 52.4915C20.0178 52.6619 19.4467 52.7472 18.799 52.7472ZM19.8388 50.2415C20.3729 50.2415 20.8445 50.1364 21.2536 49.9261C21.6626 49.7102 21.9837 49.4205 22.2166 49.0568C22.4496 48.6932 22.5661 48.2812 22.5661 47.821V46.4318C22.4524 46.5057 22.2962 46.5739 22.0973 46.6364C21.9041 46.6932 21.6854 46.7472 21.4411 46.7983C21.1967 46.8437 20.9524 46.8864 20.7081 46.9261C20.4638 46.9602 20.2422 46.9915 20.0433 47.0199C19.6172 47.0824 19.245 47.1818 18.9268 47.3182C18.6087 47.4545 18.3615 47.6392 18.1854 47.8722C18.0092 48.0994 17.9212 48.3835 17.9212 48.7244C17.9212 49.2188 18.1001 49.5966 18.4581 49.858C18.8217 50.1136 19.282 50.2415 19.8388 50.2415ZM29.0561 52.5V35.0455H32.6868V41.608H32.7976C32.9567 41.2557 33.1868 40.8977 33.4879 40.5341C33.7947 40.1648 34.1925 39.858 34.6811 39.6136C35.1754 39.3636 35.7891 39.2386 36.522 39.2386C37.4766 39.2386 38.3572 39.4886 39.1641 39.9886C39.9709 40.483 40.6158 41.2301 41.0987 42.2301C41.5817 43.2244 41.8232 44.4716 41.8232 45.9716C41.8232 47.4318 41.5874 48.6648 41.1158 49.6705C40.6499 50.6705 40.0135 51.429 39.2067 51.946C38.4055 52.4574 37.5078 52.7131 36.5135 52.7131C35.8089 52.7131 35.2095 52.5966 34.7152 52.3636C34.2266 52.1307 33.826 51.8381 33.5135 51.4858C33.201 51.1278 32.9624 50.767 32.7976 50.4034H32.6357V52.5H29.0561ZM32.6101 45.9545C32.6101 46.733 32.718 47.4119 32.9339 47.9915C33.1499 48.571 33.4624 49.0227 33.8714 49.3466C34.2805 49.6648 34.7777 49.8239 35.3629 49.8239C35.9538 49.8239 36.4538 49.6619 36.8629 49.3381C37.272 49.0085 37.5817 48.554 37.7919 47.9744C38.0078 47.3892 38.1158 46.7159 38.1158 45.9545C38.1158 45.1989 38.0107 44.5341 37.8004 43.9602C37.5902 43.3864 37.2805 42.9375 36.8714 42.6136C36.4624 42.2898 35.9595 42.1278 35.3629 42.1278C34.772 42.1278 34.272 42.2841 33.8629 42.5966C33.4595 42.9091 33.1499 43.3523 32.9339 43.9261C32.718 44.5 32.6101 45.1761 32.6101 45.9545ZM55.1378 43.142L51.8139 43.3466C51.7571 43.0625 51.6349 42.8068 51.4474 42.5795C51.2599 42.3466 51.0128 42.1619 50.706 42.0256C50.4048 41.8835 50.044 41.8125 49.6236 41.8125C49.0611 41.8125 48.5866 41.9318 48.2003 42.1705C47.8139 42.4034 47.6207 42.7159 47.6207 43.108C47.6207 43.4205 47.7457 43.6847 47.9957 43.9006C48.2457 44.1165 48.6747 44.2898 49.2827 44.4205L51.652 44.8977C52.9247 45.1591 53.8736 45.5795 54.4986 46.1591C55.1236 46.7386 55.4361 47.5 55.4361 48.4432C55.4361 49.3011 55.1832 50.054 54.6776 50.7017C54.1776 51.3494 53.4901 51.8551 52.6151 52.2188C51.7457 52.5767 50.7429 52.7557 49.6065 52.7557C47.8736 52.7557 46.4929 52.3949 45.4645 51.6733C44.4418 50.946 43.8423 49.9574 43.6662 48.7074L47.2372 48.5199C47.3452 49.0483 47.6065 49.4517 48.0213 49.7301C48.4361 50.0028 48.9673 50.1392 49.6151 50.1392C50.2514 50.1392 50.7628 50.017 51.1491 49.7727C51.5412 49.5227 51.7401 49.2017 51.7457 48.8097C51.7401 48.4801 51.6009 48.2102 51.3281 48C51.0554 47.7841 50.6349 47.6193 50.0668 47.5057L47.7997 47.054C46.5213 46.7983 45.5696 46.3551 44.9446 45.7244C44.3253 45.0937 44.0156 44.2898 44.0156 43.3125C44.0156 42.4716 44.2429 41.7472 44.6974 41.1392C45.1577 40.5312 45.8026 40.0625 46.6321 39.733C47.4673 39.4034 48.4446 39.2386 49.5639 39.2386C51.2173 39.2386 52.5185 39.5881 53.4673 40.2869C54.4219 40.9858 54.9787 41.9375 55.1378 43.142ZM77.9446 35.0455V52.5H74.7571L67.1634 41.5142H67.0355V52.5H63.3452V35.0455H66.5838L74.1179 46.0227H74.2713V35.0455H77.9446ZM86.8913 52.7557C85.5447 52.7557 84.3857 52.483 83.4141 51.9375C82.4482 51.3864 81.7038 50.608 81.1811 49.6023C80.6584 48.5909 80.397 47.3949 80.397 46.0142C80.397 44.6676 80.6584 43.4858 81.1811 42.4688C81.7038 41.4517 82.4396 40.6591 83.3885 40.0909C84.343 39.5227 85.4624 39.2386 86.7464 39.2386C87.6101 39.2386 88.4141 39.3778 89.1584 39.6562C89.9084 39.929 90.5618 40.3409 91.1186 40.892C91.6811 41.4432 92.1186 42.1364 92.4311 42.9716C92.7436 43.8011 92.8999 44.7727 92.8999 45.8864V46.8835H81.8459V44.6335H89.4822C89.4822 44.1108 89.3686 43.6477 89.1413 43.2443C88.9141 42.8409 88.5987 42.5256 88.1953 42.2983C87.7976 42.0653 87.3345 41.9489 86.8061 41.9489C86.255 41.9489 85.7663 42.0767 85.3402 42.3324C84.9197 42.5824 84.5902 42.9205 84.3516 43.3466C84.1129 43.767 83.9908 44.2358 83.9851 44.7528V46.892C83.9851 47.5398 84.1044 48.0994 84.343 48.571C84.5874 49.0426 84.9311 49.4062 85.3743 49.6619C85.8175 49.9176 86.343 50.0455 86.951 50.0455C87.3544 50.0455 87.7237 49.9886 88.0589 49.875C88.3942 49.7614 88.6811 49.5909 88.9197 49.3636C89.1584 49.1364 89.3402 48.858 89.4652 48.5284L92.8232 48.75C92.6527 49.5568 92.3033 50.2614 91.7749 50.8636C91.2521 51.4602 90.576 51.9261 89.7464 52.2614C88.9226 52.5909 87.9709 52.7557 86.8913 52.7557ZM102.232 39.4091V42.1364H94.3487V39.4091H102.232ZM96.1385 36.2727H99.7692V48.4773C99.7692 48.8125 99.8203 49.0739 99.9226 49.2614C100.025 49.4432 100.167 49.571 100.349 49.6449C100.536 49.7187 100.752 49.7557 100.996 49.7557C101.167 49.7557 101.337 49.7415 101.508 49.7131C101.678 49.679 101.809 49.6534 101.9 49.6364L102.471 52.3381C102.289 52.3949 102.033 52.4602 101.704 52.5341C101.374 52.6136 100.974 52.6619 100.502 52.679C99.6271 52.7131 98.8601 52.5966 98.201 52.3295C97.5476 52.0625 97.0391 51.6477 96.6754 51.0852C96.3118 50.5227 96.1328 49.8125 96.1385 48.9545V36.2727ZM107.18 52.5L103.617 39.4091H107.29L109.319 48.2045H109.438L111.552 39.4091H115.157L117.305 48.1534H117.415L119.41 39.4091H123.075L119.521 52.5H115.677L113.427 44.267H113.265L111.015 52.5H107.18ZM130.598 52.7557C129.274 52.7557 128.129 52.4744 127.163 51.9119C126.203 51.3437 125.462 50.554 124.939 49.5426C124.416 48.5256 124.155 47.3466 124.155 46.0057C124.155 44.6534 124.416 43.4716 124.939 42.4602C125.462 41.4432 126.203 40.6534 127.163 40.0909C128.129 39.5227 129.274 39.2386 130.598 39.2386C131.922 39.2386 133.064 39.5227 134.024 40.0909C134.99 40.6534 135.734 41.4432 136.257 42.4602C136.78 43.4716 137.041 44.6534 137.041 46.0057C137.041 47.3466 136.78 48.5256 136.257 49.5426C135.734 50.554 134.99 51.3437 134.024 51.9119C133.064 52.4744 131.922 52.7557 130.598 52.7557ZM130.615 49.9432C131.217 49.9432 131.72 49.7727 132.124 49.4318C132.527 49.0852 132.831 48.6136 133.036 48.017C133.246 47.4205 133.351 46.7415 133.351 45.9801C133.351 45.2188 133.246 44.5398 133.036 43.9432C132.831 43.3466 132.527 42.875 132.124 42.5284C131.72 42.1818 131.217 42.0085 130.615 42.0085C130.007 42.0085 129.496 42.1818 129.081 42.5284C128.672 42.875 128.362 43.3466 128.152 43.9432C127.947 44.5398 127.845 45.2188 127.845 45.9801C127.845 46.7415 127.947 47.4205 128.152 48.017C128.362 48.6136 128.672 49.0852 129.081 49.4318C129.496 49.7727 130.007 49.9432 130.615 49.9432ZM139.402 52.5V39.4091H142.922V41.6932H143.058C143.297 40.8807 143.697 40.267 144.26 39.8523C144.822 39.4318 145.47 39.2216 146.203 39.2216C146.385 39.2216 146.581 39.233 146.791 39.2557C147.001 39.2784 147.186 39.3097 147.345 39.3494V42.571C147.175 42.5199 146.939 42.4744 146.638 42.4347C146.337 42.3949 146.061 42.375 145.811 42.375C145.277 42.375 144.8 42.4915 144.379 42.7244C143.964 42.9517 143.635 43.2699 143.391 43.679C143.152 44.0881 143.033 44.5597 143.033 45.0938V52.5H139.402ZM152.512 48.733L152.521 44.3778H153.049L157.242 39.4091H161.41L155.776 45.9886H154.915L152.512 48.733ZM149.222 52.5V35.0455H152.853V52.5H149.222ZM157.404 52.5L153.552 46.7983L155.972 44.233L161.657 52.5H157.404Z" fill="white"/>
</g>
<path opacity="0.5" d="M1.11648 72.6406V71.3182H8.99645V72.6406H5.8196V81.5H4.28835V72.6406H1.11648ZM12.8022 81.6541C12.0498 81.6541 11.4019 81.4934 10.8583 81.1719C10.3181 80.8471 9.90045 80.3913 9.60547 79.8047C9.3138 79.2147 9.16797 78.5237 9.16797 77.7315C9.16797 76.9493 9.3138 76.2599 9.60547 75.6634C9.90045 75.0668 10.3114 74.6011 10.8384 74.2663C11.3687 73.9316 11.9885 73.7642 12.6978 73.7642C13.1287 73.7642 13.5463 73.8355 13.9506 73.978C14.355 74.1205 14.7179 74.3442 15.0394 74.6491C15.3609 74.9541 15.6145 75.3501 15.8001 75.8374C15.9857 76.3213 16.0785 76.9096 16.0785 77.6023V78.1293H10.0082V77.0156H14.6218C14.6218 76.6245 14.5423 76.2782 14.3832 75.9766C14.2241 75.6716 14.0004 75.4313 13.712 75.2557C13.427 75.08 13.0922 74.9922 12.7077 74.9922C12.2901 74.9922 11.9255 75.0949 11.614 75.3004C11.3058 75.5026 11.0671 75.7678 10.8981 76.0959C10.7324 76.4207 10.6495 76.7737 10.6495 77.1548V78.0249C10.6495 78.5353 10.739 78.9695 10.918 79.3274C11.1003 79.6854 11.3538 79.9588 11.6786 80.1477C12.0034 80.3333 12.3829 80.4261 12.8171 80.4261C13.0988 80.4261 13.3557 80.3864 13.5877 80.3068C13.8197 80.224 14.0202 80.1013 14.1893 79.9389C14.3583 79.7765 14.4876 79.576 14.5771 79.3374L15.984 79.5909C15.8713 80.0052 15.6692 80.3681 15.3775 80.6797C15.0891 80.9879 14.7262 81.2282 14.2887 81.4006C13.8545 81.5696 13.359 81.6541 12.8022 81.6541ZM19.2143 71.3182V81.5H17.7278V71.3182H19.2143ZM22.7006 71.3182V81.5H21.2141V71.3182H22.7006ZM33.2429 78.3331V73.8636H34.7344V81.5H33.2727V80.1776H33.1932C33.0175 80.5852 32.7358 80.925 32.348 81.1967C31.9635 81.4652 31.4846 81.5994 30.9112 81.5994C30.4207 81.5994 29.9865 81.4917 29.6087 81.2763C29.2341 81.0575 28.9392 80.7344 28.7237 80.3068C28.5116 79.8793 28.4055 79.3506 28.4055 78.7209V73.8636H29.892V78.5419C29.892 79.0623 30.0362 79.4766 30.3246 79.7848C30.6129 80.093 30.9875 80.2472 31.4482 80.2472C31.7266 80.2472 32.0033 80.1776 32.2784 80.0384C32.5568 79.8991 32.7872 79.6887 32.9695 79.407C33.1551 79.1252 33.2462 78.7673 33.2429 78.3331ZM42.454 75.728L41.1067 75.9666C41.0504 75.7943 40.9609 75.6302 40.8382 75.4744C40.7189 75.3187 40.5565 75.1911 40.351 75.0916C40.1455 74.9922 39.8887 74.9425 39.5804 74.9425C39.1595 74.9425 38.8082 75.0369 38.5265 75.2259C38.2447 75.4115 38.1039 75.6518 38.1039 75.9467C38.1039 76.2019 38.1983 76.4074 38.3873 76.5632C38.5762 76.719 38.8811 76.8466 39.302 76.946L40.5151 77.2244C41.2177 77.3868 41.7414 77.6371 42.0861 77.9751C42.4308 78.3132 42.6032 78.7524 42.6032 79.2926C42.6032 79.75 42.4706 80.1577 42.2054 80.5156C41.9436 80.8703 41.5774 81.1487 41.1067 81.3509C40.6394 81.553 40.0975 81.6541 39.481 81.6541C38.6259 81.6541 37.9282 81.4718 37.388 81.1072C36.8477 80.7393 36.5163 80.2173 36.3936 79.5412L37.8304 79.3224C37.9199 79.697 38.1039 79.9804 38.3823 80.1726C38.6607 80.3615 39.0236 80.456 39.4711 80.456C39.9583 80.456 40.3477 80.3549 40.6394 80.1527C40.931 79.9472 41.0769 79.697 41.0769 79.402C41.0769 79.1634 40.9874 78.9628 40.8084 78.8004C40.6328 78.638 40.3626 78.5154 39.998 78.4325L38.7054 78.1491C37.9928 77.9867 37.4658 77.7282 37.1245 77.3736C36.7864 77.0189 36.6174 76.5698 36.6174 76.0263C36.6174 75.5755 36.7433 75.1811 36.9952 74.843C37.2471 74.505 37.5951 74.2415 38.0392 74.0526C38.4834 73.8603 38.9921 73.7642 39.5655 73.7642C40.3908 73.7642 41.0404 73.9432 41.5144 74.3011C41.9883 74.6558 42.3016 75.1314 42.454 75.728ZM50.165 81.669C49.681 81.669 49.2435 81.5795 48.8525 81.4006C48.4614 81.2183 48.1515 80.9548 47.9228 80.6101C47.6974 80.2654 47.5847 79.8428 47.5847 79.3423C47.5847 78.9115 47.6676 78.5568 47.8333 78.2784C47.999 78 48.2227 77.7796 48.5044 77.6172C48.7862 77.4548 49.101 77.3321 49.449 77.2493C49.7971 77.1664 50.1517 77.1035 50.513 77.0604C50.9703 77.0073 51.3416 76.9643 51.6266 76.9311C51.9116 76.8946 52.1188 76.8366 52.248 76.7571C52.3773 76.6776 52.4419 76.5483 52.4419 76.3693V76.3345C52.4419 75.9003 52.3193 75.5639 52.074 75.3253C51.8321 75.0866 51.4708 74.9673 50.9902 74.9673C50.4898 74.9673 50.0953 75.0784 49.807 75.3004C49.522 75.5192 49.3248 75.7628 49.2154 76.0312L47.8184 75.7131C47.9841 75.2491 48.226 74.8745 48.5442 74.5895C48.8657 74.3011 49.2353 74.0923 49.6529 73.9631C50.0705 73.8305 50.5096 73.7642 50.9703 73.7642C51.2753 73.7642 51.5984 73.8007 51.9398 73.8736C52.2845 73.9432 52.606 74.0724 52.9043 74.2614C53.2059 74.4503 53.4528 74.7204 53.6451 75.0717C53.8373 75.4197 53.9334 75.8722 53.9334 76.429V81.5H52.4817V80.456H52.4221C52.3259 80.6482 52.1818 80.8371 51.9895 81.0227C51.7973 81.2083 51.5504 81.3625 51.2488 81.4851C50.9471 81.6077 50.5859 81.669 50.165 81.669ZM50.4881 80.4759C50.8991 80.4759 51.2504 80.3946 51.5421 80.2322C51.8371 80.0698 52.0608 79.8577 52.2132 79.5959C52.369 79.3307 52.4469 79.0473 52.4469 78.7457V77.7614C52.3939 77.8144 52.2911 77.8641 52.1387 77.9105C51.9895 77.9536 51.8188 77.9917 51.6266 78.0249C51.4344 78.0547 51.2471 78.0829 51.0648 78.1094C50.8825 78.1326 50.7301 78.1525 50.6074 78.169C50.3191 78.2055 50.0556 78.2668 49.8169 78.353C49.5816 78.4392 49.3927 78.5634 49.2502 78.7259C49.111 78.8849 49.0414 79.0971 49.0414 79.3622C49.0414 79.7301 49.1773 80.0085 49.449 80.1974C49.7208 80.383 50.0672 80.4759 50.4881 80.4759ZM56.0327 81.5V71.3182H57.5192V75.1016H57.6087C57.6948 74.9425 57.8191 74.7585 57.9815 74.5497C58.1439 74.3409 58.3693 74.1586 58.6577 74.0028C58.946 73.8438 59.3272 73.7642 59.8011 73.7642C60.4176 73.7642 60.9678 73.92 61.4517 74.2315C61.9356 74.5431 62.3151 74.9922 62.5902 75.5788C62.8686 76.1655 63.0078 76.8714 63.0078 77.6967C63.0078 78.522 62.8703 79.2296 62.5952 79.8196C62.3201 80.4062 61.9422 80.8587 61.4616 81.1768C60.9811 81.4917 60.4325 81.6491 59.8161 81.6491C59.352 81.6491 58.9725 81.5713 58.6776 81.4155C58.3859 81.2597 58.1572 81.0774 57.9915 80.8686C57.8258 80.6598 57.6982 80.4742 57.6087 80.3118H57.4844V81.5H56.0327ZM57.4893 77.6818C57.4893 78.2187 57.5672 78.6894 57.723 79.0938C57.8788 79.4981 58.1042 79.8146 58.3991 80.0433C58.6941 80.2687 59.0554 80.3814 59.483 80.3814C59.9271 80.3814 60.2983 80.2637 60.5966 80.0284C60.8949 79.7898 61.1203 79.4666 61.2727 79.0589C61.4285 78.6513 61.5064 78.1922 61.5064 77.6818C61.5064 77.178 61.4302 76.7256 61.2777 76.3246C61.1286 75.9235 60.9032 75.607 60.6016 75.375C60.3033 75.143 59.9304 75.027 59.483 75.027C59.0521 75.027 58.6875 75.138 58.3892 75.3601C58.0942 75.5821 57.8705 75.892 57.718 76.2898C57.5656 76.6875 57.4893 77.1515 57.4893 77.6818ZM67.8936 81.6541C67.1777 81.6541 66.553 81.4901 66.0194 81.1619C65.4857 80.8338 65.0714 80.3748 64.7765 79.7848C64.4815 79.1948 64.334 78.5054 64.334 77.7166C64.334 76.9245 64.4815 76.2318 64.7765 75.6385C65.0714 75.0452 65.4857 74.5845 66.0194 74.2564C66.553 73.9283 67.1777 73.7642 67.8936 73.7642C68.6096 73.7642 69.2343 73.9283 69.7679 74.2564C70.3016 74.5845 70.7158 75.0452 71.0108 75.6385C71.3058 76.2318 71.4533 76.9245 71.4533 77.7166C71.4533 78.5054 71.3058 79.1948 71.0108 79.7848C70.7158 80.3748 70.3016 80.8338 69.7679 81.1619C69.2343 81.4901 68.6096 81.6541 67.8936 81.6541ZM67.8986 80.4062C68.3626 80.4062 68.7471 80.2836 69.052 80.0384C69.3569 79.7931 69.5823 79.4666 69.7282 79.0589C69.8773 78.6513 69.9519 78.2022 69.9519 77.7116C69.9519 77.2244 69.8773 76.777 69.7282 76.3693C69.5823 75.9583 69.3569 75.6286 69.052 75.38C68.7471 75.1314 68.3626 75.0071 67.8986 75.0071C67.4313 75.0071 67.0435 75.1314 66.7353 75.38C66.4303 75.6286 66.2033 75.9583 66.0542 76.3693C65.9083 76.777 65.8354 77.2244 65.8354 77.7116C65.8354 78.2022 65.9083 78.6513 66.0542 79.0589C66.2033 79.4666 66.4303 79.7931 66.7353 80.0384C67.0435 80.2836 67.4313 80.4062 67.8986 80.4062ZM77.9499 78.3331V73.8636H79.4414V81.5H77.9798V80.1776H77.9002C77.7246 80.5852 77.4428 80.925 77.055 81.1967C76.6706 81.4652 76.1916 81.5994 75.6183 81.5994C75.1277 81.5994 74.6935 81.4917 74.3157 81.2763C73.9412 81.0575 73.6462 80.7344 73.4308 80.3068C73.2186 79.8793 73.1126 79.3506 73.1126 78.7209V73.8636H74.5991V78.5419C74.5991 79.0623 74.7433 79.4766 75.0316 79.7848C75.32 80.093 75.6945 80.2472 76.1552 80.2472C76.4336 80.2472 76.7103 80.1776 76.9854 80.0384C77.2638 79.8991 77.4942 79.6887 77.6765 79.407C77.8621 79.1252 77.9532 78.7673 77.9499 78.3331ZM85.0034 73.8636V75.0568H80.8322V73.8636H85.0034ZM81.9508 72.0341H83.4373V79.2578C83.4373 79.5462 83.4804 79.7633 83.5666 79.9091C83.6528 80.0516 83.7638 80.1494 83.8997 80.2024C84.0389 80.2521 84.1897 80.277 84.3521 80.277C84.4714 80.277 84.5758 80.2687 84.6653 80.2521C84.7548 80.2356 84.8244 80.2223 84.8741 80.2124L85.1426 81.4403C85.0564 81.4735 84.9338 81.5066 84.7747 81.5398C84.6156 81.5762 84.4167 81.5961 84.1781 81.5994C83.787 81.6061 83.4224 81.5365 83.0843 81.3906C82.7463 81.2448 82.4728 81.0194 82.264 80.7145C82.0552 80.4096 81.9508 80.0268 81.9508 79.5661V72.0341ZM91.2924 84.3636C91.0704 84.3636 90.8682 84.3454 90.6859 84.3089C90.5036 84.2758 90.3677 84.2393 90.2782 84.1996L90.6362 82.9815C90.908 83.0545 91.1499 83.0859 91.362 83.076C91.5742 83.0661 91.7614 82.9865 91.9238 82.8374C92.0895 82.6882 92.2354 82.4446 92.3613 82.1065L92.5453 81.5994L89.7512 73.8636H91.3422L93.2761 79.7898H93.3556L95.2896 73.8636H96.8855L93.7385 82.5192C93.5926 82.9169 93.407 83.2533 93.1816 83.5284C92.9563 83.8068 92.6878 84.0156 92.3762 84.1548C92.0647 84.294 91.7034 84.3636 91.2924 84.3636ZM101.239 81.6541C100.523 81.6541 99.8987 81.4901 99.3651 81.1619C98.8314 80.8338 98.4171 80.3748 98.1222 79.7848C97.8272 79.1948 97.6797 78.5054 97.6797 77.7166C97.6797 76.9245 97.8272 76.2318 98.1222 75.6385C98.4171 75.0452 98.8314 74.5845 99.3651 74.2564C99.8987 73.9283 100.523 73.7642 101.239 73.7642C101.955 73.7642 102.58 73.9283 103.114 74.2564C103.647 74.5845 104.062 75.0452 104.357 75.6385C104.652 76.2318 104.799 76.9245 104.799 77.7166C104.799 78.5054 104.652 79.1948 104.357 79.7848C104.062 80.3748 103.647 80.8338 103.114 81.1619C102.58 81.4901 101.955 81.6541 101.239 81.6541ZM101.244 80.4062C101.708 80.4062 102.093 80.2836 102.398 80.0384C102.703 79.7931 102.928 79.4666 103.074 79.0589C103.223 78.6513 103.298 78.2022 103.298 77.7116C103.298 77.2244 103.223 76.777 103.074 76.3693C102.928 75.9583 102.703 75.6286 102.398 75.38C102.093 75.1314 101.708 75.0071 101.244 75.0071C100.777 75.0071 100.389 75.1314 100.081 75.38C99.776 75.6286 99.549 75.9583 99.3999 76.3693C99.254 76.777 99.1811 77.2244 99.1811 77.7116C99.1811 78.2022 99.254 78.6513 99.3999 79.0589C99.549 79.4666 99.776 79.7931 100.081 80.0384C100.389 80.2836 100.777 80.4062 101.244 80.4062ZM111.296 78.3331V73.8636H112.787V81.5H111.325V80.1776H111.246C111.07 80.5852 110.789 80.925 110.401 81.1967C110.016 81.4652 109.537 81.5994 108.964 81.5994C108.473 81.5994 108.039 81.4917 107.661 81.2763C107.287 81.0575 106.992 80.7344 106.776 80.3068C106.564 79.8793 106.458 79.3506 106.458 78.7209V73.8636H107.945V78.5419C107.945 79.0623 108.089 79.4766 108.377 79.7848C108.666 80.093 109.04 80.2472 109.501 80.2472C109.779 80.2472 110.056 80.1776 110.331 80.0384C110.61 79.8991 110.84 79.6887 111.022 79.407C111.208 79.1252 111.299 78.7673 111.296 78.3331ZM114.784 81.5V73.8636H116.221V75.0767H116.301C116.44 74.6657 116.685 74.3426 117.037 74.1072C117.391 73.8686 117.792 73.7493 118.24 73.7493C118.333 73.7493 118.442 73.7526 118.568 73.7592C118.697 73.7659 118.798 73.7741 118.871 73.7841V75.206C118.811 75.1894 118.705 75.1712 118.553 75.1513C118.4 75.1281 118.248 75.1165 118.096 75.1165C117.744 75.1165 117.431 75.1911 117.156 75.3402C116.884 75.486 116.669 75.6899 116.51 75.9517C116.35 76.2102 116.271 76.5052 116.271 76.8366V81.5H114.784ZM127.427 73.8636V75.0568H123.256V73.8636H127.427ZM124.375 72.0341H125.861V79.2578C125.861 79.5462 125.904 79.7633 125.99 79.9091C126.077 80.0516 126.188 80.1494 126.324 80.2024C126.463 80.2521 126.614 80.277 126.776 80.277C126.895 80.277 127 80.2687 127.089 80.2521C127.179 80.2356 127.248 80.2223 127.298 80.2124L127.566 81.4403C127.48 81.4735 127.358 81.5066 127.199 81.5398C127.039 81.5762 126.841 81.5961 126.602 81.5994C126.211 81.6061 125.846 81.5365 125.508 81.3906C125.17 81.2448 124.897 81.0194 124.688 80.7145C124.479 80.4096 124.375 80.0268 124.375 79.5661V72.0341ZM132.281 81.6541C131.528 81.6541 130.88 81.4934 130.337 81.1719C129.797 80.8471 129.379 80.3913 129.084 79.8047C128.792 79.2147 128.646 78.5237 128.646 77.7315C128.646 76.9493 128.792 76.2599 129.084 75.6634C129.379 75.0668 129.79 74.6011 130.317 74.2663C130.847 73.9316 131.467 73.7642 132.176 73.7642C132.607 73.7642 133.025 73.8355 133.429 73.978C133.834 74.1205 134.196 74.3442 134.518 74.6491C134.839 74.9541 135.093 75.3501 135.279 75.8374C135.464 76.3213 135.557 76.9096 135.557 77.6023V78.1293H129.487V77.0156H134.1C134.1 76.6245 134.021 76.2782 133.862 75.9766C133.703 75.6716 133.479 75.4313 133.191 75.2557C132.905 75.08 132.571 74.9922 132.186 74.9922C131.769 74.9922 131.404 75.0949 131.093 75.3004C130.784 75.5026 130.546 75.7678 130.377 76.0959C130.211 76.4207 130.128 76.7737 130.128 77.1548V78.0249C130.128 78.5353 130.218 78.9695 130.396 79.3274C130.579 79.6854 130.832 79.9588 131.157 80.1477C131.482 80.3333 131.861 80.4261 132.296 80.4261C132.577 80.4261 132.834 80.3864 133.066 80.3068C133.298 80.224 133.499 80.1013 133.668 79.9389C133.837 79.7765 133.966 79.576 134.056 79.3374L135.463 79.5909C135.35 80.0052 135.148 80.3681 134.856 80.6797C134.568 80.9879 134.205 81.2282 133.767 81.4006C133.333 81.5696 132.838 81.6541 132.281 81.6541ZM139.429 81.669C138.945 81.669 138.507 81.5795 138.116 81.4006C137.725 81.2183 137.415 80.9548 137.186 80.6101C136.961 80.2654 136.848 79.8428 136.848 79.3423C136.848 78.9115 136.931 78.5568 137.097 78.2784C137.263 78 137.486 77.7796 137.768 77.6172C138.05 77.4548 138.365 77.3321 138.713 77.2493C139.061 77.1664 139.415 77.1035 139.777 77.0604C140.234 77.0073 140.605 76.9643 140.89 76.9311C141.175 76.8946 141.382 76.8366 141.512 76.7571C141.641 76.6776 141.706 76.5483 141.706 76.3693V76.3345C141.706 75.9003 141.583 75.5639 141.338 75.3253C141.096 75.0866 140.734 74.9673 140.254 74.9673C139.753 74.9673 139.359 75.0784 139.071 75.3004C138.786 75.5192 138.588 75.7628 138.479 76.0312L137.082 75.7131C137.248 75.2491 137.49 74.8745 137.808 74.5895C138.129 74.3011 138.499 74.0923 138.917 73.9631C139.334 73.8305 139.773 73.7642 140.234 73.7642C140.539 73.7642 140.862 73.8007 141.203 73.8736C141.548 73.9432 141.87 74.0724 142.168 74.2614C142.47 74.4503 142.717 74.7204 142.909 75.0717C143.101 75.4197 143.197 75.8722 143.197 76.429V81.5H141.745V80.456H141.686C141.59 80.6482 141.445 80.8371 141.253 81.0227C141.061 81.2083 140.814 81.3625 140.512 81.4851C140.211 81.6077 139.85 81.669 139.429 81.669ZM139.752 80.4759C140.163 80.4759 140.514 80.3946 140.806 80.2322C141.101 80.0698 141.324 79.8577 141.477 79.5959C141.633 79.3307 141.711 79.0473 141.711 78.7457V77.7614C141.658 77.8144 141.555 77.8641 141.402 77.9105C141.253 77.9536 141.083 77.9917 140.89 78.0249C140.698 78.0547 140.511 78.0829 140.328 78.1094C140.146 78.1326 139.994 78.1525 139.871 78.169C139.583 78.2055 139.319 78.2668 139.081 78.353C138.845 78.4392 138.656 78.5634 138.514 78.7259C138.375 78.8849 138.305 79.0971 138.305 79.3622C138.305 79.7301 138.441 80.0085 138.713 80.1974C138.984 80.383 139.331 80.4759 139.752 80.4759ZM145.177 81.5V73.8636H146.604V75.1065H146.698C146.857 74.6856 147.118 74.3575 147.479 74.1222C147.84 73.8835 148.273 73.7642 148.776 73.7642C149.287 73.7642 149.714 73.8835 150.059 74.1222C150.407 74.3608 150.664 74.6889 150.83 75.1065H150.909C151.092 74.6989 151.382 74.3741 151.779 74.1321C152.177 73.8868 152.651 73.7642 153.201 73.7642C153.894 73.7642 154.459 73.9813 154.896 74.4155C155.337 74.8497 155.558 75.5043 155.558 76.3793V81.5H154.071V76.5185C154.071 76.0014 153.93 75.6269 153.649 75.3949C153.367 75.1629 153.03 75.0469 152.639 75.0469C152.155 75.0469 151.779 75.196 151.511 75.4943C151.242 75.7893 151.108 76.1688 151.108 76.6328V81.5H149.627V76.424C149.627 76.0097 149.497 75.6766 149.239 75.4247C148.98 75.1728 148.644 75.0469 148.23 75.0469C147.948 75.0469 147.688 75.1214 147.449 75.2706C147.214 75.4164 147.023 75.6203 146.877 75.8821C146.735 76.1439 146.664 76.4472 146.664 76.7919V81.5H145.177ZM159.424 71.3182L159.295 78.5717H157.918L157.789 71.3182H159.424ZM158.609 81.5945C158.334 81.5945 158.099 81.4983 157.903 81.3061C157.708 81.1106 157.611 80.8752 157.615 80.6001C157.611 80.3284 157.708 80.0964 157.903 79.9041C158.099 79.7086 158.334 79.6108 158.609 79.6108C158.877 79.6108 159.109 79.7086 159.305 79.9041C159.501 80.0964 159.6 80.3284 159.603 80.6001C159.6 80.7824 159.552 80.9498 159.459 81.1023C159.37 81.2514 159.25 81.3707 159.101 81.4602C158.952 81.5497 158.788 81.5945 158.609 81.5945Z" fill="white"/>
<defs>
<filter id="filter0_d_117_13156" x="0.553711" y="5.04834" width="196.619" height="47.7075" filterUnits="userSpaceOnUse" color-interpolation-filters="sRGB">
<feFlood flood-opacity="0" result="BackgroundImageFix"/>
<feColorMatrix in="SourceAlpha" type="matrix" values="0 0 0 0 0 0 0 0 0 0 0 0 0 0 0 0 0 0 127 0" result="hardAlpha"/>
<feOffset/>
<feComposite in2="hardAlpha" operator="out"/>
<feColorMatrix type="matrix" values="0 0 0 0 1 0 0 0 0 1 0 0 0 0 1 0 0 0 0.81 0"/>
<feBlend mode="normal" in2="BackgroundImageFix" result="effect1_dropShadow_117_13156"/>
<feBlend mode="normal" in="SourceGraphic" in2="effect1_dropShadow_117_13156" result="shape"/>
</filter>
</defs>
</svg>

