<svg width="194" height="88" viewBox="0 0 194 88" fill="none" xmlns="http://www.w3.org/2000/svg">
<g filter="url(#filter0_d_1294_1424)">
<path d="M8.50568 5.54545H12.1534V17.7159C12.1534 18.8409 11.9006 19.8182 11.3949 20.6477C10.8949 21.4773 10.1989 22.1165 9.30682 22.5653C8.41477 23.0142 7.37784 23.2386 6.19602 23.2386C5.14489 23.2386 4.19034 23.054 3.33239 22.6847C2.48011 22.3097 1.80398 21.7415 1.30398 20.9801C0.803977 20.2131 0.556818 19.25 0.5625 18.0909H4.2358C4.24716 18.5511 4.34091 18.946 4.51705 19.2756C4.69886 19.5994 4.94602 19.8494 5.25852 20.0256C5.5767 20.196 5.9517 20.2812 6.38352 20.2812C6.83807 20.2812 7.22159 20.1847 7.53409 19.9915C7.85227 19.7926 8.09375 19.5028 8.25852 19.1222C8.4233 18.7415 8.50568 18.2727 8.50568 17.7159V5.54545ZM21.0511 23.2557C19.7273 23.2557 18.5824 22.9744 17.6165 22.4119C16.6563 21.8437 15.9148 21.054 15.392 20.0426C14.8693 19.0256 14.608 17.8466 14.608 16.5057C14.608 15.1534 14.8693 13.9716 15.392 12.9602C15.9148 11.9432 16.6563 11.1534 17.6165 10.5909C18.5824 10.0227 19.7273 9.73864 21.0511 9.73864C22.375 9.73864 23.517 10.0227 24.4773 10.5909C25.4432 11.1534 26.1875 11.9432 26.7102 12.9602C27.233 13.9716 27.4943 15.1534 27.4943 16.5057C27.4943 17.8466 27.233 19.0256 26.7102 20.0426C26.1875 21.054 25.4432 21.8437 24.4773 22.4119C23.517 22.9744 22.375 23.2557 21.0511 23.2557ZM21.0682 20.4432C21.6705 20.4432 22.1733 20.2727 22.5767 19.9318C22.9801 19.5852 23.2841 19.1136 23.4886 18.517C23.6989 17.9205 23.804 17.2415 23.804 16.4801C23.804 15.7188 23.6989 15.0398 23.4886 14.4432C23.2841 13.8466 22.9801 13.375 22.5767 13.0284C22.1733 12.6818 21.6705 12.5085 21.0682 12.5085C20.4602 12.5085 19.9489 12.6818 19.5341 13.0284C19.125 13.375 18.8153 13.8466 18.6051 14.4432C18.4006 15.0398 18.2983 15.7188 18.2983 16.4801C18.2983 17.2415 18.4006 17.9205 18.6051 18.517C18.8153 19.1136 19.125 19.5852 19.5341 19.9318C19.9489 20.2727 20.4602 20.4432 21.0682 20.4432ZM29.8551 23V9.90909H33.4858V23H29.8551ZM31.679 8.22159C31.1392 8.22159 30.6761 8.04261 30.2898 7.68466C29.9091 7.32102 29.7188 6.88636 29.7188 6.38068C29.7188 5.88068 29.9091 5.4517 30.2898 5.09375C30.6761 4.73011 31.1392 4.54829 31.679 4.54829C32.2188 4.54829 32.679 4.73011 33.0597 5.09375C33.446 5.4517 33.6392 5.88068 33.6392 6.38068C33.6392 6.88636 33.446 7.32102 33.0597 7.68466C32.679 8.04261 32.2188 8.22159 31.679 8.22159ZM40.0249 15.4318V23H36.3942V9.90909H39.8544V12.2188H40.0078C40.2976 11.4574 40.7834 10.8551 41.4652 10.4119C42.147 9.96307 42.9737 9.73864 43.9453 9.73864C44.8544 9.73864 45.647 9.9375 46.3232 10.3352C46.9993 10.733 47.5249 11.3011 47.8999 12.0398C48.2749 12.7727 48.4624 13.6477 48.4624 14.6648V23H44.8317V15.3125C44.8374 14.5114 44.6328 13.8864 44.218 13.4375C43.8033 12.983 43.2322 12.7557 42.505 12.7557C42.0163 12.7557 41.5845 12.8608 41.2095 13.071C40.8402 13.2812 40.5504 13.5881 40.3402 13.9915C40.1357 14.3892 40.0305 14.8693 40.0249 15.4318ZM63.8416 9.90909V12.6364H55.9581V9.90909H63.8416ZM57.7479 6.77273H61.3786V18.9773C61.3786 19.3125 61.4297 19.5739 61.532 19.7614C61.6342 19.9432 61.7763 20.071 61.9581 20.1449C62.1456 20.2187 62.3615 20.2557 62.6058 20.2557C62.7763 20.2557 62.9467 20.2415 63.1172 20.2131C63.2876 20.179 63.4183 20.1534 63.5092 20.1364L64.0803 22.8381C63.8984 22.8949 63.6428 22.9602 63.3132 23.0341C62.9837 23.1136 62.5831 23.1619 62.1115 23.179C61.2365 23.2131 60.4695 23.0966 59.8104 22.8295C59.157 22.5625 58.6484 22.1477 58.2848 21.5852C57.9212 21.0227 57.7422 20.3125 57.7479 19.4545V6.77273ZM70.1186 15.4318V23H66.4879V5.54545H70.0163V12.2188H70.1697C70.4652 11.446 70.9425 10.8409 71.6016 10.4034C72.2607 9.96023 73.0874 9.73864 74.0817 9.73864C74.9908 9.73864 75.7834 9.9375 76.4595 10.3352C77.1413 10.7273 77.6697 11.2926 78.0447 12.0312C78.4254 12.7642 78.6129 13.642 78.6072 14.6648V23H74.9766V15.3125C74.9822 14.5057 74.7777 13.8778 74.3629 13.429C73.9538 12.9801 73.38 12.7557 72.6413 12.7557C72.147 12.7557 71.7095 12.8608 71.3288 13.071C70.9538 13.2812 70.6584 13.5881 70.4425 13.9915C70.2322 14.3892 70.1243 14.8693 70.1186 15.4318ZM87.4304 23.2557C86.0838 23.2557 84.9247 22.983 83.9531 22.4375C82.9872 21.8864 82.2429 21.108 81.7202 20.1023C81.1974 19.0909 80.9361 17.8949 80.9361 16.5142C80.9361 15.1676 81.1974 13.9858 81.7202 12.9688C82.2429 11.9517 82.9787 11.1591 83.9276 10.5909C84.8821 10.0227 86.0014 9.73864 87.2855 9.73864C88.1491 9.73864 88.9531 9.87784 89.6974 10.1562C90.4474 10.429 91.1009 10.8409 91.6577 11.392C92.2202 11.9432 92.6577 12.6364 92.9702 13.4716C93.2827 14.3011 93.4389 15.2727 93.4389 16.3864V17.3835H82.3849V15.1335H90.0213C90.0213 14.6108 89.9077 14.1477 89.6804 13.7443C89.4531 13.3409 89.1378 13.0256 88.7344 12.7983C88.3366 12.5653 87.8736 12.4489 87.3452 12.4489C86.794 12.4489 86.3054 12.5767 85.8793 12.8324C85.4588 13.0824 85.1293 13.4205 84.8906 13.8466C84.652 14.267 84.5298 14.7358 84.5241 15.2528V17.392C84.5241 18.0398 84.6435 18.5994 84.8821 19.071C85.1264 19.5426 85.4702 19.9062 85.9134 20.1619C86.3565 20.4176 86.8821 20.5455 87.4901 20.5455C87.8935 20.5455 88.2628 20.4886 88.598 20.375C88.9332 20.2614 89.2202 20.0909 89.4588 19.8636C89.6974 19.6364 89.8793 19.358 90.0043 19.0284L93.3622 19.25C93.1918 20.0568 92.8423 20.7614 92.3139 21.3636C91.7912 21.9602 91.1151 22.4261 90.2855 22.7614C89.4616 23.0909 88.5099 23.2557 87.4304 23.2557ZM1.51705 52V34.5455H8.40341C9.72727 34.5455 10.8551 34.7983 11.7869 35.304C12.7188 35.804 13.429 36.5 13.9176 37.392C14.4119 38.2784 14.6591 39.3011 14.6591 40.4602C14.6591 41.6193 14.4091 42.642 13.9091 43.5284C13.4091 44.4148 12.6847 45.1051 11.7358 45.5994C10.7926 46.0937 9.65057 46.3409 8.30966 46.3409H3.92045V43.3835H7.71307C8.4233 43.3835 9.00852 43.2614 9.46875 43.017C9.93466 42.767 10.2813 42.4233 10.5085 41.9858C10.7415 41.5426 10.858 41.0341 10.858 40.4602C10.858 39.8807 10.7415 39.375 10.5085 38.9432C10.2813 38.5057 9.93466 38.1676 9.46875 37.929C9.00284 37.6847 8.41193 37.5625 7.69602 37.5625H5.20739V52H1.51705ZM16.9879 52V38.9091H20.5078V41.1932H20.6442C20.8828 40.3807 21.2834 39.767 21.8459 39.3523C22.4084 38.9318 23.0561 38.7216 23.7891 38.7216C23.9709 38.7216 24.1669 38.733 24.3771 38.7557C24.5874 38.7784 24.772 38.8097 24.9311 38.8494V42.071C24.7607 42.0199 24.5249 41.9744 24.2237 41.9347C23.9226 41.8949 23.647 41.875 23.397 41.875C22.8629 41.875 22.3857 41.9915 21.9652 42.2244C21.5504 42.4517 21.2209 42.7699 20.9766 43.179C20.7379 43.5881 20.6186 44.0597 20.6186 44.5938V52H16.9879ZM32.1136 52.2557C30.7898 52.2557 29.6449 51.9744 28.679 51.4119C27.7188 50.8437 26.9773 50.054 26.4545 49.0426C25.9318 48.0256 25.6705 46.8466 25.6705 45.5057C25.6705 44.1534 25.9318 42.9716 26.4545 41.9602C26.9773 40.9432 27.7188 40.1534 28.679 39.5909C29.6449 39.0227 30.7898 38.7386 32.1136 38.7386C33.4375 38.7386 34.5795 39.0227 35.5398 39.5909C36.5057 40.1534 37.25 40.9432 37.7727 41.9602C38.2955 42.9716 38.5568 44.1534 38.5568 45.5057C38.5568 46.8466 38.2955 48.0256 37.7727 49.0426C37.25 50.054 36.5057 50.8437 35.5398 51.4119C34.5795 51.9744 33.4375 52.2557 32.1136 52.2557ZM32.1307 49.4432C32.733 49.4432 33.2358 49.2727 33.6392 48.9318C34.0426 48.5852 34.3466 48.1136 34.5511 47.517C34.7614 46.9205 34.8665 46.2415 34.8665 45.4801C34.8665 44.7188 34.7614 44.0398 34.5511 43.4432C34.3466 42.8466 34.0426 42.375 33.6392 42.0284C33.2358 41.6818 32.733 41.5085 32.1307 41.5085C31.5227 41.5085 31.0114 41.6818 30.5966 42.0284C30.1875 42.375 29.8778 42.8466 29.6676 43.4432C29.4631 44.0398 29.3608 44.7188 29.3608 45.4801C29.3608 46.2415 29.4631 46.9205 29.6676 47.517C29.8778 48.1136 30.1875 48.5852 30.5966 48.9318C31.0114 49.2727 31.5227 49.4432 32.1307 49.4432ZM47.8807 38.9091V41.6364H39.9972V38.9091H47.8807ZM41.7869 35.7727H45.4176V47.9773C45.4176 48.3125 45.4688 48.5739 45.571 48.7614C45.6733 48.9432 45.8153 49.071 45.9972 49.1449C46.1847 49.2187 46.4006 49.2557 46.6449 49.2557C46.8153 49.2557 46.9858 49.2415 47.1562 49.2131C47.3267 49.179 47.4574 49.1534 47.5483 49.1364L48.1193 51.8381C47.9375 51.8949 47.6818 51.9602 47.3523 52.0341C47.0227 52.1136 46.6222 52.1619 46.1506 52.179C45.2756 52.2131 44.5085 52.0966 43.8494 51.8295C43.196 51.5625 42.6875 51.1477 42.3239 50.5852C41.9602 50.0227 41.7813 49.3125 41.7869 48.4545V35.7727ZM56.0199 52.2557C54.696 52.2557 53.5511 51.9744 52.5852 51.4119C51.625 50.8437 50.8835 50.054 50.3608 49.0426C49.8381 48.0256 49.5767 46.8466 49.5767 45.5057C49.5767 44.1534 49.8381 42.9716 50.3608 41.9602C50.8835 40.9432 51.625 40.1534 52.5852 39.5909C53.5511 39.0227 54.696 38.7386 56.0199 38.7386C57.3438 38.7386 58.4858 39.0227 59.446 39.5909C60.4119 40.1534 61.1562 40.9432 61.679 41.9602C62.2017 42.9716 62.4631 44.1534 62.4631 45.5057C62.4631 46.8466 62.2017 48.0256 61.679 49.0426C61.1562 50.054 60.4119 50.8437 59.446 51.4119C58.4858 51.9744 57.3438 52.2557 56.0199 52.2557ZM56.0369 49.4432C56.6392 49.4432 57.142 49.2727 57.5455 48.9318C57.9489 48.5852 58.2528 48.1136 58.4574 47.517C58.6676 46.9205 58.7727 46.2415 58.7727 45.4801C58.7727 44.7188 58.6676 44.0398 58.4574 43.4432C58.2528 42.8466 57.9489 42.375 57.5455 42.0284C57.142 41.6818 56.6392 41.5085 56.0369 41.5085C55.429 41.5085 54.9176 41.6818 54.5028 42.0284C54.0938 42.375 53.7841 42.8466 53.5739 43.4432C53.3693 44.0398 53.267 44.7188 53.267 45.4801C53.267 46.2415 53.3693 46.9205 53.5739 47.517C53.7841 48.1136 54.0938 48.5852 54.5028 48.9318C54.9176 49.2727 55.429 49.4432 56.0369 49.4432ZM70.7386 52.2557C69.3977 52.2557 68.2443 51.9716 67.2784 51.4034C66.3182 50.8295 65.5795 50.0341 65.0625 49.017C64.5511 48 64.2955 46.8295 64.2955 45.5057C64.2955 44.1648 64.554 42.9886 65.071 41.9773C65.5938 40.9602 66.3352 40.1676 67.2955 39.5994C68.2557 39.0256 69.3977 38.7386 70.7216 38.7386C71.8636 38.7386 72.8636 38.946 73.7216 39.3608C74.5795 39.7756 75.2585 40.358 75.7585 41.108C76.2585 41.858 76.5341 42.7386 76.5852 43.75H73.1591C73.0625 43.0966 72.8068 42.571 72.392 42.1733C71.983 41.7699 71.446 41.5682 70.7812 41.5682C70.2188 41.5682 69.7273 41.7216 69.3068 42.0284C68.892 42.3295 68.5682 42.7699 68.3352 43.3494C68.1023 43.929 67.9858 44.6307 67.9858 45.4545C67.9858 46.2898 68.0994 47 68.3267 47.5852C68.5597 48.1705 68.8864 48.6165 69.3068 48.9233C69.7273 49.2301 70.2188 49.3835 70.7812 49.3835C71.196 49.3835 71.5682 49.2983 71.8977 49.1278C72.233 48.9574 72.5085 48.7102 72.7244 48.3864C72.946 48.0568 73.0909 47.6619 73.1591 47.2017H76.5852C76.5284 48.2017 76.2557 49.0824 75.767 49.8438C75.2841 50.5994 74.6165 51.1903 73.7642 51.6165C72.9119 52.0426 71.9034 52.2557 70.7386 52.2557ZM84.8246 52.2557C83.5007 52.2557 82.3558 51.9744 81.3899 51.4119C80.4297 50.8437 79.6882 50.054 79.1655 49.0426C78.6428 48.0256 78.3814 46.8466 78.3814 45.5057C78.3814 44.1534 78.6428 42.9716 79.1655 41.9602C79.6882 40.9432 80.4297 40.1534 81.3899 39.5909C82.3558 39.0227 83.5007 38.7386 84.8246 38.7386C86.1484 38.7386 87.2905 39.0227 88.2507 39.5909C89.2166 40.1534 89.9609 40.9432 90.4837 41.9602C91.0064 42.9716 91.2678 44.1534 91.2678 45.5057C91.2678 46.8466 91.0064 48.0256 90.4837 49.0426C89.9609 50.054 89.2166 50.8437 88.2507 51.4119C87.2905 51.9744 86.1484 52.2557 84.8246 52.2557ZM84.8416 49.4432C85.4439 49.4432 85.9467 49.2727 86.3501 48.9318C86.7536 48.5852 87.0575 48.1136 87.2621 47.517C87.4723 46.9205 87.5774 46.2415 87.5774 45.4801C87.5774 44.7188 87.4723 44.0398 87.2621 43.4432C87.0575 42.8466 86.7536 42.375 86.3501 42.0284C85.9467 41.6818 85.4439 41.5085 84.8416 41.5085C84.2337 41.5085 83.7223 41.6818 83.3075 42.0284C82.8984 42.375 82.5888 42.8466 82.3786 43.4432C82.174 44.0398 82.0717 44.7188 82.0717 45.4801C82.0717 46.2415 82.174 46.9205 82.3786 47.517C82.5888 48.1136 82.8984 48.5852 83.3075 48.9318C83.7223 49.2727 84.2337 49.4432 84.8416 49.4432ZM97.2592 34.5455V52H93.6286V34.5455H97.2592ZM105.79 52V34.5455H109.481V48.9574H116.964V52H105.79ZM123.072 52.2472C122.237 52.2472 121.493 52.1023 120.839 51.8125C120.186 51.517 119.669 51.0824 119.288 50.5085C118.913 49.929 118.726 49.2074 118.726 48.3438C118.726 47.6165 118.859 47.0057 119.126 46.5114C119.393 46.017 119.757 45.6193 120.217 45.3182C120.678 45.017 121.2 44.7898 121.786 44.6364C122.376 44.483 122.996 44.375 123.643 44.3125C124.405 44.233 125.018 44.1591 125.484 44.0909C125.95 44.017 126.288 43.9091 126.499 43.767C126.709 43.625 126.814 43.4148 126.814 43.1364V43.0852C126.814 42.5455 126.643 42.1278 126.303 41.8324C125.967 41.5369 125.49 41.3892 124.871 41.3892C124.217 41.3892 123.697 41.5341 123.311 41.8239C122.925 42.108 122.669 42.4659 122.544 42.8977L119.186 42.625C119.357 41.8295 119.692 41.142 120.192 40.5625C120.692 39.9773 121.337 39.5284 122.126 39.2159C122.922 38.8977 123.842 38.7386 124.888 38.7386C125.615 38.7386 126.311 38.8239 126.976 38.9943C127.646 39.1648 128.24 39.429 128.757 39.7869C129.28 40.1449 129.692 40.6051 129.993 41.1676C130.294 41.7244 130.445 42.392 130.445 43.1705V52H127.001V50.1847H126.899C126.689 50.5938 126.408 50.9545 126.055 51.267C125.703 51.5739 125.28 51.8153 124.786 51.9915C124.291 52.1619 123.72 52.2472 123.072 52.2472ZM124.112 49.7415C124.646 49.7415 125.118 49.6364 125.527 49.4261C125.936 49.2102 126.257 48.9205 126.49 48.5568C126.723 48.1932 126.839 47.7812 126.839 47.321V45.9318C126.726 46.0057 126.57 46.0739 126.371 46.1364C126.178 46.1932 125.959 46.2472 125.714 46.2983C125.47 46.3437 125.226 46.3864 124.982 46.4261C124.737 46.4602 124.516 46.4915 124.317 46.5199C123.891 46.5824 123.518 46.6818 123.2 46.8182C122.882 46.9545 122.635 47.1392 122.459 47.3722C122.283 47.5994 122.195 47.8835 122.195 48.2244C122.195 48.7188 122.374 49.0966 122.732 49.358C123.095 49.6136 123.555 49.7415 124.112 49.7415ZM133.33 52V34.5455H136.96V41.108H137.071C137.23 40.7557 137.46 40.3977 137.761 40.0341C138.068 39.6648 138.466 39.358 138.955 39.1136C139.449 38.8636 140.063 38.7386 140.795 38.7386C141.75 38.7386 142.631 38.9886 143.438 39.4886C144.244 39.983 144.889 40.7301 145.372 41.7301C145.855 42.7244 146.097 43.9716 146.097 45.4716C146.097 46.9318 145.861 48.1648 145.389 49.1705C144.923 50.1705 144.287 50.929 143.48 51.446C142.679 51.9574 141.781 52.2131 140.787 52.2131C140.082 52.2131 139.483 52.0966 138.989 51.8636C138.5 51.6307 138.099 51.3381 137.787 50.9858C137.474 50.6278 137.236 50.267 137.071 49.9034H136.909V52H133.33ZM136.884 45.4545C136.884 46.233 136.991 46.9119 137.207 47.4915C137.423 48.071 137.736 48.5227 138.145 48.8466C138.554 49.1648 139.051 49.3239 139.636 49.3239C140.227 49.3239 140.727 49.1619 141.136 48.8381C141.545 48.5085 141.855 48.054 142.065 47.4744C142.281 46.8892 142.389 46.2159 142.389 45.4545C142.389 44.6989 142.284 44.0341 142.074 43.4602C141.864 42.8864 141.554 42.4375 141.145 42.1136C140.736 41.7898 140.233 41.6278 139.636 41.6278C139.045 41.6278 138.545 41.7841 138.136 42.0966C137.733 42.4091 137.423 42.8523 137.207 43.4261C136.991 44 136.884 44.6761 136.884 45.4545ZM159.411 42.642L156.087 42.8466C156.031 42.5625 155.908 42.3068 155.721 42.0795C155.533 41.8466 155.286 41.6619 154.979 41.5256C154.678 41.3835 154.317 41.3125 153.897 41.3125C153.335 41.3125 152.86 41.4318 152.474 41.6705C152.087 41.9034 151.894 42.2159 151.894 42.608C151.894 42.9205 152.019 43.1847 152.269 43.4006C152.519 43.6165 152.948 43.7898 153.556 43.9205L155.925 44.3977C157.198 44.6591 158.147 45.0795 158.772 45.6591C159.397 46.2386 159.71 47 159.71 47.9432C159.71 48.8011 159.457 49.554 158.951 50.2017C158.451 50.8494 157.763 51.3551 156.888 51.7188C156.019 52.0767 155.016 52.2557 153.88 52.2557C152.147 52.2557 150.766 51.8949 149.738 51.1733C148.715 50.446 148.116 49.4574 147.94 48.2074L151.511 48.0199C151.619 48.5483 151.88 48.9517 152.295 49.2301C152.71 49.5028 153.241 49.6392 153.888 49.6392C154.525 49.6392 155.036 49.517 155.423 49.2727C155.815 49.0227 156.013 48.7017 156.019 48.3097C156.013 47.9801 155.874 47.7102 155.602 47.5C155.329 47.2841 154.908 47.1193 154.34 47.0057L152.073 46.554C150.795 46.2983 149.843 45.8551 149.218 45.2244C148.599 44.5937 148.289 43.7898 148.289 42.8125C148.289 41.9716 148.516 41.2472 148.971 40.6392C149.431 40.0312 150.076 39.5625 150.906 39.233C151.741 38.9034 152.718 38.7386 153.837 38.7386C155.491 38.7386 156.792 39.0881 157.741 39.7869C158.695 40.4858 159.252 41.4375 159.411 42.642Z" fill="white"/>
</g>
<path opacity="0.5" d="M1.11648 72.1406V70.8182H8.99645V72.1406H5.8196V81H4.28835V72.1406H1.11648ZM12.8022 81.1541C12.0498 81.1541 11.4019 80.9934 10.8583 80.6719C10.3181 80.3471 9.90045 79.8913 9.60547 79.3047C9.3138 78.7147 9.16797 78.0237 9.16797 77.2315C9.16797 76.4493 9.3138 75.7599 9.60547 75.1634C9.90045 74.5668 10.3114 74.1011 10.8384 73.7663C11.3687 73.4316 11.9885 73.2642 12.6978 73.2642C13.1287 73.2642 13.5463 73.3355 13.9506 73.478C14.355 73.6205 14.7179 73.8442 15.0394 74.1491C15.3609 74.4541 15.6145 74.8501 15.8001 75.3374C15.9857 75.8213 16.0785 76.4096 16.0785 77.1023V77.6293H10.0082V76.5156H14.6218C14.6218 76.1245 14.5423 75.7782 14.3832 75.4766C14.2241 75.1716 14.0004 74.9313 13.712 74.7557C13.427 74.58 13.0922 74.4922 12.7077 74.4922C12.2901 74.4922 11.9255 74.5949 11.614 74.8004C11.3058 75.0026 11.0671 75.2678 10.8981 75.5959C10.7324 75.9207 10.6495 76.2737 10.6495 76.6548V77.5249C10.6495 78.0353 10.739 78.4695 10.918 78.8274C11.1003 79.1854 11.3538 79.4588 11.6786 79.6477C12.0034 79.8333 12.3829 79.9261 12.8171 79.9261C13.0988 79.9261 13.3557 79.8864 13.5877 79.8068C13.8197 79.724 14.0202 79.6013 14.1893 79.4389C14.3583 79.2765 14.4876 79.076 14.5771 78.8374L15.984 79.0909C15.8713 79.5052 15.6692 79.8681 15.3775 80.1797C15.0891 80.4879 14.7262 80.7282 14.2887 80.9006C13.8545 81.0696 13.359 81.1541 12.8022 81.1541ZM19.2143 70.8182V81H17.7278V70.8182H19.2143ZM22.7006 70.8182V81H21.2141V70.8182H22.7006ZM33.2429 77.8331V73.3636H34.7344V81H33.2727V79.6776H33.1932C33.0175 80.0852 32.7358 80.425 32.348 80.6967C31.9635 80.9652 31.4846 81.0994 30.9112 81.0994C30.4207 81.0994 29.9865 80.9917 29.6087 80.7763C29.2341 80.5575 28.9392 80.2344 28.7237 79.8068C28.5116 79.3793 28.4055 78.8506 28.4055 78.2209V73.3636H29.892V78.0419C29.892 78.5623 30.0362 78.9766 30.3246 79.2848C30.6129 79.593 30.9875 79.7472 31.4482 79.7472C31.7266 79.7472 32.0033 79.6776 32.2784 79.5384C32.5568 79.3991 32.7872 79.1887 32.9695 78.907C33.1551 78.6252 33.2462 78.2673 33.2429 77.8331ZM42.454 75.228L41.1067 75.4666C41.0504 75.2943 40.9609 75.1302 40.8382 74.9744C40.7189 74.8187 40.5565 74.6911 40.351 74.5916C40.1455 74.4922 39.8887 74.4425 39.5804 74.4425C39.1595 74.4425 38.8082 74.5369 38.5265 74.7259C38.2447 74.9115 38.1039 75.1518 38.1039 75.4467C38.1039 75.7019 38.1983 75.9074 38.3873 76.0632C38.5762 76.219 38.8811 76.3466 39.302 76.446L40.5151 76.7244C41.2177 76.8868 41.7414 77.1371 42.0861 77.4751C42.4308 77.8132 42.6032 78.2524 42.6032 78.7926C42.6032 79.25 42.4706 79.6577 42.2054 80.0156C41.9436 80.3703 41.5774 80.6487 41.1067 80.8509C40.6394 81.053 40.0975 81.1541 39.481 81.1541C38.6259 81.1541 37.9282 80.9718 37.388 80.6072C36.8477 80.2393 36.5163 79.7173 36.3936 79.0412L37.8304 78.8224C37.9199 79.197 38.1039 79.4804 38.3823 79.6726C38.6607 79.8615 39.0236 79.956 39.4711 79.956C39.9583 79.956 40.3477 79.8549 40.6394 79.6527C40.931 79.4472 41.0769 79.197 41.0769 78.902C41.0769 78.6634 40.9874 78.4628 40.8084 78.3004C40.6328 78.138 40.3626 78.0154 39.998 77.9325L38.7054 77.6491C37.9928 77.4867 37.4658 77.2282 37.1245 76.8736C36.7864 76.5189 36.6174 76.0698 36.6174 75.5263C36.6174 75.0755 36.7433 74.6811 36.9952 74.343C37.2471 74.005 37.5951 73.7415 38.0392 73.5526C38.4834 73.3603 38.9921 73.2642 39.5655 73.2642C40.3908 73.2642 41.0404 73.4432 41.5144 73.8011C41.9883 74.1558 42.3016 74.6314 42.454 75.228ZM50.165 81.169C49.681 81.169 49.2435 81.0795 48.8525 80.9006C48.4614 80.7183 48.1515 80.4548 47.9228 80.1101C47.6974 79.7654 47.5847 79.3428 47.5847 78.8423C47.5847 78.4115 47.6676 78.0568 47.8333 77.7784C47.999 77.5 48.2227 77.2796 48.5044 77.1172C48.7862 76.9548 49.101 76.8321 49.449 76.7493C49.7971 76.6664 50.1517 76.6035 50.513 76.5604C50.9703 76.5073 51.3416 76.4643 51.6266 76.4311C51.9116 76.3946 52.1188 76.3366 52.248 76.2571C52.3773 76.1776 52.4419 76.0483 52.4419 75.8693V75.8345C52.4419 75.4003 52.3193 75.0639 52.074 74.8253C51.8321 74.5866 51.4708 74.4673 50.9902 74.4673C50.4898 74.4673 50.0953 74.5784 49.807 74.8004C49.522 75.0192 49.3248 75.2628 49.2154 75.5312L47.8184 75.2131C47.9841 74.7491 48.226 74.3745 48.5442 74.0895C48.8657 73.8011 49.2353 73.5923 49.6529 73.4631C50.0705 73.3305 50.5096 73.2642 50.9703 73.2642C51.2753 73.2642 51.5984 73.3007 51.9398 73.3736C52.2845 73.4432 52.606 73.5724 52.9043 73.7614C53.2059 73.9503 53.4528 74.2204 53.6451 74.5717C53.8373 74.9197 53.9334 75.3722 53.9334 75.929V81H52.4817V79.956H52.4221C52.3259 80.1482 52.1818 80.3371 51.9895 80.5227C51.7973 80.7083 51.5504 80.8625 51.2488 80.9851C50.9471 81.1077 50.5859 81.169 50.165 81.169ZM50.4881 79.9759C50.8991 79.9759 51.2504 79.8946 51.5421 79.7322C51.8371 79.5698 52.0608 79.3577 52.2132 79.0959C52.369 78.8307 52.4469 78.5473 52.4469 78.2457V77.2614C52.3939 77.3144 52.2911 77.3641 52.1387 77.4105C51.9895 77.4536 51.8188 77.4917 51.6266 77.5249C51.4344 77.5547 51.2471 77.5829 51.0648 77.6094C50.8825 77.6326 50.7301 77.6525 50.6074 77.669C50.3191 77.7055 50.0556 77.7668 49.8169 77.853C49.5816 77.9392 49.3927 78.0634 49.2502 78.2259C49.111 78.3849 49.0414 78.5971 49.0414 78.8622C49.0414 79.2301 49.1773 79.5085 49.449 79.6974C49.7208 79.883 50.0672 79.9759 50.4881 79.9759ZM56.0327 81V70.8182H57.5192V74.6016H57.6087C57.6948 74.4425 57.8191 74.2585 57.9815 74.0497C58.1439 73.8409 58.3693 73.6586 58.6577 73.5028C58.946 73.3438 59.3272 73.2642 59.8011 73.2642C60.4176 73.2642 60.9678 73.42 61.4517 73.7315C61.9356 74.0431 62.3151 74.4922 62.5902 75.0788C62.8686 75.6655 63.0078 76.3714 63.0078 77.1967C63.0078 78.022 62.8703 78.7296 62.5952 79.3196C62.3201 79.9062 61.9422 80.3587 61.4616 80.6768C60.9811 80.9917 60.4325 81.1491 59.8161 81.1491C59.352 81.1491 58.9725 81.0713 58.6776 80.9155C58.3859 80.7597 58.1572 80.5774 57.9915 80.3686C57.8258 80.1598 57.6982 79.9742 57.6087 79.8118H57.4844V81H56.0327ZM57.4893 77.1818C57.4893 77.7187 57.5672 78.1894 57.723 78.5938C57.8788 78.9981 58.1042 79.3146 58.3991 79.5433C58.6941 79.7687 59.0554 79.8814 59.483 79.8814C59.9271 79.8814 60.2983 79.7637 60.5966 79.5284C60.8949 79.2898 61.1203 78.9666 61.2727 78.5589C61.4285 78.1513 61.5064 77.6922 61.5064 77.1818C61.5064 76.678 61.4302 76.2256 61.2777 75.8246C61.1286 75.4235 60.9032 75.107 60.6016 74.875C60.3033 74.643 59.9304 74.527 59.483 74.527C59.0521 74.527 58.6875 74.638 58.3892 74.8601C58.0942 75.0821 57.8705 75.392 57.718 75.7898C57.5656 76.1875 57.4893 76.6515 57.4893 77.1818ZM67.8936 81.1541C67.1777 81.1541 66.553 80.9901 66.0194 80.6619C65.4857 80.3338 65.0714 79.8748 64.7765 79.2848C64.4815 78.6948 64.334 78.0054 64.334 77.2166C64.334 76.4245 64.4815 75.7318 64.7765 75.1385C65.0714 74.5452 65.4857 74.0845 66.0194 73.7564C66.553 73.4283 67.1777 73.2642 67.8936 73.2642C68.6096 73.2642 69.2343 73.4283 69.7679 73.7564C70.3016 74.0845 70.7158 74.5452 71.0108 75.1385C71.3058 75.7318 71.4533 76.4245 71.4533 77.2166C71.4533 78.0054 71.3058 78.6948 71.0108 79.2848C70.7158 79.8748 70.3016 80.3338 69.7679 80.6619C69.2343 80.9901 68.6096 81.1541 67.8936 81.1541ZM67.8986 79.9062C68.3626 79.9062 68.7471 79.7836 69.052 79.5384C69.3569 79.2931 69.5823 78.9666 69.7282 78.5589C69.8773 78.1513 69.9519 77.7022 69.9519 77.2116C69.9519 76.7244 69.8773 76.277 69.7282 75.8693C69.5823 75.4583 69.3569 75.1286 69.052 74.88C68.7471 74.6314 68.3626 74.5071 67.8986 74.5071C67.4313 74.5071 67.0435 74.6314 66.7353 74.88C66.4303 75.1286 66.2033 75.4583 66.0542 75.8693C65.9083 76.277 65.8354 76.7244 65.8354 77.2116C65.8354 77.7022 65.9083 78.1513 66.0542 78.5589C66.2033 78.9666 66.4303 79.2931 66.7353 79.5384C67.0435 79.7836 67.4313 79.9062 67.8986 79.9062ZM77.9499 77.8331V73.3636H79.4414V81H77.9798V79.6776H77.9002C77.7246 80.0852 77.4428 80.425 77.055 80.6967C76.6706 80.9652 76.1916 81.0994 75.6183 81.0994C75.1277 81.0994 74.6935 80.9917 74.3157 80.7763C73.9412 80.5575 73.6462 80.2344 73.4308 79.8068C73.2186 79.3793 73.1126 78.8506 73.1126 78.2209V73.3636H74.5991V78.0419C74.5991 78.5623 74.7433 78.9766 75.0316 79.2848C75.32 79.593 75.6945 79.7472 76.1552 79.7472C76.4336 79.7472 76.7103 79.6776 76.9854 79.5384C77.2638 79.3991 77.4942 79.1887 77.6765 78.907C77.8621 78.6252 77.9532 78.2673 77.9499 77.8331ZM85.0034 73.3636V74.5568H80.8322V73.3636H85.0034ZM81.9508 71.5341H83.4373V78.7578C83.4373 79.0462 83.4804 79.2633 83.5666 79.4091C83.6528 79.5516 83.7638 79.6494 83.8997 79.7024C84.0389 79.7521 84.1897 79.777 84.3521 79.777C84.4714 79.777 84.5758 79.7687 84.6653 79.7521C84.7548 79.7356 84.8244 79.7223 84.8741 79.7124L85.1426 80.9403C85.0564 80.9735 84.9338 81.0066 84.7747 81.0398C84.6156 81.0762 84.4167 81.0961 84.1781 81.0994C83.787 81.1061 83.4224 81.0365 83.0843 80.8906C82.7463 80.7448 82.4728 80.5194 82.264 80.2145C82.0552 79.9096 81.9508 79.5268 81.9508 79.0661V71.5341ZM91.2924 83.8636C91.0704 83.8636 90.8682 83.8454 90.6859 83.8089C90.5036 83.7758 90.3677 83.7393 90.2782 83.6996L90.6362 82.4815C90.908 82.5545 91.1499 82.5859 91.362 82.576C91.5742 82.5661 91.7614 82.4865 91.9238 82.3374C92.0895 82.1882 92.2354 81.9446 92.3613 81.6065L92.5453 81.0994L89.7512 73.3636H91.3422L93.2761 79.2898H93.3556L95.2896 73.3636H96.8855L93.7385 82.0192C93.5926 82.4169 93.407 82.7533 93.1816 83.0284C92.9563 83.3068 92.6878 83.5156 92.3762 83.6548C92.0647 83.794 91.7034 83.8636 91.2924 83.8636ZM101.239 81.1541C100.523 81.1541 99.8987 80.9901 99.3651 80.6619C98.8314 80.3338 98.4171 79.8748 98.1222 79.2848C97.8272 78.6948 97.6797 78.0054 97.6797 77.2166C97.6797 76.4245 97.8272 75.7318 98.1222 75.1385C98.4171 74.5452 98.8314 74.0845 99.3651 73.7564C99.8987 73.4283 100.523 73.2642 101.239 73.2642C101.955 73.2642 102.58 73.4283 103.114 73.7564C103.647 74.0845 104.062 74.5452 104.357 75.1385C104.652 75.7318 104.799 76.4245 104.799 77.2166C104.799 78.0054 104.652 78.6948 104.357 79.2848C104.062 79.8748 103.647 80.3338 103.114 80.6619C102.58 80.9901 101.955 81.1541 101.239 81.1541ZM101.244 79.9062C101.708 79.9062 102.093 79.7836 102.398 79.5384C102.703 79.2931 102.928 78.9666 103.074 78.5589C103.223 78.1513 103.298 77.7022 103.298 77.2116C103.298 76.7244 103.223 76.277 103.074 75.8693C102.928 75.4583 102.703 75.1286 102.398 74.88C102.093 74.6314 101.708 74.5071 101.244 74.5071C100.777 74.5071 100.389 74.6314 100.081 74.88C99.776 75.1286 99.549 75.4583 99.3999 75.8693C99.254 76.277 99.1811 76.7244 99.1811 77.2116C99.1811 77.7022 99.254 78.1513 99.3999 78.5589C99.549 78.9666 99.776 79.2931 100.081 79.5384C100.389 79.7836 100.777 79.9062 101.244 79.9062ZM111.296 77.8331V73.3636H112.787V81H111.325V79.6776H111.246C111.07 80.0852 110.789 80.425 110.401 80.6967C110.016 80.9652 109.537 81.0994 108.964 81.0994C108.473 81.0994 108.039 80.9917 107.661 80.7763C107.287 80.5575 106.992 80.2344 106.776 79.8068C106.564 79.3793 106.458 78.8506 106.458 78.2209V73.3636H107.945V78.0419C107.945 78.5623 108.089 78.9766 108.377 79.2848C108.666 79.593 109.04 79.7472 109.501 79.7472C109.779 79.7472 110.056 79.6776 110.331 79.5384C110.61 79.3991 110.84 79.1887 111.022 78.907C111.208 78.6252 111.299 78.2673 111.296 77.8331ZM114.784 81V73.3636H116.221V74.5767H116.301C116.44 74.1657 116.685 73.8426 117.037 73.6072C117.391 73.3686 117.792 73.2493 118.24 73.2493C118.333 73.2493 118.442 73.2526 118.568 73.2592C118.697 73.2659 118.798 73.2741 118.871 73.2841V74.706C118.811 74.6894 118.705 74.6712 118.553 74.6513C118.4 74.6281 118.248 74.6165 118.096 74.6165C117.744 74.6165 117.431 74.6911 117.156 74.8402C116.884 74.986 116.669 75.1899 116.51 75.4517C116.35 75.7102 116.271 76.0052 116.271 76.3366V81H114.784ZM127.427 73.3636V74.5568H123.256V73.3636H127.427ZM124.375 71.5341H125.861V78.7578C125.861 79.0462 125.904 79.2633 125.99 79.4091C126.077 79.5516 126.188 79.6494 126.324 79.7024C126.463 79.7521 126.614 79.777 126.776 79.777C126.895 79.777 127 79.7687 127.089 79.7521C127.179 79.7356 127.248 79.7223 127.298 79.7124L127.566 80.9403C127.48 80.9735 127.358 81.0066 127.199 81.0398C127.039 81.0762 126.841 81.0961 126.602 81.0994C126.211 81.1061 125.846 81.0365 125.508 80.8906C125.17 80.7448 124.897 80.5194 124.688 80.2145C124.479 79.9096 124.375 79.5268 124.375 79.0661V71.5341ZM132.281 81.1541C131.528 81.1541 130.88 80.9934 130.337 80.6719C129.797 80.3471 129.379 79.8913 129.084 79.3047C128.792 78.7147 128.646 78.0237 128.646 77.2315C128.646 76.4493 128.792 75.7599 129.084 75.1634C129.379 74.5668 129.79 74.1011 130.317 73.7663C130.847 73.4316 131.467 73.2642 132.176 73.2642C132.607 73.2642 133.025 73.3355 133.429 73.478C133.834 73.6205 134.196 73.8442 134.518 74.1491C134.839 74.4541 135.093 74.8501 135.279 75.3374C135.464 75.8213 135.557 76.4096 135.557 77.1023V77.6293H129.487V76.5156H134.1C134.1 76.1245 134.021 75.7782 133.862 75.4766C133.703 75.1716 133.479 74.9313 133.191 74.7557C132.905 74.58 132.571 74.4922 132.186 74.4922C131.769 74.4922 131.404 74.5949 131.093 74.8004C130.784 75.0026 130.546 75.2678 130.377 75.5959C130.211 75.9207 130.128 76.2737 130.128 76.6548V77.5249C130.128 78.0353 130.218 78.4695 130.396 78.8274C130.579 79.1854 130.832 79.4588 131.157 79.6477C131.482 79.8333 131.861 79.9261 132.296 79.9261C132.577 79.9261 132.834 79.8864 133.066 79.8068C133.298 79.724 133.499 79.6013 133.668 79.4389C133.837 79.2765 133.966 79.076 134.056 78.8374L135.463 79.0909C135.35 79.5052 135.148 79.8681 134.856 80.1797C134.568 80.4879 134.205 80.7282 133.767 80.9006C133.333 81.0696 132.838 81.1541 132.281 81.1541ZM139.429 81.169C138.945 81.169 138.507 81.0795 138.116 80.9006C137.725 80.7183 137.415 80.4548 137.186 80.1101C136.961 79.7654 136.848 79.3428 136.848 78.8423C136.848 78.4115 136.931 78.0568 137.097 77.7784C137.263 77.5 137.486 77.2796 137.768 77.1172C138.05 76.9548 138.365 76.8321 138.713 76.7493C139.061 76.6664 139.415 76.6035 139.777 76.5604C140.234 76.5073 140.605 76.4643 140.89 76.4311C141.175 76.3946 141.382 76.3366 141.512 76.2571C141.641 76.1776 141.706 76.0483 141.706 75.8693V75.8345C141.706 75.4003 141.583 75.0639 141.338 74.8253C141.096 74.5866 140.734 74.4673 140.254 74.4673C139.753 74.4673 139.359 74.5784 139.071 74.8004C138.786 75.0192 138.588 75.2628 138.479 75.5312L137.082 75.2131C137.248 74.7491 137.49 74.3745 137.808 74.0895C138.129 73.8011 138.499 73.5923 138.917 73.4631C139.334 73.3305 139.773 73.2642 140.234 73.2642C140.539 73.2642 140.862 73.3007 141.203 73.3736C141.548 73.4432 141.87 73.5724 142.168 73.7614C142.47 73.9503 142.717 74.2204 142.909 74.5717C143.101 74.9197 143.197 75.3722 143.197 75.929V81H141.745V79.956H141.686C141.59 80.1482 141.445 80.3371 141.253 80.5227C141.061 80.7083 140.814 80.8625 140.512 80.9851C140.211 81.1077 139.85 81.169 139.429 81.169ZM139.752 79.9759C140.163 79.9759 140.514 79.8946 140.806 79.7322C141.101 79.5698 141.324 79.3577 141.477 79.0959C141.633 78.8307 141.711 78.5473 141.711 78.2457V77.2614C141.658 77.3144 141.555 77.3641 141.402 77.4105C141.253 77.4536 141.083 77.4917 140.89 77.5249C140.698 77.5547 140.511 77.5829 140.328 77.6094C140.146 77.6326 139.994 77.6525 139.871 77.669C139.583 77.7055 139.319 77.7668 139.081 77.853C138.845 77.9392 138.656 78.0634 138.514 78.2259C138.375 78.3849 138.305 78.5971 138.305 78.8622C138.305 79.2301 138.441 79.5085 138.713 79.6974C138.984 79.883 139.331 79.9759 139.752 79.9759ZM145.177 81V73.3636H146.604V74.6065H146.698C146.857 74.1856 147.118 73.8575 147.479 73.6222C147.84 73.3835 148.273 73.2642 148.776 73.2642C149.287 73.2642 149.714 73.3835 150.059 73.6222C150.407 73.8608 150.664 74.1889 150.83 74.6065H150.909C151.092 74.1989 151.382 73.8741 151.779 73.6321C152.177 73.3868 152.651 73.2642 153.201 73.2642C153.894 73.2642 154.459 73.4813 154.896 73.9155C155.337 74.3497 155.558 75.0043 155.558 75.8793V81H154.071V76.0185C154.071 75.5014 153.93 75.1269 153.649 74.8949C153.367 74.6629 153.03 74.5469 152.639 74.5469C152.155 74.5469 151.779 74.696 151.511 74.9943C151.242 75.2893 151.108 75.6688 151.108 76.1328V81H149.627V75.924C149.627 75.5097 149.497 75.1766 149.239 74.9247C148.98 74.6728 148.644 74.5469 148.23 74.5469C147.948 74.5469 147.688 74.6214 147.449 74.7706C147.214 74.9164 147.023 75.1203 146.877 75.3821C146.735 75.6439 146.664 75.9472 146.664 76.2919V81H145.177ZM159.424 70.8182L159.295 78.0717H157.918L157.789 70.8182H159.424ZM158.609 81.0945C158.334 81.0945 158.099 80.9983 157.903 80.8061C157.708 80.6106 157.611 80.3752 157.615 80.1001C157.611 79.8284 157.708 79.5964 157.903 79.4041C158.099 79.2086 158.334 79.1108 158.609 79.1108C158.877 79.1108 159.109 79.2086 159.305 79.4041C159.501 79.5964 159.6 79.8284 159.603 80.1001C159.6 80.2824 159.552 80.4498 159.459 80.6023C159.37 80.7514 159.25 80.8707 159.101 80.9602C158.952 81.0497 158.788 81.0945 158.609 81.0945Z" fill="white"/>
<defs>
<filter id="filter0_d_1294_1424" x="0.553711" y="4.54785" width="159.156" height="47.708" filterUnits="userSpaceOnUse" color-interpolation-filters="sRGB">
<feFlood flood-opacity="0" result="BackgroundImageFix"/>
<feColorMatrix in="SourceAlpha" type="matrix" values="0 0 0 0 0 0 0 0 0 0 0 0 0 0 0 0 0 0 127 0" result="hardAlpha"/>
<feOffset/>
<feComposite in2="hardAlpha" operator="out"/>
<feColorMatrix type="matrix" values="0 0 0 0 1 0 0 0 0 1 0 0 0 0 1 0 0 0 0.81 0"/>
<feBlend mode="normal" in2="BackgroundImageFix" result="effect1_dropShadow_1294_1424"/>
<feBlend mode="normal" in="SourceGraphic" in2="effect1_dropShadow_1294_1424" result="shape"/>
</filter>
</defs>
</svg>
