<svg width="209" height="88" viewBox="0 0 209 88" fill="none" xmlns="http://www.w3.org/2000/svg">
<g filter="url(#filter0_d_141_4904)">
<path d="M8.50568 5.54545H12.1534V17.7159C12.1534 18.8409 11.9006 19.8182 11.3949 20.6477C10.8949 21.4773 10.1989 22.1165 9.30682 22.5653C8.41477 23.0142 7.37784 23.2386 6.19602 23.2386C5.14489 23.2386 4.19034 23.054 3.33239 22.6847C2.48011 22.3097 1.80398 21.7415 1.30398 20.9801C0.803977 20.2131 0.556818 19.25 0.5625 18.0909H4.2358C4.24716 18.5511 4.34091 18.946 4.51705 19.2756C4.69886 19.5994 4.94602 19.8494 5.25852 20.0256C5.5767 20.196 5.9517 20.2812 6.38352 20.2812C6.83807 20.2812 7.22159 20.1847 7.53409 19.9915C7.85227 19.7926 8.09375 19.5028 8.25852 19.1222C8.4233 18.7415 8.50568 18.2727 8.50568 17.7159V5.54545ZM21.0511 23.2557C19.7273 23.2557 18.5824 22.9744 17.6165 22.4119C16.6563 21.8437 15.9148 21.054 15.392 20.0426C14.8693 19.0256 14.608 17.8466 14.608 16.5057C14.608 15.1534 14.8693 13.9716 15.392 12.9602C15.9148 11.9432 16.6563 11.1534 17.6165 10.5909C18.5824 10.0227 19.7273 9.73864 21.0511 9.73864C22.375 9.73864 23.517 10.0227 24.4773 10.5909C25.4432 11.1534 26.1875 11.9432 26.7102 12.9602C27.233 13.9716 27.4943 15.1534 27.4943 16.5057C27.4943 17.8466 27.233 19.0256 26.7102 20.0426C26.1875 21.054 25.4432 21.8437 24.4773 22.4119C23.517 22.9744 22.375 23.2557 21.0511 23.2557ZM21.0682 20.4432C21.6705 20.4432 22.1733 20.2727 22.5767 19.9318C22.9801 19.5852 23.2841 19.1136 23.4886 18.517C23.6989 17.9205 23.804 17.2415 23.804 16.4801C23.804 15.7188 23.6989 15.0398 23.4886 14.4432C23.2841 13.8466 22.9801 13.375 22.5767 13.0284C22.1733 12.6818 21.6705 12.5085 21.0682 12.5085C20.4602 12.5085 19.9489 12.6818 19.5341 13.0284C19.125 13.375 18.8153 13.8466 18.6051 14.4432C18.4006 15.0398 18.2983 15.7188 18.2983 16.4801C18.2983 17.2415 18.4006 17.9205 18.6051 18.517C18.8153 19.1136 19.125 19.5852 19.5341 19.9318C19.9489 20.2727 20.4602 20.4432 21.0682 20.4432ZM29.8551 23V9.90909H33.4858V23H29.8551ZM31.679 8.22159C31.1392 8.22159 30.6761 8.04261 30.2898 7.68466C29.9091 7.32102 29.7188 6.88636 29.7188 6.38068C29.7188 5.88068 29.9091 5.4517 30.2898 5.09375C30.6761 4.73011 31.1392 4.54829 31.679 4.54829C32.2188 4.54829 32.679 4.73011 33.0597 5.09375C33.446 5.4517 33.6392 5.88068 33.6392 6.38068C33.6392 6.88636 33.446 7.32102 33.0597 7.68466C32.679 8.04261 32.2188 8.22159 31.679 8.22159ZM40.0249 15.4318V23H36.3942V9.90909H39.8544V12.2188H40.0078C40.2976 11.4574 40.7834 10.8551 41.4652 10.4119C42.147 9.96307 42.9737 9.73864 43.9453 9.73864C44.8544 9.73864 45.647 9.9375 46.3232 10.3352C46.9993 10.733 47.5249 11.3011 47.8999 12.0398C48.2749 12.7727 48.4624 13.6477 48.4624 14.6648V23H44.8317V15.3125C44.8374 14.5114 44.6328 13.8864 44.218 13.4375C43.8033 12.983 43.2322 12.7557 42.505 12.7557C42.0163 12.7557 41.5845 12.8608 41.2095 13.071C40.8402 13.2812 40.5504 13.5881 40.3402 13.9915C40.1357 14.3892 40.0305 14.8693 40.0249 15.4318ZM63.8416 9.90909V12.6364H55.9581V9.90909H63.8416ZM57.7479 6.77273H61.3786V18.9773C61.3786 19.3125 61.4297 19.5739 61.532 19.7614C61.6342 19.9432 61.7763 20.071 61.9581 20.1449C62.1456 20.2187 62.3615 20.2557 62.6058 20.2557C62.7763 20.2557 62.9467 20.2415 63.1172 20.2131C63.2876 20.179 63.4183 20.1534 63.5092 20.1364L64.0803 22.8381C63.8984 22.8949 63.6428 22.9602 63.3132 23.0341C62.9837 23.1136 62.5831 23.1619 62.1115 23.179C61.2365 23.2131 60.4695 23.0966 59.8104 22.8295C59.157 22.5625 58.6484 22.1477 58.2848 21.5852C57.9212 21.0227 57.7422 20.3125 57.7479 19.4545V6.77273ZM70.1186 15.4318V23H66.4879V5.54545H70.0163V12.2188H70.1697C70.4652 11.446 70.9425 10.8409 71.6016 10.4034C72.2607 9.96023 73.0874 9.73864 74.0817 9.73864C74.9908 9.73864 75.7834 9.9375 76.4595 10.3352C77.1413 10.7273 77.6697 11.2926 78.0447 12.0312C78.4254 12.7642 78.6129 13.642 78.6072 14.6648V23H74.9766V15.3125C74.9822 14.5057 74.7777 13.8778 74.3629 13.429C73.9538 12.9801 73.38 12.7557 72.6413 12.7557C72.147 12.7557 71.7095 12.8608 71.3288 13.071C70.9538 13.2812 70.6584 13.5881 70.4425 13.9915C70.2322 14.3892 70.1243 14.8693 70.1186 15.4318ZM87.4304 23.2557C86.0838 23.2557 84.9247 22.983 83.9531 22.4375C82.9872 21.8864 82.2429 21.108 81.7202 20.1023C81.1974 19.0909 80.9361 17.8949 80.9361 16.5142C80.9361 15.1676 81.1974 13.9858 81.7202 12.9688C82.2429 11.9517 82.9787 11.1591 83.9276 10.5909C84.8821 10.0227 86.0014 9.73864 87.2855 9.73864C88.1491 9.73864 88.9531 9.87784 89.6974 10.1562C90.4474 10.429 91.1009 10.8409 91.6577 11.392C92.2202 11.9432 92.6577 12.6364 92.9702 13.4716C93.2827 14.3011 93.4389 15.2727 93.4389 16.3864V17.3835H82.3849V15.1335H90.0213C90.0213 14.6108 89.9077 14.1477 89.6804 13.7443C89.4531 13.3409 89.1378 13.0256 88.7344 12.7983C88.3366 12.5653 87.8736 12.4489 87.3452 12.4489C86.794 12.4489 86.3054 12.5767 85.8793 12.8324C85.4588 13.0824 85.1293 13.4205 84.8906 13.8466C84.652 14.267 84.5298 14.7358 84.5241 15.2528V17.392C84.5241 18.0398 84.6435 18.5994 84.8821 19.071C85.1264 19.5426 85.4702 19.9062 85.9134 20.1619C86.3565 20.4176 86.8821 20.5455 87.4901 20.5455C87.8935 20.5455 88.2628 20.4886 88.598 20.375C88.9332 20.2614 89.2202 20.0909 89.4588 19.8636C89.6974 19.6364 89.8793 19.358 90.0043 19.0284L93.3622 19.25C93.1918 20.0568 92.8423 20.7614 92.3139 21.3636C91.7912 21.9602 91.1151 22.4261 90.2855 22.7614C89.4616 23.0909 88.5099 23.2557 87.4304 23.2557ZM101.431 23V5.54545H108.317C109.641 5.54545 110.769 5.7983 111.701 6.30398C112.633 6.80398 113.343 7.5 113.832 8.39204C114.326 9.27841 114.573 10.3011 114.573 11.4602C114.573 12.6193 114.323 13.642 113.823 14.5284C113.323 15.4148 112.599 16.1051 111.65 16.5994C110.707 17.0937 109.565 17.3409 108.224 17.3409H103.835V14.3835H107.627C108.337 14.3835 108.923 14.2614 109.383 14.017C109.849 13.767 110.195 13.4233 110.423 12.9858C110.656 12.5426 110.772 12.0341 110.772 11.4602C110.772 10.8807 110.656 10.375 110.423 9.94318C110.195 9.50568 109.849 9.16761 109.383 8.92898C108.917 8.68466 108.326 8.5625 107.61 8.5625H105.121V23H101.431ZM116.902 23V9.90909H120.422V12.1932H120.558C120.797 11.3807 121.197 10.767 121.76 10.3523C122.322 9.93182 122.97 9.72159 123.703 9.72159C123.885 9.72159 124.081 9.73295 124.291 9.75568C124.501 9.77841 124.686 9.80966 124.845 9.84943V13.071C124.675 13.0199 124.439 12.9744 124.138 12.9347C123.837 12.8949 123.561 12.875 123.311 12.875C122.777 12.875 122.3 12.9915 121.879 13.2244C121.464 13.4517 121.135 13.7699 120.891 14.179C120.652 14.5881 120.533 15.0597 120.533 15.5938V23H116.902ZM132.028 23.2557C130.704 23.2557 129.559 22.9744 128.593 22.4119C127.633 21.8437 126.891 21.054 126.369 20.0426C125.846 19.0256 125.585 17.8466 125.585 16.5057C125.585 15.1534 125.846 13.9716 126.369 12.9602C126.891 11.9432 127.633 11.1534 128.593 10.5909C129.559 10.0227 130.704 9.73864 132.028 9.73864C133.352 9.73864 134.494 10.0227 135.454 10.5909C136.42 11.1534 137.164 11.9432 137.687 12.9602C138.21 13.9716 138.471 15.1534 138.471 16.5057C138.471 17.8466 138.21 19.0256 137.687 20.0426C137.164 21.054 136.42 21.8437 135.454 22.4119C134.494 22.9744 133.352 23.2557 132.028 23.2557ZM132.045 20.4432C132.647 20.4432 133.15 20.2727 133.553 19.9318C133.957 19.5852 134.261 19.1136 134.465 18.517C134.675 17.9205 134.781 17.2415 134.781 16.4801C134.781 15.7188 134.675 15.0398 134.465 14.4432C134.261 13.8466 133.957 13.375 133.553 13.0284C133.15 12.6818 132.647 12.5085 132.045 12.5085C131.437 12.5085 130.925 12.6818 130.511 13.0284C130.102 13.375 129.792 13.8466 129.582 14.4432C129.377 15.0398 129.275 15.7188 129.275 16.4801C129.275 17.2415 129.377 17.9205 129.582 18.517C129.792 19.1136 130.102 19.5852 130.511 19.9318C130.925 20.2727 131.437 20.4432 132.045 20.4432ZM147.795 9.90909V12.6364H139.911V9.90909H147.795ZM141.701 6.77273H145.332V18.9773C145.332 19.3125 145.383 19.5739 145.485 19.7614C145.587 19.9432 145.729 20.071 145.911 20.1449C146.099 20.2187 146.315 20.2557 146.559 20.2557C146.729 20.2557 146.9 20.2415 147.07 20.2131C147.241 20.179 147.371 20.1534 147.462 20.1364L148.033 22.8381C147.852 22.8949 147.596 22.9602 147.266 23.0341C146.937 23.1136 146.536 23.1619 146.065 23.179C145.19 23.2131 144.423 23.0966 143.763 22.8295C143.11 22.5625 142.602 22.1477 142.238 21.5852C141.874 21.0227 141.695 20.3125 141.701 19.4545V6.77273ZM155.934 23.2557C154.61 23.2557 153.465 22.9744 152.499 22.4119C151.539 21.8437 150.798 21.054 150.275 20.0426C149.752 19.0256 149.491 17.8466 149.491 16.5057C149.491 15.1534 149.752 13.9716 150.275 12.9602C150.798 11.9432 151.539 11.1534 152.499 10.5909C153.465 10.0227 154.61 9.73864 155.934 9.73864C157.258 9.73864 158.4 10.0227 159.36 10.5909C160.326 11.1534 161.07 11.9432 161.593 12.9602C162.116 13.9716 162.377 15.1534 162.377 16.5057C162.377 17.8466 162.116 19.0256 161.593 20.0426C161.07 21.054 160.326 21.8437 159.36 22.4119C158.4 22.9744 157.258 23.2557 155.934 23.2557ZM155.951 20.4432C156.553 20.4432 157.056 20.2727 157.46 19.9318C157.863 19.5852 158.167 19.1136 158.371 18.517C158.582 17.9205 158.687 17.2415 158.687 16.4801C158.687 15.7188 158.582 15.0398 158.371 14.4432C158.167 13.8466 157.863 13.375 157.46 13.0284C157.056 12.6818 156.553 12.5085 155.951 12.5085C155.343 12.5085 154.832 12.6818 154.417 13.0284C154.008 13.375 153.698 13.8466 153.488 14.4432C153.283 15.0398 153.181 15.7188 153.181 16.4801C153.181 17.2415 153.283 17.9205 153.488 18.517C153.698 19.1136 154.008 19.5852 154.417 19.9318C154.832 20.2727 155.343 20.4432 155.951 20.4432ZM170.653 23.2557C169.312 23.2557 168.158 22.9716 167.192 22.4034C166.232 21.8295 165.494 21.0341 164.977 20.017C164.465 19 164.21 17.8295 164.21 16.5057C164.21 15.1648 164.468 13.9886 164.985 12.9773C165.508 11.9602 166.249 11.1676 167.21 10.5994C168.17 10.0256 169.312 9.73864 170.636 9.73864C171.778 9.73864 172.778 9.94602 173.636 10.3608C174.494 10.7756 175.173 11.358 175.673 12.108C176.173 12.858 176.448 13.7386 176.499 14.75H173.073C172.977 14.0966 172.721 13.571 172.306 13.1733C171.897 12.7699 171.36 12.5682 170.695 12.5682C170.133 12.5682 169.641 12.7216 169.221 13.0284C168.806 13.3295 168.482 13.7699 168.249 14.3494C168.016 14.929 167.9 15.6307 167.9 16.4545C167.9 17.2898 168.013 18 168.241 18.5852C168.474 19.1705 168.8 19.6165 169.221 19.9233C169.641 20.2301 170.133 20.3835 170.695 20.3835C171.11 20.3835 171.482 20.2983 171.812 20.1278C172.147 19.9574 172.423 19.7102 172.638 19.3864C172.86 19.0568 173.005 18.6619 173.073 18.2017H176.499C176.442 19.2017 176.17 20.0824 175.681 20.8438C175.198 21.5994 174.531 22.1903 173.678 22.6165C172.826 23.0426 171.817 23.2557 170.653 23.2557ZM184.739 23.2557C183.415 23.2557 182.27 22.9744 181.304 22.4119C180.344 21.8437 179.602 21.054 179.08 20.0426C178.557 19.0256 178.295 17.8466 178.295 16.5057C178.295 15.1534 178.557 13.9716 179.08 12.9602C179.602 11.9432 180.344 11.1534 181.304 10.5909C182.27 10.0227 183.415 9.73864 184.739 9.73864C186.062 9.73864 187.205 10.0227 188.165 10.5909C189.131 11.1534 189.875 11.9432 190.398 12.9602C190.92 13.9716 191.182 15.1534 191.182 16.5057C191.182 17.8466 190.92 19.0256 190.398 20.0426C189.875 21.054 189.131 21.8437 188.165 22.4119C187.205 22.9744 186.062 23.2557 184.739 23.2557ZM184.756 20.4432C185.358 20.4432 185.861 20.2727 186.264 19.9318C186.668 19.5852 186.972 19.1136 187.176 18.517C187.386 17.9205 187.491 17.2415 187.491 16.4801C187.491 15.7188 187.386 15.0398 187.176 14.4432C186.972 13.8466 186.668 13.375 186.264 13.0284C185.861 12.6818 185.358 12.5085 184.756 12.5085C184.148 12.5085 183.636 12.6818 183.222 13.0284C182.813 13.375 182.503 13.8466 182.293 14.4432C182.088 15.0398 181.986 15.7188 181.986 16.4801C181.986 17.2415 182.088 17.9205 182.293 18.517C182.503 19.1136 182.813 19.5852 183.222 19.9318C183.636 20.2727 184.148 20.4432 184.756 20.4432ZM197.173 5.54545V23H193.543V5.54545H197.173ZM1.51705 52V34.5455H5.20739V48.9574H12.6903V52H1.51705ZM18.799 52.2472C17.9638 52.2472 17.2195 52.1023 16.5661 51.8125C15.9126 51.517 15.3956 51.0824 15.0149 50.5085C14.6399 49.929 14.4524 49.2074 14.4524 48.3438C14.4524 47.6165 14.5859 47.0057 14.853 46.5114C15.12 46.017 15.4837 45.6193 15.9439 45.3182C16.4041 45.017 16.9268 44.7898 17.5121 44.6364C18.103 44.483 18.7223 44.375 19.37 44.3125C20.1314 44.233 20.745 44.1591 21.2109 44.0909C21.6768 44.017 22.0149 43.9091 22.2251 43.767C22.4354 43.625 22.5405 43.4148 22.5405 43.1364V43.0852C22.5405 42.5455 22.37 42.1278 22.0291 41.8324C21.6939 41.5369 21.2166 41.3892 20.5973 41.3892C19.9439 41.3892 19.424 41.5341 19.0376 41.8239C18.6513 42.108 18.3956 42.4659 18.2706 42.8977L14.9126 42.625C15.0831 41.8295 15.4183 41.142 15.9183 40.5625C16.4183 39.9773 17.0632 39.5284 17.853 39.2159C18.6484 38.8977 19.5689 38.7386 20.6143 38.7386C21.3416 38.7386 22.0376 38.8239 22.7024 38.9943C23.3729 39.1648 23.9666 39.429 24.4837 39.7869C25.0064 40.1449 25.4183 40.6051 25.7195 41.1676C26.0206 41.7244 26.1712 42.392 26.1712 43.1705V52H22.728V50.1847H22.6257C22.4155 50.5938 22.1342 50.9545 21.782 51.267C21.4297 51.5739 21.0064 51.8153 20.5121 51.9915C20.0178 52.1619 19.4467 52.2472 18.799 52.2472ZM19.8388 49.7415C20.3729 49.7415 20.8445 49.6364 21.2536 49.4261C21.6626 49.2102 21.9837 48.9205 22.2166 48.5568C22.4496 48.1932 22.5661 47.7812 22.5661 47.321V45.9318C22.4524 46.0057 22.2962 46.0739 22.0973 46.1364C21.9041 46.1932 21.6854 46.2472 21.4411 46.2983C21.1967 46.3437 20.9524 46.3864 20.7081 46.4261C20.4638 46.4602 20.2422 46.4915 20.0433 46.5199C19.6172 46.5824 19.245 46.6818 18.9268 46.8182C18.6087 46.9545 18.3615 47.1392 18.1854 47.3722C18.0092 47.5994 17.9212 47.8835 17.9212 48.2244C17.9212 48.7188 18.1001 49.0966 18.4581 49.358C18.8217 49.6136 19.282 49.7415 19.8388 49.7415ZM29.0561 52V34.5455H32.6868V41.108H32.7976C32.9567 40.7557 33.1868 40.3977 33.4879 40.0341C33.7947 39.6648 34.1925 39.358 34.6811 39.1136C35.1754 38.8636 35.7891 38.7386 36.522 38.7386C37.4766 38.7386 38.3572 38.9886 39.1641 39.4886C39.9709 39.983 40.6158 40.7301 41.0987 41.7301C41.5817 42.7244 41.8232 43.9716 41.8232 45.4716C41.8232 46.9318 41.5874 48.1648 41.1158 49.1705C40.6499 50.1705 40.0135 50.929 39.2067 51.446C38.4055 51.9574 37.5078 52.2131 36.5135 52.2131C35.8089 52.2131 35.2095 52.0966 34.7152 51.8636C34.2266 51.6307 33.826 51.3381 33.5135 50.9858C33.201 50.6278 32.9624 50.267 32.7976 49.9034H32.6357V52H29.0561ZM32.6101 45.4545C32.6101 46.233 32.718 46.9119 32.9339 47.4915C33.1499 48.071 33.4624 48.5227 33.8714 48.8466C34.2805 49.1648 34.7777 49.3239 35.3629 49.3239C35.9538 49.3239 36.4538 49.1619 36.8629 48.8381C37.272 48.5085 37.5817 48.054 37.7919 47.4744C38.0078 46.8892 38.1158 46.2159 38.1158 45.4545C38.1158 44.6989 38.0107 44.0341 37.8004 43.4602C37.5902 42.8864 37.2805 42.4375 36.8714 42.1136C36.4624 41.7898 35.9595 41.6278 35.3629 41.6278C34.772 41.6278 34.272 41.7841 33.8629 42.0966C33.4595 42.4091 33.1499 42.8523 32.9339 43.4261C32.718 44 32.6101 44.6761 32.6101 45.4545ZM55.1378 42.642L51.8139 42.8466C51.7571 42.5625 51.6349 42.3068 51.4474 42.0795C51.2599 41.8466 51.0128 41.6619 50.706 41.5256C50.4048 41.3835 50.044 41.3125 49.6236 41.3125C49.0611 41.3125 48.5866 41.4318 48.2003 41.6705C47.8139 41.9034 47.6207 42.2159 47.6207 42.608C47.6207 42.9205 47.7457 43.1847 47.9957 43.4006C48.2457 43.6165 48.6747 43.7898 49.2827 43.9205L51.652 44.3977C52.9247 44.6591 53.8736 45.0795 54.4986 45.6591C55.1236 46.2386 55.4361 47 55.4361 47.9432C55.4361 48.8011 55.1832 49.554 54.6776 50.2017C54.1776 50.8494 53.4901 51.3551 52.6151 51.7188C51.7457 52.0767 50.7429 52.2557 49.6065 52.2557C47.8736 52.2557 46.4929 51.8949 45.4645 51.1733C44.4418 50.446 43.8423 49.4574 43.6662 48.2074L47.2372 48.0199C47.3452 48.5483 47.6065 48.9517 48.0213 49.2301C48.4361 49.5028 48.9673 49.6392 49.6151 49.6392C50.2514 49.6392 50.7628 49.517 51.1491 49.2727C51.5412 49.0227 51.7401 48.7017 51.7457 48.3097C51.7401 47.9801 51.6009 47.7102 51.3281 47.5C51.0554 47.2841 50.6349 47.1193 50.0668 47.0057L47.7997 46.554C46.5213 46.2983 45.5696 45.8551 44.9446 45.2244C44.3253 44.5937 44.0156 43.7898 44.0156 42.8125C44.0156 41.9716 44.2429 41.2472 44.6974 40.6392C45.1577 40.0312 45.8026 39.5625 46.6321 39.233C47.4673 38.9034 48.4446 38.7386 49.5639 38.7386C51.2173 38.7386 52.5185 39.0881 53.4673 39.7869C54.4219 40.4858 54.9787 41.4375 55.1378 42.642ZM77.9446 34.5455V52H74.7571L67.1634 41.0142H67.0355V52H63.3452V34.5455H66.5838L74.1179 45.5227H74.2713V34.5455H77.9446ZM86.8913 52.2557C85.5447 52.2557 84.3857 51.983 83.4141 51.4375C82.4482 50.8864 81.7038 50.108 81.1811 49.1023C80.6584 48.0909 80.397 46.8949 80.397 45.5142C80.397 44.1676 80.6584 42.9858 81.1811 41.9688C81.7038 40.9517 82.4396 40.1591 83.3885 39.5909C84.343 39.0227 85.4624 38.7386 86.7464 38.7386C87.6101 38.7386 88.4141 38.8778 89.1584 39.1562C89.9084 39.429 90.5618 39.8409 91.1186 40.392C91.6811 40.9432 92.1186 41.6364 92.4311 42.4716C92.7436 43.3011 92.8999 44.2727 92.8999 45.3864V46.3835H81.8459V44.1335H89.4822C89.4822 43.6108 89.3686 43.1477 89.1413 42.7443C88.9141 42.3409 88.5987 42.0256 88.1953 41.7983C87.7976 41.5653 87.3345 41.4489 86.8061 41.4489C86.255 41.4489 85.7663 41.5767 85.3402 41.8324C84.9197 42.0824 84.5902 42.4205 84.3516 42.8466C84.1129 43.267 83.9908 43.7358 83.9851 44.2528V46.392C83.9851 47.0398 84.1044 47.5994 84.343 48.071C84.5874 48.5426 84.9311 48.9062 85.3743 49.1619C85.8175 49.4176 86.343 49.5455 86.951 49.5455C87.3544 49.5455 87.7237 49.4886 88.0589 49.375C88.3942 49.2614 88.6811 49.0909 88.9197 48.8636C89.1584 48.6364 89.3402 48.358 89.4652 48.0284L92.8232 48.25C92.6527 49.0568 92.3033 49.7614 91.7749 50.3636C91.2521 50.9602 90.576 51.4261 89.7464 51.7614C88.9226 52.0909 87.9709 52.2557 86.8913 52.2557ZM102.232 38.9091V41.6364H94.3487V38.9091H102.232ZM96.1385 35.7727H99.7692V47.9773C99.7692 48.3125 99.8203 48.5739 99.9226 48.7614C100.025 48.9432 100.167 49.071 100.349 49.1449C100.536 49.2187 100.752 49.2557 100.996 49.2557C101.167 49.2557 101.337 49.2415 101.508 49.2131C101.678 49.179 101.809 49.1534 101.9 49.1364L102.471 51.8381C102.289 51.8949 102.033 51.9602 101.704 52.0341C101.374 52.1136 100.974 52.1619 100.502 52.179C99.6271 52.2131 98.8601 52.0966 98.201 51.8295C97.5476 51.5625 97.0391 51.1477 96.6754 50.5852C96.3118 50.0227 96.1328 49.3125 96.1385 48.4545V35.7727ZM107.18 52L103.617 38.9091H107.29L109.319 47.7045H109.438L111.552 38.9091H115.157L117.305 47.6534H117.415L119.41 38.9091H123.075L119.521 52H115.677L113.427 43.767H113.265L111.015 52H107.18ZM130.598 52.2557C129.274 52.2557 128.129 51.9744 127.163 51.4119C126.203 50.8437 125.462 50.054 124.939 49.0426C124.416 48.0256 124.155 46.8466 124.155 45.5057C124.155 44.1534 124.416 42.9716 124.939 41.9602C125.462 40.9432 126.203 40.1534 127.163 39.5909C128.129 39.0227 129.274 38.7386 130.598 38.7386C131.922 38.7386 133.064 39.0227 134.024 39.5909C134.99 40.1534 135.734 40.9432 136.257 41.9602C136.78 42.9716 137.041 44.1534 137.041 45.5057C137.041 46.8466 136.78 48.0256 136.257 49.0426C135.734 50.054 134.99 50.8437 134.024 51.4119C133.064 51.9744 131.922 52.2557 130.598 52.2557ZM130.615 49.4432C131.217 49.4432 131.72 49.2727 132.124 48.9318C132.527 48.5852 132.831 48.1136 133.036 47.517C133.246 46.9205 133.351 46.2415 133.351 45.4801C133.351 44.7188 133.246 44.0398 133.036 43.4432C132.831 42.8466 132.527 42.375 132.124 42.0284C131.72 41.6818 131.217 41.5085 130.615 41.5085C130.007 41.5085 129.496 41.6818 129.081 42.0284C128.672 42.375 128.362 42.8466 128.152 43.4432C127.947 44.0398 127.845 44.7188 127.845 45.4801C127.845 46.2415 127.947 46.9205 128.152 47.517C128.362 48.1136 128.672 48.5852 129.081 48.9318C129.496 49.2727 130.007 49.4432 130.615 49.4432ZM139.402 52V38.9091H142.922V41.1932H143.058C143.297 40.3807 143.697 39.767 144.26 39.3523C144.822 38.9318 145.47 38.7216 146.203 38.7216C146.385 38.7216 146.581 38.733 146.791 38.7557C147.001 38.7784 147.186 38.8097 147.345 38.8494V42.071C147.175 42.0199 146.939 41.9744 146.638 41.9347C146.337 41.8949 146.061 41.875 145.811 41.875C145.277 41.875 144.8 41.9915 144.379 42.2244C143.964 42.4517 143.635 42.7699 143.391 43.179C143.152 43.5881 143.033 44.0597 143.033 44.5938V52H139.402ZM152.512 48.233L152.521 43.8778H153.049L157.242 38.9091H161.41L155.776 45.4886H154.915L152.512 48.233ZM149.222 52V34.5455H152.853V52H149.222ZM157.404 52L153.552 46.2983L155.972 43.733L161.657 52H157.404Z" fill="white"/>
</g>
<path opacity="0.5" d="M1.11648 72.1406V70.8182H8.99645V72.1406H5.8196V81H4.28835V72.1406H1.11648ZM12.8022 81.1541C12.0498 81.1541 11.4019 80.9934 10.8583 80.6719C10.3181 80.3471 9.90045 79.8913 9.60547 79.3047C9.3138 78.7147 9.16797 78.0237 9.16797 77.2315C9.16797 76.4493 9.3138 75.7599 9.60547 75.1634C9.90045 74.5668 10.3114 74.1011 10.8384 73.7663C11.3687 73.4316 11.9885 73.2642 12.6978 73.2642C13.1287 73.2642 13.5463 73.3355 13.9506 73.478C14.355 73.6205 14.7179 73.8442 15.0394 74.1491C15.3609 74.4541 15.6145 74.8501 15.8001 75.3374C15.9857 75.8213 16.0785 76.4096 16.0785 77.1023V77.6293H10.0082V76.5156H14.6218C14.6218 76.1245 14.5423 75.7782 14.3832 75.4766C14.2241 75.1716 14.0004 74.9313 13.712 74.7557C13.427 74.58 13.0922 74.4922 12.7077 74.4922C12.2901 74.4922 11.9255 74.5949 11.614 74.8004C11.3058 75.0026 11.0671 75.2678 10.8981 75.5959C10.7324 75.9207 10.6495 76.2737 10.6495 76.6548V77.5249C10.6495 78.0353 10.739 78.4695 10.918 78.8274C11.1003 79.1854 11.3538 79.4588 11.6786 79.6477C12.0034 79.8333 12.3829 79.9261 12.8171 79.9261C13.0988 79.9261 13.3557 79.8864 13.5877 79.8068C13.8197 79.724 14.0202 79.6013 14.1893 79.4389C14.3583 79.2765 14.4876 79.076 14.5771 78.8374L15.984 79.0909C15.8713 79.5052 15.6692 79.8681 15.3775 80.1797C15.0891 80.4879 14.7262 80.7282 14.2887 80.9006C13.8545 81.0696 13.359 81.1541 12.8022 81.1541ZM19.2143 70.8182V81H17.7278V70.8182H19.2143ZM22.7006 70.8182V81H21.2141V70.8182H22.7006ZM33.2429 77.8331V73.3636H34.7344V81H33.2727V79.6776H33.1932C33.0175 80.0852 32.7358 80.425 32.348 80.6967C31.9635 80.9652 31.4846 81.0994 30.9112 81.0994C30.4207 81.0994 29.9865 80.9917 29.6087 80.7763C29.2341 80.5575 28.9392 80.2344 28.7237 79.8068C28.5116 79.3793 28.4055 78.8506 28.4055 78.2209V73.3636H29.892V78.0419C29.892 78.5623 30.0362 78.9766 30.3246 79.2848C30.6129 79.593 30.9875 79.7472 31.4482 79.7472C31.7266 79.7472 32.0033 79.6776 32.2784 79.5384C32.5568 79.3991 32.7872 79.1887 32.9695 78.907C33.1551 78.6252 33.2462 78.2673 33.2429 77.8331ZM42.454 75.228L41.1067 75.4666C41.0504 75.2943 40.9609 75.1302 40.8382 74.9744C40.7189 74.8187 40.5565 74.6911 40.351 74.5916C40.1455 74.4922 39.8887 74.4425 39.5804 74.4425C39.1595 74.4425 38.8082 74.5369 38.5265 74.7259C38.2447 74.9115 38.1039 75.1518 38.1039 75.4467C38.1039 75.7019 38.1983 75.9074 38.3873 76.0632C38.5762 76.219 38.8811 76.3466 39.302 76.446L40.5151 76.7244C41.2177 76.8868 41.7414 77.1371 42.0861 77.4751C42.4308 77.8132 42.6032 78.2524 42.6032 78.7926C42.6032 79.25 42.4706 79.6577 42.2054 80.0156C41.9436 80.3703 41.5774 80.6487 41.1067 80.8509C40.6394 81.053 40.0975 81.1541 39.481 81.1541C38.6259 81.1541 37.9282 80.9718 37.388 80.6072C36.8477 80.2393 36.5163 79.7173 36.3936 79.0412L37.8304 78.8224C37.9199 79.197 38.1039 79.4804 38.3823 79.6726C38.6607 79.8615 39.0236 79.956 39.4711 79.956C39.9583 79.956 40.3477 79.8549 40.6394 79.6527C40.931 79.4472 41.0769 79.197 41.0769 78.902C41.0769 78.6634 40.9874 78.4628 40.8084 78.3004C40.6328 78.138 40.3626 78.0154 39.998 77.9325L38.7054 77.6491C37.9928 77.4867 37.4658 77.2282 37.1245 76.8736C36.7864 76.5189 36.6174 76.0698 36.6174 75.5263C36.6174 75.0755 36.7433 74.6811 36.9952 74.343C37.2471 74.005 37.5951 73.7415 38.0392 73.5526C38.4834 73.3603 38.9921 73.2642 39.5655 73.2642C40.3908 73.2642 41.0404 73.4432 41.5144 73.8011C41.9883 74.1558 42.3016 74.6314 42.454 75.228ZM50.165 81.169C49.681 81.169 49.2435 81.0795 48.8525 80.9006C48.4614 80.7183 48.1515 80.4548 47.9228 80.1101C47.6974 79.7654 47.5847 79.3428 47.5847 78.8423C47.5847 78.4115 47.6676 78.0568 47.8333 77.7784C47.999 77.5 48.2227 77.2796 48.5044 77.1172C48.7862 76.9548 49.101 76.8321 49.449 76.7493C49.7971 76.6664 50.1517 76.6035 50.513 76.5604C50.9703 76.5073 51.3416 76.4643 51.6266 76.4311C51.9116 76.3946 52.1188 76.3366 52.248 76.2571C52.3773 76.1776 52.4419 76.0483 52.4419 75.8693V75.8345C52.4419 75.4003 52.3193 75.0639 52.074 74.8253C51.8321 74.5866 51.4708 74.4673 50.9902 74.4673C50.4898 74.4673 50.0953 74.5784 49.807 74.8004C49.522 75.0192 49.3248 75.2628 49.2154 75.5312L47.8184 75.2131C47.9841 74.7491 48.226 74.3745 48.5442 74.0895C48.8657 73.8011 49.2353 73.5923 49.6529 73.4631C50.0705 73.3305 50.5096 73.2642 50.9703 73.2642C51.2753 73.2642 51.5984 73.3007 51.9398 73.3736C52.2845 73.4432 52.606 73.5724 52.9043 73.7614C53.2059 73.9503 53.4528 74.2204 53.6451 74.5717C53.8373 74.9197 53.9334 75.3722 53.9334 75.929V81H52.4817V79.956H52.4221C52.3259 80.1482 52.1818 80.3371 51.9895 80.5227C51.7973 80.7083 51.5504 80.8625 51.2488 80.9851C50.9471 81.1077 50.5859 81.169 50.165 81.169ZM50.4881 79.9759C50.8991 79.9759 51.2504 79.8946 51.5421 79.7322C51.8371 79.5698 52.0608 79.3577 52.2132 79.0959C52.369 78.8307 52.4469 78.5473 52.4469 78.2457V77.2614C52.3939 77.3144 52.2911 77.3641 52.1387 77.4105C51.9895 77.4536 51.8188 77.4917 51.6266 77.5249C51.4344 77.5547 51.2471 77.5829 51.0648 77.6094C50.8825 77.6326 50.7301 77.6525 50.6074 77.669C50.3191 77.7055 50.0556 77.7668 49.8169 77.853C49.5816 77.9392 49.3927 78.0634 49.2502 78.2259C49.111 78.3849 49.0414 78.5971 49.0414 78.8622C49.0414 79.2301 49.1773 79.5085 49.449 79.6974C49.7208 79.883 50.0672 79.9759 50.4881 79.9759ZM56.0327 81V70.8182H57.5192V74.6016H57.6087C57.6948 74.4425 57.8191 74.2585 57.9815 74.0497C58.1439 73.8409 58.3693 73.6586 58.6577 73.5028C58.946 73.3438 59.3272 73.2642 59.8011 73.2642C60.4176 73.2642 60.9678 73.42 61.4517 73.7315C61.9356 74.0431 62.3151 74.4922 62.5902 75.0788C62.8686 75.6655 63.0078 76.3714 63.0078 77.1967C63.0078 78.022 62.8703 78.7296 62.5952 79.3196C62.3201 79.9062 61.9422 80.3587 61.4616 80.6768C60.9811 80.9917 60.4325 81.1491 59.8161 81.1491C59.352 81.1491 58.9725 81.0713 58.6776 80.9155C58.3859 80.7597 58.1572 80.5774 57.9915 80.3686C57.8258 80.1598 57.6982 79.9742 57.6087 79.8118H57.4844V81H56.0327ZM57.4893 77.1818C57.4893 77.7187 57.5672 78.1894 57.723 78.5938C57.8788 78.9981 58.1042 79.3146 58.3991 79.5433C58.6941 79.7687 59.0554 79.8814 59.483 79.8814C59.9271 79.8814 60.2983 79.7637 60.5966 79.5284C60.8949 79.2898 61.1203 78.9666 61.2727 78.5589C61.4285 78.1513 61.5064 77.6922 61.5064 77.1818C61.5064 76.678 61.4302 76.2256 61.2777 75.8246C61.1286 75.4235 60.9032 75.107 60.6016 74.875C60.3033 74.643 59.9304 74.527 59.483 74.527C59.0521 74.527 58.6875 74.638 58.3892 74.8601C58.0942 75.0821 57.8705 75.392 57.718 75.7898C57.5656 76.1875 57.4893 76.6515 57.4893 77.1818ZM67.8936 81.1541C67.1777 81.1541 66.553 80.9901 66.0194 80.6619C65.4857 80.3338 65.0714 79.8748 64.7765 79.2848C64.4815 78.6948 64.334 78.0054 64.334 77.2166C64.334 76.4245 64.4815 75.7318 64.7765 75.1385C65.0714 74.5452 65.4857 74.0845 66.0194 73.7564C66.553 73.4283 67.1777 73.2642 67.8936 73.2642C68.6096 73.2642 69.2343 73.4283 69.7679 73.7564C70.3016 74.0845 70.7158 74.5452 71.0108 75.1385C71.3058 75.7318 71.4533 76.4245 71.4533 77.2166C71.4533 78.0054 71.3058 78.6948 71.0108 79.2848C70.7158 79.8748 70.3016 80.3338 69.7679 80.6619C69.2343 80.9901 68.6096 81.1541 67.8936 81.1541ZM67.8986 79.9062C68.3626 79.9062 68.7471 79.7836 69.052 79.5384C69.3569 79.2931 69.5823 78.9666 69.7282 78.5589C69.8773 78.1513 69.9519 77.7022 69.9519 77.2116C69.9519 76.7244 69.8773 76.277 69.7282 75.8693C69.5823 75.4583 69.3569 75.1286 69.052 74.88C68.7471 74.6314 68.3626 74.5071 67.8986 74.5071C67.4313 74.5071 67.0435 74.6314 66.7353 74.88C66.4303 75.1286 66.2033 75.4583 66.0542 75.8693C65.9083 76.277 65.8354 76.7244 65.8354 77.2116C65.8354 77.7022 65.9083 78.1513 66.0542 78.5589C66.2033 78.9666 66.4303 79.2931 66.7353 79.5384C67.0435 79.7836 67.4313 79.9062 67.8986 79.9062ZM77.9499 77.8331V73.3636H79.4414V81H77.9798V79.6776H77.9002C77.7246 80.0852 77.4428 80.425 77.055 80.6967C76.6706 80.9652 76.1916 81.0994 75.6183 81.0994C75.1277 81.0994 74.6935 80.9917 74.3157 80.7763C73.9412 80.5575 73.6462 80.2344 73.4308 79.8068C73.2186 79.3793 73.1126 78.8506 73.1126 78.2209V73.3636H74.5991V78.0419C74.5991 78.5623 74.7433 78.9766 75.0316 79.2848C75.32 79.593 75.6945 79.7472 76.1552 79.7472C76.4336 79.7472 76.7103 79.6776 76.9854 79.5384C77.2638 79.3991 77.4942 79.1887 77.6765 78.907C77.8621 78.6252 77.9532 78.2673 77.9499 77.8331ZM85.0034 73.3636V74.5568H80.8322V73.3636H85.0034ZM81.9508 71.5341H83.4373V78.7578C83.4373 79.0462 83.4804 79.2633 83.5666 79.4091C83.6528 79.5516 83.7638 79.6494 83.8997 79.7024C84.0389 79.7521 84.1897 79.777 84.3521 79.777C84.4714 79.777 84.5758 79.7687 84.6653 79.7521C84.7548 79.7356 84.8244 79.7223 84.8741 79.7124L85.1426 80.9403C85.0564 80.9735 84.9338 81.0066 84.7747 81.0398C84.6156 81.0762 84.4167 81.0961 84.1781 81.0994C83.787 81.1061 83.4224 81.0365 83.0843 80.8906C82.7463 80.7448 82.4728 80.5194 82.264 80.2145C82.0552 79.9096 81.9508 79.5268 81.9508 79.0661V71.5341ZM91.2924 83.8636C91.0704 83.8636 90.8682 83.8454 90.6859 83.8089C90.5036 83.7758 90.3677 83.7393 90.2782 83.6996L90.6362 82.4815C90.908 82.5545 91.1499 82.5859 91.362 82.576C91.5742 82.5661 91.7614 82.4865 91.9238 82.3374C92.0895 82.1882 92.2354 81.9446 92.3613 81.6065L92.5453 81.0994L89.7512 73.3636H91.3422L93.2761 79.2898H93.3556L95.2896 73.3636H96.8855L93.7385 82.0192C93.5926 82.4169 93.407 82.7533 93.1816 83.0284C92.9563 83.3068 92.6878 83.5156 92.3762 83.6548C92.0647 83.794 91.7034 83.8636 91.2924 83.8636ZM101.239 81.1541C100.523 81.1541 99.8987 80.9901 99.3651 80.6619C98.8314 80.3338 98.4171 79.8748 98.1222 79.2848C97.8272 78.6948 97.6797 78.0054 97.6797 77.2166C97.6797 76.4245 97.8272 75.7318 98.1222 75.1385C98.4171 74.5452 98.8314 74.0845 99.3651 73.7564C99.8987 73.4283 100.523 73.2642 101.239 73.2642C101.955 73.2642 102.58 73.4283 103.114 73.7564C103.647 74.0845 104.062 74.5452 104.357 75.1385C104.652 75.7318 104.799 76.4245 104.799 77.2166C104.799 78.0054 104.652 78.6948 104.357 79.2848C104.062 79.8748 103.647 80.3338 103.114 80.6619C102.58 80.9901 101.955 81.1541 101.239 81.1541ZM101.244 79.9062C101.708 79.9062 102.093 79.7836 102.398 79.5384C102.703 79.2931 102.928 78.9666 103.074 78.5589C103.223 78.1513 103.298 77.7022 103.298 77.2116C103.298 76.7244 103.223 76.277 103.074 75.8693C102.928 75.4583 102.703 75.1286 102.398 74.88C102.093 74.6314 101.708 74.5071 101.244 74.5071C100.777 74.5071 100.389 74.6314 100.081 74.88C99.776 75.1286 99.549 75.4583 99.3999 75.8693C99.254 76.277 99.1811 76.7244 99.1811 77.2116C99.1811 77.7022 99.254 78.1513 99.3999 78.5589C99.549 78.9666 99.776 79.2931 100.081 79.5384C100.389 79.7836 100.777 79.9062 101.244 79.9062ZM111.296 77.8331V73.3636H112.787V81H111.325V79.6776H111.246C111.07 80.0852 110.789 80.425 110.401 80.6967C110.016 80.9652 109.537 81.0994 108.964 81.0994C108.473 81.0994 108.039 80.9917 107.661 80.7763C107.287 80.5575 106.992 80.2344 106.776 79.8068C106.564 79.3793 106.458 78.8506 106.458 78.2209V73.3636H107.945V78.0419C107.945 78.5623 108.089 78.9766 108.377 79.2848C108.666 79.593 109.04 79.7472 109.501 79.7472C109.779 79.7472 110.056 79.6776 110.331 79.5384C110.61 79.3991 110.84 79.1887 111.022 78.907C111.208 78.6252 111.299 78.2673 111.296 77.8331ZM114.784 81V73.3636H116.221V74.5767H116.301C116.44 74.1657 116.685 73.8426 117.037 73.6072C117.391 73.3686 117.792 73.2493 118.24 73.2493C118.333 73.2493 118.442 73.2526 118.568 73.2592C118.697 73.2659 118.798 73.2741 118.871 73.2841V74.706C118.811 74.6894 118.705 74.6712 118.553 74.6513C118.4 74.6281 118.248 74.6165 118.096 74.6165C117.744 74.6165 117.431 74.6911 117.156 74.8402C116.884 74.986 116.669 75.1899 116.51 75.4517C116.35 75.7102 116.271 76.0052 116.271 76.3366V81H114.784ZM125.88 75.228L124.532 75.4666C124.476 75.2943 124.387 75.1302 124.264 74.9744C124.145 74.8187 123.982 74.6911 123.777 74.5916C123.571 74.4922 123.314 74.4425 123.006 74.4425C122.585 74.4425 122.234 74.5369 121.952 74.7259C121.671 74.9115 121.53 75.1518 121.53 75.4467C121.53 75.7019 121.624 75.9074 121.813 76.0632C122.002 76.219 122.307 76.3466 122.728 76.446L123.941 76.7244C124.644 76.8868 125.167 77.1371 125.512 77.4751C125.857 77.8132 126.029 78.2524 126.029 78.7926C126.029 79.25 125.896 79.6577 125.631 80.0156C125.369 80.3703 125.003 80.6487 124.532 80.8509C124.065 81.053 123.523 81.1541 122.907 81.1541C122.052 81.1541 121.354 80.9718 120.814 80.6072C120.273 80.2393 119.942 79.7173 119.819 79.0412L121.256 78.8224C121.346 79.197 121.53 79.4804 121.808 79.6726C122.086 79.8615 122.449 79.956 122.897 79.956C123.384 79.956 123.773 79.8549 124.065 79.6527C124.357 79.4472 124.503 79.197 124.503 78.902C124.503 78.6634 124.413 78.4628 124.234 78.3004C124.059 78.138 123.788 78.0154 123.424 77.9325L122.131 77.6491C121.419 77.4867 120.892 77.2282 120.55 76.8736C120.212 76.5189 120.043 76.0698 120.043 75.5263C120.043 75.0755 120.169 74.6811 120.421 74.343C120.673 74.005 121.021 73.7415 121.465 73.5526C121.909 73.3603 122.418 73.2642 122.991 73.2642C123.817 73.2642 124.466 73.4432 124.94 73.8011C125.414 74.1558 125.727 74.6314 125.88 75.228ZM130.955 81.1541C130.202 81.1541 129.554 80.9934 129.011 80.6719C128.47 80.3471 128.053 79.8913 127.758 79.3047C127.466 78.7147 127.32 78.0237 127.32 77.2315C127.32 76.4493 127.466 75.7599 127.758 75.1634C128.053 74.5668 128.464 74.1011 128.991 73.7663C129.521 73.4316 130.141 73.2642 130.85 73.2642C131.281 73.2642 131.699 73.3355 132.103 73.478C132.507 73.6205 132.87 73.8442 133.192 74.1491C133.513 74.4541 133.767 74.8501 133.952 75.3374C134.138 75.8213 134.231 76.4096 134.231 77.1023V77.6293H128.161V76.5156H132.774C132.774 76.1245 132.695 75.7782 132.536 75.4766C132.376 75.1716 132.153 74.9313 131.864 74.7557C131.579 74.58 131.245 74.4922 130.86 74.4922C130.442 74.4922 130.078 74.5949 129.766 74.8004C129.458 75.0026 129.219 75.2678 129.05 75.5959C128.885 75.9207 128.802 76.2737 128.802 76.6548V77.5249C128.802 78.0353 128.891 78.4695 129.07 78.8274C129.253 79.1854 129.506 79.4588 129.831 79.6477C130.156 79.8333 130.535 79.9261 130.969 79.9261C131.251 79.9261 131.508 79.8864 131.74 79.8068C131.972 79.724 132.173 79.6013 132.342 79.4389C132.511 79.2765 132.64 79.076 132.729 78.8374L134.136 79.0909C134.024 79.5052 133.821 79.8681 133.53 80.1797C133.241 80.4879 132.879 80.7282 132.441 80.9006C132.007 81.0696 131.511 81.1541 130.955 81.1541ZM137.367 70.8182V81H135.88V70.8182H137.367ZM143.001 73.3636V74.5568H138.685V73.3636H143.001ZM139.869 81V72.4787C139.869 72.0014 139.973 71.6053 140.182 71.2905C140.391 70.9723 140.667 70.7353 141.012 70.5795C141.357 70.4205 141.731 70.3409 142.136 70.3409C142.434 70.3409 142.689 70.3658 142.901 70.4155C143.113 70.4619 143.271 70.505 143.374 70.5447L143.026 71.7479C142.956 71.728 142.866 71.7048 142.757 71.6783C142.648 71.6484 142.515 71.6335 142.359 71.6335C141.998 71.6335 141.74 71.723 141.584 71.902C141.431 72.081 141.355 72.3395 141.355 72.6776V81H139.869Z" fill="white"/>
<defs>
<filter id="filter0_d_141_4904" x="0.553711" y="4.54785" width="196.619" height="47.708" filterUnits="userSpaceOnUse" color-interpolation-filters="sRGB">
<feFlood flood-opacity="0" result="BackgroundImageFix"/>
<feColorMatrix in="SourceAlpha" type="matrix" values="0 0 0 0 0 0 0 0 0 0 0 0 0 0 0 0 0 0 127 0" result="hardAlpha"/>
<feOffset/>
<feComposite in2="hardAlpha" operator="out"/>
<feColorMatrix type="matrix" values="0 0 0 0 1 0 0 0 0 1 0 0 0 0 1 0 0 0 0.81 0"/>
<feBlend mode="normal" in2="BackgroundImageFix" result="effect1_dropShadow_141_4904"/>
<feBlend mode="normal" in="SourceGraphic" in2="effect1_dropShadow_141_4904" result="shape"/>
</filter>
</defs>
</svg>

