<svg width="210" height="58" viewBox="0 0 210 58" fill="none" xmlns="http://www.w3.org/2000/svg">
<g filter="url(#filter0_d_143_5567)">
<path d="M2.01705 23V5.54545H8.90341C10.2216 5.54545 11.3466 5.78125 12.2784 6.25284C13.2159 6.71875 13.929 7.38068 14.4176 8.23864C14.9119 9.09091 15.1591 10.0937 15.1591 11.2472C15.1591 12.4062 14.9091 13.4034 14.4091 14.2386C13.9091 15.0682 13.1847 15.7045 12.2358 16.1477C11.2926 16.5909 10.1506 16.8125 8.80966 16.8125H4.19886V13.8466H8.21307C8.91761 13.8466 9.50284 13.75 9.96875 13.5568C10.4347 13.3636 10.7813 13.0739 11.0085 12.6875C11.2415 12.3011 11.358 11.821 11.358 11.2472C11.358 10.6676 11.2415 10.179 11.0085 9.78125C10.7813 9.38352 10.4318 9.08239 9.96023 8.87784C9.49432 8.66761 8.90625 8.5625 8.19602 8.5625H5.70739V23H2.01705ZM11.4432 15.0568L15.7812 23H11.7074L7.46307 15.0568H11.4432ZM23.4538 23.2557C22.1072 23.2557 20.9482 22.983 19.9766 22.4375C19.0107 21.8864 18.2663 21.108 17.7436 20.1023C17.2209 19.0909 16.9595 17.8949 16.9595 16.5142C16.9595 15.1676 17.2209 13.9858 17.7436 12.9688C18.2663 11.9517 19.0021 11.1591 19.951 10.5909C20.9055 10.0227 22.0249 9.73864 23.3089 9.73864C24.1726 9.73864 24.9766 9.87784 25.7209 10.1562C26.4709 10.429 27.1243 10.8409 27.6811 11.392C28.2436 11.9432 28.6811 12.6364 28.9936 13.4716C29.3061 14.3011 29.4624 15.2727 29.4624 16.3864V17.3835H18.4084V15.1335H26.0447C26.0447 14.6108 25.9311 14.1477 25.7038 13.7443C25.4766 13.3409 25.1612 13.0256 24.7578 12.7983C24.3601 12.5653 23.897 12.4489 23.3686 12.4489C22.8175 12.4489 22.3288 12.5767 21.9027 12.8324C21.4822 13.0824 21.1527 13.4205 20.9141 13.8466C20.6754 14.267 20.5533 14.7358 20.5476 15.2528V17.392C20.5476 18.0398 20.6669 18.5994 20.9055 19.071C21.1499 19.5426 21.4936 19.9062 21.9368 20.1619C22.38 20.4176 22.9055 20.5455 23.5135 20.5455C23.9169 20.5455 24.2862 20.4886 24.6214 20.375C24.9567 20.2614 25.2436 20.0909 25.4822 19.8636C25.7209 19.6364 25.9027 19.358 26.0277 19.0284L29.3857 19.25C29.2152 20.0568 28.8658 20.7614 28.3374 21.3636C27.8146 21.9602 27.1385 22.4261 26.3089 22.7614C25.4851 23.0909 24.5334 23.2557 23.4538 23.2557ZM40.4822 27.9091V20.9034H40.3714C40.201 21.267 39.9595 21.6278 39.647 21.9858C39.3402 22.3381 38.9396 22.6307 38.4453 22.8636C37.9567 23.0966 37.3601 23.2131 36.6555 23.2131C35.6612 23.2131 34.7607 22.9574 33.9538 22.446C33.1527 21.929 32.5163 21.1705 32.0447 20.1705C31.5788 19.1648 31.3459 17.9318 31.3459 16.4716C31.3459 14.9716 31.5874 13.7244 32.0703 12.7301C32.5533 11.7301 33.1953 10.983 33.9964 10.4886C34.8033 9.98864 35.6868 9.73864 36.647 9.73864C37.38 9.73864 37.9908 9.86364 38.4794 10.1136C38.9737 10.358 39.3714 10.6648 39.6726 11.0341C39.9794 11.3977 40.2124 11.7557 40.3714 12.108H40.5249V9.90909H44.1044V27.9091H40.4822ZM37.8061 20.3239C38.3913 20.3239 38.8857 20.1648 39.2891 19.8466C39.6982 19.5227 40.0107 19.071 40.2266 18.4915C40.4482 17.9119 40.5589 17.233 40.5589 16.4545C40.5589 15.6761 40.451 15 40.2351 14.4261C40.0192 13.8523 39.7067 13.4091 39.2976 13.0966C38.8885 12.7841 38.3913 12.6278 37.8061 12.6278C37.2095 12.6278 36.7067 12.7898 36.2976 13.1136C35.8885 13.4375 35.5788 13.8864 35.3686 14.4602C35.1584 15.0341 35.0533 15.6989 35.0533 16.4545C35.0533 17.2159 35.1584 17.8892 35.3686 18.4744C35.5845 19.054 35.8942 19.5085 36.2976 19.8381C36.7067 20.1619 37.2095 20.3239 37.8061 20.3239ZM55.4141 17.4261V9.90909H59.0447V23H55.5589V20.6222H55.4226C55.1271 21.3892 54.6357 22.0057 53.9482 22.4716C53.2663 22.9375 52.4339 23.1705 51.451 23.1705C50.576 23.1705 49.8061 22.9716 49.1413 22.5739C48.4766 22.1761 47.9567 21.6108 47.5817 20.8778C47.2124 20.1449 47.0249 19.267 47.0192 18.2443V9.90909H50.6499V17.5966C50.6555 18.3693 50.8629 18.9801 51.272 19.429C51.6811 19.8778 52.2294 20.1023 52.9169 20.1023C53.3544 20.1023 53.7635 20.0028 54.1442 19.804C54.5249 19.5994 54.8317 19.2983 55.0646 18.9006C55.3033 18.5028 55.4197 18.0114 55.4141 17.4261ZM67.9148 23.2557C66.5682 23.2557 65.4091 22.983 64.4375 22.4375C63.4716 21.8864 62.7273 21.108 62.2045 20.1023C61.6818 19.0909 61.4205 17.8949 61.4205 16.5142C61.4205 15.1676 61.6818 13.9858 62.2045 12.9688C62.7273 11.9517 63.4631 11.1591 64.4119 10.5909C65.3665 10.0227 66.4858 9.73864 67.7699 9.73864C68.6335 9.73864 69.4375 9.87784 70.1818 10.1562C70.9318 10.429 71.5852 10.8409 72.142 11.392C72.7045 11.9432 73.142 12.6364 73.4545 13.4716C73.767 14.3011 73.9233 15.2727 73.9233 16.3864V17.3835H62.8693V15.1335H70.5057C70.5057 14.6108 70.392 14.1477 70.1648 13.7443C69.9375 13.3409 69.6222 13.0256 69.2188 12.7983C68.821 12.5653 68.358 12.4489 67.8295 12.4489C67.2784 12.4489 66.7898 12.5767 66.3636 12.8324C65.9432 13.0824 65.6136 13.4205 65.375 13.8466C65.1364 14.267 65.0142 14.7358 65.0085 15.2528V17.392C65.0085 18.0398 65.1278 18.5994 65.3665 19.071C65.6108 19.5426 65.9545 19.9062 66.3977 20.1619C66.8409 20.4176 67.3665 20.5455 67.9744 20.5455C68.3778 20.5455 68.7472 20.4886 69.0824 20.375C69.4176 20.2614 69.7045 20.0909 69.9432 19.8636C70.1818 19.6364 70.3636 19.358 70.4886 19.0284L73.8466 19.25C73.6761 20.0568 73.3267 20.7614 72.7983 21.3636C72.2756 21.9602 71.5994 22.4261 70.7699 22.7614C69.946 23.0909 68.9943 23.2557 67.9148 23.2557ZM87.1847 13.642L83.8608 13.8466C83.804 13.5625 83.6818 13.3068 83.4943 13.0795C83.3068 12.8466 83.0597 12.6619 82.7528 12.5256C82.4517 12.3835 82.0909 12.3125 81.6705 12.3125C81.108 12.3125 80.6335 12.4318 80.2472 12.6705C79.8608 12.9034 79.6676 13.2159 79.6676 13.608C79.6676 13.9205 79.7926 14.1847 80.0426 14.4006C80.2926 14.6165 80.7216 14.7898 81.3295 14.9205L83.6989 15.3977C84.9716 15.6591 85.9205 16.0795 86.5455 16.6591C87.1705 17.2386 87.483 18 87.483 18.9432C87.483 19.8011 87.2301 20.554 86.7244 21.2017C86.2244 21.8494 85.5369 22.3551 84.6619 22.7188C83.7926 23.0767 82.7898 23.2557 81.6534 23.2557C79.9205 23.2557 78.5398 22.8949 77.5114 22.1733C76.4886 21.446 75.8892 20.4574 75.7131 19.2074L79.2841 19.0199C79.392 19.5483 79.6534 19.9517 80.0682 20.2301C80.483 20.5028 81.0142 20.6392 81.6619 20.6392C82.2983 20.6392 82.8097 20.517 83.196 20.2727C83.5881 20.0227 83.7869 19.7017 83.7926 19.3097C83.7869 18.9801 83.6477 18.7102 83.375 18.5C83.1023 18.2841 82.6818 18.1193 82.1136 18.0057L79.8466 17.554C78.5682 17.2983 77.6165 16.8551 76.9915 16.2244C76.3722 15.5937 76.0625 14.7898 76.0625 13.8125C76.0625 12.9716 76.2898 12.2472 76.7443 11.6392C77.2045 11.0312 77.8494 10.5625 78.679 10.233C79.5142 9.90341 80.4915 9.73864 81.6108 9.73864C83.2642 9.73864 84.5653 10.0881 85.5142 10.7869C86.4688 11.4858 87.0256 12.4375 87.1847 13.642ZM96.7322 9.90909V12.6364H88.8487V9.90909H96.7322ZM90.6385 6.77273H94.2692V18.9773C94.2692 19.3125 94.3203 19.5739 94.4226 19.7614C94.5249 19.9432 94.6669 20.071 94.8487 20.1449C95.0362 20.2187 95.2521 20.2557 95.4964 20.2557C95.6669 20.2557 95.8374 20.2415 96.0078 20.2131C96.1783 20.179 96.3089 20.1534 96.3999 20.1364L96.9709 22.8381C96.7891 22.8949 96.5334 22.9602 96.2038 23.0341C95.8743 23.1136 95.4737 23.1619 95.0021 23.179C94.1271 23.2131 93.3601 23.0966 92.701 22.8295C92.0476 22.5625 91.5391 22.1477 91.1754 21.5852C90.8118 21.0227 90.6328 20.3125 90.6385 19.4545V6.77273ZM111.615 9.90909V12.6364H103.732V9.90909H111.615ZM105.521 6.77273H109.152V18.9773C109.152 19.3125 109.203 19.5739 109.305 19.7614C109.408 19.9432 109.55 20.071 109.732 20.1449C109.919 20.2187 110.135 20.2557 110.379 20.2557C110.55 20.2557 110.72 20.2415 110.891 20.2131C111.061 20.179 111.192 20.1534 111.283 20.1364L111.854 22.8381C111.672 22.8949 111.416 22.9602 111.087 23.0341C110.757 23.1136 110.357 23.1619 109.885 23.179C109.01 23.2131 108.243 23.0966 107.584 22.8295C106.93 22.5625 106.422 22.1477 106.058 21.5852C105.695 21.0227 105.516 20.3125 105.521 19.4545V6.77273ZM119.754 23.2557C118.43 23.2557 117.286 22.9744 116.32 22.4119C115.359 21.8437 114.618 21.054 114.095 20.0426C113.572 19.0256 113.311 17.8466 113.311 16.5057C113.311 15.1534 113.572 13.9716 114.095 12.9602C114.618 11.9432 115.359 11.1534 116.32 10.5909C117.286 10.0227 118.43 9.73864 119.754 9.73864C121.078 9.73864 122.22 10.0227 123.18 10.5909C124.146 11.1534 124.891 11.9432 125.413 12.9602C125.936 13.9716 126.197 15.1534 126.197 16.5057C126.197 17.8466 125.936 19.0256 125.413 20.0426C124.891 21.054 124.146 21.8437 123.18 22.4119C122.22 22.9744 121.078 23.2557 119.754 23.2557ZM119.771 20.4432C120.374 20.4432 120.876 20.2727 121.28 19.9318C121.683 19.5852 121.987 19.1136 122.192 18.517C122.402 17.9205 122.507 17.2415 122.507 16.4801C122.507 15.7188 122.402 15.0398 122.192 14.4432C121.987 13.8466 121.683 13.375 121.28 13.0284C120.876 12.6818 120.374 12.5085 119.771 12.5085C119.163 12.5085 118.652 12.6818 118.237 13.0284C117.828 13.375 117.518 13.8466 117.308 14.4432C117.104 15.0398 117.001 15.7188 117.001 16.4801C117.001 17.2415 117.104 17.9205 117.308 18.517C117.518 19.1136 117.828 19.5852 118.237 19.9318C118.652 20.2727 119.163 20.4432 119.771 20.4432ZM134.181 23V5.54545H145.942V8.58807H137.871V12.7472H145.337V15.7898H137.871V19.9574H145.977V23H134.181ZM153.632 23.2131C152.638 23.2131 151.737 22.9574 150.93 22.446C150.129 21.929 149.493 21.1705 149.021 20.1705C148.555 19.1648 148.322 17.9318 148.322 16.4716C148.322 14.9716 148.564 13.7244 149.047 12.7301C149.53 11.7301 150.172 10.983 150.973 10.4886C151.78 9.98864 152.663 9.73864 153.624 9.73864C154.357 9.73864 154.967 9.86364 155.456 10.1136C155.95 10.358 156.348 10.6648 156.649 11.0341C156.956 11.3977 157.189 11.7557 157.348 12.108H157.459V5.54545H161.081V23H157.501V20.9034H157.348C157.178 21.267 156.936 21.6278 156.624 21.9858C156.317 22.3381 155.916 22.6307 155.422 22.8636C154.933 23.0966 154.337 23.2131 153.632 23.2131ZM154.783 20.3239C155.368 20.3239 155.862 20.1648 156.266 19.8466C156.675 19.5227 156.987 19.071 157.203 18.4915C157.425 17.9119 157.536 17.233 157.536 16.4545C157.536 15.6761 157.428 15 157.212 14.4261C156.996 13.8523 156.683 13.4091 156.274 13.0966C155.865 12.7841 155.368 12.6278 154.783 12.6278C154.186 12.6278 153.683 12.7898 153.274 13.1136C152.865 13.4375 152.555 13.8864 152.345 14.4602C152.135 15.0341 152.03 15.6989 152.03 16.4545C152.03 17.2159 152.135 17.8892 152.345 18.4744C152.561 19.054 152.871 19.5085 153.274 19.8381C153.683 20.1619 154.186 20.3239 154.783 20.3239ZM164.066 23V9.90909H167.697V23H164.066ZM165.89 8.22159C165.35 8.22159 164.887 8.04261 164.501 7.68466C164.12 7.32102 163.93 6.88636 163.93 6.38068C163.93 5.88068 164.12 5.4517 164.501 5.09375C164.887 4.73011 165.35 4.54829 165.89 4.54829C166.43 4.54829 166.89 4.73011 167.271 5.09375C167.657 5.4517 167.85 5.88068 167.85 6.38068C167.85 6.88636 167.657 7.32102 167.271 7.68466C166.89 8.04261 166.43 8.22159 165.89 8.22159ZM177.568 9.90909V12.6364H169.685V9.90909H177.568ZM171.474 6.77273H175.105V18.9773C175.105 19.3125 175.156 19.5739 175.259 19.7614C175.361 19.9432 175.503 20.071 175.685 20.1449C175.872 20.2187 176.088 20.2557 176.332 20.2557C176.503 20.2557 176.673 20.2415 176.844 20.2131C177.014 20.179 177.145 20.1534 177.236 20.1364L177.807 22.8381C177.625 22.8949 177.369 22.9602 177.04 23.0341C176.71 23.1136 176.31 23.1619 175.838 23.179C174.963 23.2131 174.196 23.0966 173.537 22.8295C172.884 22.5625 172.375 22.1477 172.011 21.5852C171.648 21.0227 171.469 20.3125 171.474 19.4545V6.77273ZM2.01705 34.5455H6.56818L11.375 46.2727H11.5795L16.3864 34.5455H20.9375V52H17.358V40.6392H17.2131L12.696 51.9148H10.2585L5.74148 40.5966H5.59659V52H2.01705V34.5455ZM29.8757 52.2557C28.5291 52.2557 27.37 51.983 26.3984 51.4375C25.4325 50.8864 24.6882 50.108 24.1655 49.1023C23.6428 48.0909 23.3814 46.8949 23.3814 45.5142C23.3814 44.1676 23.6428 42.9858 24.1655 41.9688C24.6882 40.9517 25.424 40.1591 26.3729 39.5909C27.3274 39.0227 28.4467 38.7386 29.7308 38.7386C30.5945 38.7386 31.3984 38.8778 32.1428 39.1562C32.8928 39.429 33.5462 39.8409 34.103 40.392C34.6655 40.9432 35.103 41.6364 35.4155 42.4716C35.728 43.3011 35.8842 44.2727 35.8842 45.3864V46.3835H24.8303V44.1335H32.4666C32.4666 43.6108 32.353 43.1477 32.1257 42.7443C31.8984 42.3409 31.5831 42.0256 31.1797 41.7983C30.782 41.5653 30.3189 41.4489 29.7905 41.4489C29.2393 41.4489 28.7507 41.5767 28.3246 41.8324C27.9041 42.0824 27.5746 42.4205 27.3359 42.8466C27.0973 43.267 26.9751 43.7358 26.9695 44.2528V46.392C26.9695 47.0398 27.0888 47.5994 27.3274 48.071C27.5717 48.5426 27.9155 48.9062 28.3587 49.1619C28.8018 49.4176 29.3274 49.5455 29.9354 49.5455C30.3388 49.5455 30.7081 49.4886 31.0433 49.375C31.3786 49.2614 31.6655 49.0909 31.9041 48.8636C32.1428 48.6364 32.3246 48.358 32.4496 48.0284L35.8075 48.25C35.6371 49.0568 35.2876 49.7614 34.7592 50.3636C34.2365 50.9602 33.5604 51.4261 32.7308 51.7614C31.907 52.0909 30.9553 52.2557 29.8757 52.2557ZM38.2536 52V38.9091H41.7138V41.2188H41.8672C42.1399 40.4517 42.5945 39.8466 43.2308 39.4034C43.8672 38.9602 44.6286 38.7386 45.5149 38.7386C46.4126 38.7386 47.1768 38.9631 47.8075 39.4119C48.4382 39.8551 48.8587 40.4574 49.0689 41.2188H49.2053C49.4723 40.4688 49.9553 39.8693 50.6541 39.4205C51.3587 38.9659 52.1911 38.7386 53.1513 38.7386C54.3729 38.7386 55.3643 39.1278 56.1257 39.9062C56.8928 40.679 57.2763 41.7756 57.2763 43.196V52H53.6541V43.9119C53.6541 43.1847 53.4609 42.6392 53.0746 42.2756C52.6882 41.9119 52.2053 41.7301 51.6257 41.7301C50.9666 41.7301 50.4524 41.9403 50.0831 42.3608C49.7138 42.7756 49.5291 43.3239 49.5291 44.0057V52H46.0092V43.8352C46.0092 43.1932 45.8246 42.6818 45.4553 42.3011C45.0916 41.9205 44.6115 41.7301 44.0149 41.7301C43.6115 41.7301 43.2479 41.8324 42.924 42.0369C42.6058 42.2358 42.353 42.517 42.1655 42.8807C41.978 43.2386 41.8842 43.6591 41.8842 44.142V52H38.2536ZM60.2124 52V34.5455H63.843V41.108H63.9538C64.1129 40.7557 64.343 40.3977 64.6442 40.0341C64.951 39.6648 65.3487 39.358 65.8374 39.1136C66.3317 38.8636 66.9453 38.7386 67.6783 38.7386C68.6328 38.7386 69.5135 38.9886 70.3203 39.4886C71.1271 39.983 71.772 40.7301 72.255 41.7301C72.7379 42.7244 72.9794 43.9716 72.9794 45.4716C72.9794 46.9318 72.7436 48.1648 72.272 49.1705C71.8061 50.1705 71.1697 50.929 70.3629 51.446C69.5618 51.9574 68.6641 52.2131 67.6697 52.2131C66.9652 52.2131 66.3658 52.0966 65.8714 51.8636C65.3828 51.6307 64.9822 51.3381 64.6697 50.9858C64.3572 50.6278 64.1186 50.267 63.9538 49.9034H63.7919V52H60.2124ZM63.7663 45.4545C63.7663 46.233 63.8743 46.9119 64.0902 47.4915C64.3061 48.071 64.6186 48.5227 65.0277 48.8466C65.4368 49.1648 65.9339 49.3239 66.5192 49.3239C67.1101 49.3239 67.6101 49.1619 68.0192 48.8381C68.4283 48.5085 68.7379 48.054 68.9482 47.4744C69.1641 46.8892 69.272 46.2159 69.272 45.4545C69.272 44.6989 69.1669 44.0341 68.9567 43.4602C68.7464 42.8864 68.4368 42.4375 68.0277 42.1136C67.6186 41.7898 67.1158 41.6278 66.5192 41.6278C65.9283 41.6278 65.4283 41.7841 65.0192 42.0966C64.6158 42.4091 64.3061 42.8523 64.0902 43.4261C63.8743 44 63.7663 44.6761 63.7663 45.4545ZM81.3679 52.2557C80.0213 52.2557 78.8622 51.983 77.8906 51.4375C76.9247 50.8864 76.1804 50.108 75.6577 49.1023C75.1349 48.0909 74.8736 46.8949 74.8736 45.5142C74.8736 44.1676 75.1349 42.9858 75.6577 41.9688C76.1804 40.9517 76.9162 40.1591 77.8651 39.5909C78.8196 39.0227 79.9389 38.7386 81.223 38.7386C82.0866 38.7386 82.8906 38.8778 83.6349 39.1562C84.3849 39.429 85.0384 39.8409 85.5952 40.392C86.1577 40.9432 86.5952 41.6364 86.9077 42.4716C87.2202 43.3011 87.3764 44.2727 87.3764 45.3864V46.3835H76.3224V44.1335H83.9588C83.9588 43.6108 83.8452 43.1477 83.6179 42.7443C83.3906 42.3409 83.0753 42.0256 82.6719 41.7983C82.2741 41.5653 81.8111 41.4489 81.2827 41.4489C80.7315 41.4489 80.2429 41.5767 79.8168 41.8324C79.3963 42.0824 79.0668 42.4205 78.8281 42.8466C78.5895 43.267 78.4673 43.7358 78.4616 44.2528V46.392C78.4616 47.0398 78.581 47.5994 78.8196 48.071C79.0639 48.5426 79.4077 48.9062 79.8509 49.1619C80.294 49.4176 80.8196 49.5455 81.4276 49.5455C81.831 49.5455 82.2003 49.4886 82.5355 49.375C82.8707 49.2614 83.1577 49.0909 83.3963 48.8636C83.6349 48.6364 83.8168 48.358 83.9418 48.0284L87.2997 48.25C87.1293 49.0568 86.7798 49.7614 86.2514 50.3636C85.7287 50.9602 85.0526 51.4261 84.223 51.7614C83.3991 52.0909 82.4474 52.2557 81.3679 52.2557ZM89.7457 52V38.9091H93.2656V41.1932H93.402C93.6406 40.3807 94.0412 39.767 94.6037 39.3523C95.1662 38.9318 95.8139 38.7216 96.5469 38.7216C96.7287 38.7216 96.9247 38.733 97.1349 38.7557C97.3452 38.7784 97.5298 38.8097 97.6889 38.8494V42.071C97.5185 42.0199 97.2827 41.9744 96.9815 41.9347C96.6804 41.8949 96.4048 41.875 96.1548 41.875C95.6207 41.875 95.1435 41.9915 94.723 42.2244C94.3082 42.4517 93.9787 42.7699 93.7344 43.179C93.4957 43.5881 93.3764 44.0597 93.3764 44.5938V52H89.7457ZM108.879 34.5455V52H105.189V34.5455H108.879ZM115.478 44.4318V52H111.847V38.9091H115.308V41.2188H115.461C115.751 40.4574 116.237 39.8551 116.918 39.4119C117.6 38.9631 118.427 38.7386 119.398 38.7386C120.308 38.7386 121.1 38.9375 121.776 39.3352C122.452 39.733 122.978 40.3011 123.353 41.0398C123.728 41.7727 123.915 42.6477 123.915 43.6648V52H120.285V44.3125C120.29 43.5114 120.086 42.8864 119.671 42.4375C119.256 41.983 118.685 41.7557 117.958 41.7557C117.469 41.7557 117.038 41.8608 116.663 42.071C116.293 42.2812 116.004 42.5881 115.793 42.9915C115.589 43.3892 115.484 43.8693 115.478 44.4318ZM133.817 38.9091V41.6364H125.737V38.9091H133.817ZM127.587 52V37.9631C127.587 37.0142 127.771 36.2273 128.141 35.6023C128.516 34.9773 129.027 34.5085 129.675 34.196C130.322 33.8835 131.058 33.7273 131.882 33.7273C132.439 33.7273 132.947 33.7699 133.408 33.8551C133.874 33.9403 134.22 34.017 134.447 34.0852L133.8 36.8125C133.658 36.767 133.482 36.7244 133.271 36.6847C133.067 36.6449 132.857 36.625 132.641 36.625C132.107 36.625 131.734 36.75 131.524 37C131.314 37.2443 131.209 37.5881 131.209 38.0312V52H127.587ZM141.481 52.2557C140.157 52.2557 139.012 51.9744 138.046 51.4119C137.086 50.8437 136.344 50.054 135.822 49.0426C135.299 48.0256 135.038 46.8466 135.038 45.5057C135.038 44.1534 135.299 42.9716 135.822 41.9602C136.344 40.9432 137.086 40.1534 138.046 39.5909C139.012 39.0227 140.157 38.7386 141.481 38.7386C142.805 38.7386 143.947 39.0227 144.907 39.5909C145.873 40.1534 146.617 40.9432 147.14 41.9602C147.663 42.9716 147.924 44.1534 147.924 45.5057C147.924 46.8466 147.663 48.0256 147.14 49.0426C146.617 50.054 145.873 50.8437 144.907 51.4119C143.947 51.9744 142.805 52.2557 141.481 52.2557ZM141.498 49.4432C142.1 49.4432 142.603 49.2727 143.006 48.9318C143.41 48.5852 143.714 48.1136 143.918 47.517C144.129 46.9205 144.234 46.2415 144.234 45.4801C144.234 44.7188 144.129 44.0398 143.918 43.4432C143.714 42.8466 143.41 42.375 143.006 42.0284C142.603 41.6818 142.1 41.5085 141.498 41.5085C140.89 41.5085 140.379 41.6818 139.964 42.0284C139.555 42.375 139.245 42.8466 139.035 43.4432C138.83 44.0398 138.728 44.7188 138.728 45.4801C138.728 46.2415 138.83 46.9205 139.035 47.517C139.245 48.1136 139.555 48.5852 139.964 48.9318C140.379 49.2727 140.89 49.4432 141.498 49.4432Z" fill="white"/>
</g>
<defs>
<filter id="filter0_d_143_5567" x="2.0166" y="4.54785" width="175.79" height="47.708" filterUnits="userSpaceOnUse" color-interpolation-filters="sRGB">
<feFlood flood-opacity="0" result="BackgroundImageFix"/>
<feColorMatrix in="SourceAlpha" type="matrix" values="0 0 0 0 0 0 0 0 0 0 0 0 0 0 0 0 0 0 127 0" result="hardAlpha"/>
<feOffset/>
<feComposite in2="hardAlpha" operator="out"/>
<feColorMatrix type="matrix" values="0 0 0 0 1 0 0 0 0 1 0 0 0 0 1 0 0 0 0.81 0"/>
<feBlend mode="normal" in2="BackgroundImageFix" result="effect1_dropShadow_143_5567"/>
<feBlend mode="normal" in="SourceGraphic" in2="effect1_dropShadow_143_5567" result="shape"/>
</filter>
</defs>
</svg>

