<svg width="210" height="59" viewBox="0 0 210 59" fill="none" xmlns="http://www.w3.org/2000/svg">
<g filter="url(#filter0_d_117_10793)">
<path d="M2.01705 23.5V6.04545H8.90341C10.2216 6.04545 11.3466 6.28125 12.2784 6.75284C13.2159 7.21875 13.929 7.88068 14.4176 8.73864C14.9119 9.59091 15.1591 10.5937 15.1591 11.7472C15.1591 12.9062 14.9091 13.9034 14.4091 14.7386C13.9091 15.5682 13.1847 16.2045 12.2358 16.6477C11.2926 17.0909 10.1506 17.3125 8.80966 17.3125H4.19886V14.3466H8.21307C8.91761 14.3466 9.50284 14.25 9.96875 14.0568C10.4347 13.8636 10.7813 13.5739 11.0085 13.1875C11.2415 12.8011 11.358 12.321 11.358 11.7472C11.358 11.1676 11.2415 10.679 11.0085 10.2812C10.7813 9.88352 10.4318 9.58239 9.96023 9.37784C9.49432 9.16761 8.90625 9.0625 8.19602 9.0625H5.70739V23.5H2.01705ZM11.4432 15.5568L15.7812 23.5H11.7074L7.46307 15.5568H11.4432ZM23.4538 23.7557C22.1072 23.7557 20.9482 23.483 19.9766 22.9375C19.0107 22.3864 18.2663 21.608 17.7436 20.6023C17.2209 19.5909 16.9595 18.3949 16.9595 17.0142C16.9595 15.6676 17.2209 14.4858 17.7436 13.4688C18.2663 12.4517 19.0021 11.6591 19.951 11.0909C20.9055 10.5227 22.0249 10.2386 23.3089 10.2386C24.1726 10.2386 24.9766 10.3778 25.7209 10.6562C26.4709 10.929 27.1243 11.3409 27.6811 11.892C28.2436 12.4432 28.6811 13.1364 28.9936 13.9716C29.3061 14.8011 29.4624 15.7727 29.4624 16.8864V17.8835H18.4084V15.6335H26.0447C26.0447 15.1108 25.9311 14.6477 25.7038 14.2443C25.4766 13.8409 25.1612 13.5256 24.7578 13.2983C24.3601 13.0653 23.897 12.9489 23.3686 12.9489C22.8175 12.9489 22.3288 13.0767 21.9027 13.3324C21.4822 13.5824 21.1527 13.9205 20.9141 14.3466C20.6754 14.767 20.5533 15.2358 20.5476 15.7528V17.892C20.5476 18.5398 20.6669 19.0994 20.9055 19.571C21.1499 20.0426 21.4936 20.4062 21.9368 20.6619C22.38 20.9176 22.9055 21.0455 23.5135 21.0455C23.9169 21.0455 24.2862 20.9886 24.6214 20.875C24.9567 20.7614 25.2436 20.5909 25.4822 20.3636C25.7209 20.1364 25.9027 19.858 26.0277 19.5284L29.3857 19.75C29.2152 20.5568 28.8658 21.2614 28.3374 21.8636C27.8146 22.4602 27.1385 22.9261 26.3089 23.2614C25.4851 23.5909 24.5334 23.7557 23.4538 23.7557ZM40.4822 28.4091V21.4034H40.3714C40.201 21.767 39.9595 22.1278 39.647 22.4858C39.3402 22.8381 38.9396 23.1307 38.4453 23.3636C37.9567 23.5966 37.3601 23.7131 36.6555 23.7131C35.6612 23.7131 34.7607 23.4574 33.9538 22.946C33.1527 22.429 32.5163 21.6705 32.0447 20.6705C31.5788 19.6648 31.3459 18.4318 31.3459 16.9716C31.3459 15.4716 31.5874 14.2244 32.0703 13.2301C32.5533 12.2301 33.1953 11.483 33.9964 10.9886C34.8033 10.4886 35.6868 10.2386 36.647 10.2386C37.38 10.2386 37.9908 10.3636 38.4794 10.6136C38.9737 10.858 39.3714 11.1648 39.6726 11.5341C39.9794 11.8977 40.2124 12.2557 40.3714 12.608H40.5249V10.4091H44.1044V28.4091H40.4822ZM37.8061 20.8239C38.3913 20.8239 38.8857 20.6648 39.2891 20.3466C39.6982 20.0227 40.0107 19.571 40.2266 18.9915C40.4482 18.4119 40.5589 17.733 40.5589 16.9545C40.5589 16.1761 40.451 15.5 40.2351 14.9261C40.0192 14.3523 39.7067 13.9091 39.2976 13.5966C38.8885 13.2841 38.3913 13.1278 37.8061 13.1278C37.2095 13.1278 36.7067 13.2898 36.2976 13.6136C35.8885 13.9375 35.5788 14.3864 35.3686 14.9602C35.1584 15.5341 35.0533 16.1989 35.0533 16.9545C35.0533 17.7159 35.1584 18.3892 35.3686 18.9744C35.5845 19.554 35.8942 20.0085 36.2976 20.3381C36.7067 20.6619 37.2095 20.8239 37.8061 20.8239ZM55.4141 17.9261V10.4091H59.0447V23.5H55.5589V21.1222H55.4226C55.1271 21.8892 54.6357 22.5057 53.9482 22.9716C53.2663 23.4375 52.4339 23.6705 51.451 23.6705C50.576 23.6705 49.8061 23.4716 49.1413 23.0739C48.4766 22.6761 47.9567 22.1108 47.5817 21.3778C47.2124 20.6449 47.0249 19.767 47.0192 18.7443V10.4091H50.6499V18.0966C50.6555 18.8693 50.8629 19.4801 51.272 19.929C51.6811 20.3778 52.2294 20.6023 52.9169 20.6023C53.3544 20.6023 53.7635 20.5028 54.1442 20.304C54.5249 20.0994 54.8317 19.7983 55.0646 19.4006C55.3033 19.0028 55.4197 18.5114 55.4141 17.9261ZM67.9148 23.7557C66.5682 23.7557 65.4091 23.483 64.4375 22.9375C63.4716 22.3864 62.7273 21.608 62.2045 20.6023C61.6818 19.5909 61.4205 18.3949 61.4205 17.0142C61.4205 15.6676 61.6818 14.4858 62.2045 13.4688C62.7273 12.4517 63.4631 11.6591 64.4119 11.0909C65.3665 10.5227 66.4858 10.2386 67.7699 10.2386C68.6335 10.2386 69.4375 10.3778 70.1818 10.6562C70.9318 10.929 71.5852 11.3409 72.142 11.892C72.7045 12.4432 73.142 13.1364 73.4545 13.9716C73.767 14.8011 73.9233 15.7727 73.9233 16.8864V17.8835H62.8693V15.6335H70.5057C70.5057 15.1108 70.392 14.6477 70.1648 14.2443C69.9375 13.8409 69.6222 13.5256 69.2188 13.2983C68.821 13.0653 68.358 12.9489 67.8295 12.9489C67.2784 12.9489 66.7898 13.0767 66.3636 13.3324C65.9432 13.5824 65.6136 13.9205 65.375 14.3466C65.1364 14.767 65.0142 15.2358 65.0085 15.7528V17.892C65.0085 18.5398 65.1278 19.0994 65.3665 19.571C65.6108 20.0426 65.9545 20.4062 66.3977 20.6619C66.8409 20.9176 67.3665 21.0455 67.9744 21.0455C68.3778 21.0455 68.7472 20.9886 69.0824 20.875C69.4176 20.7614 69.7045 20.5909 69.9432 20.3636C70.1818 20.1364 70.3636 19.858 70.4886 19.5284L73.8466 19.75C73.6761 20.5568 73.3267 21.2614 72.7983 21.8636C72.2756 22.4602 71.5994 22.9261 70.7699 23.2614C69.946 23.5909 68.9943 23.7557 67.9148 23.7557ZM87.1847 14.142L83.8608 14.3466C83.804 14.0625 83.6818 13.8068 83.4943 13.5795C83.3068 13.3466 83.0597 13.1619 82.7528 13.0256C82.4517 12.8835 82.0909 12.8125 81.6705 12.8125C81.108 12.8125 80.6335 12.9318 80.2472 13.1705C79.8608 13.4034 79.6676 13.7159 79.6676 14.108C79.6676 14.4205 79.7926 14.6847 80.0426 14.9006C80.2926 15.1165 80.7216 15.2898 81.3295 15.4205L83.6989 15.8977C84.9716 16.1591 85.9205 16.5795 86.5455 17.1591C87.1705 17.7386 87.483 18.5 87.483 19.4432C87.483 20.3011 87.2301 21.054 86.7244 21.7017C86.2244 22.3494 85.5369 22.8551 84.6619 23.2188C83.7926 23.5767 82.7898 23.7557 81.6534 23.7557C79.9205 23.7557 78.5398 23.3949 77.5114 22.6733C76.4886 21.946 75.8892 20.9574 75.7131 19.7074L79.2841 19.5199C79.392 20.0483 79.6534 20.4517 80.0682 20.7301C80.483 21.0028 81.0142 21.1392 81.6619 21.1392C82.2983 21.1392 82.8097 21.017 83.196 20.7727C83.5881 20.5227 83.7869 20.2017 83.7926 19.8097C83.7869 19.4801 83.6477 19.2102 83.375 19C83.1023 18.7841 82.6818 18.6193 82.1136 18.5057L79.8466 18.054C78.5682 17.7983 77.6165 17.3551 76.9915 16.7244C76.3722 16.0937 76.0625 15.2898 76.0625 14.3125C76.0625 13.4716 76.2898 12.7472 76.7443 12.1392C77.2045 11.5312 77.8494 11.0625 78.679 10.733C79.5142 10.4034 80.4915 10.2386 81.6108 10.2386C83.2642 10.2386 84.5653 10.5881 85.5142 11.2869C86.4688 11.9858 87.0256 12.9375 87.1847 14.142ZM96.7322 10.4091V13.1364H88.8487V10.4091H96.7322ZM90.6385 7.27273H94.2692V19.4773C94.2692 19.8125 94.3203 20.0739 94.4226 20.2614C94.5249 20.4432 94.6669 20.571 94.8487 20.6449C95.0362 20.7187 95.2521 20.7557 95.4964 20.7557C95.6669 20.7557 95.8374 20.7415 96.0078 20.7131C96.1783 20.679 96.3089 20.6534 96.3999 20.6364L96.9709 23.3381C96.7891 23.3949 96.5334 23.4602 96.2038 23.5341C95.8743 23.6136 95.4737 23.6619 95.0021 23.679C94.1271 23.7131 93.3601 23.5966 92.701 23.3295C92.0476 23.0625 91.5391 22.6477 91.1754 22.0852C90.8118 21.5227 90.6328 20.8125 90.6385 19.9545V7.27273ZM111.615 10.4091V13.1364H103.732V10.4091H111.615ZM105.521 7.27273H109.152V19.4773C109.152 19.8125 109.203 20.0739 109.305 20.2614C109.408 20.4432 109.55 20.571 109.732 20.6449C109.919 20.7187 110.135 20.7557 110.379 20.7557C110.55 20.7557 110.72 20.7415 110.891 20.7131C111.061 20.679 111.192 20.6534 111.283 20.6364L111.854 23.3381C111.672 23.3949 111.416 23.4602 111.087 23.5341C110.757 23.6136 110.357 23.6619 109.885 23.679C109.01 23.7131 108.243 23.5966 107.584 23.3295C106.93 23.0625 106.422 22.6477 106.058 22.0852C105.695 21.5227 105.516 20.8125 105.521 19.9545V7.27273ZM119.754 23.7557C118.43 23.7557 117.286 23.4744 116.32 22.9119C115.359 22.3437 114.618 21.554 114.095 20.5426C113.572 19.5256 113.311 18.3466 113.311 17.0057C113.311 15.6534 113.572 14.4716 114.095 13.4602C114.618 12.4432 115.359 11.6534 116.32 11.0909C117.286 10.5227 118.43 10.2386 119.754 10.2386C121.078 10.2386 122.22 10.5227 123.18 11.0909C124.146 11.6534 124.891 12.4432 125.413 13.4602C125.936 14.4716 126.197 15.6534 126.197 17.0057C126.197 18.3466 125.936 19.5256 125.413 20.5426C124.891 21.554 124.146 22.3437 123.18 22.9119C122.22 23.4744 121.078 23.7557 119.754 23.7557ZM119.771 20.9432C120.374 20.9432 120.876 20.7727 121.28 20.4318C121.683 20.0852 121.987 19.6136 122.192 19.017C122.402 18.4205 122.507 17.7415 122.507 16.9801C122.507 16.2188 122.402 15.5398 122.192 14.9432C121.987 14.3466 121.683 13.875 121.28 13.5284C120.876 13.1818 120.374 13.0085 119.771 13.0085C119.163 13.0085 118.652 13.1818 118.237 13.5284C117.828 13.875 117.518 14.3466 117.308 14.9432C117.104 15.5398 117.001 16.2188 117.001 16.9801C117.001 17.7415 117.104 18.4205 117.308 19.017C117.518 19.6136 117.828 20.0852 118.237 20.4318C118.652 20.7727 119.163 20.9432 119.771 20.9432ZM134.181 23.5V6.04545H145.942V9.08807H137.871V13.2472H145.337V16.2898H137.871V20.4574H145.977V23.5H134.181ZM153.632 23.7131C152.638 23.7131 151.737 23.4574 150.93 22.946C150.129 22.429 149.493 21.6705 149.021 20.6705C148.555 19.6648 148.322 18.4318 148.322 16.9716C148.322 15.4716 148.564 14.2244 149.047 13.2301C149.53 12.2301 150.172 11.483 150.973 10.9886C151.78 10.4886 152.663 10.2386 153.624 10.2386C154.357 10.2386 154.967 10.3636 155.456 10.6136C155.95 10.858 156.348 11.1648 156.649 11.5341C156.956 11.8977 157.189 12.2557 157.348 12.608H157.459V6.04545H161.081V23.5H157.501V21.4034H157.348C157.178 21.767 156.936 22.1278 156.624 22.4858C156.317 22.8381 155.916 23.1307 155.422 23.3636C154.933 23.5966 154.337 23.7131 153.632 23.7131ZM154.783 20.8239C155.368 20.8239 155.862 20.6648 156.266 20.3466C156.675 20.0227 156.987 19.571 157.203 18.9915C157.425 18.4119 157.536 17.733 157.536 16.9545C157.536 16.1761 157.428 15.5 157.212 14.9261C156.996 14.3523 156.683 13.9091 156.274 13.5966C155.865 13.2841 155.368 13.1278 154.783 13.1278C154.186 13.1278 153.683 13.2898 153.274 13.6136C152.865 13.9375 152.555 14.3864 152.345 14.9602C152.135 15.5341 152.03 16.1989 152.03 16.9545C152.03 17.7159 152.135 18.3892 152.345 18.9744C152.561 19.554 152.871 20.0085 153.274 20.3381C153.683 20.6619 154.186 20.8239 154.783 20.8239ZM164.066 23.5V10.4091H167.697V23.5H164.066ZM165.89 8.72159C165.35 8.72159 164.887 8.54261 164.501 8.18466C164.12 7.82102 163.93 7.38636 163.93 6.88068C163.93 6.38068 164.12 5.9517 164.501 5.59375C164.887 5.23011 165.35 5.04829 165.89 5.04829C166.43 5.04829 166.89 5.23011 167.271 5.59375C167.657 5.9517 167.85 6.38068 167.85 6.88068C167.85 7.38636 167.657 7.82102 167.271 8.18466C166.89 8.54261 166.43 8.72159 165.89 8.72159ZM177.568 10.4091V13.1364H169.685V10.4091H177.568ZM171.474 7.27273H175.105V19.4773C175.105 19.8125 175.156 20.0739 175.259 20.2614C175.361 20.4432 175.503 20.571 175.685 20.6449C175.872 20.7187 176.088 20.7557 176.332 20.7557C176.503 20.7557 176.673 20.7415 176.844 20.7131C177.014 20.679 177.145 20.6534 177.236 20.6364L177.807 23.3381C177.625 23.3949 177.369 23.4602 177.04 23.5341C176.71 23.6136 176.31 23.6619 175.838 23.679C174.963 23.7131 174.196 23.5966 173.537 23.3295C172.884 23.0625 172.375 22.6477 172.011 22.0852C171.648 21.5227 171.469 20.8125 171.474 19.9545V7.27273ZM1.35227 38.0881V35.0455H15.6875V38.0881H10.3438V52.5H6.69602V38.0881H1.35227ZM22.0476 52.7557C20.701 52.7557 19.5419 52.483 18.5703 51.9375C17.6044 51.3864 16.8601 50.608 16.3374 49.6023C15.8146 48.5909 15.5533 47.3949 15.5533 46.0142C15.5533 44.6676 15.8146 43.4858 16.3374 42.4688C16.8601 41.4517 17.5959 40.6591 18.5447 40.0909C19.4993 39.5227 20.6186 39.2386 21.9027 39.2386C22.7663 39.2386 23.5703 39.3778 24.3146 39.6562C25.0646 39.929 25.718 40.3409 26.2749 40.892C26.8374 41.4432 27.2749 42.1364 27.5874 42.9716C27.8999 43.8011 28.0561 44.7727 28.0561 45.8864V46.8835H17.0021V44.6335H24.6385C24.6385 44.1108 24.5249 43.6477 24.2976 43.2443C24.0703 42.8409 23.755 42.5256 23.3516 42.2983C22.9538 42.0653 22.4908 41.9489 21.9624 41.9489C21.4112 41.9489 20.9226 42.0767 20.4964 42.3324C20.076 42.5824 19.7464 42.9205 19.5078 43.3466C19.2692 43.767 19.147 44.2358 19.1413 44.7528V46.892C19.1413 47.5398 19.2607 48.0994 19.4993 48.571C19.7436 49.0426 20.0874 49.4062 20.5305 49.6619C20.9737 49.9176 21.4993 50.0455 22.1072 50.0455C22.5107 50.0455 22.88 49.9886 23.2152 49.875C23.5504 49.7614 23.8374 49.5909 24.076 49.3636C24.3146 49.1364 24.4964 48.858 24.6214 48.5284L27.9794 48.75C27.8089 49.5568 27.4595 50.2614 26.9311 50.8636C26.4084 51.4602 25.7322 51.9261 24.9027 52.2614C24.0788 52.5909 23.1271 52.7557 22.0476 52.7557ZM34.1584 52.7472C33.3232 52.7472 32.5788 52.6023 31.9254 52.3125C31.272 52.017 30.755 51.5824 30.3743 51.0085C29.9993 50.429 29.8118 49.7074 29.8118 48.8438C29.8118 48.1165 29.9453 47.5057 30.2124 47.0114C30.4794 46.517 30.843 46.1193 31.3033 45.8182C31.7635 45.517 32.2862 45.2898 32.8714 45.1364C33.4624 44.983 34.0817 44.875 34.7294 44.8125C35.4908 44.733 36.1044 44.6591 36.5703 44.5909C37.0362 44.517 37.3743 44.4091 37.5845 44.267C37.7947 44.125 37.8999 43.9148 37.8999 43.6364V43.5852C37.8999 43.0455 37.7294 42.6278 37.3885 42.3324C37.0533 42.0369 36.576 41.8892 35.9567 41.8892C35.3033 41.8892 34.7834 42.0341 34.397 42.3239C34.0107 42.608 33.755 42.9659 33.63 43.3977L30.272 43.125C30.4425 42.3295 30.7777 41.642 31.2777 41.0625C31.7777 40.4773 32.4226 40.0284 33.2124 39.7159C34.0078 39.3977 34.9283 39.2386 35.9737 39.2386C36.701 39.2386 37.397 39.3239 38.0618 39.4943C38.7322 39.6648 39.326 39.929 39.843 40.2869C40.3658 40.6449 40.7777 41.1051 41.0788 41.6676C41.38 42.2244 41.5305 42.892 41.5305 43.6705V52.5H38.0874V50.6847H37.9851C37.7749 51.0938 37.4936 51.4545 37.1413 51.767C36.7891 52.0739 36.3658 52.3153 35.8714 52.4915C35.3771 52.6619 34.8061 52.7472 34.1584 52.7472ZM35.1982 50.2415C35.7322 50.2415 36.2038 50.1364 36.6129 49.9261C37.022 49.7102 37.343 49.4205 37.576 49.0568C37.8089 48.6932 37.9254 48.2812 37.9254 47.821V46.4318C37.8118 46.5057 37.6555 46.5739 37.4567 46.6364C37.2635 46.6932 37.0447 46.7472 36.8004 46.7983C36.5561 46.8437 36.3118 46.8864 36.0675 46.9261C35.8232 46.9602 35.6016 46.9915 35.4027 47.0199C34.9766 47.0824 34.6044 47.1818 34.2862 47.3182C33.968 47.4545 33.7209 47.6392 33.5447 47.8722C33.3686 48.0994 33.2805 48.3835 33.2805 48.7244C33.2805 49.2188 33.4595 49.5966 33.8175 49.858C34.1811 50.1136 34.6413 50.2415 35.1982 50.2415ZM44.3473 52.5V39.4091H47.8075V41.7188H47.9609C48.2337 40.9517 48.6882 40.3466 49.3246 39.9034C49.9609 39.4602 50.7223 39.2386 51.6087 39.2386C52.5064 39.2386 53.2706 39.4631 53.9013 39.9119C54.532 40.3551 54.9524 40.9574 55.1626 41.7188H55.299C55.5661 40.9688 56.049 40.3693 56.7479 39.9205C57.4524 39.4659 58.2848 39.2386 59.245 39.2386C60.4666 39.2386 61.4581 39.6278 62.2195 40.4062C62.9865 41.179 63.37 42.2756 63.37 43.696V52.5H59.7479V44.4119C59.7479 43.6847 59.5547 43.1392 59.1683 42.7756C58.782 42.4119 58.299 42.2301 57.7195 42.2301C57.0604 42.2301 56.5462 42.4403 56.1768 42.8608C55.8075 43.2756 55.6229 43.8239 55.6229 44.5057V52.5H52.103V44.3352C52.103 43.6932 51.9183 43.1818 51.549 42.8011C51.1854 42.4205 50.7053 42.2301 50.1087 42.2301C49.7053 42.2301 49.3416 42.3324 49.0178 42.5369C48.6996 42.7358 48.4467 43.017 48.2592 43.3807C48.0717 43.7386 47.978 44.1591 47.978 44.642V52.5H44.3473ZM75.5511 35.0455V52.5H71.8608V35.0455H75.5511ZM82.1499 44.9318V52.5H78.5192V39.4091H81.9794V41.7188H82.1328C82.4226 40.9574 82.9084 40.3551 83.5902 39.9119C84.272 39.4631 85.0987 39.2386 86.0703 39.2386C86.9794 39.2386 87.772 39.4375 88.4482 39.8352C89.1243 40.233 89.6499 40.8011 90.0249 41.5398C90.3999 42.2727 90.5874 43.1477 90.5874 44.1648V52.5H86.9567V44.8125C86.9624 44.0114 86.7578 43.3864 86.343 42.9375C85.9283 42.483 85.3572 42.2557 84.63 42.2557C84.1413 42.2557 83.7095 42.3608 83.3345 42.571C82.9652 42.7812 82.6754 43.0881 82.4652 43.4915C82.2607 43.8892 82.1555 44.3693 82.1499 44.9318ZM100.489 39.4091V42.1364H92.4091V39.4091H100.489ZM94.2585 52.5V38.4631C94.2585 37.5142 94.4432 36.7273 94.8125 36.1023C95.1875 35.4773 95.6989 35.0085 96.3466 34.696C96.9943 34.3835 97.7301 34.2273 98.554 34.2273C99.1108 34.2273 99.6193 34.2699 100.08 34.3551C100.545 34.4403 100.892 34.517 101.119 34.5852L100.472 37.3125C100.33 37.267 100.153 37.2244 99.9432 37.1847C99.7386 37.1449 99.5284 37.125 99.3125 37.125C98.7784 37.125 98.4062 37.25 98.196 37.5C97.9858 37.7443 97.8807 38.0881 97.8807 38.5312V52.5H94.2585ZM108.153 52.7557C106.829 52.7557 105.684 52.4744 104.718 51.9119C103.758 51.3437 103.016 50.554 102.494 49.5426C101.971 48.5256 101.71 47.3466 101.71 46.0057C101.71 44.6534 101.971 43.4716 102.494 42.4602C103.016 41.4432 103.758 40.6534 104.718 40.0909C105.684 39.5227 106.829 39.2386 108.153 39.2386C109.477 39.2386 110.619 39.5227 111.579 40.0909C112.545 40.6534 113.289 41.4432 113.812 42.4602C114.335 43.4716 114.596 44.6534 114.596 46.0057C114.596 47.3466 114.335 48.5256 113.812 49.5426C113.289 50.554 112.545 51.3437 111.579 51.9119C110.619 52.4744 109.477 52.7557 108.153 52.7557ZM108.17 49.9432C108.772 49.9432 109.275 49.7727 109.678 49.4318C110.082 49.0852 110.386 48.6136 110.59 48.017C110.8 47.4205 110.906 46.7415 110.906 45.9801C110.906 45.2188 110.8 44.5398 110.59 43.9432C110.386 43.3466 110.082 42.875 109.678 42.5284C109.275 42.1818 108.772 42.0085 108.17 42.0085C107.562 42.0085 107.05 42.1818 106.636 42.5284C106.227 42.875 105.917 43.3466 105.707 43.9432C105.502 44.5398 105.4 45.2188 105.4 45.9801C105.4 46.7415 105.502 47.4205 105.707 48.017C105.917 48.6136 106.227 49.0852 106.636 49.4318C107.05 49.7727 107.562 49.9432 108.17 49.9432Z" fill="white"/>
</g>
<defs>
<filter id="filter0_d_117_10793" x="1.35254" y="5.04834" width="176.454" height="47.7075" filterUnits="userSpaceOnUse" color-interpolation-filters="sRGB">
<feFlood flood-opacity="0" result="BackgroundImageFix"/>
<feColorMatrix in="SourceAlpha" type="matrix" values="0 0 0 0 0 0 0 0 0 0 0 0 0 0 0 0 0 0 127 0" result="hardAlpha"/>
<feOffset/>
<feComposite in2="hardAlpha" operator="out"/>
<feColorMatrix type="matrix" values="0 0 0 0 1 0 0 0 0 1 0 0 0 0 1 0 0 0 0.81 0"/>
<feBlend mode="normal" in2="BackgroundImageFix" result="effect1_dropShadow_117_10793"/>
<feBlend mode="normal" in="SourceGraphic" in2="effect1_dropShadow_117_10793" result="shape"/>
</filter>
</defs>
</svg>

