<svg width="209" height="48" viewBox="0 0 209 48" fill="none" xmlns="http://www.w3.org/2000/svg">
<path fill-rule="evenodd" clip-rule="evenodd" d="M21.8666 30.673L15.2853 26.8889C15.1067 26.7611 14.8772 26.8889 14.8772 27.119V34.6872C14.8772 34.8918 14.9792 35.0708 15.1578 35.173L21.739 38.9571C21.9176 39.0594 22.1472 38.9316 22.1472 38.727V31.1588C22.1472 30.9543 22.0451 30.7753 21.8666 30.673ZM22.1727 21.0849L22.1472 28.7554C22.1472 28.9344 21.9686 28.9855 21.841 28.9344L13.8058 24.3321C13.6272 24.2298 13.3977 24.3576 13.3977 24.5622V33.6389C13.3977 33.8435 13.1426 33.9969 12.9895 33.869L6.40828 30.1361C6.22972 30.0338 6.12769 29.8548 6.12769 29.6503V12.0337C6.12769 11.8292 6.38277 11.6758 6.53583 11.8036L21.8666 20.548C22.0451 20.7014 22.1727 20.8803 22.1727 21.0849ZM39.1104 11.957L32.6057 15.6644C32.4272 15.7667 32.3251 15.9457 32.2996 16.1502L32.3251 25.5338C32.3251 25.7383 32.2231 25.9173 32.0445 26.0196L23.9072 30.6986C23.7287 30.8009 23.6267 30.9798 23.6267 31.1844V38.727C23.6267 38.9316 23.8562 39.085 24.0348 38.9571L39.238 30.2639C39.4165 30.1616 39.5186 29.9827 39.5186 29.7781V12.2127C39.5186 11.9826 39.289 11.8547 39.1104 11.957ZM23.6267 21.1105V28.6531C23.6267 28.8577 23.8562 29.0111 24.0348 28.8832L30.6926 25.0736C30.7691 25.048 30.8201 24.9457 30.8201 24.8434V17.1729C30.8201 16.9684 30.5905 16.815 30.412 16.9428L23.9072 20.6502C23.7287 20.7269 23.6267 20.9059 23.6267 21.1105ZM7.37761 9.93712L13.8568 6.20415C14.0354 6.12744 14.2395 6.12744 14.4435 6.20415L29.7742 14.9485C29.9528 15.0508 29.9528 15.332 29.7742 15.4343L23.2695 19.1673C23.091 19.2695 22.8869 19.2695 22.7083 19.1673L7.37761 10.4229C7.22456 10.3206 7.22456 10.0394 7.37761 9.93712ZM24.7745 9.93712L31.3303 6.20415C31.5088 6.10187 31.7129 6.10187 31.8915 6.20415L38.4982 9.98826C38.6768 10.0905 38.6768 10.3718 38.4982 10.4741L31.9425 14.207C31.7639 14.3093 31.5599 14.3093 31.3813 14.207L24.7745 10.4229C24.596 10.3206 24.596 10.0394 24.7745 9.93712ZM55.997 13.2101H58.0632C59.6192 13.2101 60.8436 12.8266 60.8436 11.1391C60.8436 9.0425 59.2621 8.86351 57.8846 8.86351H55.997V13.2101ZM63.42 11.1135C63.42 14.3607 60.8181 15.1533 57.9101 15.1533H55.997V19.6278H53.4971V6.92033H57.8336C60.4355 6.92033 63.42 7.27828 63.42 11.1135ZM66.66 14.6673C66.66 12.9031 67.4253 12.4684 68.6242 12.4684C68.8061 12.4684 68.9747 12.4751 69.1402 12.4816C69.2997 12.4878 69.4563 12.494 69.619 12.494V10.2184C69.5263 10.2184 69.4267 10.2115 69.331 10.2049C69.2423 10.1988 69.1569 10.1929 69.0834 10.1929C68.012 10.1929 67.1447 10.6786 66.609 11.8292V10.1929H64.2367V19.602H66.66V14.6673ZM74.7971 17.9657C76.1236 17.9657 77.0674 16.8918 77.0674 14.9231C77.0674 12.9543 76.1236 11.8804 74.7971 11.8804C73.4707 11.8804 72.5268 12.9543 72.5268 14.9231C72.5013 16.8918 73.4452 17.9657 74.7971 17.9657ZM74.7971 9.9884C77.1694 9.9884 79.5162 11.6248 79.5162 14.9231C79.5162 18.247 77.1694 19.8578 74.7971 19.8578C72.4248 19.8578 70.078 18.247 70.078 14.9231C70.0525 11.5992 72.3993 9.9884 74.7971 9.9884ZM83.6229 10.193V7.63617H81.2251V10.193H79.8986V11.8805H81.2251V17.0964C81.2251 18.9629 81.6588 19.6277 83.8015 19.6277H85.5616V17.8891H84.8218C83.9545 17.8891 83.6229 17.7101 83.6229 16.7385V11.8549H85.5871V10.193H83.6229ZM91.0462 17.9657C92.3727 17.9657 93.3165 16.8918 93.3165 14.9231C93.3165 12.9543 92.3727 11.8804 91.0462 11.8804C89.7198 11.8804 88.776 12.9543 88.776 14.9231C88.776 16.8918 89.7198 17.9657 91.0462 17.9657ZM91.0462 9.9884C93.4186 9.9884 95.7654 11.6248 95.7654 14.9231C95.7654 18.247 93.4186 19.8578 91.0462 19.8578C88.6739 19.8578 86.3271 18.247 86.3271 14.9231C86.3271 11.5992 88.6739 9.9884 91.0462 9.9884ZM101.377 11.8549C102.295 11.8549 103.163 12.5197 103.341 13.4145H105.663C105.357 11.0878 103.367 9.9884 101.403 9.9884C98.5967 9.9884 96.6836 12.085 96.6836 14.9231C96.6836 17.7612 98.4947 19.8578 101.301 19.8578C103.239 19.8578 105.203 19.014 105.765 16.4316H103.443C103.112 17.5822 102.219 17.9913 101.403 17.9913C100.076 17.9913 99.1324 16.8663 99.1324 14.8975C99.1324 12.9287 100.127 11.8549 101.377 11.8549ZM111.173 17.9657C112.499 17.9657 113.443 16.8918 113.443 14.9231C113.443 12.9543 112.499 11.8804 111.173 11.8804C109.846 11.8804 108.902 12.9543 108.902 14.9231C108.902 16.8918 109.846 17.9657 111.173 17.9657ZM111.173 9.9884C113.545 9.9884 115.892 11.6248 115.892 14.9231C115.892 18.247 113.545 19.8578 111.173 19.8578C108.8 19.8578 106.454 18.247 106.454 14.9231C106.454 11.5992 108.8 9.9884 111.173 9.9884ZM117.269 6.92033V19.6278H119.692V6.92033H117.269ZM134.181 17.5823V19.6278H125.508V6.92033H128.008V17.5823H134.181ZM138.926 18.2214C137.829 18.2214 137.294 17.6589 137.294 16.9686C137.294 15.8947 138.365 15.5879 141.069 15.3066V16.0225C141.069 17.4032 140.431 18.2214 138.926 18.2214ZM140.992 13.747C137.294 14.1816 134.794 14.8464 134.794 17.0708C134.794 18.8095 136.401 19.8578 138.212 19.8578C139.64 19.8578 140.635 19.4231 141.298 18.4515C141.324 18.9118 141.375 19.3209 141.451 19.6277H143.671C143.492 18.8351 143.39 17.9913 143.39 16.5083C143.39 15.963 143.4 15.2768 143.408 14.7653V14.7648V14.7642V14.7633V14.7623V14.761L143.408 14.7593L143.408 14.7384C143.412 14.4472 143.416 14.2159 143.416 14.1049C143.416 10.9089 141.604 9.93728 139.36 9.93728C136.936 9.93728 135.406 11.2924 135.227 13.1589H137.472C137.523 12.1106 138.314 11.6248 139.232 11.6248C140.202 11.6248 140.992 12.1362 140.992 13.5935V13.747ZM149.767 11.8294C148.441 11.8294 147.574 13.0056 147.574 14.8976C147.574 16.7897 148.441 17.9914 149.767 17.9914C151.017 17.9914 151.91 16.7641 151.91 14.9232C151.936 13.0823 151.017 11.8294 149.767 11.8294ZM145.252 6.92033H147.676V11.4203C148.186 10.551 149.206 9.98852 150.379 9.98852C152.65 9.98852 154.461 11.9573 154.461 14.9232C154.461 17.8891 152.599 19.8579 150.379 19.8579C149.41 19.8579 148.262 19.4744 147.676 18.4261V19.6278H145.252V6.92033ZM157.675 12.5964C157.675 12.0083 158.313 11.6759 159.206 11.6759C160.303 11.6759 161.043 12.2384 161.247 13.0311H163.491C163.16 10.8577 161.374 9.93729 159.333 9.93729C157.293 9.93729 155.482 11.0367 155.482 12.7498C155.482 14.4629 156.655 15.2044 158.415 15.5623L159.818 15.8691C160.609 16.0481 161.349 16.3294 161.349 17.0197C161.349 17.7101 160.66 18.0936 159.64 18.0936C158.39 18.0936 157.752 17.4288 157.599 16.5083H155.278C155.507 18.6561 157.242 19.8578 159.563 19.8578C161.706 19.8578 163.644 18.7583 163.644 16.8152C163.644 14.872 162.037 14.3862 160.175 13.9771L158.925 13.6958C158.033 13.4913 157.675 13.1078 157.675 12.5964ZM55.8439 28.2952V38.0111H53.4971V25.2781H56.7367L61.813 34.9941V25.2781H64.1853V38.0111H60.9202L55.8439 28.2952ZM70.3075 30.1362C71.3278 30.1362 72.4502 30.6987 72.5012 32.284H68.0372C68.2158 30.7243 69.3892 30.1362 70.3075 30.1362ZM72.3482 35.2499C71.8635 36.0936 71.1238 36.3493 70.384 36.3493C69.2616 36.3493 68.1392 35.5567 67.9862 33.9459H74.9245C75.0266 30.5965 73.0879 28.3464 70.3075 28.3464C67.527 28.3464 65.5884 30.5197 65.5884 33.23C65.5884 35.9658 67.3485 38.2158 70.384 38.2158C72.9349 38.2158 74.3123 36.6561 74.8225 35.2499H72.3482ZM79.0827 25.994V28.5508H81.0468V30.2127H79.0827V35.0963C79.0827 36.0679 79.4143 36.2469 80.2816 36.2469H81.0213V37.9855H79.2612C77.1185 37.9855 76.6848 37.3207 76.6848 35.4542V30.2383H75.3584V28.5764H76.6848V26.0195L79.0827 25.994ZM90.5107 35.0709L89.0312 28.5766H86.4548L85.0008 35.0965L83.7254 28.5766H81.3275L83.5468 38.0113H86.0211L87.7557 30.8521L89.4648 38.0113H91.9647L94.1839 28.5766H91.7861L90.5107 35.0709ZM99.2599 36.3238C100.586 36.3238 101.53 35.2499 101.53 33.2811C101.53 31.3124 100.586 30.2385 99.2599 30.2385C97.9334 30.2385 96.9896 31.3124 96.9896 33.2811C96.9896 35.2754 97.9334 36.3238 99.2599 36.3238ZM99.2599 28.3464C101.632 28.3464 103.979 29.9828 103.979 33.2811C103.979 36.605 101.632 38.2158 99.2599 38.2158C96.8876 38.2158 94.5407 36.605 94.5407 33.2811C94.5407 29.9828 96.8876 28.3464 99.2599 28.3464ZM107.78 33.0509C107.78 31.2867 108.545 30.852 109.744 30.852H110.739V28.5765C110.646 28.5765 110.547 28.5696 110.451 28.563L110.451 28.5629C110.362 28.5568 110.277 28.5509 110.203 28.5509C109.132 28.5509 108.265 29.0367 107.729 30.1873V28.5509H105.357V37.9856H107.78V33.0509ZM114.234 32.3605L117.652 28.5764H120.356L116.989 32.1816L120.56 38.0111H117.856L115.382 33.9202L114.234 35.1475V37.9856H111.81V25.2781H114.234V32.3605ZM133.187 34.6361C132.6 35.4032 131.835 35.8378 130.891 35.9657C130.786 35.9788 130.68 35.9852 130.572 35.9918L130.572 35.9918C130.469 35.998 130.364 36.0044 130.253 36.0168H129.539H128.034V27.2724H129.59C129.741 27.2724 129.885 27.2799 130.018 27.2868C130.131 27.2926 130.236 27.298 130.33 27.298C130.559 27.298 130.763 27.3236 130.967 27.3491C131.911 27.477 132.651 27.8861 133.212 28.5764C133.773 29.2668 134.054 30.2384 134.054 31.5168C134.054 32.8463 133.748 33.8691 133.187 34.6361ZM133.569 25.9173C132.931 25.6361 132.243 25.4315 131.503 25.3548C131.378 25.3444 131.258 25.3298 131.146 25.3161C130.981 25.2961 130.833 25.2781 130.712 25.2781H129.896H125.508V37.9856H129.845H130.661C130.865 37.96 131.12 37.9344 131.452 37.9089C132.192 37.8066 132.88 37.602 133.518 37.2952C134.156 36.9884 134.717 36.5537 135.202 36.0168C135.686 35.4799 136.043 34.8407 136.324 34.0736C136.605 33.3066 136.732 32.4373 136.732 31.4657C136.732 30.5196 136.605 29.6503 136.324 28.9344C136.069 28.2185 135.686 27.6048 135.227 27.0935C134.768 26.5821 134.207 26.1986 133.569 25.9173ZM138.212 28.1931H140.737V38.0113H138.212V28.1931ZM139.487 24.5368C139.895 24.5368 140.253 24.6647 140.508 24.9204C140.763 25.1761 140.89 25.4829 140.89 25.892C140.89 26.3011 140.763 26.6335 140.508 26.8636C140.253 27.1193 139.921 27.2215 139.487 27.2215C139.079 27.2215 138.722 27.0937 138.467 26.8636C138.212 26.6079 138.084 26.3011 138.084 25.892C138.084 25.5085 138.212 25.1761 138.467 24.9204C138.722 24.6647 139.079 24.5368 139.487 24.5368ZM148.313 28.0397C148.109 27.9885 147.879 27.963 147.599 27.963C147.318 27.963 147.038 28.0141 146.732 28.1419C146.425 28.2442 146.17 28.3976 145.915 28.6277L145.15 29.9829V28.1931H142.625V38.0113H145.15V33.5113C145.15 32.1817 145.405 31.2613 145.941 30.7499C146.476 30.2385 147.267 30.0084 148.313 30.0851V28.0397ZM153.313 29.7271C152.726 29.7271 152.242 29.9316 151.833 30.3151C151.451 30.6987 151.196 31.3123 151.068 32.1049H155.379C155.303 31.3379 155.073 30.7498 154.741 30.3407C154.41 29.9316 153.925 29.7271 153.313 29.7271ZM158.006 32.8975V33.281V33.2813C158.006 33.4346 158.006 33.588 157.981 33.7413H151.017C151.043 34.2526 151.145 34.6873 151.272 35.0197C151.4 35.3521 151.578 35.6333 151.782 35.8635C151.986 36.068 152.216 36.2214 152.471 36.3237C152.726 36.426 153.007 36.4515 153.313 36.4515C153.874 36.4515 154.333 36.2981 154.69 36.0169C155.047 35.7356 155.277 35.3265 155.354 34.7896H157.879C157.751 35.3521 157.547 35.8634 157.267 36.2981C156.986 36.7328 156.629 37.0907 156.246 37.372C155.838 37.6532 155.379 37.8578 154.869 38.0112C154.359 38.1646 153.823 38.2413 153.236 38.2413C152.573 38.2413 151.935 38.139 151.349 37.9345C150.762 37.7299 150.277 37.3975 149.844 36.9885C149.41 36.5538 149.078 36.0424 148.823 35.3777C148.568 34.7384 148.466 33.9714 148.466 33.1276C148.466 32.3862 148.594 31.6958 148.823 31.0566C149.053 30.4174 149.385 29.8549 149.818 29.3947C150.252 28.9344 150.762 28.5765 151.374 28.3208C151.986 28.0651 152.675 27.9373 153.415 27.9373C154.155 27.9373 154.818 28.0651 155.379 28.3208C155.94 28.5765 156.425 28.9344 156.808 29.3947C157.19 29.8549 157.496 30.3663 157.675 30.9799C157.93 31.5935 158.006 32.2327 158.006 32.8975ZM165.481 28.2185C164.945 28.0395 164.358 27.9373 163.695 27.9373C163.032 27.9373 162.394 28.0651 161.782 28.2697C161.195 28.4998 160.659 28.8577 160.226 29.2924C159.792 29.7271 159.435 30.2896 159.18 30.9288C158.925 31.568 158.797 32.3095 158.797 33.1532C158.797 33.997 158.925 34.7384 159.154 35.3777C159.409 36.0169 159.741 36.5282 160.149 36.9629C160.557 37.372 161.068 37.7044 161.629 37.9089C162.19 38.139 162.802 38.2413 163.465 38.2413C164.69 38.2413 165.71 37.9345 166.552 37.3208C167.394 36.7072 167.929 35.8123 168.133 34.585H165.608C165.481 35.2242 165.225 35.6845 164.894 35.9913C164.537 36.2981 164.129 36.4515 163.618 36.4515C162.981 36.4515 162.445 36.1703 162.037 35.6333C161.629 35.0964 161.425 34.2271 161.425 32.9998C161.425 31.8748 161.629 31.0566 162.037 30.5197C162.445 29.9827 162.981 29.7271 163.618 29.7271C164.154 29.7271 164.588 29.8805 164.945 30.1873C165.302 30.4941 165.532 31.0055 165.659 31.7214H168.159C168.108 31.1845 167.98 30.6731 167.751 30.2129C167.547 29.7526 167.241 29.3435 166.858 29.0111C166.475 28.6788 166.016 28.3975 165.481 28.2185ZM172.495 34.4829V34.9432C172.495 35.071 172.495 35.2244 172.521 35.3523C172.546 35.5824 172.597 35.7869 172.648 35.9403C172.699 36.0937 172.801 36.2216 172.954 36.2983C173.107 36.375 173.286 36.4261 173.516 36.4517C173.745 36.4773 174.026 36.4773 174.383 36.4517V38.1136C174.102 38.1647 173.822 38.1903 173.541 38.2159L173.541 38.2159C173.26 38.2415 172.98 38.2415 172.699 38.2415C171.755 38.2415 171.092 38.0881 170.684 37.7557C170.301 37.4233 170.072 36.9119 169.995 36.2471C169.97 36.017 169.97 35.8125 169.97 35.5824V34.8153V29.9829H168.541V28.2954H169.97V25.892H172.495V28.2954H174.51V29.9829H172.495V34.4829ZM181.704 35.5822C181.27 36.1703 180.658 36.4771 179.893 36.4771C179.127 36.4771 178.515 36.1703 178.082 35.5822C177.648 34.9941 177.444 34.1504 177.444 33.1021C177.444 32.0538 177.648 31.21 178.082 30.622C178.515 30.0339 179.127 29.7271 179.893 29.7271C180.684 29.7271 181.27 30.0339 181.704 30.622C182.137 31.21 182.342 32.0282 182.342 33.1021C182.342 34.1504 182.137 34.9941 181.704 35.5822ZM182.061 28.3208C181.423 28.0651 180.709 27.9373 179.893 27.9373C179.102 27.9373 178.362 28.0651 177.725 28.3208C177.087 28.5765 176.551 28.9344 176.117 29.3947C175.684 29.8549 175.352 30.3918 175.123 31.031C174.893 31.6702 174.791 32.3606 174.791 33.1021C174.791 33.818 174.893 34.5083 175.123 35.1475C175.352 35.7867 175.684 36.3237 176.117 36.7839C176.551 37.2441 177.087 37.6021 177.725 37.8578C178.362 38.1135 179.076 38.2413 179.893 38.2413C180.709 38.2413 181.423 38.1135 182.061 37.8578C182.699 37.6021 183.234 37.2441 183.668 36.7839C184.102 36.3237 184.433 35.7867 184.663 35.1475C184.892 34.5339 184.994 33.8435 184.994 33.1021C184.994 32.335 184.892 31.6702 184.663 31.031C184.433 30.3918 184.102 29.8549 183.668 29.3947C183.234 28.9344 182.699 28.5765 182.061 28.3208ZM191.219 27.963C191.499 27.963 191.729 27.9885 191.933 28.0397V30.0851C190.887 30.0084 190.096 30.2385 189.561 30.7499C189.025 31.2613 188.77 32.1817 188.77 33.5113V38.0113H186.244V28.1931H188.77V29.9829L189.535 28.6277C189.79 28.3976 190.045 28.2442 190.351 28.1419C190.632 28.0141 190.938 27.963 191.219 27.963ZM197.953 40.0312C198.234 39.5966 198.489 39.0341 198.744 38.3693L202.723 28.1931H199.943L197.545 36.0681L195.122 28.1931H192.29L196.27 38.4715L196.142 38.7784C195.913 39.2642 195.683 39.6221 195.377 39.8011C195.071 39.9801 194.714 40.0824 194.28 40.0824H193.897C193.77 40.0824 193.642 40.0823 193.515 40.0568V41.7954C193.693 41.821 193.872 41.8466 194.05 41.8466C194.229 41.8721 194.433 41.8721 194.663 41.8721C195.147 41.8721 195.606 41.821 195.989 41.6932C196.372 41.5653 196.729 41.3863 197.06 41.1051C197.392 40.8494 197.673 40.4914 197.953 40.0312Z" fill="#010202"/>
</svg>
