<?xml version="1.0" encoding="UTF-8"?><svg id="Layer_2" xmlns="http://www.w3.org/2000/svg" viewBox="0 0 1656 469.47"><defs><style>.cls-1{fill:none;}.cls-2{fill-rule:evenodd;}</style></defs><g id="artwork"><rect class="cls-1" width="1656" height="469.47"/><g><path class="cls-2" d="M226.86,128.87l49.4-28.14c1.31-.78,2.87-.78,4.18,0l49.92,28.4c1.31,.78,1.31,2.87,0,3.65l-49.4,28.14c-1.31,.78-2.88,.78-4.18,0l-49.92-28.4c-1.31-.78-1.31-2.87,0-3.65h0Zm-131.21,0l48.88-28.14c1.31-.52,2.87-.52,4.44,0l115.79,65.93c1.31,.78,1.31,2.87,0,3.65l-49.14,28.14c-1.31,.78-2.88,.78-4.18,0l-115.79-65.93c-1.31-.78-1.31-2.87,0-3.65h0Zm122.58,84.17v56.81c0,1.56,1.83,2.6,3.14,1.82l50.18-28.66c.52-.26,1.05-1.04,1.05-1.82v-57.85c0-1.56-1.83-2.61-3.14-1.82l-49.14,27.88c-1.31,.78-2.09,2.08-2.09,3.65h0Zm116.83-69.07l-49.14,27.88c-1.31,.78-2.09,2.08-2.35,3.65l.26,70.62c0,1.56-.78,2.87-2.09,3.65l-61.42,35.18c-1.31,.78-2.09,2.08-2.09,3.65v56.81c0,1.56,1.83,2.61,3.14,1.82l114.74-65.41c1.31-.78,2.09-2.08,2.09-3.65V145.81c0-1.56-1.83-2.61-3.14-1.82h0Zm-127.81,68.79l-.26,57.85c0,1.3-1.31,1.82-2.35,1.3l-60.64-34.66c-1.31-.78-3.14,.26-3.14,1.82v68.27c0,1.56-1.83,2.61-3.14,1.82l-49.4-28.14c-1.31-.78-2.09-2.08-2.09-3.65V144.76c0-1.56,1.83-2.61,3.14-1.82l115.79,65.93c1.05,1.04,2.09,2.35,2.09,3.91h0Zm-2.35,72.18l-49.66-28.4c-1.31-1.04-3.14,0-3.14,1.82v57.07c0,1.56,.78,2.87,2.09,3.65l49.66,28.4c1.31,.78,3.14-.26,3.14-1.82v-57.07c0-1.56-.78-2.87-2.09-3.65Z"/><g><path d="M518.54,137.72c0,24.43-19.55,30.38-41.6,30.38h-14.39v33.68h-18.88V106.03h32.75c19.68,0,42.13,2.77,42.13,31.69h0Zm-55.99,15.72h15.58c11.75,0,21-2.91,21-15.58,0-15.72-12.02-17.04-22.32-17.04h-14.26v32.62h0Z"/><path d="M557.91,147.89c-8.98,0-14.92,3.3-14.92,16.64v37.24h-18.22v-71.05h17.96v12.41c4.1-8.72,10.56-12.28,18.75-12.28,1.19,0,2.77,.13,3.96,.26v17.17c-2.64-.27-4.88-.4-7.53-.4h0Z"/><path d="M604.39,129.14c17.96,0,35.66,12.28,35.66,37.25s-17.7,37.11-35.66,37.11-35.66-12.15-35.66-37.11,17.7-37.25,35.66-37.25Zm0,60.09c10.04,0,17.17-8.06,17.17-22.85s-7.13-22.98-17.17-22.98-17.17,8.06-17.17,22.98,7.13,22.85,17.17,22.85Z"/><path d="M671.09,111.44v19.28h14.79v12.55h-14.79v36.71c0,7.27,2.51,8.72,8.98,8.72h5.55v13.07h-13.34c-16.24,0-19.41-5.02-19.41-19.15v-39.36h-10.04v-12.55h10.04v-19.28h18.22Z"/><path d="M727.09,129.14c17.96,0,35.66,12.28,35.66,37.25s-17.7,37.11-35.66,37.11-35.66-12.15-35.66-37.11,17.7-37.25,35.66-37.25Zm0,60.09c10.04,0,17.17-8.06,17.17-22.85s-7.13-22.98-17.17-22.98-17.17,8.06-17.17,22.98,7.13,22.85,17.17,22.85Z"/><path d="M819.93,155.02c-1.32-6.73-7.92-11.75-14.79-11.75-9.51,0-17.04,8.05-17.04,22.85s7.13,23.24,17.17,23.24c6.2,0,12.94-3.17,15.32-11.75h17.43c-4.23,19.41-19.02,25.89-33.68,25.89-21.26,0-34.87-15.72-34.87-37.11s14.4-37.25,35.66-37.25c14.79,0,29.85,8.19,32.23,25.89h-17.43Z"/><path d="M879.1,129.14c17.96,0,35.66,12.28,35.66,37.25s-17.7,37.11-35.66,37.11-35.66-12.15-35.66-37.11,17.7-37.25,35.66-37.25Zm0,60.09c10.04,0,17.17-8.06,17.17-22.85s-7.13-22.98-17.17-22.98-17.17,8.06-17.17,22.98,7.13,22.85,17.17,22.85Z"/><path d="M925.07,201.77V106.03h18.22v95.75h-18.22Z"/><path d="M1052.78,186.45v15.32h-65.5V106.03h18.88v80.42h46.62Z"/><path d="M1057.4,182.63c0-16.77,18.88-21.79,46.75-24.96v-1.19c0-10.96-5.94-14.79-13.34-14.79-7,0-12.81,3.7-13.21,11.49h-17.04c1.32-14,12.94-24.3,31.17-24.3,16.9,0,30.64,7.26,30.64,31.3,0,2.24-.26,11.62-.26,18.09,0,11.22,.79,17.56,2.11,23.51h-16.77c-.53-2.24-.92-5.41-1.19-8.85-5.02,7.4-12.54,10.57-23.24,10.57-13.6,0-25.62-7.93-25.62-20.87h0Zm18.75-.93c0,5.15,4.09,9.38,12.28,9.38,11.36,0,16.24-6.21,16.24-16.51v-5.28c-20.34,2.11-28.53,4.49-28.53,12.41h.01Z"/><path d="M1136.25,106.03h18.22v33.81c3.83-6.6,11.49-10.7,20.47-10.7,17.17,0,30.9,14.79,30.9,37.11s-14,37.25-30.9,37.25c-7.39,0-15.98-2.91-20.47-10.7v8.98h-18.22V106.03Zm34.2,37.11c-10.04,0-16.64,8.85-16.64,23.11s6.6,23.24,16.64,23.24c9.38,0,16.24-9.24,16.24-23.11s-6.87-23.24-16.24-23.24Z"/><path d="M1241.64,141.95c-6.74,0-11.49,2.51-11.49,6.87,0,3.83,2.77,6.73,9.51,8.19l9.51,2.11c14.13,3.17,26.15,6.74,26.15,21.39s-14.66,22.98-30.77,22.98c-17.43,0-30.64-8.98-32.36-25.23h17.56c1.06,6.87,5.95,12.02,15.32,12.02,7.79,0,12.81-2.9,12.81-8.05s-5.55-7.39-11.62-8.71l-10.56-2.25c-13.34-2.77-22.19-8.32-22.19-21.26s13.73-21.13,29.05-21.13,28.92,6.87,31.3,23.24h-17.04c-1.32-5.95-6.87-10.17-15.19-10.17h0Z"/><path d="M461.49,267.13v73.03h-17.83v-95.75h24.56l38.3,73.03v-73.03h17.83v95.75h-24.56l-38.3-73.03h0Z"/><path d="M571.24,327.74c5.54,0,11.22-1.98,14.92-8.19h18.75c-3.83,10.57-14.26,22.32-33.55,22.32-22.85,0-36.19-17.04-36.19-37.51s14.66-36.85,35.66-36.85,35.66,17.04,34.87,42.13h-52.43c.93,12.15,9.38,18.09,17.96,18.09h.01Zm15.98-30.63c-.4-12.02-8.85-16.24-16.51-16.24-6.87,0-15.71,4.36-17.17,16.24h33.68Z"/><path d="M636.88,249.83v19.28h14.79v12.55h-14.79v36.71c0,7.27,2.51,8.72,8.98,8.72h5.55v13.07h-13.34c-16.24,0-19.41-5.02-19.41-19.15v-39.36h-10.04v-12.55h10.04v-19.28h18.22Z"/><path d="M711.9,269.11l11.23,48.99,9.51-48.99h18.09l-16.77,71.05h-18.75l-12.94-53.88-13.08,53.88h-18.75l-16.64-71.05h18.09l9.51,49.13,11.1-49.13h19.4Z"/><path d="M789.16,267.52c17.96,0,35.66,12.28,35.66,37.25s-17.7,37.11-35.66,37.11-35.66-12.15-35.66-37.11,17.7-37.25,35.66-37.25h0Zm0,60.09c10.04,0,17.17-8.06,17.17-22.85s-7.13-22.98-17.17-22.98-17.17,8.06-17.17,22.98,7.13,22.85,17.17,22.85Z"/><path d="M868.27,286.28c-8.98,0-14.92,3.3-14.92,16.64v37.24h-18.22v-71.05h17.96v12.41c4.1-8.72,10.56-12.28,18.75-12.28,1.19,0,2.77,.13,3.96,.26v17.17c-2.64-.27-4.88-.4-7.53-.4h0Z"/><path d="M902.09,297.64l25.88-28.53h20.47l-25.49,27.21,26.94,43.84h-20.47l-18.62-30.77-8.71,9.37v21.39h-18.22v-95.75h18.22v53.24Z"/></g><g><path d="M1032.53,244.96c5.55,.65,10.73,2.04,15.55,4.16,4.81,2.13,8.97,5.09,12.49,8.88,3.52,3.79,6.29,8.42,8.33,13.88,2.03,5.46,3.05,11.85,3.05,19.15s-1.02,13.83-3.05,19.57c-2.04,5.74-4.86,10.64-8.47,14.71-3.61,4.07-7.82,7.31-12.63,9.72-4.81,2.41-9.99,3.93-15.54,4.58-2.41,.28-4.4,.44-5.97,.49-1.58,.05-3.66,.07-6.25,.07h-32.76v-95.77h33.03c2.59,0,4.67,.02,6.25,.07,1.57,.05,3.56,.21,5.97,.49Zm-4.58,79.81c7.22-.93,12.98-4.27,17.28-10.04,4.3-5.76,6.45-13.57,6.45-23.42s-2.11-16.98-6.32-22.23c-4.21-5.25-9.88-8.34-17-9.27-1.58-.18-3.15-.32-4.72-.42-1.57-.09-3.42-.14-5.55-.14h-11.66v65.93h11.38c2.13,0,3.96-.02,5.48-.07,1.53-.05,3.08-.16,4.65-.35Z"/><path d="M1092.77,238.85c3.14,0,5.69,.95,7.63,2.85,1.94,1.9,2.92,4.33,2.92,7.29s-.97,5.51-2.92,7.36c-1.94,1.85-4.49,2.78-7.63,2.78s-5.69-.92-7.63-2.78c-1.94-1.85-2.91-4.3-2.91-7.36s.97-5.39,2.91-7.29c1.94-1.9,4.49-2.85,7.63-2.85Zm-9.58,101.33v-73.84h19.15v73.84h-19.15Z"/><path d="M1153.99,264.53c2.13,0,3.93,.19,5.41,.55v15.41c-7.96-.56-13.93,1.13-17.91,5.07-3.98,3.93-5.97,10.85-5.97,20.75v33.87h-19.15v-73.84h19.15v13.46l5.83-10.27c1.85-1.67,3.89-2.92,6.11-3.75s4.39-1.25,6.52-1.25Z"/><path d="M1232.62,301.73v2.98c0,1.07-.09,2.25-.28,3.54h-52.61c.28,3.89,.93,7.13,1.95,9.72,1.02,2.59,2.28,4.7,3.76,6.32,1.49,1.62,3.21,2.75,5.16,3.4,1.95,.65,4.04,.97,6.27,.97,4.18,0,7.64-1.09,10.38-3.26,2.74-2.17,4.44-5.25,5.09-9.23h19.16c-.93,4.26-2.45,8.03-4.58,11.31-2.13,3.29-4.72,5.99-7.77,8.12-3.05,2.13-6.5,3.75-10.34,4.86-3.84,1.11-7.94,1.67-12.28,1.67-5.09,0-9.81-.79-14.16-2.36-4.35-1.57-8.14-3.96-11.38-7.15-3.24-3.19-5.78-7.22-7.63-12.08-1.85-4.86-2.78-10.52-2.78-17,0-5.64,.9-10.87,2.71-15.68,1.8-4.81,4.33-8.95,7.57-12.42,3.24-3.47,7.17-6.18,11.8-8.12,4.63-1.94,9.76-2.91,15.41-2.91s10.62,1,14.92,2.98c4.3,1.99,7.91,4.7,10.83,8.12,2.92,3.42,5.11,7.4,6.59,11.94,1.48,4.53,2.22,9.3,2.22,14.3Zm-35.46-23.87c-4.46,0-8.18,1.46-11.15,4.37-2.98,2.91-4.88,7.43-5.71,13.53h32.62c-.65-5.83-2.28-10.27-4.88-13.33s-6.23-4.58-10.87-4.58Z"/><path d="M1275.52,264.39c5,0,9.51,.72,13.53,2.15,4.03,1.44,7.47,3.42,10.34,5.97,2.87,2.55,5.14,5.58,6.8,9.09,1.67,3.52,2.68,7.31,3.05,11.38h-18.88c-.93-5.37-2.71-9.23-5.34-11.59-2.64-2.36-5.95-3.54-9.92-3.54-4.91,0-8.91,2.01-12.01,6.04-3.1,4.03-4.65,10.25-4.65,18.67,0,9.16,1.55,15.8,4.65,19.92,3.1,4.12,7.05,6.18,11.87,6.18,3.79,0,6.99-1.16,9.58-3.47,2.59-2.31,4.39-5.83,5.41-10.55h19.15c-1.57,9.16-5.53,16.03-11.87,20.61-6.34,4.58-14.14,6.87-23.39,6.87-5,0-9.65-.81-13.95-2.43-4.3-1.62-8.03-4.03-11.17-7.22-3.15-3.19-5.62-7.17-7.43-11.94-1.8-4.76-2.71-10.34-2.71-16.73s.97-11.89,2.91-16.79c1.94-4.9,4.58-9.02,7.91-12.35,3.33-3.33,7.24-5.88,11.73-7.63,4.49-1.76,9.28-2.64,14.37-2.64Z"/><path d="M1341.89,313.66v3.47c0,1.02,.05,2.04,.14,3.05,.18,1.76,.49,3.22,.9,4.37,.42,1.16,1.16,2.04,2.22,2.64,1.06,.6,2.45,.97,4.16,1.11,1.71,.14,3.91,.12,6.59-.07v12.49c-2.13,.37-4.23,.62-6.32,.76s-4.19,.21-6.32,.21c-7.13,0-12.17-1.23-15.13-3.68-2.96-2.45-4.67-6.27-5.14-11.45-.19-1.67-.28-3.33-.28-5v-42.06h-10.83v-12.63h10.83v-18.18h19.15v18.18h15.27v12.63h-15.27v34.15Z"/><path d="M1397.8,264.39c6.11,0,11.54,.97,16.31,2.91,4.76,1.94,8.79,4.65,12.08,8.12,3.28,3.47,5.76,7.56,7.43,12.28,1.67,4.72,2.5,9.9,2.5,15.55s-.83,10.71-2.5,15.48c-1.67,4.77-4.14,8.88-7.43,12.35-3.29,3.47-7.31,6.18-12.08,8.12-4.77,1.94-10.2,2.92-16.31,2.92s-11.54-.97-16.31-2.92c-4.77-1.94-8.79-4.65-12.08-8.12-3.29-3.47-5.76-7.59-7.43-12.35-1.67-4.77-2.5-9.92-2.5-15.48s.83-10.83,2.5-15.55c1.67-4.72,4.14-8.81,7.43-12.28,3.28-3.47,7.31-6.18,12.08-8.12,4.76-1.94,10.2-2.91,16.31-2.91Zm0,64.26c5.83,0,10.36-2.24,13.6-6.73,3.24-4.49,4.86-10.71,4.86-18.67s-1.62-14.3-4.86-18.74c-3.24-4.44-7.77-6.66-13.6-6.66s-10.36,2.22-13.6,6.66c-3.24,4.44-4.86,10.69-4.86,18.74s1.62,14.18,4.86,18.67c3.24,4.49,7.77,6.73,13.6,6.73Z"/><path d="M1483.21,264.53c2.13,0,3.93,.19,5.41,.55v15.41c-7.96-.56-13.93,1.13-17.91,5.07-3.98,3.93-5.97,10.85-5.97,20.75v33.87h-19.16v-73.84h19.16v13.46l5.83-10.27c1.85-1.67,3.89-2.92,6.11-3.75s4.39-1.25,6.52-1.25Z"/><path d="M1540.07,342.95c-1.94,5-3.93,9.18-5.97,12.56-2.04,3.38-4.28,6.08-6.73,8.12-2.45,2.04-5.14,3.49-8.05,4.37-2.92,.88-6.27,1.32-10.06,1.32-1.76,0-3.29-.05-4.58-.14-1.3-.09-2.64-.23-4.03-.42v-13.19c1.02,.18,1.96,.28,2.85,.28h2.85c3.24,0,5.97-.72,8.19-2.15,2.22-1.44,4.12-4,5.69-7.7l.97-2.36-30.12-77.31h21.38l18.32,59.27,18.04-59.27h20.96l-29.7,76.62Z"/></g><g><path d="M1416.74,171.1c-.77-.09-1.52-.14-2.25-.14h-5.29v8.92h6.62c.37,0,.71-.02,1.01-.05,1.1-.09,2.05-.5,2.83-1.24,.78-.73,1.17-1.77,1.17-3.11,0-1.46-.39-2.53-1.17-3.2-.78-.67-1.76-1.07-2.92-1.19Z"/><path d="M1416.23,166.04c2.3-.37,3.45-1.68,3.45-3.93,0-1.19-.33-2.08-.99-2.68-.66-.59-1.53-.97-2.6-1.12-.74-.09-1.5-.14-2.3-.14h-4.6v8h4.78c.77,0,1.52-.05,2.25-.14Z"/><polygon points="1507.74 170.36 1515.19 170.36 1511.51 158.63 1507.74 170.36"/><path d="M1554.56,131.15h-179.45c-5.96,0-10.8,4.84-10.8,10.8v54.25c0,5.96,4.84,10.8,10.8,10.8h179.45c5.96,0,10.8-4.84,10.8-10.8v-54.25c0-5.96-4.84-10.8-10.8-10.8Zm-127.81,48.15c-.51,1.09-1.17,2.02-2,2.79s-1.76,1.37-2.78,1.8c-1.03,.43-2.08,.72-3.15,.88-.8,.09-1.51,.15-2.14,.16-.63,.02-1.39,.02-2.28,.02h-11.55v-31.74h11.36c.8,0,1.48,0,2.05,.02s1.25,.07,2.05,.16c2.61,.34,4.59,1.2,5.96,2.59s2.05,3.16,2.05,5.3c0,1.65-.42,3.01-1.26,4.08-.8,1.01-1.93,1.79-3.4,2.34-.08,.03-.08,.14,0,.17,3.9,1.09,5.85,3.61,5.85,7.58,0,1.47-.25,2.76-.76,3.85Zm33.26,5.64h-22.91v-31.74h22.45v4.92h-16.1v8.42h14.95v5.01h-14.95v8.37h16.56v5.01Zm34.87-26.82h-10.76v26.82h-6.35v-26.82h-10.76v-4.92h27.88v4.92Zm25.06,26.82l-3.13-9.57h-10.67l-3.17,9.57h-6.76l11.45-31.74h7.96l11.22,31.74h-6.9Z"/></g></g></g></svg>