<?xml version="1.0" encoding="utf-8"?><svg version="1.1" id="Camada_1" xmlns="http://www.w3.org/2000/svg" xmlns:xlink="http://www.w3.org/1999/xlink" x="0px" y="0px" viewBox="0 0 212 60" style="enable-background:new 0 0 212 60;" xml:space="preserve"><style type="text/css">.st0{fill:#FFFFFF;}</style><g id="XMLID_55_"><path id="XMLID_120_" class="st0" d="M25.4,15.8L32,12c0.2-0.1,0.4-0.1,0.6,0l6.7,3.8c0.2,0.1,0.2,0.4,0,0.5l-6.6,3.8c-0.2,0.1-0.4,0.1-0.6,0l-6.7-3.8C25.2,16.2,25.2,15.9,25.4,15.8L25.4,15.8z M7.8,15.8l6.6-3.8c0.2-0.1,0.4-0.1,0.6,0l15.5,8.8c0.2,0.1,0.2,0.4,0,0.5l-6.6,3.8c-0.2,0.1-0.4,0.1-0.6,0L7.8,16.3C7.6,16.2,7.6,15.9,7.8,15.8L7.8,15.8L7.8,15.8z M24.2,27.1v7.6c0,0.2,0.2,0.3,0.4,0.2l6.7-3.8c0.1,0,0.1-0.1,0.1-0.2v-7.8c0-0.2-0.2-0.4-0.4-0.2l-6.6,3.7C24.3,26.7,24.2,26.9,24.2,27.1L24.2,27.1L24.2,27.1z M39.9,17.8l-6.6,3.7c-0.2,0.1-0.3,0.3-0.3,0.5l0,9.5c0,0.2-0.1,0.4-0.3,0.5l-8.2,4.7c-0.2,0.1-0.3,0.3-0.3,0.5v7.6c0,0.2,0.2,0.4,0.4,0.2L40,36.3c0.2-0.1,0.3-0.3,0.3-0.5V18.1C40.3,17.9,40.1,17.7,39.9,17.8L39.9,17.8L39.9,17.8z M22.7,27.1l0,7.8c0,0.2-0.2,0.2-0.3,0.2l-8.1-4.6c-0.2-0.1-0.4,0-0.4,0.2v9.2c0,0.2-0.2,0.4-0.4,0.2l-6.6-3.8c-0.2-0.1-0.3-0.3-0.3-0.5V17.9c0-0.2,0.2-0.4,0.4-0.2l15.5,8.8C22.6,26.7,22.7,26.8,22.7,27.1L22.7,27.1L22.7,27.1z M22.4,36.7l-6.7-3.8c-0.2-0.1-0.4,0-0.4,0.2v7.7c0,0.2,0.1,0.4,0.3,0.5l6.7,3.8c0.2,0.1,0.4,0,0.4-0.2v-7.7C22.7,37,22.6,36.8,22.4,36.7z"/><g id="XMLID_84_"><path id="XMLID_117_" class="st0" d="M64.5,17c0,3.3-2.6,4.1-5.6,4.1H57v4.5h-2.5V12.7h4.4C61.5,12.7,64.5,13.1,64.5,17L64.5,17L64.5,17z M57,19.1h2.1c1.6,0,2.8-0.4,2.8-2.1c0-2.1-1.6-2.3-3-2.3H57L57,19.1L57,19.1L57,19.1z"/><path id="XMLID_46_" class="st0" d="M69.8,18.4c-1.2,0-2,0.4-2,2.2v5h-2.4V16h2.4v1.7c0.5-1.2,1.4-1.6,2.5-1.6c0.2,0,0.4,0,0.5,0v2.3C70.4,18.4,70.1,18.3,69.8,18.4L69.8,18.4L69.8,18.4z"/><path id="XMLID_113_" class="st0" d="M76,15.8c2.4,0,4.8,1.6,4.8,5s-2.4,5-4.8,5s-4.8-1.6-4.8-5S73.6,15.8,76,15.8z M76,23.9c1.3,0,2.3-1.1,2.3-3.1s-1-3.1-2.3-3.1s-2.3,1.1-2.3,3.1S74.7,23.9,76,23.9z"/><path id="XMLID_43_" class="st0" d="M85,13.5V16h2v1.7h-2v4.9c0,1,0.3,1.2,1.2,1.2h0.7v1.8h-1.8c-2.2,0-2.6-0.7-2.6-2.6v-5.3h-1.3V16h1.3v-2.6L85,13.5L85,13.5z"/><path id="XMLID_109_" class="st0" d="M92.5,15.8c2.4,0,4.8,1.6,4.8,5s-2.4,5-4.8,5s-4.8-1.6-4.8-5S90.1,15.8,92.5,15.8z M92.5,23.9c1.3,0,2.3-1.1,2.3-3.1s-1-3.1-2.3-3.1s-2.3,1.1-2.3,3.1S91.1,23.9,92.5,23.9z"/><path id="XMLID_40_" class="st0" d="M104.9,19.3c-0.2-0.9-1.1-1.6-2-1.6c-1.3,0-2.3,1.1-2.3,3.1s1,3.1,2.3,3.1c0.8,0,1.7-0.4,2.1-1.6h2.3c-0.6,2.6-2.6,3.5-4.5,3.5c-2.9,0-4.7-2.1-4.7-5s1.9-5,4.8-5c2,0,4,1.1,4.3,3.5L104.9,19.3L104.9,19.3z"/><path id="XMLID_105_" class="st0" d="M112.9,15.8c2.4,0,4.8,1.6,4.8,5s-2.4,5-4.8,5c-2.4,0-4.8-1.6-4.8-5S110.4,15.8,112.9,15.8z M112.9,23.9c1.3,0,2.3-1.1,2.3-3.1s-1-3.1-2.3-3.1c-1.3,0-2.3,1.1-2.3,3.1S111.5,23.9,112.9,23.9z"/><path id="XMLID_37_" class="st0" d="M119,25.6V12.7h2.4v12.8L119,25.6L119,25.6z"/><path id="XMLID_36_" class="st0" d="M136.2,23.5v2.1h-8.8V12.7h2.5v10.8H136.2z"/><path id="XMLID_100_" class="st0" d="M136.8,23c0-2.2,2.5-2.9,6.3-3.3v-0.2c0-1.5-0.8-2-1.8-2c-0.9,0-1.7,0.5-1.8,1.5h-2.3c0.2-1.9,1.7-3.3,4.2-3.3c2.3,0,4.1,1,4.1,4.2c0,0.3,0,1.6,0,2.4c0,1.5,0.1,2.4,0.3,3.2h-2.2c-0.1-0.3-0.1-0.7-0.2-1.2c-0.7,1-1.7,1.4-3.1,1.4C138.4,25.8,136.8,24.7,136.8,23L136.8,23L136.8,23z M139.3,22.9c0,0.7,0.5,1.3,1.6,1.3c1.5,0,2.2-0.8,2.2-2.2v-0.7C140.4,21.5,139.3,21.8,139.3,22.9L139.3,22.9L139.3,22.9z"/><path id="XMLID_97_" class="st0" d="M147.3,12.7h2.4v4.5c0.5-0.9,1.5-1.4,2.7-1.4c2.3,0,4.1,2,4.1,5s-1.9,5-4.1,5c-1,0-2.1-0.4-2.7-1.4v1.2h-2.4V12.7z M151.9,17.7c-1.3,0-2.2,1.2-2.2,3.1s0.9,3.1,2.2,3.1c1.3,0,2.2-1.2,2.2-3.1C154.1,19,153.2,17.7,151.9,17.7z"/><path id="XMLID_31_" class="st0" d="M161.5,17.6c-0.9,0-1.5,0.3-1.5,0.9c0,0.5,0.4,0.9,1.3,1.1l1.3,0.3c1.9,0.4,3.5,0.9,3.5,2.9s-2,3.1-4.1,3.1c-2.3,0-4.1-1.2-4.3-3.4h2.4c0.1,0.9,0.8,1.6,2.1,1.6c1,0,1.7-0.4,1.7-1.1s-0.7-1-1.6-1.2l-1.4-0.3c-1.8-0.4-3-1.1-3-2.9s1.8-2.8,3.9-2.8c2.1,0,3.9,0.9,4.2,3.1h-2.3C163.3,18.1,162.6,17.6,161.5,17.6L161.5,17.6L161.5,17.6z"/><path id="XMLID_30_" class="st0" d="M56.8,34.3v9.8h-2.4V31.3h3.3l5.1,9.8v-9.8h2.4v12.8H62L56.8,34.3L56.8,34.3z"/><path id="XMLID_92_" class="st0" d="M71.6,42.5c0.7,0,1.5-0.3,2-1.1h2.5c-0.5,1.4-1.9,3-4.5,3c-3.1,0-4.9-2.3-4.9-5s2-4.9,4.8-4.9s4.8,2.3,4.7,5.7h-7C69.3,41.7,70.4,42.5,71.6,42.5L71.6,42.5L71.6,42.5z M73.7,38.4c-0.1-1.6-1.2-2.2-2.2-2.2c-0.9,0-2.1,0.6-2.3,2.2H73.7z"/><path id="XMLID_27_" class="st0" d="M80.4,32v2.6h2v1.7h-2v4.9c0,1,0.3,1.2,1.2,1.2h0.7v1.8h-1.8c-2.2,0-2.6-0.7-2.6-2.6v-5.3h-1.3v-1.7h1.3V32L80.4,32L80.4,32z"/><path id="XMLID_26_" class="st0" d="M90.4,34.6l1.5,6.6l1.3-6.6h2.4l-2.2,9.5h-2.5l-1.7-7.2l-1.8,7.2h-2.5l-2.2-9.5h2.4l1.3,6.6l1.5-6.6H90.4z"/><path id="XMLID_87_" class="st0" d="M100.8,34.4c2.4,0,4.8,1.6,4.8,5s-2.4,5-4.8,5c-2.4,0-4.8-1.6-4.8-5C96,36,98.4,34.4,100.8,34.4L100.8,34.4L100.8,34.4z M100.8,42.5c1.3,0,2.3-1.1,2.3-3.1s-1-3.1-2.3-3.1s-2.3,1.1-2.3,3.1C98.5,41.4,99.4,42.5,100.8,42.5z"/><path id="XMLID_23_" class="st0" d="M111.4,36.9c-1.2,0-2,0.4-2,2.2v5H107v-9.5h2.4v1.7c0.5-1.2,1.4-1.6,2.5-1.6c0.2,0,0.4,0,0.5,0V37C112.1,36.9,111.8,36.9,111.4,36.9L111.4,36.9L111.4,36.9z"/><path id="XMLID_22_" class="st0" d="M115.9,38.4l3.5-3.8h2.7l-3.4,3.6l3.6,5.9h-2.7l-2.5-4.1l-1.2,1.3v2.9h-2.4V31.3h2.4V38.4L115.9,38.4z"/></g><g id="XMLID_66_"><path id="XMLID_81_" class="st0" d="M133.4,31.4c0.7,0.1,1.4,0.3,2.1,0.6c0.6,0.3,1.2,0.7,1.7,1.2c0.5,0.5,0.8,1.1,1.1,1.9c0.3,0.7,0.4,1.6,0.4,2.6c0,1-0.1,1.9-0.4,2.6c-0.3,0.8-0.7,1.4-1.1,2c-0.5,0.5-1,1-1.7,1.3c-0.6,0.3-1.3,0.5-2.1,0.6c-0.3,0-0.6,0.1-0.8,0.1c-0.2,0-0.5,0-0.8,0h-4.4V31.3h4.4c0.3,0,0.6,0,0.8,0C132.8,31.3,133.1,31.3,133.4,31.4L133.4,31.4z M132.8,42.1c1-0.1,1.7-0.6,2.3-1.3c0.6-0.8,0.9-1.8,0.9-3.1s-0.3-2.3-0.8-3s-1.3-1.1-2.3-1.2c-0.2,0-0.4,0-0.6-0.1c-0.2,0-0.5,0-0.7,0h-1.6v8.8h1.5c0.3,0,0.5,0,0.7,0C132.4,42.1,132.6,42.1,132.8,42.1L132.8,42.1z"/><path id="XMLID_78_" class="st0" d="M141.5,30.6c0.4,0,0.8,0.1,1,0.4c0.3,0.3,0.4,0.6,0.4,1c0,0.4-0.1,0.7-0.4,1c-0.3,0.2-0.6,0.4-1,0.4c-0.4,0-0.8-0.1-1-0.4c-0.3-0.2-0.4-0.6-0.4-1c0-0.4,0.1-0.7,0.4-1C140.8,30.7,141.1,30.6,141.5,30.6L141.5,30.6z M140.2,44.1v-9.9h2.6v9.9H140.2z"/><path id="XMLID_17_" class="st0" d="M149.7,34c0.3,0,0.5,0,0.7,0.1v2.1c-1.1-0.1-1.9,0.2-2.4,0.7c-0.5,0.5-0.8,1.5-0.8,2.8v4.5h-2.6v-9.9h2.6V36l0.8-1.4c0.2-0.2,0.5-0.4,0.8-0.5C149.1,34.1,149.4,34,149.7,34L149.7,34z"/><path id="XMLID_74_" class="st0" d="M160.3,39v0.4c0,0.1,0,0.3,0,0.5h-7.1c0,0.5,0.1,1,0.3,1.3c0.1,0.3,0.3,0.6,0.5,0.8c0.2,0.2,0.4,0.4,0.7,0.5c0.3,0.1,0.5,0.1,0.8,0.1c0.6,0,1-0.1,1.4-0.4c0.4-0.3,0.6-0.7,0.7-1.2h2.6c-0.1,0.6-0.3,1.1-0.6,1.5c-0.3,0.4-0.6,0.8-1,1.1c-0.4,0.3-0.9,0.5-1.4,0.7s-1.1,0.2-1.6,0.2c-0.7,0-1.3-0.1-1.9-0.3s-1.1-0.5-1.5-1c-0.4-0.4-0.8-1-1-1.6c-0.2-0.7-0.4-1.4-0.4-2.3c0-0.8,0.1-1.5,0.4-2.1c0.2-0.6,0.6-1.2,1-1.7c0.4-0.5,1-0.8,1.6-1.1c0.6-0.3,1.3-0.4,2.1-0.4c0.8,0,1.4,0.1,2,0.4c0.6,0.3,1.1,0.6,1.5,1.1c0.4,0.5,0.7,1,0.9,1.6C160.2,37.7,160.3,38.3,160.3,39L160.3,39z M155.5,35.8c-0.6,0-1.1,0.2-1.5,0.6c-0.4,0.4-0.7,1-0.8,1.8h4.4c-0.1-0.8-0.3-1.4-0.7-1.8S156.1,35.8,155.5,35.8L155.5,35.8z"/><path id="XMLID_14_" class="st0" d="M166,34c0.7,0,1.3,0.1,1.8,0.3c0.5,0.2,1,0.5,1.4,0.8c0.4,0.3,0.7,0.7,0.9,1.2c0.2,0.5,0.4,1,0.4,1.5H168c-0.1-0.7-0.4-1.2-0.7-1.6c-0.4-0.3-0.8-0.5-1.3-0.5c-0.7,0-1.2,0.3-1.6,0.8c-0.4,0.5-0.6,1.4-0.6,2.5c0,1.2,0.2,2.1,0.6,2.7c0.4,0.6,0.9,0.8,1.6,0.8c0.5,0,0.9-0.2,1.3-0.5c0.3-0.3,0.6-0.8,0.7-1.4h2.6c-0.2,1.2-0.7,2.2-1.6,2.8c-0.9,0.6-1.9,0.9-3.1,0.9c-0.7,0-1.3-0.1-1.9-0.3c-0.6-0.2-1.1-0.5-1.5-1c-0.4-0.4-0.8-1-1-1.6c-0.2-0.6-0.4-1.4-0.4-2.2c0-0.9,0.1-1.6,0.4-2.3c0.3-0.7,0.6-1.2,1.1-1.7s1-0.8,1.6-1C164.7,34.1,165.3,34,166,34L166,34z"/><path id="XMLID_13_" class="st0" d="M174.9,40.6v0.5c0,0.1,0,0.3,0,0.4c0,0.2,0.1,0.4,0.1,0.6c0.1,0.2,0.2,0.3,0.3,0.4c0.1,0.1,0.3,0.1,0.6,0.1c0.2,0,0.5,0,0.9,0v1.7c-0.3,0-0.6,0.1-0.8,0.1c-0.3,0-0.6,0-0.8,0c-1,0-1.6-0.2-2-0.5s-0.6-0.8-0.7-1.5c0-0.2,0-0.4,0-0.7V36h-1.5v-1.7h1.5v-2.4h2.6v2.4h2V36h-2L174.9,40.6L174.9,40.6z"/><path id="XMLID_69_" class="st0" d="M182.4,34c0.8,0,1.5,0.1,2.2,0.4c0.6,0.3,1.2,0.6,1.6,1.1c0.4,0.5,0.8,1,1,1.6c0.2,0.6,0.3,1.3,0.3,2.1s-0.1,1.4-0.3,2.1c-0.2,0.6-0.6,1.2-1,1.7s-1,0.8-1.6,1.1s-1.4,0.4-2.2,0.4s-1.5-0.1-2.2-0.4c-0.6-0.3-1.2-0.6-1.6-1.1s-0.8-1-1-1.7c-0.2-0.6-0.3-1.3-0.3-2.1c0-0.7,0.1-1.5,0.3-2.1c0.2-0.6,0.6-1.2,1-1.6c0.4-0.5,1-0.8,1.6-1.1C180.9,34.1,181.6,34,182.4,34z M182.4,42.6c0.8,0,1.4-0.3,1.8-0.9c0.4-0.6,0.7-1.4,0.7-2.5c0-1.1-0.2-1.9-0.7-2.5c-0.4-0.6-1-0.9-1.8-0.9s-1.4,0.3-1.8,0.9c-0.4,0.6-0.7,1.4-0.7,2.5s0.2,1.9,0.7,2.5C181,42.3,181.6,42.6,182.4,42.6z"/><path id="XMLID_10_" class="st0" d="M193.9,34c0.3,0,0.5,0,0.7,0.1v2.1c-1.1-0.1-1.9,0.2-2.4,0.7c-0.5,0.5-0.8,1.5-0.8,2.8v4.5h-2.6v-9.9h2.6V36l0.8-1.4c0.2-0.2,0.5-0.4,0.8-0.5C193.3,34.1,193.6,34,193.9,34L193.9,34z"/><path id="XMLID_9_" class="st0" d="M201.5,44.5c-0.3,0.7-0.5,1.2-0.8,1.7c-0.3,0.5-0.6,0.8-0.9,1.1c-0.3,0.3-0.7,0.5-1.1,0.6c-0.4,0.1-0.8,0.2-1.3,0.2c-0.2,0-0.4,0-0.6,0c-0.2,0-0.4,0-0.5-0.1v-1.8c0.1,0,0.3,0,0.4,0h0.4c0.4,0,0.8-0.1,1.1-0.3c0.3-0.2,0.6-0.5,0.8-1l0.1-0.3l-4-10.4h2.9l2.5,8l2.4-8h2.8L201.5,44.5L201.5,44.5z"/></g><g id="XMLID_56_"><path id="XMLID_8_" class="st0" d="M199.1,19.1c-0.1-0.3-0.1-0.6-0.2-0.8h0c-0.1,0.3-0.1,0.6-0.2,0.8c-0.1,0.3-0.1,0.6-0.2,0.8l-0.1,0.5h1.1l-0.1-0.5C199.2,19.6,199.1,19.3,199.1,19.1L199.1,19.1z"/><path id="XMLID_7_" class="st0" d="M183.8,20.4c-0.2-0.1-0.4-0.2-0.7-0.2h-0.6v1.3h0.6c0.3,0,0.6-0.1,0.7-0.2c0.2-0.1,0.2-0.3,0.2-0.5S183.9,20.5,183.8,20.4z"/><path id="XMLID_6_" class="st0" d="M183.6,19.2c0.1-0.1,0.2-0.3,0.2-0.5s-0.1-0.3-0.2-0.4s-0.3-0.1-0.6-0.1h-0.5v1.2h0.5C183.3,19.4,183.5,19.3,183.6,19.2z"/><path id="XMLID_57_" class="st0" d="M203.5,14.2H179c-1.1,0-2,0.9-2,1.9v7.5c0,1.1,0.9,1.9,2,1.9h24.6c1.1,0,2-0.9,2-1.9v-7.5C205.5,15.1,204.6,14.2,203.5,14.2z M184.9,21.8c-0.2,0.2-0.4,0.4-0.7,0.5c-0.3,0.1-0.6,0.2-1,0.2h-1.9v-5.2h1.7c0.4,0,0.7,0,1,0.1c0.3,0.1,0.5,0.2,0.7,0.4c0.2,0.2,0.3,0.4,0.3,0.8c0,0.2-0.1,0.5-0.2,0.7c-0.1,0.2-0.4,0.4-0.7,0.4v0c0.4,0.1,0.7,0.2,0.8,0.4c0.2,0.2,0.3,0.5,0.3,0.8S185.1,21.6,184.9,21.8L184.9,21.8z M190.3,22.5h-3.5v-5.2h3.4v1H188v1h1.9v1H188v1.2h2.3L190.3,22.5L190.3,22.5z M196,18.3h-1.6v4.2h-1.2v-4.2h-1.6v-1h4.3L196,18.3L196,18.3z M199.9,22.5l-0.3-1.2h-1.6l-0.3,1.2h-1.2l1.6-5.2h1.4l1.6,5.2H199.9L199.9,22.5z"/></g></g></svg>