<?xml version="1.0" encoding="UTF-8"?><svg id="artwork" xmlns="http://www.w3.org/2000/svg" viewBox="0 0 1400 460"><defs><style>.cls-1{fill-rule:evenodd;}</style></defs><path class="cls-1" d="M246.08,135.08l49.4-28.14c1.31-.78,2.87-.78,4.18,0l49.92,28.4c1.31,.78,1.31,2.87,0,3.65l-49.4,28.14c-1.31,.78-2.88,.78-4.18,0l-49.92-28.4c-1.31-.78-1.31-2.87,0-3.65Zm-131.21,0l48.88-28.14c1.31-.52,2.87-.52,4.44,0l115.79,65.93c1.31,.78,1.31,2.87,0,3.65l-49.14,28.14c-1.31,.78-2.88,.78-4.18,0l-115.79-65.93c-1.31-.78-1.31-2.87,0-3.65Zm122.58,84.17v56.81c0,1.56,1.83,2.6,3.14,1.82l50.18-28.66c.52-.26,1.05-1.04,1.05-1.82v-57.85c0-1.56-1.83-2.61-3.14-1.82l-49.14,27.88c-1.31,.78-2.09,2.08-2.09,3.65Zm116.83-69.06l-49.14,27.88c-1.31,.78-2.09,2.08-2.35,3.65l.26,70.62c0,1.56-.78,2.87-2.09,3.65l-61.42,35.18c-1.31,.78-2.09,2.08-2.09,3.65v56.81c0,1.56,1.83,2.61,3.14,1.82l114.74-65.41c1.31-.78,2.09-2.08,2.09-3.65V152.02c0-1.56-1.83-2.61-3.14-1.82Zm-127.81,68.8l-.26,57.85c0,1.3-1.31,1.82-2.35,1.3l-60.64-34.66c-1.31-.78-3.14,.26-3.14,1.82v68.27c0,1.56-1.83,2.61-3.14,1.82l-49.4-28.14c-1.31-.78-2.09-2.08-2.09-3.65V150.97c0-1.56,1.83-2.61,3.14-1.82l115.79,65.93c1.05,1.04,2.09,2.35,2.09,3.91Zm-2.35,72.18l-49.66-28.4c-1.31-1.04-3.14,0-3.14,1.82v57.07c0,1.56,.78,2.87,2.09,3.65l49.66,28.4c1.31,.78,3.14-.26,3.14-1.82v-57.07c0-1.56-.78-2.87-2.09-3.65Z"/><g><path d="M537.76,143.93c0,24.43-19.55,30.38-41.6,30.38h-14.39v33.68h-18.88V112.24h32.75c19.68,0,42.13,2.77,42.13,31.69Zm-55.99,15.72h15.58c11.75,0,21-2.91,21-15.58,0-15.72-12.02-17.04-22.32-17.04h-14.26v32.62Z"/><path d="M577.13,154.1c-8.98,0-14.92,3.3-14.92,16.64v37.24h-18.22v-71.05h17.96v12.41c4.1-8.72,10.56-12.28,18.75-12.28,1.19,0,2.77,.13,3.96,.26v17.17c-2.64-.27-4.88-.4-7.53-.4Z"/><path d="M623.61,135.35c17.96,0,35.66,12.28,35.66,37.25s-17.7,37.11-35.66,37.11-35.66-12.15-35.66-37.11,17.7-37.25,35.66-37.25Zm0,60.09c10.04,0,17.17-8.06,17.17-22.85s-7.13-22.98-17.17-22.98-17.17,8.06-17.17,22.98,7.13,22.85,17.17,22.85Z"/><path d="M690.31,117.65v19.28h14.79v12.55h-14.79v36.71c0,7.27,2.51,8.72,8.98,8.72h5.55v13.07h-13.34c-16.24,0-19.41-5.02-19.41-19.15v-39.36h-10.04v-12.55h10.04v-19.28h18.22Z"/><path d="M746.31,135.35c17.96,0,35.66,12.28,35.66,37.25s-17.7,37.11-35.66,37.11-35.66-12.15-35.66-37.11,17.7-37.25,35.66-37.25Zm0,60.09c10.04,0,17.17-8.06,17.17-22.85s-7.13-22.98-17.17-22.98-17.17,8.06-17.17,22.98,7.13,22.85,17.17,22.85Z"/><path d="M839.15,161.23c-1.32-6.73-7.92-11.75-14.79-11.75-9.51,0-17.04,8.05-17.04,22.85s7.13,23.24,17.17,23.24c6.2,0,12.94-3.17,15.32-11.75h17.43c-4.23,19.41-19.02,25.89-33.68,25.89-21.26,0-34.87-15.72-34.87-37.11s14.4-37.25,35.66-37.25c14.79,0,29.85,8.19,32.23,25.89h-17.43Z"/><path d="M898.32,135.35c17.96,0,35.66,12.28,35.66,37.25s-17.7,37.11-35.66,37.11-35.66-12.15-35.66-37.11,17.7-37.25,35.66-37.25Zm0,60.09c10.04,0,17.17-8.06,17.17-22.85s-7.13-22.98-17.17-22.98-17.17,8.06-17.17,22.98,7.13,22.85,17.17,22.85Z"/><path d="M944.29,207.98V112.24h18.22v95.75h-18.22Z"/><path d="M1072,192.66v15.32h-65.5V112.24h18.88v80.42h46.62Z"/><path d="M1076.62,188.84c0-16.77,18.88-21.79,46.75-24.96v-1.19c0-10.96-5.94-14.79-13.34-14.79-7,0-12.81,3.7-13.21,11.49h-17.04c1.32-14,12.94-24.3,31.17-24.3,16.9,0,30.64,7.26,30.64,31.3,0,2.24-.26,11.62-.26,18.09,0,11.22,.79,17.56,2.11,23.51h-16.77c-.53-2.24-.92-5.41-1.19-8.85-5.02,7.4-12.54,10.57-23.24,10.57-13.6,0-25.62-7.93-25.62-20.87Zm18.75-.93c0,5.15,4.09,9.38,12.28,9.38,11.36,0,16.24-6.21,16.24-16.51v-5.28c-20.34,2.11-28.53,4.49-28.53,12.41Z"/><path d="M1155.47,112.24h18.22v33.81c3.83-6.6,11.49-10.7,20.47-10.7,17.17,0,30.9,14.79,30.9,37.11s-14,37.25-30.9,37.25c-7.39,0-15.98-2.91-20.47-10.7v8.98h-18.22V112.24Zm34.2,37.11c-10.04,0-16.64,8.85-16.64,23.11s6.6,23.24,16.64,23.24c9.38,0,16.24-9.24,16.24-23.11s-6.87-23.24-16.24-23.24Z"/><path d="M1260.86,148.16c-6.74,0-11.49,2.51-11.49,6.87,0,3.83,2.77,6.73,9.51,8.19l9.51,2.11c14.13,3.17,26.15,6.74,26.15,21.39s-14.66,22.98-30.77,22.98c-17.43,0-30.64-8.98-32.36-25.23h17.56c1.06,6.87,5.95,12.02,15.32,12.02,7.79,0,12.81-2.9,12.81-8.05s-5.55-7.39-11.62-8.71l-10.56-2.25c-13.34-2.77-22.19-8.32-22.19-21.26s13.73-21.13,29.05-21.13,28.92,6.87,31.3,23.24h-17.04c-1.32-5.95-6.87-10.17-15.19-10.17Z"/><path d="M480.71,273.34v73.03h-17.83v-95.75h24.56l38.3,73.03v-73.03h17.83v95.75h-24.56l-38.3-73.03Z"/><path d="M590.46,333.95c5.54,0,11.22-1.98,14.92-8.19h18.75c-3.83,10.57-14.26,22.32-33.55,22.32-22.85,0-36.19-17.04-36.19-37.51s14.66-36.85,35.66-36.85,35.66,17.04,34.87,42.13h-52.43c.93,12.15,9.38,18.09,17.96,18.09Zm15.98-30.64c-.4-12.02-8.85-16.24-16.51-16.24-6.87,0-15.71,4.36-17.17,16.24h33.68Z"/><path d="M656.1,256.04v19.28h14.79v12.55h-14.79v36.71c0,7.27,2.51,8.72,8.98,8.72h5.55v13.07h-13.34c-16.24,0-19.41-5.02-19.41-19.15v-39.36h-10.04v-12.55h10.04v-19.28h18.22Z"/><path d="M731.12,275.32l11.23,48.99,9.51-48.99h18.09l-16.77,71.05h-18.75l-12.94-53.88-13.08,53.88h-18.75l-16.64-71.05h18.09l9.51,49.13,11.1-49.13h19.41Z"/><path d="M808.38,273.73c17.96,0,35.66,12.28,35.66,37.25s-17.7,37.11-35.66,37.11-35.66-12.15-35.66-37.11,17.7-37.25,35.66-37.25Zm0,60.09c10.04,0,17.17-8.06,17.17-22.85s-7.13-22.98-17.17-22.98-17.17,8.06-17.17,22.98,7.13,22.85,17.17,22.85Z"/><path d="M887.49,292.49c-8.98,0-14.92,3.3-14.92,16.64v37.24h-18.22v-71.05h17.96v12.41c4.1-8.72,10.56-12.28,18.75-12.28,1.19,0,2.77,.13,3.96,.26v17.17c-2.64-.27-4.88-.4-7.53-.4Z"/><path d="M921.31,303.85l25.88-28.53h20.47l-25.49,27.21,26.94,43.84h-20.47l-18.62-30.77-8.71,9.37v21.39h-18.22v-95.75h18.22v53.22Z"/></g></svg>