<svg width="129" height="22" viewBox="0 0 129 22" fill="none" xmlns="http://www.w3.org/2000/svg">
<rect x="0.5" y="3.5" width="17" height="17" rx="8.5" fill="white"/>
<rect x="0.5" y="3.5" width="17" height="17" rx="8.5" stroke="#CBD5E1"/>
<path d="M3.89249 11.8331C3.89249 11.8331 8.1716 10.077 9.65567 9.45858C10.2246 9.21125 12.1539 8.41972 12.1539 8.41972C12.1539 8.41972 13.0444 8.07345 12.9701 8.91442C12.9454 9.26072 12.7475 10.4727 12.5497 11.7837C12.2528 13.6388 11.9313 15.667 11.9313 15.667C11.9313 15.667 11.8818 16.2359 11.4613 16.3349C11.0408 16.4338 10.3482 15.9886 10.2246 15.8896C10.1256 15.8154 8.36947 14.7024 7.72637 14.1582C7.55322 14.0098 7.35535 13.713 7.75109 13.3667C8.64155 12.5504 9.70514 11.5363 10.3482 10.8932C10.6451 10.5964 10.9419 9.90382 9.70514 10.7448C7.94899 11.9568 6.21755 13.0946 6.21755 13.0946C6.21755 13.0946 5.82179 13.3419 5.07975 13.1193C4.33769 12.8967 3.47197 12.5999 3.47197 12.5999C3.47197 12.5999 2.87837 12.2289 3.89249 11.8331Z" fill="#0088CC"/>
<path d="M22.0568 16V7.27273H23.1136V11.1591H27.767V7.27273H28.8239V16H27.767V12.0966H23.1136V16H22.0568ZM30.8033 16V9.45455H31.8089V16H30.8033ZM31.3146 8.36364C31.1186 8.36364 30.9496 8.29688 30.8075 8.16335C30.6683 8.02983 30.5987 7.86932 30.5987 7.68182C30.5987 7.49432 30.6683 7.33381 30.8075 7.20028C30.9496 7.06676 31.1186 7 31.3146 7C31.5107 7 31.6783 7.06676 31.8175 7.20028C31.9595 7.33381 32.0305 7.49432 32.0305 7.68182C32.0305 7.86932 31.9595 8.02983 31.8175 8.16335C31.6783 8.29688 31.5107 8.36364 31.3146 8.36364ZM36.1225 16.1364C35.5771 16.1364 35.0955 15.9986 34.6779 15.723C34.2603 15.4446 33.9336 15.0526 33.6978 14.5469C33.462 14.0384 33.3441 13.4375 33.3441 12.7443C33.3441 12.0568 33.462 11.4602 33.6978 10.9545C33.9336 10.4489 34.2617 10.0582 34.6822 9.78267C35.1026 9.5071 35.5884 9.36932 36.1396 9.36932C36.5657 9.36932 36.9023 9.44034 37.1495 9.58239C37.3995 9.72159 37.5898 9.88068 37.7205 10.0597C37.854 10.2358 37.9577 10.3807 38.0316 10.4943H38.1168V7.27273H39.1225V16H38.1509V14.9943H38.0316C37.9577 15.1136 37.8526 15.2642 37.7163 15.446C37.5799 15.625 37.3853 15.7855 37.1325 15.9276C36.8796 16.0668 36.543 16.1364 36.1225 16.1364ZM36.2589 15.233C36.6623 15.233 37.0032 15.1278 37.2816 14.9176C37.56 14.7045 37.7717 14.4105 37.9165 14.0355C38.0614 13.6577 38.1339 13.2216 38.1339 12.7273C38.1339 12.2386 38.0629 11.8111 37.9208 11.4446C37.7788 11.0753 37.5685 10.7884 37.2901 10.5838C37.0117 10.3764 36.668 10.2727 36.2589 10.2727C35.8327 10.2727 35.4776 10.3821 35.1935 10.6009C34.9123 10.8168 34.7006 11.1108 34.5586 11.483C34.4194 11.8523 34.3498 12.267 34.3498 12.7273C34.3498 13.1932 34.4208 13.6165 34.5629 13.9972C34.7077 14.375 34.9208 14.6761 35.2021 14.9006C35.4862 15.1222 35.8384 15.233 36.2589 15.233ZM43.5756 16.1364C43.0302 16.1364 42.5487 15.9986 42.131 15.723C41.7134 15.4446 41.3867 15.0526 41.1509 14.5469C40.9151 14.0384 40.7972 13.4375 40.7972 12.7443C40.7972 12.0568 40.9151 11.4602 41.1509 10.9545C41.3867 10.4489 41.7148 10.0582 42.1353 9.78267C42.5558 9.5071 43.0415 9.36932 43.5927 9.36932C44.0188 9.36932 44.3555 9.44034 44.6026 9.58239C44.8526 9.72159 45.043 9.88068 45.1737 10.0597C45.3072 10.2358 45.4109 10.3807 45.4847 10.4943H45.57V7.27273H46.5756V16H45.604V14.9943H45.4847C45.4109 15.1136 45.3058 15.2642 45.1694 15.446C45.033 15.625 44.8384 15.7855 44.5856 15.9276C44.3327 16.0668 43.9961 16.1364 43.5756 16.1364ZM43.712 15.233C44.1154 15.233 44.4563 15.1278 44.7347 14.9176C45.0131 14.7045 45.2248 14.4105 45.3697 14.0355C45.5146 13.6577 45.587 13.2216 45.587 12.7273C45.587 12.2386 45.516 11.8111 45.3739 11.4446C45.2319 11.0753 45.0217 10.7884 44.7433 10.5838C44.4648 10.3764 44.1211 10.2727 43.712 10.2727C43.2859 10.2727 42.9308 10.3821 42.6467 10.6009C42.3654 10.8168 42.1538 11.1108 42.0117 11.483C41.8725 11.8523 41.8029 12.267 41.8029 12.7273C41.8029 13.1932 41.8739 13.6165 42.016 13.9972C42.1609 14.375 42.3739 14.6761 42.6552 14.9006C42.9393 15.1222 43.2915 15.233 43.712 15.233ZM51.3015 16.1364C50.6708 16.1364 50.1268 15.9972 49.6694 15.7188C49.2148 15.4375 48.864 15.0455 48.6168 14.5426C48.3725 14.0369 48.2504 13.4489 48.2504 12.7784C48.2504 12.108 48.3725 11.517 48.6168 11.0057C48.864 10.4915 49.2077 10.0909 49.6481 9.80398C50.0913 9.5142 50.6083 9.36932 51.1992 9.36932C51.5401 9.36932 51.8768 9.42614 52.2092 9.53977C52.5415 9.65341 52.8441 9.83807 53.1168 10.0938C53.3896 10.3466 53.6069 10.6818 53.7688 11.0994C53.9308 11.517 54.0117 12.0312 54.0117 12.642V13.0682H48.9663V12.1989H52.989C52.989 11.8295 52.9151 11.5 52.7674 11.2102C52.6225 10.9205 52.4151 10.6918 52.1452 10.5241C51.8782 10.3565 51.5629 10.2727 51.1992 10.2727C50.7987 10.2727 50.4521 10.3722 50.1594 10.571C49.8697 10.767 49.6467 11.0227 49.4904 11.3381C49.3342 11.6534 49.256 11.9915 49.256 12.3523V12.9318C49.256 13.4261 49.3413 13.8452 49.5117 14.1889C49.685 14.5298 49.9251 14.7898 50.2319 14.9688C50.5387 15.1449 50.8952 15.233 51.3015 15.233C51.5657 15.233 51.8043 15.196 52.0174 15.1222C52.2333 15.0455 52.4194 14.9318 52.5756 14.7812C52.7319 14.6278 52.8526 14.4375 52.9379 14.2102L53.9094 14.483C53.8072 14.8125 53.6353 15.1023 53.3938 15.3523C53.1523 15.5994 52.854 15.7926 52.4989 15.9318C52.1438 16.0682 51.7447 16.1364 51.3015 16.1364ZM56.5472 12.0625V16H55.5415V9.45455H56.5131V10.4773H56.5984C56.7518 10.1449 56.9847 9.87784 57.2972 9.67614C57.6097 9.47159 58.0131 9.36932 58.5075 9.36932C58.9506 9.36932 59.3384 9.46023 59.6708 9.64205C60.0032 9.82102 60.2617 10.0938 60.4464 10.4602C60.631 10.8239 60.7234 11.2841 60.7234 11.8409V16H59.7177V11.9091C59.7177 11.3949 59.5842 10.9943 59.3171 10.7074C59.0501 10.4176 58.6836 10.2727 58.2177 10.2727C57.8967 10.2727 57.6097 10.3423 57.3569 10.4815C57.1069 10.6207 56.9094 10.8239 56.7646 11.0909C56.6197 11.358 56.5472 11.6818 56.5472 12.0625ZM68.8509 9.45455V10.3068H65.3224V9.45455H68.8509ZM66.3793 16V8.55114C66.3793 8.17614 66.4673 7.86364 66.6435 7.61364C66.8196 7.36364 67.0483 7.17614 67.3295 7.05114C67.6108 6.92614 67.9077 6.86364 68.2202 6.86364C68.4673 6.86364 68.669 6.88352 68.8253 6.9233C68.9815 6.96307 69.098 7 69.1747 7.03409L68.8849 7.90341C68.8338 7.88636 68.7628 7.86506 68.6719 7.83949C68.5838 7.81392 68.4673 7.80114 68.3224 7.80114C67.9901 7.80114 67.75 7.88494 67.6023 8.05256C67.4574 8.22017 67.3849 8.46591 67.3849 8.78977V16H66.3793ZM70.2603 16V9.45455H71.2319V10.4432H71.3001C71.4194 10.1193 71.6353 9.85653 71.9478 9.65483C72.2603 9.45312 72.6126 9.35227 73.0046 9.35227C73.0785 9.35227 73.1708 9.35369 73.2816 9.35653C73.3924 9.35937 73.4762 9.36364 73.533 9.36932V10.392C73.4989 10.3835 73.4208 10.3707 73.2987 10.3537C73.1793 10.3338 73.0529 10.3239 72.9194 10.3239C72.6012 10.3239 72.3171 10.3906 72.0671 10.5241C71.82 10.6548 71.6239 10.8366 71.479 11.0696C71.337 11.2997 71.266 11.5625 71.266 11.858V16H70.2603ZM77.185 16.1364C76.5941 16.1364 76.0756 15.9957 75.6296 15.7145C75.1864 15.4332 74.8398 15.0398 74.5898 14.5341C74.3427 14.0284 74.2191 13.4375 74.2191 12.7614C74.2191 12.0795 74.3427 11.4844 74.5898 10.9759C74.8398 10.4673 75.1864 10.0724 75.6296 9.79119C76.0756 9.50994 76.5941 9.36932 77.185 9.36932C77.7759 9.36932 78.293 9.50994 78.7362 9.79119C79.1822 10.0724 79.5288 10.4673 79.7759 10.9759C80.0259 11.4844 80.1509 12.0795 80.1509 12.7614C80.1509 13.4375 80.0259 14.0284 79.7759 14.5341C79.5288 15.0398 79.1822 15.4332 78.7362 15.7145C78.293 15.9957 77.7759 16.1364 77.185 16.1364ZM77.185 15.233C77.6339 15.233 78.0032 15.1179 78.293 14.8878C78.5827 14.6577 78.7972 14.3551 78.9364 13.9801C79.0756 13.6051 79.1452 13.1989 79.1452 12.7614C79.1452 12.3239 79.0756 11.9162 78.9364 11.5384C78.7972 11.1605 78.5827 10.8551 78.293 10.6222C78.0032 10.3892 77.6339 10.2727 77.185 10.2727C76.7362 10.2727 76.3668 10.3892 76.0771 10.6222C75.7873 10.8551 75.5728 11.1605 75.4336 11.5384C75.2944 11.9162 75.2248 12.3239 75.2248 12.7614C75.2248 13.1989 75.2944 13.6051 75.4336 13.9801C75.5728 14.3551 75.7873 14.6577 76.0771 14.8878C76.3668 15.1179 76.7362 15.233 77.185 15.233ZM81.6861 16V9.45455H82.6577V10.4773H82.7429C82.8793 10.1278 83.0994 9.85653 83.4034 9.66335C83.7074 9.46733 84.0724 9.36932 84.4986 9.36932C84.9304 9.36932 85.2898 9.46733 85.5767 9.66335C85.8665 9.85653 86.0923 10.1278 86.2543 10.4773H86.3224C86.4901 10.1392 86.7415 9.87074 87.0767 9.67188C87.4119 9.47017 87.8139 9.36932 88.2827 9.36932C88.8679 9.36932 89.3466 9.55256 89.7188 9.91903C90.0909 10.2827 90.277 10.8494 90.277 11.6193V16H89.2713V11.6193C89.2713 11.1364 89.1392 10.7912 88.875 10.5838C88.6108 10.3764 88.2997 10.2727 87.9418 10.2727C87.4815 10.2727 87.125 10.4119 86.8722 10.6903C86.6193 10.9659 86.4929 11.3153 86.4929 11.7386V16H85.4702V11.517C85.4702 11.1449 85.3494 10.8452 85.108 10.6179C84.8665 10.3878 84.5554 10.2727 84.1747 10.2727C83.9134 10.2727 83.669 10.3423 83.4418 10.4815C83.2173 10.6207 83.0355 10.8139 82.8963 11.0611C82.7599 11.3054 82.6918 11.5881 82.6918 11.9091V16H81.6861ZM95.4908 18.4545V9.45455H96.4624V10.4943H96.5817C96.6555 10.3807 96.7578 10.2358 96.8885 10.0597C97.022 9.88068 97.2124 9.72159 97.4595 9.58239C97.7095 9.44034 98.0476 9.36932 98.4737 9.36932C99.0249 9.36932 99.5107 9.5071 99.9311 9.78267C100.352 10.0582 100.68 10.4489 100.915 10.9545C101.151 11.4602 101.269 12.0568 101.269 12.7443C101.269 13.4375 101.151 14.0384 100.915 14.5469C100.68 15.0526 100.353 15.4446 99.9354 15.723C99.5178 15.9986 99.0362 16.1364 98.4908 16.1364C98.0703 16.1364 97.7337 16.0668 97.4808 15.9276C97.228 15.7855 97.0334 15.625 96.897 15.446C96.7607 15.2642 96.6555 15.1136 96.5817 14.9943H96.4964V18.4545H95.4908ZM96.4794 12.7273C96.4794 13.2216 96.5518 13.6577 96.6967 14.0355C96.8416 14.4105 97.0533 14.7045 97.3317 14.9176C97.6101 15.1278 97.951 15.233 98.3544 15.233C98.7749 15.233 99.1257 15.1222 99.407 14.9006C99.6911 14.6761 99.9041 14.375 100.046 13.9972C100.191 13.6165 100.263 13.1932 100.263 12.7273C100.263 12.267 100.192 11.8523 100.05 11.483C99.9112 11.1108 99.6996 10.8168 99.4155 10.6009C99.1342 10.3821 98.7805 10.2727 98.3544 10.2727C97.9453 10.2727 97.6016 10.3764 97.3232 10.5838C97.0447 10.7884 96.8345 11.0753 96.6925 11.4446C96.5504 11.8111 96.4794 12.2386 96.4794 12.7273ZM106.928 13.3239V9.45455H107.934V16H106.928V14.892H106.86C106.707 15.2244 106.468 15.5071 106.144 15.7401C105.82 15.9702 105.411 16.0852 104.917 16.0852C104.508 16.0852 104.144 15.9957 103.826 15.8168C103.508 15.6349 103.258 15.3622 103.076 14.9986C102.894 14.6321 102.803 14.1705 102.803 13.6136V9.45455H103.809V13.5455C103.809 14.0227 103.942 14.4034 104.21 14.6875C104.479 14.9716 104.823 15.1136 105.241 15.1136C105.491 15.1136 105.745 15.0497 106.004 14.9219C106.265 14.794 106.484 14.598 106.66 14.3338C106.839 14.0696 106.928 13.733 106.928 13.3239ZM109.912 16V7.27273H110.918V10.4943H111.003C111.077 10.3807 111.179 10.2358 111.31 10.0597C111.444 9.88068 111.634 9.72159 111.881 9.58239C112.131 9.44034 112.469 9.36932 112.895 9.36932C113.446 9.36932 113.932 9.5071 114.353 9.78267C114.773 10.0582 115.101 10.4489 115.337 10.9545C115.573 11.4602 115.691 12.0568 115.691 12.7443C115.691 13.4375 115.573 14.0384 115.337 14.5469C115.101 15.0526 114.775 15.4446 114.357 15.723C113.939 15.9986 113.458 16.1364 112.912 16.1364C112.492 16.1364 112.155 16.0668 111.902 15.9276C111.65 15.7855 111.455 15.625 111.319 15.446C111.182 15.2642 111.077 15.1136 111.003 14.9943H110.884V16H109.912ZM110.901 12.7273C110.901 13.2216 110.973 13.6577 111.118 14.0355C111.263 14.4105 111.475 14.7045 111.753 14.9176C112.032 15.1278 112.373 15.233 112.776 15.233C113.196 15.233 113.547 15.1222 113.828 14.9006C114.113 14.6761 114.326 14.375 114.468 13.9972C114.613 13.6165 114.685 13.1932 114.685 12.7273C114.685 12.267 114.614 11.8523 114.472 11.483C114.333 11.1108 114.121 10.8168 113.837 10.6009C113.556 10.3821 113.202 10.2727 112.776 10.2727C112.367 10.2727 112.023 10.3764 111.745 10.5838C111.466 10.7884 111.256 11.0753 111.114 11.4446C110.972 11.8111 110.901 12.2386 110.901 12.7273ZM118.235 7.27273V16H117.229V7.27273H118.235ZM120.077 16V9.45455H121.082V16H120.077ZM120.588 8.36364C120.392 8.36364 120.223 8.29688 120.081 8.16335C119.942 8.02983 119.872 7.86932 119.872 7.68182C119.872 7.49432 119.942 7.33381 120.081 7.20028C120.223 7.06676 120.392 7 120.588 7C120.784 7 120.952 7.06676 121.091 7.20028C121.233 7.33381 121.304 7.49432 121.304 7.68182C121.304 7.86932 121.233 8.02983 121.091 8.16335C120.952 8.29688 120.784 8.36364 120.588 8.36364ZM125.583 16.1364C124.97 16.1364 124.441 15.9915 123.998 15.7017C123.555 15.4119 123.214 15.0128 122.975 14.5043C122.737 13.9957 122.618 13.4148 122.618 12.7614C122.618 12.0966 122.74 11.5099 122.984 11.0014C123.231 10.4901 123.575 10.0909 124.015 9.80398C124.458 9.5142 124.975 9.36932 125.566 9.36932C126.027 9.36932 126.441 9.45455 126.811 9.625C127.18 9.79545 127.483 10.0341 127.718 10.3409C127.954 10.6477 128.1 11.0057 128.157 11.4148H127.152C127.075 11.1165 126.904 10.8523 126.64 10.6222C126.379 10.3892 126.027 10.2727 125.583 10.2727C125.191 10.2727 124.848 10.375 124.552 10.5795C124.26 10.7812 124.031 11.0668 123.866 11.4361C123.704 11.8026 123.623 12.233 123.623 12.7273C123.623 13.233 123.703 13.6733 123.862 14.0483C124.024 14.4233 124.251 14.7145 124.544 14.9219C124.839 15.1293 125.186 15.233 125.583 15.233C125.845 15.233 126.082 15.1875 126.295 15.0966C126.508 15.0057 126.689 14.875 126.836 14.7045C126.984 14.5341 127.089 14.3295 127.152 14.0909H128.157C128.1 14.4773 127.96 14.8253 127.735 15.1349C127.514 15.4418 127.22 15.6861 126.853 15.8679C126.49 16.0469 126.066 16.1364 125.583 16.1364Z" fill="#94A3B8"/>
<circle cx="15" cy="6" r="6" fill="#DD2C5A"/>
<path fill-rule="evenodd" clip-rule="evenodd" d="M12.05 2.3875C11.9612 2.3047 11.8436 2.25962 11.7222 2.26177C11.6008 2.26391 11.4849 2.3131 11.399 2.39899C11.3131 2.48487 11.2639 2.60073 11.2618 2.72217C11.2596 2.84361 11.3047 2.96114 11.3875 3.05L17.95 9.6125C17.9929 9.65855 18.0447 9.69549 18.1022 9.72111C18.1597 9.74673 18.2218 9.76051 18.2847 9.76162C18.3476 9.76273 18.4102 9.75115 18.4685 9.72758C18.5269 9.704 18.5799 9.66891 18.6244 9.6244C18.6689 9.57989 18.704 9.52687 18.7276 9.4685C18.7512 9.41013 18.7628 9.34761 18.7616 9.28467C18.7605 9.22173 18.7468 9.15966 18.7211 9.10216C18.6955 9.04466 18.6586 8.99291 18.6125 8.95L17.7863 8.12312C18.4063 7.61153 18.8734 6.93901 19.1363 6.17937C19.1758 6.06456 19.1758 5.93981 19.1363 5.825C18.9324 5.23309 18.6038 4.69181 18.1729 4.2377C17.7419 3.78359 17.2186 3.42721 16.6382 3.19262C16.0577 2.95803 15.4337 2.85069 14.8083 2.87784C14.1828 2.90499 13.5704 3.066 13.0125 3.35L12.05 2.3875ZM14.0475 4.38437L14.7569 5.09437C14.9159 5.05188 15.0834 5.05196 15.2424 5.09461C15.4014 5.13725 15.5464 5.22096 15.6628 5.33734C15.7793 5.45371 15.863 5.59866 15.9058 5.75765C15.9485 5.91663 15.9487 6.08405 15.9063 6.24312L16.6163 6.9525C16.8279 6.59435 16.9145 6.17599 16.8622 5.76327C16.81 5.35056 16.6221 4.96692 16.3279 4.67276C16.0337 4.3786 15.6501 4.19061 15.2374 4.13841C14.8247 4.0862 14.4063 4.17273 14.0482 4.38437" fill="white"/>
<path d="M14.8826 7.87125L16.0176 9.00625C14.9602 9.25883 13.8466 9.10884 12.8937 8.58549C11.9408 8.06213 11.2167 7.20286 10.8626 6.175C10.8232 6.06038 10.8232 5.93587 10.8626 5.82125C11.0219 5.36068 11.257 4.92996 11.5582 4.54688L13.1288 6.1175C13.1575 6.57324 13.3514 7.00287 13.6743 7.32576C13.9972 7.64866 14.4268 7.84262 14.8826 7.87125Z" fill="white"/>
</svg>
