<svg xmlns="http://www.w3.org/2000/svg" width="30" height="28" viewBox="0 0 30 28" fill="none">
  <path d="M2.99968 27.3333C2.26634 27.3333 1.63834 27.072 1.11568 26.5493C0.59301 26.0266 0.332121 25.3991 0.33301 24.6666V8.66663C0.33301 7.93329 0.594343 7.30529 1.11701 6.78263C1.63968 6.25996 2.26723 5.99907 2.99968 5.99996H7.19968L9.66634 3.33329H17.6663V8.66663H21.6663V12.6666H26.9997V24.6666C26.9997 25.4 26.7383 26.028 26.2157 26.5506C25.693 27.0733 25.0655 27.3342 24.333 27.3333H2.99968ZM13.6663 22.6666C15.333 22.6666 16.7499 22.0831 17.917 20.916C19.0841 19.7488 19.6672 18.3324 19.6663 16.6666C19.6663 15 19.0828 13.5831 17.9157 12.416C16.7486 11.2488 15.3321 10.6657 13.6663 10.6666C11.9997 10.6666 10.5828 11.2502 9.41568 12.4173C8.24857 13.5844 7.66545 15.0008 7.66634 16.6666C7.66634 18.3333 8.2499 19.7502 9.41701 20.9173C10.5841 22.0844 12.0006 22.6675 13.6663 22.6666ZM13.6663 20C12.733 20 11.9441 19.6777 11.2997 19.0333C10.6552 18.3888 10.333 17.6 10.333 16.6666C10.333 15.7333 10.6552 14.9444 11.2997 14.3C11.9441 13.6555 12.733 13.3333 13.6663 13.3333C14.5997 13.3333 15.3886 13.6555 16.033 14.3C16.6775 14.9444 16.9997 15.7333 16.9997 16.6666C16.9997 17.6 16.6775 18.3888 16.033 19.0333C15.3886 19.6777 14.5997 20 13.6663 20ZM24.333 8.66663V5.99996H21.6663V3.33329H24.333V0.666626H26.9997V3.33329H29.6663V5.99996H26.9997V8.66663H24.333Z" fill="#CBD5E1"/>
</svg>