<svg width="17" height="16" viewBox="0 0 17 16" fill="none" xmlns="http://www.w3.org/2000/svg">
<path fill-rule="evenodd" clip-rule="evenodd" d="M9.12656 1.60078C9.12656 1.38861 9.04228 1.18512 8.89225 1.0351C8.74222 0.885067 8.53874 0.800781 8.32656 0.800781C8.11439 0.800781 7.91091 0.885067 7.76088 1.0351C7.61085 1.18512 7.52656 1.38861 7.52656 1.60078V6.80078C7.52656 6.90687 7.48442 7.00861 7.40941 7.08362C7.33439 7.15864 7.23265 7.20078 7.12656 7.20078C7.02048 7.20078 6.91873 7.15864 6.84372 7.08362C6.7687 7.00861 6.72656 6.90687 6.72656 6.80078V2.40078C6.72656 2.18861 6.64228 1.98512 6.49225 1.8351C6.34222 1.68507 6.13874 1.60078 5.92656 1.60078C5.71439 1.60078 5.51091 1.68507 5.36088 1.8351C5.21085 1.98512 5.12656 2.18861 5.12656 2.40078V6.80078C5.12656 6.90687 5.08442 7.00861 5.00941 7.08362C4.93439 7.15864 4.83265 7.20078 4.72656 7.20078C4.62048 7.20078 4.51873 7.15864 4.44372 7.08362C4.36871 7.00861 4.32656 6.90687 4.32656 6.80078V4.00078C4.32656 3.78861 4.24228 3.58512 4.09225 3.4351C3.94222 3.28507 3.73874 3.20078 3.52656 3.20078C3.31439 3.20078 3.11091 3.28507 2.96088 3.4351C2.81085 3.58512 2.72656 3.78861 2.72656 4.00078V9.60078C2.72656 10.3362 2.87141 11.0644 3.15284 11.7438C3.43426 12.4232 3.84676 13.0406 4.36676 13.5606C4.88677 14.0806 5.50411 14.4931 6.18354 14.7745C6.86296 15.0559 7.59116 15.2008 8.32656 15.2008C9.06196 15.2008 9.79017 15.0559 10.4696 14.7745C11.149 14.4931 11.7664 14.0806 12.2864 13.5606C12.8064 13.0406 13.2189 12.4232 13.5003 11.7438C13.7817 11.0644 13.9266 10.3362 13.9266 9.60078V6.40078C13.9266 6.18861 13.8423 5.98512 13.6922 5.8351C13.5422 5.68507 13.3387 5.60078 13.1266 5.60078C12.9144 5.60078 12.7109 5.68507 12.5609 5.8351C12.4108 5.98512 12.3266 6.18861 12.3266 6.40078V9.20078C12.3266 9.30687 12.2844 9.40861 12.2094 9.48362C12.1344 9.55864 12.0326 9.60078 11.9266 9.60078C11.8205 9.60078 11.7187 9.55864 11.6437 9.48362C11.5687 9.40861 11.5266 9.30687 11.5266 9.20078V2.40078C11.5266 2.18861 11.4423 1.98512 11.2922 1.8351C11.1422 1.68507 10.9387 1.60078 10.7266 1.60078C10.5144 1.60078 10.3109 1.68507 10.1609 1.8351C10.0108 1.98512 9.92656 2.18861 9.92656 2.40078V6.80078C9.92656 6.90687 9.88442 7.00861 9.80941 7.08362C9.73439 7.15864 9.63265 7.20078 9.52656 7.20078C9.42048 7.20078 9.31873 7.15864 9.24372 7.08362C9.1687 7.00861 9.12656 6.90687 9.12656 6.80078V1.60078Z" fill="#1D4ED8"/>
</svg>
