<svg width="12" height="8" viewBox="0 0 12 8" fill="current" stroke="current" xmlns="http://www.w3.org/2000/svg">
<path fill-rule="evenodd" clip-rule="evenodd" d="M0 4.00001C0 3.84088 0.0632136 3.68826 0.175735 3.57574C0.288257 3.46322 0.44087 3.40001 0.6 3.40001H9.9104L8.184 1.83201C8.12452 1.77806 8.07648 1.71272 8.04272 1.63986C8.00896 1.567 7.99017 1.48811 7.98746 1.40786C7.98474 1.32761 7.99817 1.24763 8.02694 1.17266C8.0557 1.09769 8.09922 1.02925 8.15492 0.971413C8.21062 0.913572 8.27736 0.8675 8.35119 0.835926C8.42502 0.804353 8.50444 0.78792 8.58474 0.787602C8.66504 0.787285 8.74458 0.803088 8.81866 0.834076C8.89274 0.865065 8.95985 0.910608 9.016 0.968006L11.816 3.56801C11.8741 3.62398 11.9203 3.69108 11.9518 3.7653C11.9834 3.83953 11.9996 3.91935 11.9996 4.00001C11.9996 4.08066 11.9834 4.16048 11.9518 4.23471C11.9203 4.30893 11.8741 4.37604 11.816 4.43201L9.016 7.03201C8.95985 7.0894 8.89274 7.13495 8.81866 7.16594C8.74458 7.19692 8.66504 7.21273 8.58474 7.21241C8.50444 7.21209 8.42502 7.19566 8.35119 7.16409C8.27736 7.13251 8.21062 7.08644 8.15492 7.0286C8.09922 6.97076 8.0557 6.90233 8.02694 6.82736C7.99817 6.75239 7.98474 6.67241 7.98746 6.59215C7.99017 6.5119 8.00896 6.43301 8.04272 6.36015C8.07648 6.28729 8.12452 6.22196 8.184 6.16801L9.9104 4.60001H0.6C0.44087 4.60001 0.288257 4.53679 0.175735 4.42427C0.0632136 4.31175 0 4.15914 0 4.00001Z" fill="current" stroke="current"/>
</svg>
