<svg width="16" height="16" viewBox="0 0 16 16" fill="none" xmlns="http://www.w3.org/2000/svg">
<path fill-rule="evenodd" clip-rule="evenodd" d="M0.796875 2.19961C0.796875 2.04048 0.860089 1.88787 0.972611 1.77535C1.08513 1.66282 1.23775 1.59961 1.39687 1.59961H14.5969C14.756 1.59961 14.9086 1.66282 15.0211 1.77535C15.1337 1.88787 15.1969 2.04048 15.1969 2.19961C15.1969 2.35874 15.1337 2.51135 15.0211 2.62387C14.9086 2.7364 14.756 2.79961 14.5969 2.79961H14.3969V9.79961C14.3969 10.3831 14.1651 10.9427 13.7525 11.3552C13.3399 11.7678 12.7804 11.9996 12.1969 11.9996H11.3393L11.9777 14.4476C12.018 14.6016 11.9955 14.7654 11.915 14.9028C11.8346 15.0402 11.7029 15.1401 11.5489 15.1804C11.3948 15.2207 11.2311 15.1982 11.0937 15.1178C10.9562 15.0374 10.8564 14.9056 10.8161 14.7516L10.7249 14.3996H5.26887L5.17767 14.7516C5.13736 14.9056 5.03751 15.0374 4.90008 15.1178C4.76266 15.1982 4.59891 15.2207 4.44487 15.1804C4.29084 15.1401 4.15912 15.0402 4.07871 14.9028C3.99829 14.7654 3.97576 14.6016 4.01607 14.4476L4.65527 11.9996H3.79687C3.2134 11.9996 2.65382 11.7678 2.24124 11.3552C1.82866 10.9427 1.59687 10.3831 1.59687 9.79961V2.79961H1.39687C1.23775 2.79961 1.08513 2.7364 0.972611 2.62387C0.860089 2.51135 0.796875 2.35874 0.796875 2.19961ZM5.89527 11.9996L5.58247 13.1996H10.4121L10.0985 11.9996H5.89527ZM10.5969 3.99961C10.756 3.99961 10.9086 4.06282 11.0211 4.17535C11.1337 4.28787 11.1969 4.44048 11.1969 4.59961V8.99961C11.1969 9.15874 11.1337 9.31135 11.0211 9.42387C10.9086 9.5364 10.756 9.59961 10.5969 9.59961C10.4377 9.59961 10.2851 9.5364 10.1726 9.42387C10.0601 9.31135 9.99687 9.15874 9.99687 8.99961V4.59961C9.99687 4.44048 10.0601 4.28787 10.1726 4.17535C10.2851 4.06282 10.4377 3.99961 10.5969 3.99961ZM5.39687 7.19961C5.556 7.19961 5.70862 7.26282 5.82114 7.37535C5.93366 7.48787 5.99687 7.64048 5.99687 7.79961V8.99961C5.99687 9.15874 5.93366 9.31135 5.82114 9.42387C5.70862 9.5364 5.556 9.59961 5.39687 9.59961C5.23774 9.59961 5.08513 9.5364 4.97261 9.42387C4.86009 9.31135 4.79687 9.15874 4.79687 8.99961V7.79961C4.79687 7.64048 4.86009 7.48787 4.97261 7.37535C5.08513 7.26282 5.23774 7.19961 5.39687 7.19961ZM8.59687 6.19961C8.59687 6.04048 8.53366 5.88787 8.42114 5.77535C8.30862 5.66282 8.156 5.59961 7.99687 5.59961C7.83774 5.59961 7.68513 5.66282 7.57261 5.77535C7.46009 5.88787 7.39687 6.04048 7.39687 6.19961V8.99961C7.39687 9.15874 7.46009 9.31135 7.57261 9.42387C7.68513 9.5364 7.83774 9.59961 7.99687 9.59961C8.156 9.59961 8.30862 9.5364 8.42114 9.42387C8.53366 9.31135 8.59687 9.15874 8.59687 8.99961V6.19961Z" fill="#1D4ED8"/>
</svg>
