<svg width="12" height="14" viewBox="0 0 12 14" fill="none" xmlns="http://www.w3.org/2000/svg">
<path d="M8.66667 8.33334H3.33333C3.15652 8.33334 2.98695 8.40358 2.86193 8.52861C2.7369 8.65363 2.66667 8.8232 2.66667 9.00001C2.66667 9.17682 2.7369 9.34639 2.86193 9.47141C2.98695 9.59644 3.15652 9.66668 3.33333 9.66668H8.66667C8.84348 9.66668 9.01305 9.59644 9.13807 9.47141C9.2631 9.34639 9.33333 9.17682 9.33333 9.00001C9.33333 8.8232 9.2631 8.65363 9.13807 8.52861C9.01305 8.40358 8.84348 8.33334 8.66667 8.33334ZM8.66667 5.66668H4.66667C4.48986 5.66668 4.32029 5.73691 4.19526 5.86194C4.07024 5.98696 4 6.15653 4 6.33334C4 6.51015 4.07024 6.67972 4.19526 6.80475C4.32029 6.92977 4.48986 7.00001 4.66667 7.00001H8.66667C8.84348 7.00001 9.01305 6.92977 9.13807 6.80475C9.2631 6.67972 9.33333 6.51015 9.33333 6.33334C9.33333 6.15653 9.2631 5.98696 9.13807 5.86194C9.01305 5.73691 8.84348 5.66668 8.66667 5.66668ZM11.3333 1.66668H9.33333V1.00001C9.33333 0.823199 9.2631 0.65363 9.13807 0.528606C9.01305 0.403581 8.84348 0.333344 8.66667 0.333344C8.48986 0.333344 8.32029 0.403581 8.19526 0.528606C8.07024 0.65363 8 0.823199 8 1.00001V1.66668H6.66667V1.00001C6.66667 0.823199 6.59643 0.65363 6.4714 0.528606C6.34638 0.403581 6.17681 0.333344 6 0.333344C5.82319 0.333344 5.65362 0.403581 5.5286 0.528606C5.40357 0.65363 5.33333 0.823199 5.33333 1.00001V1.66668H4V1.00001C4 0.823199 3.92976 0.65363 3.80474 0.528606C3.67971 0.403581 3.51014 0.333344 3.33333 0.333344C3.15652 0.333344 2.98695 0.403581 2.86193 0.528606C2.7369 0.65363 2.66667 0.823199 2.66667 1.00001V1.66668H0.666667C0.489856 1.66668 0.320286 1.73691 0.195262 1.86194C0.0702379 1.98696 0 2.15653 0 2.33334V11.6667C0 12.1971 0.210714 12.7058 0.585787 13.0809C0.960859 13.456 1.46957 13.6667 2 13.6667H10C10.5304 13.6667 11.0391 13.456 11.4142 13.0809C11.7893 12.7058 12 12.1971 12 11.6667V2.33334C12 2.15653 11.9298 1.98696 11.8047 1.86194C11.6797 1.73691 11.5101 1.66668 11.3333 1.66668ZM10.6667 11.6667C10.6667 11.8435 10.5964 12.0131 10.4714 12.1381C10.3464 12.2631 10.1768 12.3333 10 12.3333H2C1.82319 12.3333 1.65362 12.2631 1.5286 12.1381C1.40357 12.0131 1.33333 11.8435 1.33333 11.6667V3.00001H2.66667V3.66668C2.66667 3.84349 2.7369 4.01306 2.86193 4.13808C2.98695 4.26311 3.15652 4.33334 3.33333 4.33334C3.51014 4.33334 3.67971 4.26311 3.80474 4.13808C3.92976 4.01306 4 3.84349 4 3.66668V3.00001H5.33333V3.66668C5.33333 3.84349 5.40357 4.01306 5.5286 4.13808C5.65362 4.26311 5.82319 4.33334 6 4.33334C6.17681 4.33334 6.34638 4.26311 6.4714 4.13808C6.59643 4.01306 6.66667 3.84349 6.66667 3.66668V3.00001H8V3.66668C8 3.84349 8.07024 4.01306 8.19526 4.13808C8.32029 4.26311 8.48986 4.33334 8.66667 4.33334C8.84348 4.33334 9.01305 4.26311 9.13807 4.13808C9.2631 4.01306 9.33333 3.84349 9.33333 3.66668V3.00001H10.6667V11.6667Z" fill="#64748B"/>
</svg>
