<svg width="45" height="45" viewBox="0 0 45 45" fill="none" xmlns="http://www.w3.org/2000/svg">
<g filter="url(#filter0_d_1200_15654)">
<circle cx="22.5" cy="21.4482" r="20" fill="white"/>
<circle cx="22.5" cy="21.4482" r="19.5" stroke="#E2E8F0"/>
</g>
<circle cx="22.5" cy="21.4482" r="12" fill="url(#paint0_linear_1200_15654)"/>
<path d="M23.0004 14.7512C23.4197 15.6305 23.7826 16.5358 24.087 17.4612C24.3711 18.3562 24.7116 19.2322 25.1069 20.0838C25.5357 20.9677 26.1452 22.1153 26.4305 21.9812C26.7087 21.8504 26.5231 20.4338 26.5555 19.9218C26.6306 18.7333 26.9396 18.0909 27.1548 17.823C27.3179 17.6198 27.8002 17.2177 28.1795 17.4022C28.346 17.4728 28.4496 17.6412 28.4375 17.8217C28.3351 18.4894 28.2799 19.1637 28.2721 19.8393C28.3098 22.2422 28.6108 22.6845 28.5374 24.1982C28.4726 25.5356 28.2145 26.4948 27.0573 27.507C25.8863 28.5312 24.7165 28.9551 23.2348 28.6436C22.3048 28.448 21.7068 28.1294 20.1587 26.3508C19.0351 25.0599 19.3596 25.4139 18.2959 24.152C17.2326 22.8908 16.8213 22.7028 15.8375 21.6013C15.578 21.3109 15.0709 20.7381 15.4975 20.3121C15.9782 19.8319 16.5796 20.4052 16.6983 20.514C17.6843 21.4179 17.7359 21.6248 18.6854 22.4009C19.0539 22.7021 19.6841 23.1495 19.7776 23.0678C19.9333 22.9319 18.7251 21.5027 17.6129 19.9068C17.2945 19.45 17.1476 19.2239 16.6907 18.6168C16.5692 18.4555 15.9269 17.5725 16.4929 17.1636C17.024 16.7799 17.5346 17.3077 17.7688 17.5719C18.6843 18.6056 18.9642 18.962 19.4809 19.6454C19.8731 20.164 20.9861 21.4537 21.1778 21.3837C21.4385 21.2886 20.4155 19.5597 19.9808 18.8469L19.981 18.8468C19.3932 17.9837 18.8935 17.0636 18.4892 16.1009C18.3926 15.877 18.0086 14.9267 18.5889 14.6522C19.2916 14.3198 19.8026 15.181 20.0833 15.6134C20.8561 16.8041 21.0547 17.2289 21.6291 18.1935C21.9842 18.7898 22.8179 20.342 22.9972 20.2558C23.2113 20.1527 22.735 18.8753 22.5267 18.3297L22.5266 18.3297C22.1299 17.3332 21.8207 16.304 21.602 15.2541C21.4638 14.6097 21.5475 14.0993 21.9248 13.9553C22.4682 13.7481 22.8805 14.4856 23.0005 14.7513L23.0004 14.7512Z" fill="white"/>
<defs>
<filter id="filter0_d_1200_15654" x="0.5" y="0.448242" width="44" height="44" filterUnits="userSpaceOnUse" color-interpolation-filters="sRGB">
<feFlood flood-opacity="0" result="BackgroundImageFix"/>
<feColorMatrix in="SourceAlpha" type="matrix" values="0 0 0 0 0 0 0 0 0 0 0 0 0 0 0 0 0 0 127 0" result="hardAlpha"/>
<feOffset dy="1"/>
<feGaussianBlur stdDeviation="1"/>
<feComposite in2="hardAlpha" operator="out"/>
<feColorMatrix type="matrix" values="0 0 0 0 0.0588235 0 0 0 0 0.0901961 0 0 0 0 0.164706 0 0 0 0.16 0"/>
<feBlend mode="normal" in2="BackgroundImageFix" result="effect1_dropShadow_1200_15654"/>
<feBlend mode="normal" in="SourceGraphic" in2="effect1_dropShadow_1200_15654" result="shape"/>
</filter>
<linearGradient id="paint0_linear_1200_15654" x1="9.17754" y1="21.4481" x2="31.9421" y2="13.8173" gradientUnits="userSpaceOnUse">
<stop stop-color="#427DFF"/>
<stop offset="1" stop-color="#44D5BB"/>
</linearGradient>
</defs>
</svg>
