<svg width="42" height="42" viewBox="0 0 42 42" fill="none" xmlns="http://www.w3.org/2000/svg">
<rect width="42" height="42" rx="21" fill="#DD2C5A" fill-opacity="0.1"/>
<path d="M12.2148 30.5H29.7848C31.5815 30.5 32.7015 28.5517 31.8032 27L23.0181 11.8217C22.1198 10.27 19.8798 10.27 18.9815 11.8217L10.1965 27C9.29815 28.5517 10.4181 30.5 12.2148 30.5ZM20.9998 22.3333C20.3581 22.3333 19.8331 21.8083 19.8331 21.1667V18.8333C19.8331 18.1917 20.3581 17.6667 20.9998 17.6667C21.6415 17.6667 22.1665 18.1917 22.1665 18.8333V21.1667C22.1665 21.8083 21.6415 22.3333 20.9998 22.3333ZM22.1665 27H19.8331V24.6667H22.1665V27Z" fill="#DD2C5A"/>
</svg>
