<svg width="15" height="15" viewBox="0 0 15 15" fill="none" xmlns="http://www.w3.org/2000/svg">
<circle cx="7.5" cy="7.44824" r="7" fill="#1E3A8A"/>
<g clip-path="url(#clip0_1200_15747)">
<path d="M10.515 7.44879C10.515 6.7767 10.2903 6.12389 9.87686 5.59403C9.46338 5.06417 8.88473 4.68764 8.2328 4.52423C7.58087 4.36081 6.89304 4.41988 6.27851 4.69206C5.66399 4.96423 5.15802 5.43391 4.84093 6.02651C4.52385 6.61911 4.41383 7.30065 4.52835 7.96292C4.64287 8.62519 4.97537 9.23022 5.47304 9.68193C5.97071 10.1336 6.60502 10.4061 7.27526 10.4561C7.94549 10.5062 8.61323 10.3308 9.17242 9.95797L9.59081 10.5852C8.97198 10.9989 8.24404 11.2192 7.49964 11.218C5.41789 11.218 3.73041 9.53054 3.73041 7.44879C3.73041 5.36705 5.41789 3.67957 7.49964 3.67957C9.58138 3.67957 11.2689 5.36705 11.2689 7.44879V8.01418C11.2689 8.2964 11.1784 8.5712 11.0108 8.7982C10.8431 9.0252 10.607 9.19245 10.3372 9.27537C10.0675 9.35829 9.77823 9.35251 9.51199 9.25889C9.24575 9.16526 9.01656 8.98873 8.85807 8.75521C8.6065 9.01679 8.28475 9.20017 7.93148 9.28332C7.57822 9.36647 7.20845 9.34585 6.86662 9.22394C6.52479 9.10203 6.22542 8.88401 6.0045 8.59608C5.78357 8.30814 5.65049 7.96255 5.62122 7.60081C5.59196 7.23907 5.66776 6.87657 5.83953 6.55687C6.01129 6.23717 6.27172 5.97386 6.58951 5.79859C6.9073 5.62331 7.26894 5.54352 7.63098 5.5688C7.99302 5.59408 8.34006 5.72336 8.63041 5.9411H9.38425V8.01418C9.38425 8.16413 9.44382 8.30794 9.54985 8.41397C9.65588 8.52 9.79969 8.57956 9.94964 8.57956C10.0996 8.57956 10.2434 8.52 10.3494 8.41397C10.4555 8.30794 10.515 8.16413 10.515 8.01418V7.44879ZM7.49964 6.31803C7.19974 6.31803 6.91212 6.43716 6.70006 6.64922C6.488 6.86128 6.36887 7.1489 6.36887 7.44879C6.36887 7.74869 6.488 8.03631 6.70006 8.24837C6.91212 8.46043 7.19974 8.57956 7.49964 8.57956C7.79954 8.57956 8.08715 8.46043 8.29921 8.24837C8.51127 8.03631 8.63041 7.74869 8.63041 7.44879C8.63041 7.1489 8.51127 6.86128 8.29921 6.64922C8.08715 6.43716 7.79954 6.31803 7.49964 6.31803Z" fill="white"/>
</g>
<defs>
<clipPath id="clip0_1200_15747">
<rect width="8.61539" height="8.61539" fill="white" transform="translate(3.19232 3.1405)"/>
</clipPath>
</defs>
</svg>
