<svg width="24" height="24" viewBox="0 0 23 23" fill="none" xmlns="http://www.w3.org/2000/svg">
<g filter="url(#filter0_d_1200_15747)">
<circle cx="11.5" cy="11.4482" r="7" fill="#1E3A8A"/>
</g>
<g clip-path="url(#clip0_1200_15747)">
<path d="M14.515 11.4488C14.515 10.7767 14.2903 10.1239 13.8769 9.59403C13.4634 9.06417 12.8847 8.68764 12.2328 8.52423C11.5809 8.36081 10.893 8.41988 10.2785 8.69206C9.66399 8.96423 9.15802 9.43391 8.84093 10.0265C8.52385 10.6191 8.41383 11.3007 8.52835 11.9629C8.64287 12.6252 8.97537 13.2302 9.47304 13.6819C9.97071 14.1336 10.605 14.4061 11.2753 14.4561C11.9455 14.5062 12.6132 14.3308 13.1724 13.958L13.5908 14.5852C12.972 14.9989 12.244 15.2192 11.4996 15.218C9.41789 15.218 7.73041 13.5305 7.73041 11.4488C7.73041 9.36705 9.41789 7.67957 11.4996 7.67957C13.5814 7.67957 15.2689 9.36705 15.2689 11.4488V12.0142C15.2689 12.2964 15.1784 12.5712 15.0108 12.7982C14.8431 13.0252 14.607 13.1925 14.3372 13.2754C14.0675 13.3583 13.7782 13.3525 13.512 13.2589C13.2458 13.1653 13.0166 12.9887 12.8581 12.7552C12.6065 13.0168 12.2848 13.2002 11.9315 13.2833C11.5782 13.3665 11.2085 13.3459 10.8666 13.2239C10.5248 13.102 10.2254 12.884 10.0045 12.5961C9.78357 12.3081 9.65049 11.9625 9.62122 11.6008C9.59196 11.2391 9.66776 10.8766 9.83953 10.5569C10.0113 10.2372 10.2717 9.97386 10.5895 9.79859C10.9073 9.62331 11.2689 9.54352 11.631 9.5688C11.993 9.59408 12.3401 9.72336 12.6304 9.9411H13.3843V12.0142C13.3843 12.1641 13.4438 12.3079 13.5499 12.414C13.6559 12.52 13.7997 12.5796 13.9496 12.5796C14.0996 12.5796 14.2434 12.52 14.3494 12.414C14.4555 12.3079 14.515 12.1641 14.515 12.0142V11.4488ZM11.4996 10.318C11.1997 10.318 10.9121 10.4372 10.7001 10.6492C10.488 10.8613 10.3689 11.1489 10.3689 11.4488C10.3689 11.7487 10.488 12.0363 10.7001 12.2484C10.9121 12.4604 11.1997 12.5796 11.4996 12.5796C11.7995 12.5796 12.0872 12.4604 12.2992 12.2484C12.5113 12.0363 12.6304 11.7487 12.6304 11.4488C12.6304 11.1489 12.5113 10.8613 12.2992 10.6492C12.0872 10.4372 11.7995 10.318 11.4996 10.318Z" fill="white"/>
</g>
<defs>
<filter id="filter0_d_1200_15747" x="0.5" y="0.448242" width="22" height="22" filterUnits="userSpaceOnUse" color-interpolation-filters="sRGB">
<feFlood flood-opacity="0" result="BackgroundImageFix"/>
<feColorMatrix in="SourceAlpha" type="matrix" values="0 0 0 0 0 0 0 0 0 0 0 0 0 0 0 0 0 0 127 0" result="hardAlpha"/>
<feOffset/>
<feGaussianBlur stdDeviation="2"/>
<feComposite in2="hardAlpha" operator="out"/>
<feColorMatrix type="matrix" values="0 0 0 0 0 0 0 0 0 0 0 0 0 0 0 0 0 0 0.17 0"/>
<feBlend mode="normal" in2="BackgroundImageFix" result="effect1_dropShadow_1200_15747"/>
<feBlend mode="normal" in="SourceGraphic" in2="effect1_dropShadow_1200_15747" result="shape"/>
</filter>
<clipPath id="clip0_1200_15747">
<rect width="8.61539" height="8.61539" fill="white" transform="translate(7.19232 7.1405)"/>
</clipPath>
</defs>
</svg>
