<svg width="23" height="24" viewBox="0 0 23 24" fill="none" xmlns="http://www.w3.org/2000/svg">
<path d="M6.97018 0.432126C6.37538 -0.171665 5.19472 0.182305 5.03021 1.01374L0.74725 22.6281C0.708478 22.8219 0.720582 23.0225 0.78238 23.2103C0.844178 23.398 0.953564 23.5666 1.09988 23.6995C1.2462 23.8325 1.42445 23.9252 1.61728 23.9688C1.8101 24.0123 2.01092 24.0052 2.20016 23.9481L21.951 18.0266C22.1404 17.9703 22.3119 17.8658 22.4489 17.7235C22.5858 17.5811 22.6835 17.4057 22.7325 17.2143C22.7815 17.0229 22.7801 16.8221 22.7283 16.6314C22.6766 16.4408 22.5763 16.2668 22.4373 16.1264L6.97018 0.432126ZM12.186 17.3665L9.99142 18.0245L9.33348 15.8299L11.528 15.172L12.186 17.3665ZM8.67554 13.6354L7.0307 8.14905L9.22524 7.49111L10.8712 12.9771L8.67554 13.6354Z" fill="#80B2FF"/>
</svg>
