<svg width="14" height="13" viewBox="0 0 14 13" fill="none" xmlns="http://www.w3.org/2000/svg">
<path d="M5.66658 0.333374H8.33325C8.68687 0.333374 9.02601 0.47385 9.27606 0.723898C9.52611 0.973947 9.66658 1.31309 9.66658 1.66671V3.00004H12.3333C12.6869 3.00004 13.026 3.14052 13.2761 3.39056C13.5261 3.64061 13.6666 3.97975 13.6666 4.33337V11.6667C13.6666 12.0203 13.5261 12.3595 13.2761 12.6095C13.026 12.8596 12.6869 13 12.3333 13H1.66659C1.31296 13 0.973825 12.8596 0.723776 12.6095C0.473728 12.3595 0.333252 12.0203 0.333252 11.6667V4.33337C0.333252 3.97975 0.473728 3.64061 0.723776 3.39056C0.973825 3.14052 1.31296 3.00004 1.66659 3.00004H4.33325V1.66671C4.33325 1.31309 4.47373 0.973947 4.72378 0.723898C4.97382 0.47385 5.31296 0.333374 5.66658 0.333374ZM8.33325 3.00004V1.66671H5.66658V3.00004H8.33325ZM5.99992 10.6667L10.3933 6.27337L9.45325 5.33337L5.99992 8.78004L4.60659 7.39337L3.66658 8.33337L5.99992 10.6667Z" fill="#475569"/>
</svg>
