<svg width="17" height="16" viewBox="0 0 17 16" fill="none" xmlns="http://www.w3.org/2000/svg">
<path d="M9.2625 8.6552V10.7464C9.58566 10.6919 9.89497 10.5745 10.1729 10.4008C10.5585 10.1488 10.6625 9.8824 10.6625 9.7008C10.6625 9.5192 10.5585 9.2528 10.1729 9.0008C9.89497 8.82714 9.58566 8.70972 9.2625 8.6552ZM7.3265 6.8968C7.3689 6.9408 7.4185 6.9848 7.4737 7.028C7.6401 7.156 7.8417 7.2552 8.0625 7.3184V5.2832C7.96666 5.3107 7.87305 5.34546 7.7825 5.3872C7.6705 5.4392 7.5665 5.5016 7.4737 5.5736C7.1721 5.8072 7.0625 6.0752 7.0625 6.3008C7.0625 6.448 7.1089 6.6128 7.2241 6.7744C7.2537 6.8152 7.2881 6.856 7.3265 6.896V6.8968Z" fill="#1D4ED8"/>
<path fill-rule="evenodd" clip-rule="evenodd" d="M15.0656 7.99961C15.0656 9.69699 14.3913 11.3249 13.1911 12.5251C11.9909 13.7253 10.363 14.3996 8.66563 14.3996C6.96824 14.3996 5.34037 13.7253 4.14014 12.5251C2.93991 11.3249 2.26563 9.69699 2.26562 7.99961C2.26563 6.30222 2.93991 4.67436 4.14014 3.47413C5.34037 2.27389 6.96824 1.59961 8.66563 1.59961C10.363 1.59961 11.9909 2.27389 13.1911 3.47413C14.3913 4.67436 15.0656 6.30222 15.0656 7.99961ZM8.66563 3.19961C8.82476 3.19961 8.97737 3.26282 9.08989 3.37535C9.20241 3.48787 9.26562 3.64048 9.26562 3.79961V4.05241C9.74593 4.13327 10.1996 4.32895 10.588 4.62281C10.9288 4.88681 11.1832 5.21481 11.328 5.58281C11.3817 5.7298 11.3758 5.89192 11.3116 6.03462C11.2474 6.17733 11.13 6.28931 10.9845 6.3467C10.8389 6.40409 10.6767 6.40235 10.5324 6.34184C10.3881 6.28134 10.2731 6.16686 10.212 6.02281C10.1357 5.84312 10.0121 5.68746 9.85442 5.57241C9.67824 5.43932 9.47846 5.34079 9.26562 5.28201V7.43961C9.82403 7.51401 10.372 7.69561 10.8328 7.99641C11.4624 8.40761 11.8648 9.01241 11.8648 9.70041C11.8648 10.3884 11.4616 10.9932 10.8328 11.4044C10.372 11.706 9.82402 11.8868 9.26482 11.9612V12.2004C9.26482 12.3595 9.20161 12.5122 9.08909 12.6247C8.97657 12.7372 8.82395 12.8004 8.66482 12.8004C8.50569 12.8004 8.35308 12.7372 8.24056 12.6247C8.12804 12.5122 8.06482 12.3595 8.06482 12.2004V11.9604C7.50722 11.8868 6.95923 11.706 6.49843 11.4044C6.11282 11.1524 5.81282 10.8308 5.63602 10.454C5.56855 10.3098 5.56112 10.1448 5.61535 9.99511C5.66959 9.84546 5.78105 9.72348 5.92523 9.65601C6.0694 9.58854 6.23447 9.5811 6.38412 9.63534C6.53377 9.68957 6.65575 9.80104 6.72323 9.94521C6.78723 10.0836 6.91923 10.246 7.15523 10.4004C7.40563 10.5644 7.72003 10.6828 8.06563 10.746V8.54761C7.58534 8.46669 7.13169 8.27101 6.74323 7.97721C6.18563 7.54601 5.86563 6.94441 5.86563 6.29961C5.86563 5.65561 6.18563 5.05321 6.74323 4.62281C7.13166 4.32895 7.58532 4.13327 8.06563 4.05241V3.79961C8.06563 3.64048 8.12884 3.48787 8.24136 3.37535C8.35388 3.26282 8.50649 3.19961 8.66563 3.19961Z" fill="#1D4ED8"/>
</svg>
