<svg width="16" height="16" viewBox="0 0 16 16" fill="none" xmlns="http://www.w3.org/2000/svg">
<path d="M12.76 8.62628C12.7866 8.42628 12.8 8.21961 12.8 7.99961C12.8 7.78628 12.7866 7.57295 12.7533 7.37295L14.1066 6.31961C14.165 6.27154 14.2048 6.20474 14.2194 6.13059C14.234 6.05644 14.2224 5.97952 14.1866 5.91294L12.9066 3.69961C12.869 3.63265 12.8088 3.5812 12.7368 3.55435C12.6648 3.52751 12.5856 3.52701 12.5133 3.55294L10.92 4.19294C10.5866 3.93961 10.2333 3.72628 9.83998 3.56628L9.59998 1.87294C9.58817 1.79663 9.54939 1.72708 9.49067 1.67693C9.43195 1.62677 9.3572 1.59934 9.27998 1.59961H6.71998C6.55998 1.59961 6.43331 1.71294 6.40664 1.87294L6.16664 3.56628C5.77331 3.72628 5.41331 3.94628 5.08664 4.19294L3.49331 3.55294C3.34664 3.49961 3.17998 3.55294 3.09998 3.69961L1.82664 5.91294C1.74664 6.05294 1.77331 6.22628 1.90664 6.31961L3.25998 7.37295C3.22664 7.57295 3.19998 7.79294 3.19998 7.99961C3.19998 8.20628 3.21331 8.42628 3.24664 8.62628L1.89331 9.67961C1.83499 9.72768 1.79515 9.79448 1.78056 9.86863C1.76597 9.94279 1.77754 10.0197 1.81331 10.0863L3.09331 12.2996C3.17331 12.4463 3.33998 12.4929 3.48664 12.4463L5.07998 11.8063C5.41331 12.0596 5.76664 12.2729 6.15998 12.4329L6.39998 14.1263C6.43331 14.2863 6.55998 14.3996 6.71998 14.3996H9.27998C9.43998 14.3996 9.57331 14.2863 9.59331 14.1263L9.83331 12.4329C10.2266 12.2729 10.5866 12.0596 10.9133 11.8063L12.5066 12.4463C12.6533 12.4996 12.82 12.4463 12.9 12.2996L14.18 10.0863C14.26 9.93961 14.2266 9.77295 14.1 9.67961L12.76 8.62628ZM7.99998 10.3996C6.67998 10.3996 5.59998 9.31961 5.59998 7.99961C5.59998 6.67961 6.67998 5.59961 7.99998 5.59961C9.31998 5.59961 10.4 6.67961 10.4 7.99961C10.4 9.31961 9.31998 10.3996 7.99998 10.3996Z" fill="#64748B"/>
</svg>
