<svg width="14" height="15" viewBox="0 0 14 15" fill="none" xmlns="http://www.w3.org/2000/svg">
<path d="M6.97293 0.849121C3.12238 0.849121 0 3.94363 0 7.76102C0 10.8149 1.99795 13.4058 4.76853 14.3198C5.117 14.3837 5.24497 14.1698 5.24497 13.9872C5.24497 13.8224 5.23846 13.2779 5.23551 12.7004C3.29558 13.1185 2.88624 11.8849 2.88624 11.8849C2.56905 11.0859 2.11203 10.8735 2.11203 10.8735C1.47941 10.4445 2.15972 10.4533 2.15972 10.4533C2.85994 10.5021 3.22864 11.1656 3.22864 11.1656C3.85055 12.2223 4.85986 11.9168 5.25777 11.7402C5.32033 11.2934 5.50107 10.9886 5.70046 10.816C4.15171 10.6411 2.52355 10.0485 2.52355 7.40004C2.52355 6.64546 2.79595 6.02883 3.24204 5.5448C3.16963 5.37068 2.93098 4.6677 3.30958 3.71563C3.30958 3.71563 3.89512 3.52986 5.22763 4.42414C5.7838 4.27095 6.38034 4.19419 6.97293 4.19159C7.56552 4.19419 8.16249 4.27095 8.71976 4.42414C10.0507 3.52986 10.6354 3.71563 10.6354 3.71563C11.0149 4.6677 10.7762 5.37068 10.7038 5.5448C11.1508 6.02883 11.4214 6.6454 11.4214 7.40004C11.4214 10.0548 9.79016 10.6393 8.23747 10.8104C8.48755 11.0249 8.71041 11.4456 8.71041 12.0904C8.71041 13.0152 8.70231 13.7596 8.70231 13.9872C8.70231 14.1712 8.82782 14.3867 9.18132 14.3188C11.9504 13.4038 13.9458 10.8139 13.9458 7.76102C13.9458 3.94363 10.8239 0.849121 6.97293 0.849121Z" fill="#161614"/>
</svg>
