<svg width="20" height="20" viewBox="0 0 20 20" fill="none" xmlns="http://www.w3.org/2000/svg">
	<path d="M8.87747 0.0693558C4.26813 0.570371 0.560617 4.27788 0.0596024 8.78702C-0.441413 13.4966 2.26407 17.7051 6.37239 19.3083C6.673 19.4085 6.97361 19.2081 6.97361 18.8073V17.2041C6.97361 17.2041 6.5728 17.3043 6.07178 17.3043C4.66894 17.3043 4.06772 16.1018 3.96752 15.4004C3.86732 14.9996 3.66691 14.699 3.3663 14.3984C3.06569 14.2982 2.96549 14.2982 2.96549 14.198C2.96549 13.9976 3.2661 13.9976 3.3663 13.9976C3.96752 13.9976 4.46853 14.699 4.66894 14.9996C5.16996 15.8012 5.77117 16.0016 6.07178 16.0016C6.47259 16.0016 6.7732 15.9014 6.97361 15.8012C7.07381 15.0998 7.37442 14.3984 7.97564 13.9976C5.67097 13.4966 3.96752 12.1939 3.96752 9.98945C3.96752 8.88722 4.46853 7.78499 5.16996 6.98336C5.06975 6.78296 4.96955 6.28194 4.96955 5.58052C4.96955 5.17971 4.96955 4.57849 5.27016 3.97727C5.27016 3.97727 6.673 3.97727 8.07584 5.27991C8.57686 5.07951 9.27828 4.9793 9.9797 4.9793C10.6811 4.9793 11.3825 5.07951 11.9838 5.27991C13.2864 3.97727 14.7894 3.97727 14.7894 3.97727C14.9898 4.57849 14.9899 5.17971 14.9899 5.58052C14.9899 6.38214 14.8896 6.78296 14.7894 6.98336C15.4909 7.78499 15.9919 8.78702 15.9919 9.98945C15.9919 12.1939 14.2884 13.4966 11.9838 13.9976C12.585 14.4986 12.9858 15.4004 12.9858 16.3022V18.9075C12.9858 19.2081 13.2864 19.5087 13.6872 19.4085C17.3947 17.9055 20 14.2982 20 10.0897C20 4.07748 14.8896 -0.632065 8.87747 0.0693558Z" fill="currentColor" />
</svg>
