<svg width="36" height="22" viewBox="0 0 36 22" fill="none" xmlns="http://www.w3.org/2000/svg">
<g clip-path="url(#clip0_5192_55643)">
<path d="M10 13.6667C9.76389 13.6667 9.56611 13.5867 9.40667 13.4267C9.24667 13.2673 9.16667 13.0695 9.16667 12.8334C9.16667 12.5973 9.24667 12.3992 9.40667 12.2392C9.56611 12.0798 9.76389 12.0001 10 12.0001C10.2361 12.0001 10.4342 12.0798 10.5942 12.2392C10.7536 12.3992 10.8333 12.5973 10.8333 12.8334C10.8333 13.0695 10.7536 13.2673 10.5942 13.4267C10.4342 13.5867 10.2361 13.6667 10 13.6667ZM6.66667 13.6667C6.43056 13.6667 6.2325 13.5867 6.0725 13.4267C5.91306 13.2673 5.83333 13.0695 5.83333 12.8334C5.83333 12.5973 5.91306 12.3992 6.0725 12.2392C6.2325 12.0798 6.43056 12.0001 6.66667 12.0001C6.90278 12.0001 7.10083 12.0798 7.26083 12.2392C7.42028 12.3992 7.5 12.5973 7.5 12.8334C7.5 13.0695 7.42028 13.2673 7.26083 13.4267C7.10083 13.5867 6.90278 13.6667 6.66667 13.6667ZM13.3333 13.6667C13.0972 13.6667 12.8994 13.5867 12.74 13.4267C12.58 13.2673 12.5 13.0695 12.5 12.8334C12.5 12.5973 12.58 12.3992 12.74 12.2392C12.8994 12.0798 13.0972 12.0001 13.3333 12.0001C13.5694 12.0001 13.7672 12.0798 13.9267 12.2392C14.0867 12.3992 14.1667 12.5973 14.1667 12.8334C14.1667 13.0695 14.0867 13.2673 13.9267 13.4267C13.7672 13.5867 13.5694 13.6667 13.3333 13.6667ZM10 17.0001C9.76389 17.0001 9.56611 16.9201 9.40667 16.7601C9.24667 16.6006 9.16667 16.4029 9.16667 16.1667C9.16667 15.9306 9.24667 15.7329 9.40667 15.5734C9.56611 15.4134 9.76389 15.3334 10 15.3334C10.2361 15.3334 10.4342 15.4134 10.5942 15.5734C10.7536 15.7329 10.8333 15.9306 10.8333 16.1667C10.8333 16.4029 10.7536 16.6006 10.5942 16.7601C10.4342 16.9201 10.2361 17.0001 10 17.0001ZM6.66667 17.0001C6.43056 17.0001 6.2325 16.9201 6.0725 16.7601C5.91306 16.6006 5.83333 16.4029 5.83333 16.1667C5.83333 15.9306 5.91306 15.7329 6.0725 15.5734C6.2325 15.4134 6.43056 15.3334 6.66667 15.3334C6.90278 15.3334 7.10083 15.4134 7.26083 15.5734C7.42028 15.7329 7.5 15.9306 7.5 16.1667C7.5 16.4029 7.42028 16.6006 7.26083 16.7601C7.10083 16.9201 6.90278 17.0001 6.66667 17.0001ZM13.3333 17.0001C13.0972 17.0001 12.8994 16.9201 12.74 16.7601C12.58 16.6006 12.5 16.4029 12.5 16.1667C12.5 15.9306 12.58 15.7329 12.74 15.5734C12.8994 15.4134 13.0972 15.3334 13.3333 15.3334C13.5694 15.3334 13.7672 15.4134 13.9267 15.5734C14.0867 15.7329 14.1667 15.9306 14.1667 16.1667C14.1667 16.4029 14.0867 16.6006 13.9267 16.7601C13.7672 16.9201 13.5694 17.0001 13.3333 17.0001ZM4.16667 20.3334C3.70833 20.3334 3.31583 20.1704 2.98917 19.8442C2.66306 19.5176 2.5 19.1251 2.5 18.6667V7.00008C2.5 6.54175 2.66306 6.14953 2.98917 5.82341C3.31583 5.49675 3.70833 5.33341 4.16667 5.33341H5V4.50008C5 4.26397 5.07972 4.06591 5.23917 3.90591C5.39917 3.74647 5.59722 3.66675 5.83333 3.66675C6.06944 3.66675 6.2675 3.74647 6.4275 3.90591C6.58694 4.06591 6.66667 4.26397 6.66667 4.50008V5.33341H13.3333V4.50008C13.3333 4.26397 13.4133 4.06591 13.5733 3.90591C13.7328 3.74647 13.9306 3.66675 14.1667 3.66675C14.4028 3.66675 14.6006 3.74647 14.76 3.90591C14.92 4.06591 15 4.26397 15 4.50008V5.33341H15.8333C16.2917 5.33341 16.6842 5.49675 17.0108 5.82341C17.3369 6.14953 17.5 6.54175 17.5 7.00008V18.6667C17.5 19.1251 17.3369 19.5176 17.0108 19.8442C16.6842 20.1704 16.2917 20.3334 15.8333 20.3334H4.16667ZM4.16667 18.6667H15.8333V10.3334H4.16667V18.6667Z" fill="#64748B"/>
</g>
<rect x="10.5" width="25" height="12" rx="2" fill="url(#paint0_linear_5192_55643)"/>
<path d="M13.1392 9V3.18182H15.2699C15.6828 3.18182 16.0246 3.25 16.2955 3.38636C16.5663 3.52083 16.7689 3.7036 16.9034 3.93466C17.0379 4.16383 17.1051 4.42235 17.1051 4.71023C17.1051 4.95265 17.0606 5.1572 16.9716 5.32386C16.8826 5.48864 16.7633 5.62121 16.6136 5.72159C16.4659 5.82008 16.303 5.89205 16.125 5.9375V5.99432C16.3182 6.00379 16.5066 6.06629 16.6903 6.18182C16.8759 6.29545 17.0294 6.45739 17.1506 6.66761C17.2718 6.87784 17.3324 7.13352 17.3324 7.43466C17.3324 7.73201 17.2623 7.99905 17.1222 8.2358C16.9839 8.47064 16.7699 8.6572 16.4801 8.79545C16.1903 8.93182 15.8201 9 15.3693 9H13.1392ZM14.017 8.24716H15.2841C15.7045 8.24716 16.0057 8.16572 16.1875 8.00284C16.3693 7.83996 16.4602 7.63636 16.4602 7.39205C16.4602 7.20833 16.4138 7.03977 16.321 6.88636C16.2282 6.73295 16.0956 6.6108 15.9233 6.51989C15.7528 6.42898 15.5502 6.38352 15.3153 6.38352H14.017V8.24716ZM14.017 5.69886H15.1932C15.3902 5.69886 15.5672 5.66098 15.7244 5.58523C15.8835 5.50947 16.0095 5.40341 16.1023 5.26705C16.197 5.12879 16.2443 4.96591 16.2443 4.77841C16.2443 4.53788 16.16 4.33617 15.9915 4.1733C15.8229 4.01042 15.5644 3.92898 15.2159 3.92898H14.017V5.69886ZM18.3736 9V3.18182H22.0213V3.9375H19.2514V5.71023H21.831V6.46307H19.2514V8.24432H22.0554V9H18.3736ZM22.907 3.9375V3.18182H27.4098V3.9375H25.5945V9H24.7195V3.9375H22.907ZM28.2088 9H27.277L29.3707 3.18182H30.3849L32.4787 9H31.5469L29.902 4.23864H29.8565L28.2088 9ZM28.3651 6.72159H31.3878V7.46023H28.3651V6.72159Z" fill="white"/>
<defs>
<linearGradient id="paint0_linear_5192_55643" x1="9.12243" y1="5.99994" x2="26.853" y2="-6.38213" gradientUnits="userSpaceOnUse">
<stop stop-color="#427DFF"/>
<stop offset="1" stop-color="#44D5BB"/>
</linearGradient>
<clipPath id="clip0_5192_55643">
<rect width="20" height="20" fill="white" transform="translate(0 2)"/>
</clipPath>
</defs>
</svg>
