<svg xmlns="http://www.w3.org/2000/svg" width="91" height="104" viewBox="0 0 91 104" fill="none">
  <path fill-rule="evenodd" clip-rule="evenodd" d="M46.8987 53.742V67.1973C46.8987 67.5031 47.3591 67.809 47.6661 67.6561L59.4856 60.9284C59.6391 60.7756 59.7926 60.6226 59.7926 60.4697V46.8613C59.7926 46.5555 59.3321 46.2498 59.0252 46.4027L47.5126 52.9775C47.2056 53.1303 46.8987 53.4361 46.8987 53.742Z" fill="#16161F"/>
  <path fill-rule="evenodd" clip-rule="evenodd" d="M27.9393 61.7609L16.2733 55.0329C15.9663 54.8801 15.5058 55.1859 15.5058 55.4917V68.9469C15.5058 69.4058 15.6593 69.7118 15.9663 69.8648L27.6323 76.5925C27.9393 76.7448 28.3998 76.4395 28.3998 76.1336V62.6781C28.3998 62.2192 28.2463 61.9139 27.9393 61.7609Z" fill="#16161F"/>
  <path fill-rule="evenodd" clip-rule="evenodd" d="M27.9393 43.8328L16.2733 37.1048C15.9663 36.9519 15.5058 37.2577 15.5058 37.5635V51.0187C15.5058 51.4777 15.6593 51.7836 15.9663 51.9366L27.6323 58.6643C27.9393 58.8166 28.3998 58.5113 28.3998 58.2054V44.75C28.3998 44.291 28.2463 43.9857 27.9393 43.8328Z" fill="#16161F"/>
  <path fill-rule="evenodd" clip-rule="evenodd" d="M43.6357 52.8272L31.9697 46.0992C31.6628 45.9464 31.2022 46.2521 31.2022 46.5579V60.0132C31.2022 60.4721 31.3557 60.7781 31.6628 60.931L43.3287 67.6587C43.6357 67.811 44.0962 67.5058 44.0962 67.1998V53.7444C44.0962 53.2854 43.9428 52.9802 43.6357 52.8272Z" fill="#16161F"/>
  <path fill-rule="evenodd" clip-rule="evenodd" d="M46.7006 89.8128V103.268C46.7006 103.574 47.1611 103.88 47.4681 103.727L59.2876 96.9993C59.4411 96.8464 59.5946 96.6934 59.5946 96.5405V82.9322C59.5946 82.6264 59.1341 82.3206 58.8271 82.4735L47.3146 89.0483C47.0076 89.2012 46.7006 89.507 46.7006 89.8128Z" fill="#D9DEE2"/>
  <path fill-rule="evenodd" clip-rule="evenodd" d="M62.4033 80.7842V94.2395C62.4033 94.5453 62.8637 94.8512 63.1708 94.6983L74.9903 87.9706C75.1438 87.8178 75.2973 87.6648 75.2973 87.5119V73.9035C75.2973 73.5977 74.8367 73.292 74.5298 73.4449L63.0173 80.0197C62.7102 80.1725 62.4033 80.4783 62.4033 80.7842Z" fill="#D9DEE2"/>
  <path fill-rule="evenodd" clip-rule="evenodd" d="M78.106 72.0932V85.5486C78.106 85.8544 78.5664 86.1603 78.8735 86.0074L90.6929 79.2797C90.8465 79.1268 91 78.9739 91 78.8209V65.2126C91 64.9068 90.5394 64.601 90.2325 64.7539L78.7199 71.3287C78.4129 71.4816 78.106 71.7874 78.106 72.0932Z" fill="#D9DEE2"/>
  <path fill-rule="evenodd" clip-rule="evenodd" d="M78.106 54.3476V67.8029C78.106 68.1087 78.5664 68.4146 78.8735 68.2617L90.6929 61.534C90.8465 61.3812 91 61.2282 91 61.0753V47.4669C91 47.1611 90.5394 46.8554 90.2325 47.0083L78.7199 53.5831C78.4129 53.7359 78.106 54.0417 78.106 54.3476Z" fill="#D9DEE2"/>
  <path fill-rule="evenodd" clip-rule="evenodd" d="M78.106 36.1983V49.6537C78.106 49.9595 78.5664 50.2654 78.8735 50.1125L90.6929 43.3848C90.8465 43.2319 91 43.0789 91 42.926V29.3177C91 29.0119 90.5394 28.7061 90.2325 28.859L78.7199 35.4338C78.4129 35.5867 78.106 35.8925 78.106 36.1983Z" fill="#D9DEE2"/>
  <path fill-rule="evenodd" clip-rule="evenodd" d="M33.324 24.9101L44.9902 18.3353C45.2973 18.1824 45.7574 18.1824 45.911 18.3353L57.7303 25.0631C58.0375 25.3689 58.0375 25.8275 57.7303 25.9804L46.0645 32.5552C45.7574 32.7081 45.4502 32.7081 45.1438 32.5552L33.324 25.8276C33.017 25.5218 33.017 25.063 33.324 24.9101Z" fill="#D9DEE2"/>
  <path fill-rule="evenodd" clip-rule="evenodd" d="M48.5189 15.7977L60.1851 9.22294C60.4923 9.07003 60.9523 9.07003 61.1059 9.22294L72.9252 15.9507C73.2324 16.2565 73.2324 16.7151 72.9252 16.8681L61.2594 23.4429C60.9523 23.5958 60.6451 23.5958 60.3387 23.4429L48.5189 16.7152C48.2119 16.4094 48.2119 15.9507 48.5189 15.7977Z" fill="#D9DEE2"/>
  <path fill-rule="evenodd" clip-rule="evenodd" d="M64.2512 24.9101L75.9173 18.3353C76.2245 18.1824 76.6846 18.1824 76.8381 18.3353L88.6575 25.0631C88.9646 25.3689 88.9646 25.8275 88.6575 25.9804L76.9917 32.5552C76.6846 32.7081 76.3774 32.7081 76.0709 32.5552L64.2512 25.8276C63.9441 25.5218 63.9441 25.063 64.2512 24.9101Z" fill="#D9DEE2"/>
  <path fill-rule="evenodd" clip-rule="evenodd" d="M18.1752 15.8019L29.8414 9.22707C30.1485 9.07416 30.6086 9.07416 30.7622 9.22707L42.5815 15.9548C42.8887 16.2606 42.8887 16.7193 42.5815 16.8722L30.9157 23.447C30.6086 23.5999 30.3014 23.5999 29.995 23.447L18.1752 16.7193C17.8682 16.4135 17.8682 15.9548 18.1752 15.8019Z" fill="#D9DEE2"/>
  <path fill-rule="evenodd" clip-rule="evenodd" d="M33.3701 6.68948L45.0363 0.114684C45.3434 -0.038228 45.8035 -0.038228 45.9571 0.114684L57.7764 6.84246C58.0836 7.14822 58.0836 7.60688 57.7764 7.7598L46.1106 14.3346C45.8035 14.4875 45.4963 14.4875 45.1899 14.3346L33.3701 7.60695C33.0631 7.30113 33.0631 6.84239 33.3701 6.68948Z" fill="#D9DEE2"/>
  <path fill-rule="evenodd" clip-rule="evenodd" d="M2.39682 24.9101L14.063 18.3353C14.3702 18.1824 14.8302 18.1824 14.9838 18.3353L26.8031 25.0631C27.1103 25.3689 27.1103 25.8275 26.8031 25.9804L15.1374 32.5552C14.8302 32.7081 14.523 32.7081 14.2166 32.5552L2.39682 25.8276C2.0898 25.5218 2.0898 25.063 2.39682 24.9101Z" fill="#D9DEE2"/>
  <path fill-rule="evenodd" clip-rule="evenodd" d="M12.6323 53.4356L0.966209 46.7076C0.659259 46.5548 0.198731 46.8605 0.198731 47.1663L0.19873 60.6216C0.19873 61.0805 0.35224 61.3865 0.659259 61.5394L12.3252 68.2672C12.6323 68.4194 13.0927 68.1142 13.0927 67.8082V54.3528C13.0927 53.8938 12.9393 53.5886 12.6323 53.4356Z" fill="#D9DEE2"/>
  <path fill-rule="evenodd" clip-rule="evenodd" d="M12.6323 71.357L0.966209 64.629C0.659259 64.4761 0.198731 64.7819 0.198731 65.0877L0.19873 78.5429C0.19873 79.0019 0.35224 79.3078 0.659259 79.4608L12.3252 86.1885C12.6323 86.3408 13.0927 86.0356 13.0927 85.7296V72.2742C13.0927 71.8152 12.9393 71.51 12.6323 71.357Z" fill="#D9DEE2"/>
  <path fill-rule="evenodd" clip-rule="evenodd" d="M28.0006 79.794L16.3345 73.066C16.0276 72.9131 15.567 73.2189 15.567 73.5247V86.9799C15.567 87.4389 15.7205 87.7448 16.0276 87.8978L27.6935 94.6255C28.0006 94.7778 28.461 94.4725 28.461 94.1666L28.461 80.7112C28.461 80.2522 28.3076 79.9469 28.0006 79.794Z" fill="#D9DEE2"/>
  <path fill-rule="evenodd" clip-rule="evenodd" d="M43.5608 88.9008L31.8948 82.1729C31.5878 82.02 31.1273 82.3258 31.1273 82.6316V96.0868C31.1273 96.5458 31.2808 96.8517 31.5878 97.0047L43.2538 103.732C43.5608 103.885 44.0213 103.579 44.0213 103.273V89.818C44.0213 89.3591 43.8678 89.0538 43.5608 88.9008Z" fill="#D9DEE2"/>
  <path fill-rule="evenodd" clip-rule="evenodd" d="M12.6323 35.2397L0.966209 28.5117C0.659259 28.3588 0.198731 28.6646 0.198731 28.9704L0.19873 42.4256C0.19873 42.8846 0.35224 43.1905 0.659259 43.3435L12.3252 50.0712C12.6323 50.2235 13.0927 49.9182 13.0927 49.6123V36.1569C13.0927 35.6979 12.9393 35.3927 12.6323 35.2397Z" fill="#D9DEE2"/>
  <path fill-rule="evenodd" clip-rule="evenodd" d="M17.7316 33.8184L29.3978 27.2436C29.7049 27.0907 30.165 27.0907 30.3185 27.2436L42.1379 33.9714C42.445 34.2772 42.445 34.7358 42.1379 34.8888L30.4721 41.4636C30.165 41.6165 29.8578 41.6165 29.5513 41.4636L17.7316 34.7359C17.4246 34.4301 17.4246 33.9714 17.7316 33.8184Z" fill="#16161F"/>
  <path fill-rule="evenodd" clip-rule="evenodd" d="M33.3185 42.5337L44.9847 35.9589C45.2918 35.806 45.7519 35.806 45.9055 35.9589L57.7248 42.6867C58.032 42.9924 58.032 43.4511 57.7248 43.604L46.059 50.1788C45.7519 50.3317 45.4447 50.3317 45.1383 50.1788L33.3185 43.4512C33.0115 43.1453 33.0115 42.6866 33.3185 42.5337Z" fill="#16161F"/>
  <path fill-rule="evenodd" clip-rule="evenodd" d="M48.7351 33.8184L60.4013 27.2436C60.7084 27.0907 61.1685 27.0907 61.322 27.2436L73.1414 33.9714C73.4485 34.2772 73.4485 34.7358 73.1414 34.8888L61.4756 41.4636C61.1685 41.6165 60.8613 41.6165 60.5548 41.4636L48.7351 34.7359C48.428 34.4301 48.428 33.9714 48.7351 33.8184Z" fill="#4AE68D"/>
  <path fill-rule="evenodd" clip-rule="evenodd" d="M62.1449 44.7475V58.2029C62.1449 58.5087 62.6053 58.8146 62.9123 58.6617L74.7318 51.934C74.8854 51.7811 75.0388 51.6282 75.0388 51.4753V37.8669C75.0388 37.5611 74.5783 37.2553 74.2714 37.4082L62.7588 43.983C62.4518 44.1359 62.1449 44.4417 62.1449 44.7475Z" fill="#4AE68D"/>
  <path fill-rule="evenodd" clip-rule="evenodd" d="M62.1449 62.6757V76.1311C62.1449 76.4369 62.6053 76.7428 62.9123 76.5899L74.7318 69.8622C74.8854 69.7093 75.0388 69.5563 75.0388 69.4034V55.7951C75.0388 55.4893 74.5783 55.1835 74.2714 55.3364L62.7588 61.9112C62.4518 62.0641 62.1449 62.3699 62.1449 62.6757Z" fill="#4AE68D"/>
  <path fill-rule="evenodd" clip-rule="evenodd" d="M46.7405 71.2635V84.7189C46.7405 85.0247 47.2009 85.3306 47.5079 85.1777L59.3274 78.45C59.481 78.2971 59.6344 78.1441 59.6344 77.9912V64.3829C59.6344 64.0771 59.1739 63.7713 58.867 63.9242L47.3544 70.499C47.0474 70.6519 46.7405 70.9577 46.7405 71.2635Z" fill="#4AE68D"/>
  <path fill-rule="evenodd" clip-rule="evenodd" d="M43.6357 70.6522L31.9697 63.9242C31.6628 63.7714 31.2022 64.0771 31.2022 64.3829V77.8382C31.2022 78.2971 31.3557 78.6031 31.6628 78.756L43.3287 85.4838C43.6357 85.636 44.0962 85.3308 44.0962 85.0248V71.5694C44.0962 71.1105 43.9428 70.8052 43.6357 70.6522Z" fill="#4AE68D"/>
  <path fill-rule="evenodd" clip-rule="evenodd" d="M46.7585 53.7475V67.2028C46.7585 67.5087 47.2189 67.8146 47.5259 67.6617L59.3454 60.9339C59.4989 60.7811 59.6524 60.6281 59.6524 60.4752V46.8669C59.6524 46.561 59.1919 46.2553 58.885 46.4082L47.3724 52.983C47.0654 53.1358 46.7585 53.4417 46.7585 53.7475Z" fill="#156FF7"/>
  <path fill-rule="evenodd" clip-rule="evenodd" d="M27.7991 61.7664L16.1331 55.0385C15.8261 54.8856 15.3656 55.1914 15.3656 55.4972V68.9524C15.3656 69.4114 15.5191 69.7173 15.8261 69.8703L27.4921 76.598C27.7991 76.7503 28.2596 76.445 28.2596 76.1391V62.6836C28.2596 62.2247 28.1062 61.9194 27.7991 61.7664Z" fill="#156FF7"/>
  <path fill-rule="evenodd" clip-rule="evenodd" d="M27.7991 43.8383L16.1331 37.1103C15.8261 36.9574 15.3656 37.2632 15.3656 37.569V51.0242C15.3656 51.4832 15.5191 51.7891 15.8261 51.9421L27.4921 58.6698C27.7991 58.8221 28.2596 58.5169 28.2596 58.2109V44.7555C28.2596 44.2965 28.1062 43.9912 27.7991 43.8383Z" fill="#156FF7"/>
  <path fill-rule="evenodd" clip-rule="evenodd" d="M43.4956 52.8327L31.8295 46.1047C31.5226 45.9519 31.062 46.2576 31.062 46.5634V60.0187C31.062 60.4776 31.2155 60.7836 31.5226 60.9366L43.1885 67.6643C43.4956 67.8166 43.956 67.5113 43.956 67.2053V53.7499C43.956 53.291 43.8026 52.9857 43.4956 52.8327Z" fill="#156FF7"/>
  <path fill-rule="evenodd" clip-rule="evenodd" d="M17.5914 33.824L29.2576 27.2492C29.5647 27.0962 30.0248 27.0962 30.1784 27.2492L41.9977 33.9769C42.3049 34.2827 42.3049 34.7414 41.9977 34.8943L30.3319 41.4691C30.0248 41.622 29.7176 41.622 29.4112 41.4691L17.5914 34.7414C17.2844 34.4356 17.2844 33.9769 17.5914 33.824Z" fill="#156FF7"/>
  <path fill-rule="evenodd" clip-rule="evenodd" d="M33.1783 42.5392L44.8445 35.9644C45.1517 35.8115 45.6117 35.8115 45.7653 35.9644L57.5846 42.6922C57.8918 42.9979 57.8918 43.4566 57.5846 43.6095L45.9189 50.1843C45.6117 50.3372 45.3045 50.3372 44.9981 50.1843L33.1783 43.4567C32.8713 43.1509 32.8713 42.6921 33.1783 42.5392Z" fill="#156FF7"/>
  <path fill-rule="evenodd" clip-rule="evenodd" d="M58.885 46.4082C58.9237 46.3889 58.9649 46.3769 59.0072 46.3713C59.0079 46.3712 59.0087 46.3711 59.0094 46.371C59.0454 46.3664 59.0823 46.3664 59.1194 46.3705C59.418 46.3098 59.7926 46.5855 59.7926 46.8613V60.4697C59.7926 60.4715 59.7926 60.4734 59.7926 60.4752C59.7889 60.6263 59.6373 60.7774 59.4856 60.9284L47.6661 67.6561C47.6274 67.6754 47.5862 67.6874 47.5438 67.693C47.5431 67.6931 47.5424 67.6932 47.5417 67.6933C47.5057 67.6979 47.4688 67.6979 47.4318 67.6938C47.1331 67.7546 46.7585 67.4787 46.7585 67.2028V53.7475C46.7585 53.7456 46.7585 53.7438 46.7585 53.742C46.7622 53.438 47.0673 53.1349 47.3724 52.983L58.885 46.4082ZM47.9796 66.1596L58.5715 60.1307V47.9066L48.0219 53.9314L47.9944 53.9452C47.9899 53.9474 47.9849 53.9501 47.9796 53.9531V66.1596ZM16.2733 55.0329L27.9393 61.7609C28.2463 61.9139 28.3998 62.2192 28.3998 62.6781V76.1336C28.3998 76.1354 28.3998 76.1372 28.3997 76.1391C28.395 76.4021 28.0527 76.6625 27.7628 76.6302C27.712 76.6393 27.6609 76.6412 27.6115 76.6343C27.6105 76.6342 27.6095 76.634 27.6084 76.6339C27.5681 76.628 27.529 76.6163 27.4921 76.598L15.8261 69.8703C15.5191 69.7173 15.3656 69.4113 15.3656 68.9524V55.4972C15.3656 55.4954 15.3656 55.4935 15.3657 55.4917C15.3704 55.2288 15.7126 54.9681 16.0023 55.0005C16.0533 54.9914 16.1045 54.9896 16.154 54.9965C16.155 54.9966 16.156 54.9968 16.157 54.9969C16.1973 55.0028 16.2364 55.0146 16.2733 55.0329ZM27.1786 75.083V62.6836C27.1786 62.6738 27.1785 62.6646 27.1782 62.6562L16.5868 56.5479V68.9469C16.5868 68.957 16.5869 68.9664 16.5872 68.975L27.1786 75.083ZM16.2733 37.1048L27.9393 43.8327C28.2463 43.9857 28.3998 44.291 28.3998 44.7499V58.2054C28.3998 58.2072 28.3998 58.2091 28.3997 58.2109C28.395 58.4739 28.0526 58.7344 27.7628 58.702C27.712 58.7111 27.6609 58.713 27.6115 58.7062C27.6105 58.706 27.6095 58.7059 27.6084 58.7057C27.5681 58.6998 27.529 58.6881 27.4921 58.6698L15.8261 51.9421C15.5191 51.7891 15.3656 51.4832 15.3656 51.0242V37.569C15.3656 37.5672 15.3656 37.5653 15.3657 37.5635C15.3704 37.3007 15.7126 37.0399 16.0023 37.0724C16.0533 37.0632 16.1045 37.0614 16.154 37.0683C16.155 37.0684 16.156 37.0686 16.157 37.0687C16.1973 37.0746 16.2364 37.0864 16.2733 37.1048ZM27.1786 57.1548V44.7555C27.1786 44.7456 27.1785 44.7364 27.1782 44.728L16.5868 38.6198V51.0187C16.5868 51.0289 16.5869 51.0382 16.5872 51.0468L27.1786 57.1548ZM31.9697 46.0992L43.6357 52.8272C43.9428 52.9802 44.0962 53.2854 44.0962 53.7444V67.1998C44.0962 67.2016 44.0962 67.2035 44.0962 67.2053C44.0914 67.4683 43.7491 67.7288 43.4593 67.6964C43.4085 67.7056 43.3574 67.7074 43.308 67.7006C43.3069 67.7004 43.3059 67.7003 43.3048 67.7001C43.2646 67.6943 43.2254 67.6826 43.1885 67.6643L31.5226 60.9366C31.2155 60.7836 31.062 60.4776 31.062 60.0187V46.5634C31.062 46.5616 31.062 46.5598 31.0621 46.5579C31.0668 46.2951 31.409 46.0344 31.6988 46.0668C31.7497 46.0577 31.8009 46.0558 31.8504 46.0627C31.8514 46.0629 31.8525 46.063 31.8535 46.0632C31.8937 46.0691 31.9328 46.0808 31.9697 46.0992ZM42.8751 66.1493V53.7499C42.8751 53.74 42.8749 53.7309 42.8747 53.7225L32.2832 47.6142V60.0131C32.2832 60.0233 32.2833 60.0326 32.2836 60.0412L42.8751 66.1493ZM47.8239 90.0023L47.7963 90.016C47.7918 90.0182 47.7869 90.0209 47.7816 90.024V102.305L58.5136 96.196V83.8974L47.8239 90.0023ZM58.8271 82.4735C59.1341 82.3206 59.5946 82.6264 59.5946 82.9322V96.5405C59.5946 96.6934 59.4411 96.8464 59.2876 96.9992L47.4681 103.727C47.1611 103.88 46.7006 103.574 46.7006 103.268V89.8128C46.7006 89.507 47.0076 89.2012 47.3146 89.0483L58.8271 82.4735ZM63.5266 80.9736L63.499 80.9874C63.4945 80.9896 63.4896 80.9923 63.4843 80.9953V93.2761L74.2163 87.1673V74.8687L63.5266 80.9736ZM74.5298 73.4449L63.0173 80.0197C62.7102 80.1725 62.4033 80.4783 62.4033 80.7842V94.2395C62.4033 94.5453 62.8637 94.8512 63.1708 94.6983L74.9903 87.9706C75.1438 87.8178 75.2973 87.6648 75.2973 87.5119V73.9035C75.2973 73.5977 74.8367 73.292 74.5298 73.4449ZM79.2293 72.2827L79.2017 72.2964C79.1972 72.2986 79.1922 72.3013 79.187 72.3044V84.5851L89.919 78.4764V66.1778L79.2293 72.2827ZM90.2325 64.7539C90.5394 64.601 91 64.9068 91 65.2126V78.8209C91 78.9739 90.8465 79.1268 90.6929 79.2797L78.8735 86.0074C78.5664 86.1603 78.106 85.8544 78.106 85.5486V72.0932C78.106 71.7874 78.4129 71.4816 78.7199 71.3287L90.2325 64.7539ZM79.2293 54.537L79.2017 54.5508C79.1972 54.553 79.1922 54.5557 79.187 54.5587V66.8395L89.919 60.7307V48.4321L79.2293 54.537ZM90.2325 47.0083L78.7199 53.5831C78.4129 53.7359 78.106 54.0417 78.106 54.3476V67.8029C78.106 68.1087 78.5664 68.4146 78.8735 68.2617L90.6929 61.534C90.8465 61.3812 91 61.2282 91 61.0753V47.4669C91 47.1611 90.5394 46.8554 90.2325 47.0083ZM79.2293 36.3878L79.2017 36.4015C79.1972 36.4037 79.1922 36.4064 79.187 36.4095V48.6902L89.919 42.5815V30.2829L79.2293 36.3878ZM90.2325 28.859C90.5394 28.7061 91 29.0119 91 29.3177V42.926C91 43.0789 90.8465 43.2319 90.6929 43.3848L78.8735 50.1125C78.5664 50.2654 78.106 49.9595 78.106 49.6537V36.1983C78.106 35.8925 78.4129 35.5867 78.7199 35.4338L90.2325 28.859ZM34.7075 25.3712L45.4502 19.3169L56.3468 25.5194L45.6045 31.5737L34.7075 25.3712ZM45.1438 32.5552L33.324 25.8276C33.017 25.5218 33.017 25.063 33.324 24.9101L44.9902 18.3353C45.2973 18.1824 45.7574 18.1824 45.911 18.3353L57.7303 25.0631C58.0375 25.3689 58.0375 25.8275 57.7303 25.9804L46.0645 32.5552C45.7574 32.7081 45.4502 32.7081 45.1438 32.5552ZM49.9024 16.2589L60.7994 22.4613L71.5417 16.407L60.6451 10.2045L49.9024 16.2589ZM72.9252 15.9507L61.1059 9.22294C60.9523 9.07003 60.4923 9.07003 60.1851 9.22294L48.5189 15.7977C48.2119 15.9507 48.2119 16.4094 48.5189 16.7152L60.3387 23.4429C60.6451 23.5958 60.9523 23.5958 61.2594 23.4429L72.9252 16.8681C73.2324 16.7151 73.2324 16.2565 72.9252 15.9507ZM65.6346 25.3712L76.5317 31.5737L87.2739 25.5194L76.3774 19.3169L65.6346 25.3712ZM88.6575 25.0631C88.9646 25.3689 88.9646 25.8275 88.6575 25.9804L76.9917 32.5552C76.6846 32.7081 76.3774 32.7081 76.0709 32.5552L64.2512 25.8276C63.9441 25.5218 63.9441 25.063 64.2512 24.9101L75.9173 18.3353C76.2245 18.1824 76.6846 18.1824 76.8381 18.3353L88.6575 25.0631ZM18.1752 16.7193L29.995 23.447C30.3014 23.5999 30.6086 23.5999 30.9157 23.447L42.5815 16.8722C42.8887 16.7193 42.8887 16.2606 42.5815 15.9548L30.7622 9.22707C30.6086 9.07416 30.1485 9.07416 29.8414 9.22707L18.1752 15.8019C17.8682 15.9548 17.8682 16.4135 18.1752 16.7193ZM30.3014 10.2086L19.5587 16.263L30.4557 22.4654L41.198 16.4111L30.3014 10.2086ZM30.3631 10.1935C30.3632 10.1935 30.3625 10.1935 30.361 10.1934C30.3623 10.1934 30.363 10.1934 30.3631 10.1935ZM34.7536 7.1506L45.4963 1.09624L56.3929 7.29874L45.6506 13.353L34.7536 7.1506ZM45.1899 14.3346L33.3701 7.60695C33.0631 7.30113 33.0631 6.84239 33.3701 6.68948L45.0363 0.114684C45.3434 -0.038228 45.8035 -0.038228 45.9571 0.114684L57.7764 6.84246C58.0836 7.14822 58.0836 7.60688 57.7764 7.7598L46.1106 14.3346C45.8035 14.4875 45.4963 14.4875 45.1899 14.3346ZM3.78029 25.3712L14.6773 31.5737L25.4196 25.5194L14.523 19.3169L3.78029 25.3712ZM14.5847 19.3017C14.5849 19.3017 14.5842 19.3017 14.5826 19.3016C14.5838 19.3016 14.5845 19.3017 14.5847 19.3017ZM26.8031 25.0631C27.1103 25.3689 27.1103 25.8275 26.8031 25.9804L15.1374 32.5552C14.8302 32.7081 14.523 32.7081 14.2166 32.5552L2.39682 25.8276C2.0898 25.5218 2.0898 25.063 2.39682 24.9101L14.063 18.3353C14.3702 18.1824 14.8302 18.1824 14.9838 18.3353L26.8031 25.0631ZM12.0113 54.3254L1.2797 48.1362L1.2797 60.6216C1.2797 60.6317 1.27985 60.6411 1.28012 60.6497L12.0118 66.8385V54.3528C12.0118 54.3429 12.0116 54.3338 12.0113 54.3254ZM12.3252 68.2672L0.659259 61.5394C0.35224 61.3865 0.19873 61.0805 0.19873 60.6216V47.1663C0.19873 46.8605 0.659259 46.5548 0.966209 46.7076L12.6323 53.4356C12.9393 53.5886 13.0927 53.8938 13.0927 54.3528V67.8082C13.0927 68.1142 12.6323 68.4194 12.3252 68.2672ZM12.0113 72.2467C12.0116 72.2551 12.0118 72.2643 12.0118 72.2742V84.7599L1.28012 78.571C1.27985 78.5624 1.2797 78.5531 1.2797 78.5429L1.2797 66.0576L12.0113 72.2467ZM0.966209 64.629L12.6323 71.357C12.9393 71.5099 13.0927 71.8152 13.0927 72.2742V85.7296C13.0927 86.0356 12.6323 86.3408 12.3252 86.1885L0.659259 79.4608C0.35224 79.3078 0.19873 79.0019 0.19873 78.5429V65.0877C0.19873 64.7819 0.659259 64.4761 0.966209 64.629ZM27.3796 80.6837C27.3799 80.6921 27.38 80.7013 27.38 80.7112L27.38 93.1969L16.6484 87.008C16.6481 86.9994 16.648 86.9901 16.648 86.9799V74.4946L27.3796 80.6837ZM16.3345 73.066L28.0006 79.794C28.3076 79.9469 28.461 80.2522 28.461 80.7112L28.461 94.1666C28.461 94.4725 28.0006 94.7778 27.6935 94.6255L16.0276 87.8978C15.7205 87.7448 15.567 87.4389 15.567 86.9799V73.5247C15.567 73.2189 16.0276 72.9131 16.3345 73.066ZM42.9399 89.7906L32.2082 83.6015V96.0868C32.2082 96.0969 32.2084 96.1063 32.2087 96.1149L42.9403 102.304V89.818C42.9403 89.8082 42.9401 89.799 42.9399 89.7906ZM43.2538 103.732L31.5878 97.0047C31.2808 96.8517 31.1273 96.5458 31.1273 96.0868V82.6316C31.1273 82.3258 31.5878 82.02 31.8948 82.1728L43.5608 88.9008C43.8678 89.0538 44.0213 89.3591 44.0213 89.818V103.273C44.0213 103.579 43.5608 103.885 43.2538 103.732ZM12.0113 36.1294L1.2797 29.9403L1.2797 42.4256C1.2797 42.4358 1.27985 42.4451 1.28012 42.4537L12.0118 48.6426V36.1569C12.0118 36.147 12.0116 36.1378 12.0113 36.1294ZM0.966209 28.5117L12.6323 35.2397C12.9393 35.3927 13.0927 35.6979 13.0927 36.1569V49.6123C13.0927 49.9182 12.6323 50.2235 12.3252 50.0712L0.659259 43.3435C0.35224 43.1905 0.19873 42.8846 0.19873 42.4256V28.9704C0.19873 28.6646 0.659259 28.3588 0.966209 28.5117ZM17.5914 34.7414C17.2844 34.4356 17.2844 33.9769 17.5914 33.824L29.2576 27.2492C29.2943 27.2309 29.3333 27.2147 29.3736 27.2008C29.3744 27.2006 29.3752 27.2003 29.376 27.2C29.5109 27.1538 29.6613 27.1321 29.7978 27.1347C29.9563 27.1195 30.1098 27.1345 30.2179 27.1797C30.2249 27.1827 30.2317 27.1857 30.2383 27.1889C30.2701 27.2042 30.2973 27.2225 30.3185 27.2436L42.1379 33.9714C42.445 34.2772 42.445 34.7358 42.1379 34.8888L30.4721 41.4636C30.4338 41.4826 30.3954 41.4993 30.3571 41.5137C30.3562 41.514 30.3554 41.5143 30.3546 41.5146C30.229 41.5612 30.1033 41.5822 29.9778 41.5776C29.8264 41.5951 29.6751 41.5753 29.524 41.5184C29.5229 41.518 29.5218 41.5176 29.5208 41.5172C29.4842 41.5034 29.4477 41.4873 29.4112 41.4691L17.5914 34.7414ZM19.115 34.2796L29.7825 28.2676L40.6141 34.4332L29.9472 40.4451L19.115 34.2796ZM33.1783 43.4567C32.8713 43.1509 32.8713 42.6921 33.1783 42.5392L44.8445 35.9644C44.8813 35.9461 44.9202 35.93 44.9606 35.9161C44.9614 35.9158 44.9622 35.9155 44.963 35.9153C45.0979 35.8691 45.2482 35.8473 45.3847 35.8499C45.5432 35.8348 45.6967 35.8498 45.8048 35.895C45.8118 35.8979 45.8186 35.901 45.8253 35.9042C45.8571 35.9195 45.8842 35.9377 45.9055 35.9589L57.7248 42.6867C58.032 42.9924 58.032 43.4511 57.7248 43.604L46.059 50.1788C46.0207 50.1979 45.9823 50.2146 45.944 50.2289C45.9432 50.2292 45.9423 50.2295 45.9415 50.2299C45.8159 50.2764 45.6902 50.2975 45.5647 50.2929C45.4133 50.3103 45.262 50.2906 45.1109 50.2337C45.1098 50.2333 45.1088 50.2329 45.1077 50.2325C45.0712 50.2186 45.0346 50.2025 44.9981 50.1843L33.1783 43.4567ZM34.702 42.9948L45.3694 36.9829L56.2011 43.1485L45.5341 49.1603L34.702 42.9948ZM50.1185 34.2796L61.0156 40.482L71.7578 34.4277L60.8613 28.2252L50.1185 34.2796ZM73.1414 33.9714L61.322 27.2436C61.1685 27.0907 60.7084 27.0907 60.4013 27.2436L48.7351 33.8184C48.428 33.9713 48.428 34.4301 48.7351 34.7359L60.5548 41.4636C60.8613 41.6165 61.1685 41.6165 61.4756 41.4636L73.1414 34.8888C73.4485 34.7358 73.4485 34.2772 73.1414 33.9714ZM63.2682 44.937L63.2406 44.9507C63.2361 44.953 63.2311 44.9556 63.2258 44.9587V57.2394L73.9579 51.1307V38.8321L63.2682 44.937ZM74.2714 37.4082L62.7588 43.983C62.4518 44.1359 62.1449 44.4417 62.1449 44.7475V58.2029C62.1449 58.5087 62.6053 58.8146 62.9123 58.6617L74.7318 51.934C74.8854 51.7811 75.0388 51.6282 75.0388 51.4752V37.8669C75.0388 37.5611 74.5783 37.2553 74.2714 37.4082ZM63.2682 62.8652L63.2406 62.8789C63.2361 62.8811 63.2311 62.8838 63.2258 62.8869V75.1676L73.9579 69.0589V56.7603L63.2682 62.8652ZM74.2714 55.3364C74.5783 55.1835 75.0388 55.4893 75.0388 55.7951V69.4034C75.0388 69.5563 74.8854 69.7093 74.7318 69.8622L62.9123 76.5899C62.6053 76.7428 62.1449 76.4369 62.1449 76.1311V62.6757C62.1449 62.3699 62.4518 62.0641 62.7588 61.9112L74.2714 55.3364ZM47.8638 71.453L47.8362 71.4667C47.8317 71.4689 47.8267 71.4716 47.8214 71.4747V83.7554L58.5535 77.6467V65.3481L47.8638 71.453ZM58.867 63.9242L47.3544 70.499C47.0474 70.6519 46.7405 70.9577 46.7405 71.2635V84.7189C46.7405 85.0247 47.2009 85.3306 47.5079 85.1777L59.3274 78.45C59.481 78.2971 59.6344 78.1441 59.6344 77.9912V64.3829C59.6344 64.0771 59.1739 63.7713 58.867 63.9242ZM43.0148 71.542C43.0151 71.5504 43.0152 71.5595 43.0152 71.5694V84.0551L32.2836 77.8662C32.2833 77.8576 32.2832 77.8483 32.2832 77.8382V65.3528L43.0148 71.542ZM31.9697 63.9242L43.6357 70.6522C43.9428 70.8052 44.0962 71.1104 44.0962 71.5694V85.0248C44.0962 85.3308 43.6357 85.636 43.3287 85.4837L31.6628 78.756C31.3557 78.6031 31.2022 78.2971 31.2022 77.8382V64.3829C31.2022 64.0771 31.6628 63.7714 31.9697 63.9242Z" fill="#D9DEE2"/>
</svg>