<svg width="16" height="16" viewBox="0 0 16 16" fill="none" xmlns="http://www.w3.org/2000/svg">
<path fill-rule="evenodd" clip-rule="evenodd" d="M4.03982 2.87857C5.09008 1.82831 6.51453 1.23828 7.99982 1.23828C9.48511 1.23828 10.9096 1.82831 11.9598 2.87857C13.0101 3.92882 13.6001 5.35328 13.6001 6.83857C13.6001 8.32385 13.0101 9.74831 11.9598 10.7986L7.99982 14.7586L4.03982 10.7986C3.51975 10.2786 3.10721 9.66119 2.82574 8.98173C2.54428 8.30227 2.39941 7.57402 2.39941 6.83857C2.39941 6.10312 2.54428 5.37487 2.82574 4.69541C3.10721 4.01595 3.51975 3.39858 4.03982 2.87857ZM7.99982 8.43857C8.42416 8.43857 8.83113 8.26999 9.13119 7.96994C9.43125 7.66988 9.59982 7.26291 9.59982 6.83857C9.59982 6.41422 9.43125 6.00725 9.13119 5.7072C8.83113 5.40714 8.42416 5.23857 7.99982 5.23857C7.57547 5.23857 7.16851 5.40714 6.86845 5.7072C6.56839 6.00725 6.39982 6.41422 6.39982 6.83857C6.39982 7.26291 6.56839 7.66988 6.86845 7.96994C7.16851 8.26999 7.57547 8.43857 7.99982 8.43857Z" fill="#94A3B8"/>
</svg>
