<svg width="16" height="16" viewBox="0 0 16 16" fill="none" xmlns="http://www.w3.org/2000/svg">
<path fill-rule="evenodd" clip-rule="evenodd" d="M4.03994 3.2399C5.0902 2.18964 6.51465 1.59961 7.99994 1.59961C9.48523 1.59961 10.9097 2.18964 11.9599 3.2399C13.0102 4.29015 13.6002 5.71461 13.6002 7.19989C13.6002 8.68518 13.0102 10.1096 11.9599 11.1599L7.99994 15.1199L4.03994 11.1599C3.51987 10.6399 3.10733 10.0225 2.82587 9.34305C2.5444 8.66359 2.39954 7.93535 2.39954 7.19989C2.39954 6.46444 2.5444 5.7362 2.82587 5.05674C3.10733 4.37728 3.51987 3.75991 4.03994 3.2399ZM7.99994 8.79989C8.42429 8.79989 8.83125 8.63132 9.13131 8.33126C9.43137 8.03121 9.59994 7.62424 9.59994 7.19989C9.59994 6.77555 9.43137 6.36858 9.13131 6.06852C8.83125 5.76847 8.42429 5.5999 7.99994 5.5999C7.57559 5.5999 7.16863 5.76847 6.86857 6.06852C6.56851 6.36858 6.39994 6.77555 6.39994 7.19989C6.39994 7.62424 6.56851 8.03121 6.86857 8.33126C7.16863 8.63132 7.57559 8.79989 7.99994 8.79989Z" fill="#94A3B8"/>
</svg>
