<svg width="15" height="15" viewBox="0 0 15 15" fill="none" xmlns="http://www.w3.org/2000/svg">
<g clip-path="url(#clip0_1200_14996)">
<path d="M11.5833 7.32373H3.41667C2.77233 7.32373 2.25 7.84606 2.25 8.4904V12.5737C2.25 13.2181 2.77233 13.7404 3.41667 13.7404H11.5833C12.2277 13.7404 12.75 13.2181 12.75 12.5737V8.4904C12.75 7.84606 12.2277 7.32373 11.5833 7.32373Z" stroke="#1D4ED8" stroke-width="1.5" stroke-linecap="round" stroke-linejoin="round"/>
<path d="M4.58301 7.32373V4.9904C4.58301 4.21685 4.8903 3.47498 5.43728 2.928C5.98426 2.38102 6.72613 2.07373 7.49967 2.07373C8.27322 2.07373 9.01509 2.38102 9.56207 2.928C10.1091 3.47498 10.4163 4.21685 10.4163 4.9904V7.32373" stroke="#1D4ED8" stroke-width="1.5" stroke-linecap="round" stroke-linejoin="round"/>
</g>
<defs>
<clipPath id="clip0_1200_14996">
<rect width="14" height="14" fill="white" transform="translate(0.5 0.905762)"/>
</clipPath>
</defs>
</svg>
