<svg width="16" height="16" viewBox="0 0 16 16" fill="none" xmlns="http://www.w3.org/2000/svg">
<path d="M6.66683 1.33337H9.3335C9.68712 1.33337 10.0263 1.47385 10.2763 1.7239C10.5264 1.97395 10.6668 2.31309 10.6668 2.66671V4.00004H13.3335C13.6871 4.00004 14.0263 4.14052 14.2763 4.39056C14.5264 4.64061 14.6668 4.97975 14.6668 5.33337V12.6667C14.6668 13.0203 14.5264 13.3595 14.2763 13.6095C14.0263 13.8596 13.6871 14 13.3335 14H2.66683C2.31321 14 1.97407 13.8596 1.72402 13.6095C1.47397 13.3595 1.3335 13.0203 1.3335 12.6667V5.33337C1.3335 4.97975 1.47397 4.64061 1.72402 4.39056C1.97407 4.14052 2.31321 4.00004 2.66683 4.00004H5.3335V2.66671C5.3335 2.31309 5.47397 1.97395 5.72402 1.7239C5.97407 1.47385 6.31321 1.33337 6.66683 1.33337ZM9.3335 4.00004V2.66671H6.66683V4.00004H9.3335ZM7.00016 11.6667L11.3935 7.27337L10.4535 6.33337L7.00016 9.78004L5.60683 8.39337L4.66683 9.33337L7.00016 11.6667Z" fill="#475569"/>
</svg>
