<svg width="16" height="16" viewBox="0 0 16 16" fill="none" xmlns="http://www.w3.org/2000/svg">
<path fill-rule="evenodd" clip-rule="evenodd" d="M14.4016 7.99961C14.4016 9.69699 13.7273 11.3249 12.527 12.5251C11.3268 13.7253 9.69895 14.3996 8.00156 14.3996C6.30418 14.3996 4.67631 13.7253 3.47608 12.5251C2.27585 11.3249 1.60156 9.69699 1.60156 7.99961C1.60156 6.30222 2.27585 4.67436 3.47608 3.47413C4.67631 2.27389 6.30418 1.59961 8.00156 1.59961C9.69895 1.59961 11.3268 2.27389 12.527 3.47413C13.7273 4.67436 14.4016 6.30222 14.4016 7.99961ZM13.2016 7.99961C13.2016 8.85933 12.9885 9.70564 12.5813 10.4628C12.1741 11.22 11.5856 11.8644 10.8683 12.3384C10.151 12.8123 9.32744 13.101 8.47124 13.1787C7.61504 13.2563 6.75294 13.1205 5.96211 12.7833C5.17127 12.4461 4.47638 11.9181 3.93961 11.2466C3.40285 10.575 3.04096 9.78083 2.88635 8.93513C2.73173 8.08944 2.78921 7.2186 3.05364 6.40056C3.31806 5.58251 3.78119 4.8428 4.40156 4.24761V4.60521C4.40154 4.97292 4.47394 5.33704 4.61463 5.67677C4.75533 6.0165 4.96156 6.32519 5.22156 6.58521L6.63596 7.99961L6.40156 8.23401C6.25159 8.38403 6.16733 8.58748 6.16733 8.79961C6.16733 9.01174 6.25159 9.21519 6.40156 9.36521L7.24956 10.2132C7.36112 10.3246 7.44963 10.4569 7.51003 10.6026C7.57042 10.7482 7.60153 10.9043 7.60156 11.062V11.3524C7.60164 11.5009 7.64307 11.6465 7.7212 11.7728C7.79934 11.8991 7.9111 12.0012 8.04396 12.0676L8.26476 12.1788C8.35878 12.2258 8.46114 12.2538 8.56599 12.2613C8.67084 12.2687 8.77613 12.2554 8.87583 12.2221C8.97554 12.1888 9.06771 12.1362 9.14707 12.0673C9.22643 11.9984 9.29144 11.9145 9.33836 11.8204L10.5016 9.49401C10.6141 9.26878 10.653 9.01386 10.6126 8.76534C10.5723 8.51681 10.4548 8.28727 10.2768 8.10921L9.65916 7.49161C9.55417 7.38655 9.422 7.31279 9.27745 7.27859C9.13291 7.2444 8.9817 7.25112 8.84076 7.29801L8.53356 7.40041C8.44222 7.43105 8.34288 7.42769 8.25381 7.39094C8.16475 7.3542 8.09194 7.28654 8.04876 7.20041L7.81196 6.72681C7.77553 6.6545 7.76283 6.57254 7.77567 6.4926C7.78851 6.41266 7.82625 6.3388 7.8835 6.28155C7.94076 6.2243 8.01461 6.18656 8.09455 6.17372C8.1745 6.16087 8.25646 6.17357 8.32876 6.21001L8.53836 6.31481C8.64937 6.37044 8.7718 6.39948 8.89596 6.39961H9.04636C9.17312 6.39964 9.29808 6.36955 9.41093 6.31181C9.52378 6.25408 9.62129 6.17035 9.69544 6.06753C9.76958 5.96472 9.81823 5.84575 9.83738 5.72045C9.85652 5.59514 9.84562 5.46708 9.80556 5.34681L9.75116 5.18361C9.72598 5.10815 9.72387 5.02689 9.7451 4.95022C9.76634 4.87356 9.80995 4.80496 9.87036 4.75321L11.0224 3.76601C11.6969 4.24677 12.2466 4.88189 12.6257 5.61836C13.0048 6.35483 13.2023 7.1713 13.2016 7.99961Z" fill="#1D4ED8"/>
</svg>
