<svg width="28" height="21" viewBox="0 0 28 21" fill="none" xmlns="http://www.w3.org/2000/svg">
<path d="M0 3.72852C0 2.62395 0.895431 1.72852 2 1.72852H26C27.1046 1.72852 28 2.62395 28 3.72852V10.7285V17.7285C28 18.8331 27.1046 19.7285 26 19.7285H2C0.895431 19.7285 0 18.8331 0 17.7285V3.72852Z" fill="url(#paint0_linear_1457_15951)"/>
<path d="M9.31663 7.18306V13.7285H8.12132L5.27366 9.60884H5.22572V13.7285H3.84184V7.18306H5.05633L7.88161 11.2995H7.93914V7.18306H9.31663ZM10.46 13.7285V7.18306H14.8705V8.32404H11.8439V9.8837H14.6436V11.0247H11.8439V12.5875H14.8833V13.7285H10.46ZM17.4441 13.7285L15.5712 7.18306H17.083L18.1664 11.731H18.2207L19.4161 7.18306H20.7104L21.9026 11.7406H21.9601L23.0435 7.18306H24.5553L22.6824 13.7285H21.3337L20.0872 9.44904H20.0361L18.7928 13.7285H17.4441Z" fill="white"/>
<defs>
<linearGradient id="paint0_linear_1457_15951" x1="-1.54287" y1="10.7284" x2="21.6846" y2="-1.38312" gradientUnits="userSpaceOnUse">
<stop stop-color="#427DFF"/>
<stop offset="1" stop-color="#44D5BB"/>
</linearGradient>
</defs>
</svg>
