<svg width="13" height="12" viewBox="0 0 13 12" fill="none" xmlns="http://www.w3.org/2000/svg">
<path d="M8.57526 0.317048L8.63792 0.372382L12.3046 4.03905C12.417 4.15203 12.4852 4.30153 12.4968 4.46047C12.5085 4.6194 12.4628 4.77725 12.3681 4.90541C12.2734 5.03357 12.1359 5.12357 11.9805 5.15909C11.8252 5.19461 11.6623 5.17331 11.5213 5.09905L9.40659 7.21305L8.45726 9.74438C8.43225 9.81118 8.39669 9.87352 8.35192 9.92905L8.30526 9.98238L7.30526 10.9824C7.19038 11.0971 7.0376 11.1659 6.87558 11.176C6.71357 11.186 6.55345 11.1366 6.42526 11.037L6.36192 10.9817L4.49992 9.12038L1.97126 11.6484C1.85128 11.7679 1.6903 11.8374 1.521 11.8425C1.3517 11.8477 1.18678 11.7882 1.05974 11.6762C0.932694 11.5642 0.853053 11.408 0.83699 11.2394C0.820928 11.0708 0.869648 10.9024 0.973256 10.7684L1.02859 10.7057L3.55659 8.17705L1.69526 6.31505C1.58047 6.20025 1.51152 6.04752 1.50133 5.8855C1.49114 5.72349 1.54042 5.56332 1.63992 5.43505L1.69526 5.37238L2.69526 4.37238C2.74556 4.3219 2.80363 4.27981 2.86726 4.24771L2.93259 4.21972L5.46326 3.26972L7.57726 1.15638C7.50517 1.0216 7.48158 0.866146 7.51045 0.716051C7.53932 0.565956 7.61888 0.430338 7.73582 0.331913C7.85276 0.233488 7.99997 0.178235 8.15279 0.175407C8.30561 0.17258 8.45476 0.223017 8.57526 0.317048Z" fill="#6EAC51"/>
</svg>
