<svg width="16" height="16" viewBox="0 0 16 16" fill="none" xmlns="http://www.w3.org/2000/svg">
<path fill-rule="evenodd" clip-rule="evenodd" d="M8.66667 8.66667V13.3333C8.66667 13.5101 8.59643 13.6797 8.4714 13.8047C8.34638 13.9298 8.17681 14 8 14C7.82319 14 7.65362 13.9298 7.5286 13.8047C7.40357 13.6797 7.33333 13.5101 7.33333 13.3333V8.66667H2.66667C2.48986 8.66667 2.32029 8.59643 2.19526 8.4714C2.07024 8.34638 2 8.17681 2 8C2 7.82319 2.07024 7.65362 2.19526 7.5286C2.32029 7.40357 2.48986 7.33333 2.66667 7.33333H7.33333V2.66667C7.33333 2.48986 7.40357 2.32029 7.5286 2.19526C7.65362 2.07024 7.82319 2 8 2C8.17681 2 8.34638 2.07024 8.4714 2.19526C8.59643 2.32029 8.66667 2.48986 8.66667 2.66667V7.33333H13.3333C13.5101 7.33333 13.6797 7.40357 13.8047 7.5286C13.9298 7.65362 14 7.82319 14 8C14 8.17681 13.9298 8.34638 13.8047 8.4714C13.6797 8.59643 13.5101 8.66667 13.3333 8.66667H8.66667Z" fill="#0F172A"/>
</svg>
