<svg width="16" height="17" viewBox="0 0 16 17" fill="none" xmlns="http://www.w3.org/2000/svg">
<path fill-rule="evenodd" clip-rule="evenodd" d="M12 7C12.3978 7 12.7794 6.84197 13.0607 6.56066C13.342 6.27936 13.5 5.89783 13.5 5.5C13.5 5.10218 13.342 4.72065 13.0607 4.43934C12.7794 4.15804 12.3978 4 12 4C11.6022 4 11.2206 4.15804 10.9393 4.43934C10.658 4.72065 10.5 5.10218 10.5 5.5C10.5 5.89783 10.658 6.27936 10.9393 6.56066C11.2206 6.84197 11.6022 7 12 7ZM12 8.5C12.5611 8.49995 13.1109 8.34255 13.587 8.04568C14.0632 7.74881 14.4465 7.32436 14.6935 6.82055C14.9404 6.31675 15.0412 5.75377 14.9843 5.19558C14.9273 4.63738 14.715 4.10635 14.3714 3.66278C14.0278 3.21921 13.5666 2.8809 13.0404 2.68627C12.5141 2.49164 11.9438 2.44849 11.3943 2.56173C10.8447 2.67497 10.338 2.94005 9.93153 3.32686C9.52509 3.71368 9.23527 4.20673 9.095 4.75H1.75C1.55109 4.75 1.36032 4.82902 1.21967 4.96967C1.07902 5.11032 1 5.30109 1 5.5C1 5.69891 1.07902 5.88968 1.21967 6.03033C1.36032 6.17098 1.55109 6.25 1.75 6.25H9.095C9.26144 6.89393 9.63707 7.46432 10.1629 7.87158C10.6887 8.27884 11.3349 8.49989 12 8.5ZM5.5 11.5C5.5 11.8978 5.34196 12.2794 5.06066 12.5607C4.77936 12.842 4.39783 13 4 13C3.60218 13 3.22064 12.842 2.93934 12.5607C2.65804 12.2794 2.5 11.8978 2.5 11.5C2.5 11.1022 2.65804 10.7206 2.93934 10.4393C3.22064 10.158 3.60218 10 4 10C4.39783 10 4.77936 10.158 5.06066 10.4393C5.34196 10.7206 5.5 11.1022 5.5 11.5ZM6.905 12.25C6.7211 12.9557 6.28652 13.5703 5.68249 13.9789C5.07846 14.3875 4.34631 14.5622 3.62287 14.4703C2.89943 14.3784 2.23419 14.0262 1.75149 13.4796C1.26879 12.933 1.00165 12.2293 1 11.5C0.999752 10.7696 1.26595 10.0643 1.74867 9.51618C2.23138 8.96809 2.89747 8.61492 3.622 8.52289C4.34654 8.43087 5.07977 8.60631 5.68417 9.01633C6.28858 9.42635 6.72266 10.0428 6.905 10.75H14.25C14.4489 10.75 14.6397 10.829 14.7803 10.9697C14.921 11.1103 15 11.3011 15 11.5C15 11.6989 14.921 11.8897 14.7803 12.0303C14.6397 12.171 14.4489 12.25 14.25 12.25H6.905Z" fill="#156FF7"/>
</svg>
