<svg width="7" height="11" viewBox="0 0 7 11" fill="none" xmlns="http://www.w3.org/2000/svg">
<path d="M2.94722 7.87172V7.77726C2.95385 7.16078 3.01516 6.67025 3.13117 6.30567C3.25048 5.94109 3.41952 5.6461 3.63827 5.42073C3.85702 5.19535 4.12051 4.98986 4.42875 4.80425C4.62761 4.6783 4.80659 4.53744 4.96568 4.38166C5.12477 4.22589 5.25072 4.04691 5.34352 3.84473C5.43633 3.64255 5.48273 3.41883 5.48273 3.17357C5.48273 2.87859 5.41313 2.62338 5.27392 2.40794C5.13472 2.19251 4.94911 2.02679 4.7171 1.91078C4.48841 1.79146 4.2332 1.73181 3.95148 1.73181C3.69627 1.73181 3.45266 1.78484 3.22065 1.8909C2.98865 1.99696 2.79641 2.16268 2.64395 2.38806C2.49149 2.61012 2.40366 2.89682 2.38046 3.24814H0.869092C0.892293 2.65155 1.0431 2.14776 1.32151 1.73678C1.59992 1.32248 1.96781 1.00927 2.4252 0.797146C2.8859 0.585025 3.39466 0.478965 3.95148 0.478965C4.56133 0.478965 5.09494 0.593311 5.55233 0.822005C6.00972 1.04738 6.36436 1.36391 6.61625 1.77158C6.87146 2.17593 6.99906 2.64824 6.99906 3.18848C6.99906 3.55969 6.94106 3.89445 6.82506 4.19274C6.70905 4.48772 6.54333 4.75122 6.3279 4.98323C6.11578 5.21523 5.86057 5.42073 5.56227 5.5997C5.28055 5.77537 5.05186 5.95766 4.87619 6.14658C4.70385 6.3355 4.5779 6.55922 4.49835 6.81774C4.41881 7.07627 4.37572 7.39611 4.36909 7.77726V7.87172H2.94722ZM3.69793 10.8944C3.42615 10.8944 3.19248 10.7983 2.99693 10.6061C2.80138 10.4105 2.70361 10.1752 2.70361 9.90013C2.70361 9.62835 2.80138 9.39634 2.99693 9.20411C3.19248 9.00856 3.42615 8.91078 3.69793 8.91078C3.96639 8.91078 4.1984 9.00856 4.39395 9.20411C4.59281 9.39634 4.69225 9.62835 4.69225 9.90013C4.69225 10.0824 4.64584 10.2498 4.55304 10.4023C4.46355 10.5514 4.34423 10.6707 4.19509 10.7602C4.04594 10.8497 3.88022 10.8944 3.69793 10.8944Z" fill="#64748B"/>
</svg>
