<svg width="24" height="25" viewBox="0 0 24 25" fill="none" xmlns="http://www.w3.org/2000/svg">
<circle cx="12" cy="12.271" r="12" fill="#E2E8F0"/>
<path d="M10.9473 14.1428V14.0483C10.9539 13.4318 11.0152 12.9413 11.1312 12.5767C11.2505 12.2121 11.4196 11.9172 11.6383 11.6918C11.8571 11.4664 12.1206 11.2609 12.4288 11.0753C12.6277 10.9494 12.8066 10.8085 12.9657 10.6527C13.1248 10.4969 13.2508 10.318 13.3436 10.1158C13.4364 9.91361 13.4828 9.68989 13.4828 9.44462C13.4828 9.14964 13.4132 8.89444 13.274 8.679C13.1348 8.46356 12.9492 8.29784 12.7171 8.18184C12.4885 8.06252 12.2332 8.00286 11.9515 8.00286C11.6963 8.00286 11.4527 8.05589 11.2207 8.16195C10.9887 8.26801 10.7965 8.43373 10.644 8.65911C10.4915 8.88118 10.4037 9.16787 10.3805 9.5192H8.86914C8.89234 8.92261 9.04314 8.41882 9.32155 8.00783C9.59996 7.59354 9.96786 7.28032 10.4252 7.0682C10.8859 6.85608 11.3947 6.75002 11.9515 6.75002C12.5614 6.75002 13.095 6.86437 13.5524 7.09306C14.0098 7.31844 14.3644 7.63497 14.6163 8.04264C14.8715 8.44699 14.9991 8.91929 14.9991 9.45954C14.9991 9.83075 14.9411 10.1655 14.8251 10.4638C14.7091 10.7588 14.5434 11.0223 14.3279 11.2543C14.1158 11.4863 13.8606 11.6918 13.5623 11.8708C13.2806 12.0464 13.0519 12.2287 12.8762 12.4176C12.7039 12.6066 12.5779 12.8303 12.4984 13.0888C12.4189 13.3473 12.3758 13.6672 12.3691 14.0483V14.1428H10.9473ZM11.698 17.1655C11.4262 17.1655 11.1925 17.0694 10.997 16.8772C10.8014 16.6816 10.7037 16.4463 10.7037 16.1712C10.7037 15.8994 10.8014 15.6674 10.997 15.4752C11.1925 15.2796 11.4262 15.1818 11.698 15.1818C11.9664 15.1818 12.1984 15.2796 12.394 15.4752C12.5929 15.6674 12.6923 15.8994 12.6923 16.1712C12.6923 16.3535 12.6459 16.5209 12.5531 16.6733C12.4636 16.8225 12.3443 16.9418 12.1951 17.0313C12.046 17.1208 11.8803 17.1655 11.698 17.1655Z" fill="#64748B"/>
</svg>
