<svg width="17" height="16" viewBox="0 0 17 16" fill="none" xmlns="http://www.w3.org/2000/svg">
<path fill-rule="evenodd" clip-rule="evenodd" d="M6.61024 1.44398C6.64647 1.26269 6.74438 1.09955 6.88731 0.982291C7.03024 0.865031 7.20936 0.800893 7.39424 0.800781H9.28224C9.46711 0.800893 9.64624 0.865031 9.78917 0.982291C9.9321 1.09955 10.03 1.26269 10.0662 1.44398L10.331 2.76558C10.8898 2.97853 11.4108 3.27968 11.8742 3.65758L13.1526 3.22558C13.3278 3.1664 13.518 3.16968 13.6909 3.23487C13.8639 3.30006 14.009 3.42314 14.1014 3.58318L15.0454 5.21838C15.138 5.37845 15.1722 5.56563 15.1423 5.74809C15.1124 5.93054 15.0202 6.09701 14.8814 6.21918L13.8678 7.10958C13.9624 7.69995 13.9624 8.30161 13.8678 8.89198L14.8814 9.78238C15.0201 9.9044 15.1124 10.0707 15.1424 10.253C15.1724 10.4352 15.1385 10.6223 15.0462 10.7824L14.1022 12.4184C14.0097 12.5786 13.8645 12.7018 13.6914 12.767C13.5182 12.8322 13.3279 12.8354 13.1526 12.776L11.8742 12.344C11.4108 12.7219 10.8898 13.023 10.331 13.236L10.067 14.5576C10.0308 14.7389 9.9329 14.902 9.78997 15.0193C9.64704 15.1365 9.46791 15.2007 9.28304 15.2008H7.39424C7.20936 15.2007 7.03024 15.1365 6.88731 15.0193C6.74438 14.902 6.64647 14.7389 6.61024 14.5576L6.34544 13.236C5.78667 13.023 5.26566 12.7219 4.80224 12.344L3.52384 12.776C3.34872 12.8352 3.15852 12.8319 2.98555 12.7667C2.81258 12.7015 2.66753 12.5784 2.57504 12.4184L1.63104 10.7832C1.53852 10.6231 1.50429 10.4359 1.53419 10.2535C1.56409 10.071 1.65626 9.90455 1.79504 9.78238L2.80864 8.89118C2.71425 8.30106 2.71425 7.6997 2.80864 7.10958L1.79504 6.21918C1.65633 6.09716 1.56413 5.93089 1.53409 5.74861C1.50405 5.56632 1.53802 5.37926 1.63024 5.21918L2.57424 3.58318C2.66676 3.42296 2.81195 3.29977 2.98509 3.23457C3.15823 3.16936 3.34862 3.16619 3.52384 3.22558L4.80224 3.65758C5.2659 3.27961 5.78719 2.97845 6.34624 2.76558L6.61024 1.44398ZM8.33824 10.4008C8.97476 10.4008 9.58521 10.1479 10.0353 9.69784C10.4854 9.24775 10.7382 8.6373 10.7382 8.00078C10.7382 7.36426 10.4854 6.75381 10.0353 6.30372C9.58521 5.85364 8.97476 5.60078 8.33824 5.60078C7.70172 5.60078 7.09127 5.85364 6.64118 6.30372C6.19109 6.75381 5.93824 7.36426 5.93824 8.00078C5.93824 8.6373 6.19109 9.24775 6.64118 9.69784C7.09127 10.1479 7.70172 10.4008 8.33824 10.4008Z" fill="#1D4ED8"/>
</svg>
