<svg width="29" height="29" viewBox="0 0 29 29" fill="none" xmlns="http://www.w3.org/2000/svg">
<rect x="0.5" y="0.905762" width="28" height="28" rx="4" fill="#DBEAFE"/>
<path d="M11.1667 10.7391V7.40576V10.7391ZM17.8333 10.7391V7.40576V10.7391ZM10.3333 14.0724H18.6667H10.3333ZM8.66667 22.4058H20.3333C20.7754 22.4058 21.1993 22.2302 21.5118 21.9176C21.8244 21.605 22 21.1811 22 20.7391V10.7391C22 10.2971 21.8244 9.87314 21.5118 9.56058C21.1993 9.24802 20.7754 9.07243 20.3333 9.07243H8.66667C8.22464 9.07243 7.80072 9.24802 7.48816 9.56058C7.17559 9.87314 7 10.2971 7 10.7391V20.7391C7 21.1811 7.17559 21.605 7.48816 21.9176C7.80072 22.2302 8.22464 22.4058 8.66667 22.4058Z" stroke="#1D4ED8" stroke-width="1.5" stroke-linecap="round" stroke-linejoin="round"/>
</svg>
