<svg width="12" height="12" viewBox="0 0 12 12" fill="none" xmlns="http://www.w3.org/2000/svg">
<path d="M9.57023 6.46922C9.59023 6.31922 9.60023 6.16422 9.60023 5.99922C9.60023 5.83922 9.59023 5.67922 9.56523 5.52922L10.5802 4.73922C10.624 4.70317 10.6538 4.65307 10.6648 4.59745C10.6757 4.54184 10.667 4.48415 10.6402 4.43422L9.68023 2.77422C9.65196 2.724 9.60684 2.68541 9.55284 2.66527C9.49885 2.64514 9.43947 2.64477 9.38523 2.66422L8.19023 3.14422C7.94023 2.95422 7.67523 2.79422 7.38023 2.67422L7.20023 1.40422C7.19137 1.34699 7.16228 1.29482 7.11825 1.25721C7.07421 1.21959 7.01814 1.19902 6.96023 1.19922H5.04023C4.92023 1.19922 4.82523 1.28422 4.80523 1.40422L4.62523 2.67422C4.33023 2.79422 4.06023 2.95922 3.81523 3.14422L2.62023 2.66422C2.51023 2.62422 2.38523 2.66422 2.32523 2.77422L1.37023 4.43422C1.31023 4.53922 1.33023 4.66922 1.43023 4.73922L2.44523 5.52922C2.42023 5.67922 2.40023 5.84422 2.40023 5.99922C2.40023 6.15422 2.41023 6.31922 2.43523 6.46922L1.42023 7.25922C1.37649 7.29527 1.3466 7.34537 1.33566 7.40099C1.32472 7.4566 1.3334 7.51429 1.36023 7.56422L2.32023 9.22422C2.38023 9.33422 2.50523 9.36922 2.61523 9.33422L3.81023 8.85422C4.06023 9.04422 4.32523 9.20422 4.62023 9.32422L4.80023 10.5942C4.82523 10.7142 4.92023 10.7992 5.04023 10.7992H6.96023C7.08023 10.7992 7.18023 10.7142 7.19523 10.5942L7.37523 9.32422C7.67023 9.20422 7.94023 9.04422 8.18523 8.85422L9.38023 9.33422C9.49023 9.37422 9.61523 9.33422 9.67523 9.22422L10.6352 7.56422C10.6952 7.45422 10.6702 7.32922 10.5752 7.25922L9.57023 6.46922ZM6.00023 7.79922C5.01023 7.79922 4.20023 6.98922 4.20023 5.99922C4.20023 5.00922 5.01023 4.19922 6.00023 4.19922C6.99023 4.19922 7.80023 5.00922 7.80023 5.99922C7.80023 6.98922 6.99023 7.79922 6.00023 7.79922Z" fill="#64748B"/>
</svg>
