<svg width="8" height="8" viewBox="0 0 8 8" fill="current" stroke="current" xmlns="http://www.w3.org/2000/svg">
<path fill-rule="evenodd" clip-rule="evenodd" d="M0 4.00001C0 3.84088 0.063214 3.68826 0.175736 3.57574C0.288258 3.46322 0.44087 3.40001 0.6 3.40001H5.9104L4.184 1.83201C4.12452 1.77806 4.07648 1.71272 4.04272 1.63986C4.00896 1.567 3.99017 1.48811 3.98746 1.40786C3.98475 1.32761 3.99817 1.24763 4.02694 1.17266C4.0557 1.09769 4.09922 1.02925 4.15492 0.971413C4.21062 0.913572 4.27736 0.8675 4.35119 0.835926C4.42502 0.804353 4.50444 0.78792 4.58474 0.787602C4.66504 0.787285 4.74458 0.803088 4.81866 0.834076C4.89274 0.865065 4.95985 0.910608 5.016 0.968006L7.816 3.56801C7.87407 3.62398 7.92026 3.69108 7.95181 3.7653C7.98336 3.83953 7.99962 3.91935 7.99962 4.00001C7.99962 4.08066 7.98336 4.16048 7.95181 4.23471C7.92026 4.30893 7.87407 4.37604 7.816 4.43201L5.016 7.03201C4.95985 7.0894 4.89274 7.13495 4.81866 7.16594C4.74458 7.19692 4.66504 7.21273 4.58474 7.21241C4.50444 7.21209 4.42502 7.19566 4.35119 7.16409C4.27736 7.13251 4.21062 7.08644 4.15492 7.0286C4.09922 6.97076 4.0557 6.90233 4.02694 6.82736C3.99817 6.75239 3.98475 6.67241 3.98746 6.59215C3.99017 6.5119 4.00896 6.43301 4.04272 6.36015C4.07648 6.28729 4.12452 6.22196 4.184 6.16801L5.9104 4.60001H0.6C0.44087 4.60001 0.288258 4.53679 0.175736 4.42427C0.063214 4.31175 0 4.15914 0 4.00001Z"  fill="current" stroke="current"/>
</svg>
