<svg width="17" height="16" viewBox="0 0 17 16" fill="none" xmlns="http://www.w3.org/2000/svg">
<path fill-rule="evenodd" clip-rule="evenodd" d="M8.06685 1.05577C8.15029 1.01396 8.24233 0.992188 8.33565 0.992188C8.42898 0.992188 8.52102 1.01396 8.60445 1.05577C10.9565 2.23431 13.1584 3.69115 15.1629 5.39497C15.2443 5.46411 15.3057 5.55374 15.3409 5.65458C15.3761 5.75543 15.3838 5.86384 15.363 5.96862C15.3423 6.0734 15.294 6.17076 15.2231 6.25063C15.1522 6.3305 15.0612 6.38999 14.9597 6.42297C12.7309 7.14578 10.6144 8.17713 8.67165 9.48697C8.57243 9.55403 8.45541 9.58987 8.33565 9.58987C8.21589 9.58987 8.09887 9.55403 7.99965 9.48697C7.45852 9.12236 6.90344 8.7789 6.33565 8.45737V7.51577C6.33565 7.32057 6.42845 7.14537 6.57725 7.04217C7.42828 6.45224 8.31093 5.9093 9.22125 5.41577C9.35885 5.33877 9.4606 5.21071 9.50451 5.05927C9.54842 4.90784 9.53096 4.74521 9.4559 4.60655C9.38084 4.46789 9.25422 4.36435 9.10342 4.31831C8.95261 4.27228 8.78975 4.28746 8.65005 4.36057C7.70087 4.8752 6.78057 5.44138 5.89325 6.05657C5.65863 6.22045 5.46718 6.43871 5.33525 6.69268C5.20332 6.94664 5.13484 7.22878 5.13565 7.51497V7.81897C4.03031 7.26959 2.88586 6.80272 1.71165 6.42217C1.61006 6.38919 1.51911 6.3297 1.4482 6.24983C1.37728 6.16996 1.32898 6.0726 1.30826 5.96782C1.28755 5.86304 1.29519 5.75463 1.33038 5.65378C1.36557 5.55294 1.42704 5.46331 1.50845 5.39417C3.51293 3.69035 5.71484 2.23351 8.06685 1.05497V1.05577ZM5.13565 9.16777C4.49537 8.82934 3.84003 8.52022 3.17165 8.24137C3.03592 9.06748 2.93184 9.89849 2.85965 10.7326C2.84903 10.8536 2.87539 10.975 2.93524 11.0807C2.99509 11.1864 3.08562 11.2714 3.19485 11.3246C3.61725 11.5294 4.03165 11.7486 4.43805 11.9806C4.27005 12.2398 4.07405 12.4846 3.84685 12.7118C3.7879 12.7667 3.74062 12.8329 3.70783 12.9065C3.67503 12.9801 3.6574 13.0596 3.65598 13.1401C3.65456 13.2207 3.66938 13.3007 3.69955 13.3754C3.72973 13.4502 3.77465 13.518 3.83162 13.575C3.8886 13.632 3.95646 13.6769 4.03117 13.7071C4.10589 13.7372 4.18591 13.7521 4.26647 13.7506C4.34703 13.7492 4.42648 13.7316 4.50008 13.6988C4.57368 13.666 4.63992 13.6187 4.69485 13.5598C4.99085 13.2646 5.24685 12.9438 5.46285 12.6054C6.33285 13.1703 7.16039 13.7981 7.93885 14.4838C8.04845 14.5804 8.18954 14.6337 8.33565 14.6337C8.48176 14.6337 8.62286 14.5804 8.73245 14.4838C10.1646 13.222 11.7603 12.1591 13.4765 11.3238C13.5857 11.2708 13.6763 11.1859 13.7363 11.0804C13.7963 10.9748 13.8228 10.8535 13.8125 10.7326C13.7402 9.89849 13.6362 9.06749 13.5005 8.24137C12.0436 8.84934 10.6504 9.59993 9.34125 10.4822C9.04409 10.6823 8.69395 10.7893 8.33565 10.7893C7.97736 10.7893 7.62722 10.6823 7.33005 10.4822C7.00205 10.2622 6.66925 10.0494 6.33005 9.84457C6.28828 10.8247 5.98919 11.7766 5.46285 12.6046C5.12721 12.3869 4.78547 12.1789 4.43805 11.9806C4.89453 11.2708 5.13673 10.4445 5.13565 9.60057V9.16857V9.16777Z" fill="#1D4ED8"/>
</svg>
