<svg width="20" height="20" viewBox="0 0 20 20" fill="none" xmlns="http://www.w3.org/2000/svg">
<circle cx="10" cy="10" r="9.5" fill="url(#paint0_linear_1565_16728)" stroke="#E2E8F0"/>
<path fill-rule="evenodd" clip-rule="evenodd" d="M6.5 8C6.5 7.60218 6.65804 7.22064 6.93934 6.93934C7.22064 6.65804 7.60218 6.5 8 6.5H13C13.0929 6.5 13.1839 6.52586 13.2629 6.57467C13.3419 6.62349 13.4057 6.69334 13.4472 6.77639C13.4887 6.85945 13.5063 6.95242 13.498 7.0449C13.4896 7.13738 13.4557 7.22572 13.4 7.3L12.125 9L13.4 10.7C13.4557 10.7743 13.4896 10.8626 13.498 10.9551C13.5063 11.0476 13.4887 11.1406 13.4472 11.2236C13.4057 11.3067 13.3419 11.3765 13.2629 11.4253C13.1839 11.4741 13.0929 11.5 13 11.5H8C7.86739 11.5 7.74021 11.5527 7.64645 11.6464C7.55268 11.7402 7.5 11.8674 7.5 12V13.5C7.5 13.6326 7.44732 13.7598 7.35355 13.8536C7.25979 13.9473 7.13261 14 7 14C6.86739 14 6.74021 13.9473 6.64645 13.8536C6.55268 13.7598 6.5 13.6326 6.5 13.5V8Z" fill="white"/>
<defs>
<linearGradient id="paint0_linear_1565_16728" x1="-1.10205" y1="9.9999" x2="17.8684" y2="3.64089" gradientUnits="userSpaceOnUse">
<stop stop-color="#427DFF"/>
<stop offset="1" stop-color="#44D5BB"/>
</linearGradient>
</defs>
</svg>
