<svg width="72" height="72" viewBox="0 0 72 72" fill="none" xmlns="http://www.w3.org/2000/svg">
<g clip-path="url(#clip0_331_1255)">
<rect width="72" height="72" rx="4" fill="#E2E8F0"/>
<path d="M46.5 30C46.5 32.7848 45.3938 35.4555 43.4246 37.4246C41.4555 39.3938 38.7848 40.5 36 40.5C33.2152 40.5 30.5445 39.3938 28.5754 37.4246C26.6062 35.4555 25.5 32.7848 25.5 30C25.5 27.2152 26.6062 24.5445 28.5754 22.5754C30.5445 20.6062 33.2152 19.5 36 19.5C38.7848 19.5 41.4555 20.6062 43.4246 22.5754C45.3938 24.5445 46.5 27.2152 46.5 30ZM64 37C64 38.8565 63.2625 40.637 61.9497 41.9497C60.637 43.2625 58.8565 44 57 44C55.1435 44 53.363 43.2625 52.0503 41.9497C50.7375 40.637 50 38.8565 50 37C50 35.1435 50.7375 33.363 52.0503 32.0503C53.363 30.7375 55.1435 30 57 30C58.8565 30 60.637 30.7375 61.9497 32.0503C63.2625 33.363 64 35.1435 64 37ZM50 61.5C50 57.787 48.525 54.226 45.8995 51.6005C43.274 48.975 39.713 47.5 36 47.5C32.287 47.5 28.726 48.975 26.1005 51.6005C23.475 54.226 22 57.787 22 61.5V72H50V61.5ZM22 37C22 38.8565 21.2625 40.637 19.9497 41.9497C18.637 43.2625 16.8565 44 15 44C13.1435 44 11.363 43.2625 10.0503 41.9497C8.7375 40.637 8 38.8565 8 37C8 35.1435 8.7375 33.363 10.0503 32.0503C11.363 30.7375 13.1435 30 15 30C16.8565 30 18.637 30.7375 19.9497 32.0503C21.2625 33.363 22 35.1435 22 37ZM57 72V61.5C57.0051 57.9415 56.1015 54.4406 54.375 51.329C55.9267 50.9319 57.5486 50.8945 59.117 51.2195C60.6854 51.5446 62.1588 52.2236 63.4249 53.2047C64.691 54.1858 65.7162 55.4431 66.4224 56.8807C67.1287 58.3184 67.4972 59.8983 67.5 61.5V72H57ZM17.625 51.329C15.8986 54.4407 14.9951 57.9415 15 61.5V72H4.5V61.5C4.49933 59.8971 4.86562 58.3154 5.57081 56.876C6.27601 55.4366 7.30138 54.1778 8.56834 53.196C9.83531 52.2141 11.3102 51.5354 12.8801 51.2118C14.4499 50.8882 16.073 50.9283 17.625 51.329Z" fill="white"/>
</g>
<defs>
<clipPath id="clip0_331_1255">
<rect width="72" height="72" rx="4" fill="white"/>
</clipPath>
</defs>
</svg>
