<svg width="12" height="11" viewBox="0 0 12 11" fill="none" xmlns="http://www.w3.org/2000/svg">
<path fill-rule="evenodd" clip-rule="evenodd" d="M11.3555 0.869595C11.4183 0.917296 11.4711 0.976921 11.5109 1.04506C11.5506 1.11319 11.5766 1.1885 11.5872 1.26667C11.5978 1.34484 11.5929 1.42434 11.5728 1.50062C11.5527 1.57689 11.5177 1.64845 11.4699 1.71119L5.06986 10.1112C5.01795 10.1792 4.95208 10.2354 4.87667 10.2759C4.80127 10.3164 4.71808 10.3402 4.63268 10.3459C4.54729 10.3516 4.46167 10.339 4.38156 10.3088C4.30146 10.2787 4.22873 10.2318 4.16826 10.1712L0.56826 6.57119C0.462276 6.45745 0.404577 6.30702 0.40732 6.15158C0.410063 5.99614 0.473032 5.84783 0.582963 5.7379C0.692893 5.62797 0.841201 5.565 0.996642 5.56225C1.15208 5.55951 1.30252 5.61721 1.41626 5.72319L4.53146 8.83759L10.5155 0.983995C10.6118 0.857556 10.7543 0.774497 10.9118 0.753049C11.0693 0.731601 11.2288 0.773516 11.3555 0.869595Z" fill="white"/>
</svg>
