<svg width="20" height="20" viewBox="0 0 20 20" fill="none" xmlns="http://www.w3.org/2000/svg">
  <path d="M16.3193 7.07864C16.329 7.21864 16.329 7.35864 16.329 7.49993C16.329 11.8051 13.0516 16.7703 7.05865 16.7703V16.7677C5.28832 16.7703 3.55478 16.2632 2.06445 15.307C2.32187 15.338 2.58058 15.3535 2.83994 15.3541C4.30703 15.3554 5.7322 14.8632 6.88639 13.9567C5.4922 13.9303 4.26961 13.0212 3.84252 11.6941C4.3309 11.7883 4.83413 11.769 5.31349 11.638C3.79349 11.3309 2.69994 9.99541 2.69994 8.44444C2.69994 8.43025 2.69994 8.4167 2.69994 8.40315C3.15284 8.65541 3.65994 8.79541 4.17865 8.8109C2.74703 7.85412 2.30574 5.94961 3.17026 4.46057C4.82445 6.49606 7.2651 7.73348 9.8851 7.86444C9.62252 6.73283 9.98123 5.54703 10.8277 4.75154C12.1399 3.51799 14.2038 3.58122 15.4374 4.89283C16.167 4.74896 16.8664 4.48122 17.5064 4.10186C17.2632 4.85606 16.7541 5.4967 16.0741 5.9038C16.7199 5.82767 17.3509 5.65477 17.9451 5.3909C17.5077 6.04638 16.9567 6.61735 16.3193 7.07864Z" fill="currentColor"/>
</svg>
