<svg width="15" height="13" viewBox="0 0 15 13" fill="none" xmlns="http://www.w3.org/2000/svg">
<path d="M13.0668 3.59268C13.0753 3.71617 13.0753 3.83954 13.0753 3.96412C13.0753 7.75944 10.1859 12.1366 4.90278 12.1366V12.1344C3.34201 12.1366 1.81359 11.6896 0.5 10.8467C0.726953 10.874 0.955 10.8877 1.18359 10.8882C2.47718 10.8893 3.73357 10.4554 4.75086 9.65633C4.15148 9.645 3.57062 9.44666 3.0895 9.08902C2.60838 8.73138 2.25104 8.23234 2.06745 7.66165C2.49806 7.74478 2.94169 7.72761 3.36431 7.61211C2.02425 7.3414 1.06022 6.16409 1.06022 4.79679V4.76037C1.45969 4.98292 1.90679 5.10622 2.36386 5.11989C1.10156 4.27639 0.712734 2.59737 1.47486 1.28476C2.19596 2.17209 3.09564 2.8978 4.11548 3.41476C5.13532 3.93173 6.2525 4.22839 7.39445 4.28547C7.28063 3.79533 7.29747 3.2839 7.44331 2.80232C7.58915 2.32074 7.85886 1.88589 8.22548 1.54125C9.38234 0.453732 11.2018 0.509513 12.2892 1.66583C12.9325 1.53881 13.5493 1.30297 14.1132 0.968451C13.8988 1.63353 13.4501 2.19808 12.8506 2.55712C13.42 2.48999 13.976 2.33753 14.5 2.10486C14.1145 2.6821 13.6292 3.18593 13.0668 3.59268Z" fill="#1D9BF0"/>
</svg>
