<svg width="30" height="30" viewBox="0 0 22 22" fill="none" xmlns="http://www.w3.org/2000/svg">
<g filter="url(#filter0_d_1343_14182)">
<circle cx="11" cy="11" r="7" fill="#5D00A7"/>
<path d="M11.96 15.376C12.4069 14.5867 12.7245 13.7308 12.9009 12.8411H15.151C14.874 13.4971 14.4367 14.073 13.8791 14.516C13.3216 14.9589 12.6616 15.2546 11.96 15.376Z" fill="white"/>
<path d="M10.796 15.013C10.8387 15.0923 10.9021 15.1587 10.9795 15.2049C11.0568 15.2512 11.1453 15.2756 11.2354 15.2756C11.3256 15.2756 11.414 15.2512 11.4914 15.2049C11.5688 15.1587 11.6322 15.0923 11.6749 15.013C12.0418 14.3307 12.3087 13.5993 12.4672 12.8411H10.0037C10.1622 13.5993 10.4291 14.3307 10.796 15.013Z" fill="white"/>
<path d="M10.5109 15.376C9.8092 15.2546 9.14928 14.9589 8.5917 14.516C8.03413 14.073 7.59678 13.4971 7.31982 12.8411H9.56988C9.74628 13.7308 10.064 14.5867 10.5109 15.376Z" fill="white"/>
<path d="M12.9741 9.95996C13.093 10.7744 13.093 11.6017 12.9741 12.4161H15.3044C15.5461 11.6152 15.5461 10.7608 15.3044 9.95996H12.9741Z" fill="white"/>
<path d="M12.5445 12.4161C12.6697 11.6022 12.6697 10.7739 12.5445 9.95996H9.92669C9.80146 10.7739 9.80146 11.6022 9.92669 12.4161H12.5445Z" fill="white"/>
<path d="M9.4967 12.4161C9.37779 11.6017 9.37779 10.7744 9.4967 9.95996H7.16639C6.92468 10.7608 6.92468 11.6152 7.16639 12.4161H9.4967Z" fill="white"/>
<path d="M11.96 7C12.4069 7.78937 12.7245 8.64518 12.9009 9.53496H15.151C14.874 8.87894 14.4367 8.303 13.8791 7.86007C13.3216 7.41714 12.6616 7.1214 11.96 7Z" fill="white"/>
<path d="M10.796 7.36295C10.4291 8.04517 10.1622 8.77664 10.0037 9.53487H12.4672C12.3087 8.77665 12.0418 8.04517 11.6749 7.36295C11.6322 7.28357 11.5688 7.21724 11.4914 7.171C11.414 7.12476 11.3256 7.10034 11.2354 7.10034C11.1453 7.10034 11.0568 7.12476 10.9795 7.171C10.9021 7.21724 10.8387 7.28357 10.796 7.36295Z" fill="white"/>
<path d="M7.31982 9.53496H9.56988C9.74628 8.64518 10.064 7.78937 10.5109 7C9.8092 7.1214 9.14928 7.41714 8.59171 7.86007C8.03413 8.303 7.59679 8.87894 7.31982 9.53496Z" fill="white"/>
</g>
<defs>
<filter id="filter0_d_1343_14182" x="0" y="0" width="22" height="22" filterUnits="userSpaceOnUse" color-interpolation-filters="sRGB">
<feFlood flood-opacity="0" result="BackgroundImageFix"/>
<feColorMatrix in="SourceAlpha" type="matrix" values="0 0 0 0 0 0 0 0 0 0 0 0 0 0 0 0 0 0 127 0" result="hardAlpha"/>
<feOffset/>
<feGaussianBlur stdDeviation="2"/>
<feComposite in2="hardAlpha" operator="out"/>
<feColorMatrix type="matrix" values="0 0 0 0 0 0 0 0 0 0 0 0 0 0 0 0 0 0 0.17 0"/>
<feBlend mode="normal" in2="BackgroundImageFix" result="effect1_dropShadow_1343_14182"/>
<feBlend mode="normal" in="SourceGraphic" in2="effect1_dropShadow_1343_14182" result="shape"/>
</filter>
</defs>
</svg>
